<?xml version="1.0" encoding="utf-8"?>
<!-- Generator: Adobe Illustrator 15.0.2, SVG Export Plug-In . SVG Version: 6.00 Build 0)  -->
<!DOCTYPE svg PUBLIC "-//W3C//DTD SVG 1.1//EN" "http://www.w3.org/Graphics/SVG/1.1/DTD/svg11.dtd">
<svg version="1.1" id="Logo" xmlns="http://www.w3.org/2000/svg" xmlns:xlink="http://www.w3.org/1999/xlink" x="0px" y="0px"
	 width="200px" height="185px" viewBox="0 0 200 185" enable-background="new 0 0 200 185" xml:space="preserve">
<path fill="#8D191B" d="M185.035,85.67H200l-23.567-36l22.171-33.881h-14.946l-14.72,22.436l-14.687-22.436h-14.964l22.163,33.853
	l-13.944,21.254L120.239,0h-26.98L76.715,42.898c-0.265-0.509-0.536-1.014-0.818-1.514c-4.794-8.503-10.894-14.644-18.298-18.42
	c-7.404-3.777-18.725-5.665-33.961-5.665H0v104.823h23.995c9.556,0,17.103-0.426,22.661-1.273l-7.294,18.915H67.01l11.37-28.788
	h57.03l10.935,28.788h27.649l-20.921-54.396l15.879-24.266L185.035,85.67z M48.919,99.529c-4.11,2.094-10.725,3.139-19.846,3.139
	H19.81V36.539h6.77c12.399,0,21.4,2.759,27.007,8.275c6.224,6.135,9.335,14.768,9.335,25.896c0,4.192-0.453,7.987-1.332,11.411
	l-2.759,7.154C56.242,94.056,52.94,97.481,48.919,99.529z M88.164,85.037l18.751-47.981l18.64,47.981H88.164z"/>
<path fill="#8D191B" d="M0,183.827V164.26h4.057c2.927,0,5.05,0.236,6.372,0.705c1.897,0.665,3.38,1.819,4.449,3.458
	c1.069,1.642,1.603,3.597,1.603,5.866c0,1.961-0.424,3.685-1.271,5.175c-0.846,1.489-1.946,2.59-3.298,3.298
	c-1.353,0.71-3.248,1.064-5.687,1.064H0z M1.875,181.979h2.262c2.704,0,4.58-0.167,5.626-0.505c1.472-0.478,2.629-1.34,3.472-2.585
	c0.842-1.245,1.263-2.767,1.263-4.564c0-1.888-0.457-3.5-1.37-4.838c-0.914-1.338-2.187-2.256-3.818-2.751
	c-1.224-0.374-3.241-0.559-6.052-0.559H1.875V181.979z"/>
<path fill="#8D191B" d="M19.993,164.26h1.956v19.567h-1.956V164.26z"/>
<path fill="#8D191B" d="M45.306,167.545l-1.516,1.437c-1.091-1.072-2.286-1.886-3.585-2.44c-1.298-0.555-2.564-0.832-3.797-0.832
	c-1.534,0-2.995,0.377-4.383,1.13c-1.388,0.755-2.463,1.777-3.226,3.067c-0.763,1.291-1.144,2.653-1.144,4.09
	c0,1.473,0.395,2.871,1.184,4.197c0.79,1.326,1.879,2.369,3.272,3.126c1.392,0.758,2.917,1.137,4.576,1.137
	c2.013,0,3.715-0.567,5.107-1.703c1.392-1.134,2.217-2.607,2.475-4.417H38.03v-1.888h8.433c-0.018,3.024-0.916,5.424-2.693,7.204
	c-1.778,1.778-4.157,2.666-7.137,2.666c-3.618,0-6.482-1.232-8.593-3.698c-1.623-1.896-2.434-4.091-2.434-6.584
	c0-1.853,0.466-3.578,1.396-5.175c0.931-1.596,2.208-2.844,3.832-3.744c1.623-0.901,3.458-1.351,5.506-1.351
	c1.658,0,3.219,0.3,4.683,0.899C42.486,165.265,43.914,166.225,45.306,167.545z"/>
<path fill="#8D191B" d="M49.909,164.26h1.955v19.567h-1.955V164.26z"/>
<path fill="#8D191B" d="M54.405,166.176v-1.916h10.721v1.916h-4.363v17.651h-1.996v-17.651H54.405z"/>
<path fill="#8D191B" d="M73.732,164.26l9.125,19.567h-2.113l-3.077-6.438h-8.43l-3.048,6.438h-2.182l9.245-19.567H73.732z
	 M73.485,168.418l-3.353,7.082h6.69L73.485,168.418z"/>
<path fill="#8D191B" d="M85.89,164.26h1.956v17.678h7.528v1.89H85.89V164.26z"/>
<path fill="#8D191B" d="M106.016,183.827V164.26h4.057c2.926,0,5.049,0.236,6.371,0.705c1.897,0.665,3.38,1.819,4.45,3.458
	c1.068,1.642,1.603,3.597,1.603,5.866c0,1.961-0.423,3.685-1.27,5.175c-0.847,1.489-1.947,2.59-3.299,3.298
	c-1.352,0.71-3.248,1.064-5.686,1.064H106.016z M107.891,181.979h2.262c2.704,0,4.579-0.167,5.626-0.505
	c1.471-0.478,2.629-1.34,3.472-2.585c0.841-1.245,1.264-2.767,1.264-4.564c0-1.888-0.457-3.5-1.371-4.838s-2.187-2.256-3.818-2.751
	c-1.224-0.374-3.242-0.559-6.052-0.559h-1.383V181.979z"/>
<path fill="#8D191B" d="M126.301,164.26h11.213v1.916h-9.259v6.132h9.178v1.915h-9.178v7.688h9.178v1.916h-11.133V164.26z"/>
<path fill="#8D191B" d="M138.871,180.182l1.663-0.998c1.17,2.155,2.522,3.232,4.057,3.232c0.656,0,1.272-0.152,1.849-0.458
	c0.576-0.306,1.015-0.716,1.317-1.232c0.302-0.513,0.453-1.058,0.453-1.636c0-0.655-0.222-1.297-0.665-1.928
	c-0.613-0.869-1.729-1.916-3.353-3.139c-1.632-1.231-2.647-2.123-3.046-2.674c-0.691-0.92-1.038-1.918-1.038-2.993
	c0-0.852,0.204-1.626,0.612-2.327c0.408-0.7,0.983-1.252,1.723-1.655c0.739-0.404,1.545-0.606,2.414-0.606
	c0.922,0,1.786,0.229,2.588,0.686c0.802,0.457,1.651,1.296,2.547,2.521l-1.596,1.209c-0.737-0.975-1.363-1.617-1.883-1.928
	c-0.519-0.31-1.083-0.466-1.695-0.466c-0.79,0-1.435,0.24-1.936,0.718c-0.5,0.479-0.752,1.07-0.752,1.77
	c0,0.426,0.089,0.839,0.266,1.237c0.176,0.398,0.501,0.834,0.971,1.304c0.257,0.249,1.099,0.899,2.528,1.955
	c1.692,1.25,2.854,2.364,3.484,3.339c0.629,0.977,0.945,1.955,0.945,2.939c0,1.419-0.539,2.653-1.617,3.698
	c-1.077,1.047-2.387,1.569-3.93,1.569c-1.189,0-2.266-0.317-3.233-0.951C140.578,182.734,139.686,181.672,138.871,180.182z"/>
<path fill="#8D191B" d="M154.181,164.26h1.956v19.567h-1.956V164.26z"/>
<path fill="#8D191B" d="M179.495,167.545l-1.516,1.437c-1.091-1.072-2.286-1.886-3.586-2.44c-1.298-0.555-2.564-0.832-3.798-0.832
	c-1.534,0-2.994,0.377-4.382,1.13c-1.388,0.755-2.464,1.777-3.226,3.067c-0.762,1.291-1.144,2.653-1.144,4.09
	c0,1.473,0.395,2.871,1.184,4.197c0.789,1.326,1.879,2.369,3.272,3.126c1.392,0.758,2.917,1.137,4.576,1.137
	c2.012,0,3.715-0.567,5.108-1.703c1.392-1.134,2.217-2.607,2.474-4.417h-6.238v-1.888h8.433c-0.018,3.024-0.916,5.424-2.693,7.204
	c-1.778,1.778-4.157,2.666-7.137,2.666c-3.618,0-6.483-1.232-8.593-3.698c-1.623-1.896-2.434-4.091-2.434-6.584
	c0-1.853,0.465-3.578,1.396-5.175c0.931-1.596,2.208-2.844,3.831-3.744c1.624-0.901,3.459-1.351,5.508-1.351
	c1.658,0,3.219,0.3,4.682,0.899C176.674,165.265,178.102,166.225,179.495,167.545z"/>
<path fill="#8D191B" d="M184.39,183.827V164.26h0.425l13.022,15v-15h1.929v19.567h-0.439l-12.916-14.816v14.816H184.39z"/>
</svg>
