<?xml version="1.0" encoding="utf-8"?>
<!-- Generator: Adobe Illustrator 15.0.2, SVG Export Plug-In . SVG Version: 6.00 Build 0)  -->
<!DOCTYPE svg PUBLIC "-//W3C//DTD SVG 1.1//EN" "http://www.w3.org/Graphics/SVG/1.1/DTD/svg11.dtd">
<svg version="1.1" id="Layer_1" xmlns="http://www.w3.org/2000/svg" xmlns:xlink="http://www.w3.org/1999/xlink" x="0px" y="0px"
	 width="250px" height="60px" viewBox="0 0 250 60" enable-background="new 0 0 250 60" xml:space="preserve">
<g id="Chignik">
	<g>
		<path fill="#FFFFFF" d="M61.674,41.884h1.414l1.242,4.063l1.347-4.081h1.132l1.346,4.081l1.242-4.063h1.381l-2.049,6.044h-1.15
			l-1.352-3.926l-1.355,3.926h-1.149L61.674,41.884z"/>
		<path fill="#FFFFFF" d="M71.816,41.884h1.321v6.001h-1.321V41.884z"/>
		<path fill="#FFFFFF" d="M74.638,41.884h1.321v4.801h2.99v1.2h-4.312V41.884z"/>
		<path fill="#FFFFFF" d="M79.945,41.884h2.342c1.884,0,3.188,1.294,3.188,2.983v0.017c0,1.689-1.304,3-3.188,3h-2.342V41.884z
			 M82.287,46.693c1.078,0,1.808-0.729,1.808-1.792v-0.017c0-1.063-0.729-1.809-1.808-1.809h-1.021v3.618H82.287z"/>
		<path fill="#FFFFFF" d="M91.28,41.841h1.216l2.572,6.044h-1.379l-0.549-1.347h-2.538l-0.548,1.347h-1.347L91.28,41.841z
			 M92.669,45.373l-0.797-1.946l-0.797,1.946H92.669z"/>
		<path fill="#FFFFFF" d="M95.996,41.884h1.219l2.812,3.694v-3.694h1.304v6.001h-1.125l-2.904-3.814v3.814h-1.305V41.884z"/>
		<path fill="#FFFFFF" d="M102.771,41.884h2.34c1.886,0,3.188,1.294,3.188,2.983v0.017c0,1.689-1.303,3-3.188,3h-2.34V41.884z
			 M105.111,46.693c1.08,0,1.809-0.729,1.809-1.792v-0.017c0-1.063-0.729-1.809-1.809-1.809h-1.021v3.618H105.111z"/>
		<path fill="#FFFFFF" d="M112.049,41.884h4.568v1.2h-3.249v1.278h2.864v1.2h-2.864v2.323h-1.319V41.884z"/>
		<path fill="#FFFFFF" d="M117.673,41.884h2.743c0.764,0,1.354,0.214,1.75,0.609c0.334,0.334,0.514,0.806,0.514,1.372v0.017
			c0,0.968-0.523,1.578-1.287,1.861l1.467,2.143h-1.543l-1.286-1.92h-0.017h-1.021v1.92h-1.32V41.884z M120.33,44.798
			c0.645,0,1.012-0.343,1.012-0.848v-0.017c0-0.566-0.394-0.857-1.037-0.857h-1.312v1.723H120.33z"/>
		<path fill="#FFFFFF" d="M123.873,41.884h4.525v1.174h-3.215v1.217h2.83v1.174h-2.83v1.261h3.258v1.175h-4.568V41.884z"/>
		<path fill="#FFFFFF" d="M129.206,47.01l0.78-0.934c0.54,0.445,1.105,0.729,1.791,0.729c0.541,0,0.867-0.215,0.867-0.566v-0.017
			c0-0.335-0.207-0.507-1.209-0.763c-1.209-0.309-1.989-0.643-1.989-1.835v-0.018c0-1.089,0.874-1.809,2.1-1.809
			c0.876,0,1.62,0.275,2.229,0.763l-0.685,0.994c-0.531-0.368-1.054-0.591-1.562-0.591c-0.505,0-0.771,0.231-0.771,0.522v0.017
			c0,0.394,0.258,0.523,1.295,0.789c1.216,0.316,1.902,0.754,1.902,1.8v0.017c0,1.191-0.908,1.861-2.203,1.861
			C130.844,47.971,129.927,47.653,129.206,47.01z"/>
		<path fill="#FFFFFF" d="M135.105,41.884h1.32v2.375h2.434v-2.375h1.321v6.001h-1.321v-2.409h-2.434v2.409h-1.32V41.884z"/>
		<path fill="#FFFFFF" d="M143.783,47.01l0.779-0.934c0.541,0.445,1.105,0.729,1.792,0.729c0.54,0,0.866-0.215,0.866-0.566v-0.017
			c0-0.335-0.206-0.507-1.209-0.763c-1.209-0.309-1.988-0.643-1.988-1.835v-0.018c0-1.089,0.875-1.809,2.1-1.809
			c0.874,0,1.62,0.275,2.229,0.763l-0.686,0.994c-0.531-0.368-1.055-0.591-1.56-0.591c-0.506,0-0.772,0.231-0.772,0.522v0.017
			c0,0.394,0.258,0.523,1.295,0.789c1.218,0.316,1.903,0.754,1.903,1.8v0.017c0,1.191-0.908,1.861-2.203,1.861
			C145.42,47.971,144.504,47.653,143.783,47.01z"/>
		<path fill="#FFFFFF" d="M149.682,41.884h4.527v1.174h-3.216v1.217h2.829v1.174h-2.829v1.261h3.259v1.175h-4.57V41.884z"/>
		<path fill="#FFFFFF" d="M157.484,41.841h1.217l2.572,6.044h-1.381l-0.548-1.347h-2.537l-0.55,1.347h-1.345L157.484,41.841z
			 M158.873,45.373l-0.797-1.946l-0.797,1.946H158.873z"/>
		<path fill="#FFFFFF" d="M162.201,41.884h4.568v1.2h-3.249v1.278h2.864v1.2h-2.864v2.323h-1.319V41.884z"/>
		<path fill="#FFFFFF" d="M167.561,44.901v-0.017c0-1.706,1.346-3.103,3.197-3.103s3.18,1.38,3.18,3.086v0.017
			c0,1.706-1.346,3.103-3.196,3.103C168.889,47.987,167.561,46.607,167.561,44.901z M172.559,44.901v-0.017
			c0-1.029-0.755-1.886-1.817-1.886c-1.063,0-1.802,0.84-1.802,1.869v0.017c0,1.029,0.755,1.885,1.818,1.885
			C171.82,46.77,172.559,45.93,172.559,44.901z"/>
		<path fill="#FFFFFF" d="M174.85,44.901v-0.017c0-1.706,1.346-3.103,3.195-3.103c1.854,0,3.181,1.38,3.181,3.086v0.017
			c0,1.706-1.345,3.103-3.196,3.103S174.85,46.607,174.85,44.901z M179.847,44.901v-0.017c0-1.029-0.755-1.886-1.817-1.886
			s-1.801,0.84-1.801,1.869v0.017c0,1.029,0.754,1.885,1.816,1.885C179.109,46.77,179.847,45.93,179.847,44.901z"/>
		<path fill="#FFFFFF" d="M182.402,41.884h2.341c1.886,0,3.188,1.294,3.188,2.983v0.017c0,1.689-1.303,3-3.188,3h-2.341V41.884z
			 M184.743,46.693c1.079,0,1.81-0.729,1.81-1.792v-0.017c0-1.063-0.73-1.809-1.81-1.809h-1.021v3.618H184.743z"/>
	</g>
	<g>
		<path fill="#FFFFFF" d="M57.85,23.911V23.85c0-6.066,4.541-11.036,11.005-11.036c3.933,0,6.31,1.372,8.353,3.323l-2.408,2.774
			c-1.707-1.585-3.536-2.652-5.975-2.652c-4.085,0-7.043,3.353-7.043,7.529v0.061c0,4.176,2.958,7.591,7.043,7.591
			c2.621,0,4.298-1.067,6.127-2.775l2.408,2.439c-2.225,2.317-4.664,3.78-8.657,3.78C62.482,34.885,57.85,30.038,57.85,23.911z"/>
		<path fill="#FFFFFF" d="M81.294,13.179h3.749v8.872h10.183v-8.872h3.749v21.34h-3.749v-8.993H85.043v8.993h-3.749V13.179z"/>
		<path fill="#FFFFFF" d="M104.677,13.179h3.751v21.34h-3.751V13.179z"/>
		<path fill="#FFFFFF" d="M113.184,23.911V23.85c0-5.975,4.572-11.036,11.004-11.036c3.721,0,6.008,1.037,8.202,2.896l-2.379,2.835
			c-1.646-1.402-3.262-2.286-5.976-2.286c-3.932,0-6.919,3.444-6.919,7.529v0.061c0,4.39,2.896,7.621,7.255,7.621
			c2.012,0,3.842-0.64,5.152-1.615v-3.994h-5.457V22.6h9.085v8.963c-2.104,1.798-5.122,3.322-8.901,3.322
			C117.573,34.885,113.184,30.129,113.184,23.911z"/>
		<path fill="#FFFFFF" d="M138.031,13.179h3.475l11.433,14.756V13.179h3.688v21.34h-3.141l-11.768-15.182V34.52h-3.688V13.179z"/>
		<path fill="#FFFFFF" d="M162.328,13.179h3.75v21.34h-3.75V13.179z"/>
		<path fill="#FFFFFF" d="M171.779,13.179h3.75v10.731l10.151-10.731h4.604l-8.87,9.177l9.267,12.164h-4.542l-7.287-9.603
			l-3.322,3.415v6.188h-3.75V13.179z"/>
	</g>
	<g>
		<path fill="#FFFFFF" d="M52.079,44.771c0-1.373,0.138-3.636,0.138-5.076c0-5.351-2.539-7.889-7.134-9.398
			c4.527-1.44,7.134-4.047,7.134-9.397c0-1.44-0.138-3.705-0.138-5.077c0-5.007,1.099-7.134,9.33-9.397l63.507-2.713L59.968,0.936
			C47.484,3.2,44.397,7.59,44.397,14.656c0,0.817,0.085,2.707,0.12,4.038c-2.645,0.465-8.945,2.246-12.053,0.659
			C11.951,8.561,11.492-1.542,1.389,0.447c0,0-1.146,0,0.229,0.918c1.379,0.919,1.608,2.832,1.608,3.062
			c0,0.229,1.915,1.072,2.144,1.3c0.23,0.23-1.913-0.075-2.144-0.152c-0.229-0.076,0,1.838,0.919,2.603
			c0.918,0.765-1.531,2.832-0.535,5.435c0.995,2.601-1.76,0,0.535,10.33c0.229,0.769-0.613,1.305,1.07,2.988
			c0.23,0.919-0.074,1.531,1.148,1.837c-0.535,0.459-1.377,1.147-0.229,1.453c1.147,0.306,4.363,0.383,4.363,0.69
			c0,0.304-4.211-0.077-4.518,0.304c-0.305,0.383-1.453,2.067-1.682,2.144c-0.232,0.079-0.538,2.681-0.768,3.521
			c-0.229,0.843,0.613,3.291,0,3.828c-0.611,0.535,0.535,3.367,0.384,3.902c-0.154,0.537-0.843,0.231-0.612,3.062
			c0.153,1.149-1.149,1.605-1.453,2.832c-0.232,0.535,2.141-0.766,2.755-0.689c0.61,0.076-2.603,1.379-2.603,1.379
			s-0.842,3.824-1.683,4.286c-0.844,0.459,0,0.764,2.372,0.229c2.371-0.537,11.48-2.451,18.444-10.028
			c6.965-7.576,15.31-9.183,19.748-7.728c1.4,0.423,2.644,0.655,3.487,0.78c0.106,0.684,0.163,1.431,0.163,2.264
			c0,1.167-0.137,3.91-0.137,4.939c0,7.065,3.087,11.456,15.57,13.72l64.948-2.775l-63.507-2.713
			C53.178,51.904,52.079,49.777,52.079,44.771z"/>
		<path fill="#FFFFFF" d="M249.682,55.285c-0.841-0.461-1.683-4.287-1.683-4.287s-3.214-1.301-2.603-1.378
			c0.613-0.077,2.986,1.224,2.755,0.688c-0.304-1.227-1.606-1.683-1.454-2.832c0.23-2.831-0.457-2.525-0.611-3.062
			c-0.153-0.535,0.994-3.368,0.383-3.903c-0.613-0.537,0.229-2.985,0-3.828c-0.229-0.84-0.536-3.442-0.766-3.521
			c-0.229-0.076-1.378-1.761-1.684-2.143s-4.517,0-4.517-0.306c0-0.306,3.216-0.383,4.363-0.689
			c1.147-0.306,0.306-0.994-0.229-1.454c1.224-0.305,0.918-0.917,1.148-1.836c1.684-1.684,0.842-2.219,1.07-2.987
			c2.296-10.331-0.459-7.729,0.536-10.331c0.995-2.603-1.454-4.669-0.536-5.434c0.92-0.765,1.148-2.679,0.92-2.603
			c-0.23,0.076-2.374,0.381-2.144,0.151c0.229-0.228,2.144-1.07,2.144-1.3c0-0.231,0.229-2.144,1.607-3.062
			c1.376-0.918,0.229-0.918,0.229-0.918c-10.104-1.989-10.562,8.114-31.075,18.906c-3.173,1.62-9.677-0.271-12.218-0.687
			c0.039-1.312,0.116-3.044,0.116-3.815c0-7.065-3.087-11.456-15.572-13.72l-64.946,2.775l63.506,2.713
			c8.232,2.264,9.33,4.39,9.33,9.397c0,1.372-0.139,3.636-0.139,5.077c0,5.351,2.608,7.957,7.135,9.397
			c-4.596,1.509-7.135,4.047-7.135,9.398c0,1.44,0.139,3.704,0.139,5.076c0,5.007-1.098,7.134-9.33,9.397l-63.506,2.713
			l64.946,2.775c12.485-2.264,15.572-6.654,15.572-13.72c0-1.029-0.138-3.773-0.138-4.939c0-0.903,0.064-1.709,0.189-2.437
			c0.842-0.12,2.15-0.354,3.631-0.802c4.438-1.455,12.783,0.151,19.748,7.728c6.964,7.576,16.072,9.491,18.444,10.027
			C249.682,56.049,250.525,55.744,249.682,55.285z"/>
	</g>
</g>
</svg>
