<?xml version="1.0" encoding="utf-8"?>
<!-- Generator: Adobe Illustrator 15.0.2, SVG Export Plug-In . SVG Version: 6.00 Build 0)  -->
<!DOCTYPE svg PUBLIC "-//W3C//DTD SVG 1.1//EN" "http://www.w3.org/Graphics/SVG/1.1/DTD/svg11.dtd">
<svg version="1.1" id="CHIGNIK_LOGO" xmlns="http://www.w3.org/2000/svg" xmlns:xlink="http://www.w3.org/1999/xlink" x="0px"
	 y="0px" width="712px" height="168px" viewBox="0 0 712 168" enable-background="new 0 0 712 168" xml:space="preserve">
<g id="certified_sustainable_harvesting" display="none">
	<path display="inline" fill="#031634" d="M229.3,243.832v-0.044c0-3.146,2.508-5.875,5.721-5.875c2.112,0,3.433,0.968,4.489,2.068
		l-0.771,0.792c-0.968-0.99-2.068-1.849-3.74-1.849c-2.552,0-4.533,2.135-4.533,4.818v0.045c0,2.706,2.046,4.862,4.621,4.862
		c1.584,0,2.816-0.814,3.763-1.87l0.748,0.66c-1.144,1.298-2.508,2.222-4.577,2.222C231.786,249.662,229.3,246.979,229.3,243.832z"
		/>
	<path display="inline" fill="#031634" d="M243.184,243.81v-0.044c0-3.257,2.288-5.853,5.325-5.853c3.146,0,5.148,2.552,5.148,5.875
		c0,0.197,0,0.264-0.022,0.439h-9.307c0.198,2.795,2.2,4.423,4.4,4.423c1.738,0,2.927-0.771,3.851-1.761l0.748,0.66
		c-1.144,1.232-2.486,2.112-4.643,2.112C245.736,249.662,243.184,247.309,243.184,243.81z M252.491,243.26
		c-0.154-2.267-1.452-4.356-4.026-4.356c-2.223,0-3.939,1.87-4.137,4.356H252.491z"/>
	<path display="inline" fill="#031634" d="M258.452,238.177h1.078v3.19c0.88-2.002,2.75-3.454,4.973-3.366v1.188h-0.11
		c-2.597,0-4.863,1.958-4.863,5.61v4.599h-1.078V238.177z"/>
	<path display="inline" fill="#031634" d="M269.496,246.516v-7.349h-1.628v-0.99h1.628v-3.587h1.079v3.587h3.938v0.99h-3.938v7.239
		c0,1.606,0.946,2.178,2.244,2.178c0.55,0,1.012-0.109,1.65-0.396v1.012c-0.572,0.265-1.123,0.396-1.827,0.396
		C270.904,249.597,269.496,248.65,269.496,246.516z"/>
	<path display="inline" fill="#031634" d="M279.374,233.776h1.342v1.474h-1.342V233.776z M279.506,238.177h1.078v11.222h-1.078
		V238.177z"/>
	<path display="inline" fill="#031634" d="M287.14,239.167h-1.628v-0.99h1.628v-1.101c0-1.275,0.352-2.288,0.99-2.926
		c0.572-0.572,1.364-0.88,2.354-0.88c0.682,0,1.166,0.088,1.672,0.264v1.012c-0.638-0.197-1.1-0.286-1.672-0.286
		c-1.54,0-2.266,0.925-2.266,2.839v1.078h3.917v0.99h-3.917v10.231h-1.078V239.167z"/>
	<path display="inline" fill="#031634" d="M296.116,233.776h1.342v1.474h-1.342V233.776z M296.248,238.177h1.078v11.222h-1.078
		V238.177z"/>
	<path display="inline" fill="#031634" d="M302.452,243.81v-0.044c0-3.257,2.288-5.853,5.325-5.853c3.146,0,5.148,2.552,5.148,5.875
		c0,0.197,0,0.264-0.022,0.439h-9.307c0.198,2.795,2.2,4.423,4.4,4.423c1.738,0,2.927-0.771,3.851-1.761l0.748,0.66
		c-1.144,1.232-2.486,2.112-4.643,2.112C305.004,249.662,302.452,247.309,302.452,243.81z M311.759,243.26
		c-0.154-2.267-1.452-4.356-4.026-4.356c-2.223,0-3.939,1.87-4.137,4.356H311.759z"/>
	<path display="inline" fill="#031634" d="M316.994,243.832v-0.044c0-3.653,2.75-5.875,5.457-5.875c2.245,0,3.697,1.276,4.621,2.685
		v-7.262h1.078v16.062h-1.078v-2.509c-0.968,1.475-2.398,2.772-4.621,2.772C319.744,249.662,316.994,247.484,316.994,243.832z
		 M327.137,243.81v-0.044c0-2.883-2.245-4.818-4.577-4.818c-2.442,0-4.401,1.782-4.401,4.796v0.045c0,2.948,2.046,4.84,4.401,4.84
		C324.893,248.628,327.137,246.67,327.137,243.81z"/>
	<path display="inline" fill="#031634" d="M341.171,247.99l0.638-0.858c1.232,0.946,2.596,1.475,4.026,1.475
		c1.519,0,2.707-0.836,2.707-2.135v-0.044c0-1.32-1.408-1.804-2.97-2.244c-1.827-0.528-3.851-1.078-3.851-3.08v-0.044
		c0-1.805,1.518-3.103,3.696-3.103c1.342,0,2.86,0.483,3.982,1.232l-0.572,0.901c-1.034-0.682-2.267-1.122-3.455-1.122
		c-1.54,0-2.552,0.836-2.552,1.958v0.045c0,1.254,1.518,1.716,3.125,2.178c1.804,0.506,3.696,1.166,3.696,3.146v0.044
		c0,2.002-1.716,3.278-3.873,3.278C344.141,249.618,342.359,248.958,341.171,247.99z"/>
	<path display="inline" fill="#031634" d="M354.502,245.042v-6.865h1.078v6.667c0,2.311,1.298,3.828,3.564,3.828
		c2.201,0,3.895-1.672,3.895-4.004v-6.491h1.078v11.222h-1.078v-2.09c-0.748,1.319-2.002,2.354-4.048,2.354
		C356.153,249.662,354.502,247.727,354.502,245.042z"/>
	<path display="inline" fill="#031634" d="M368.891,247.99l0.638-0.858c1.232,0.946,2.596,1.475,4.026,1.475
		c1.519,0,2.707-0.836,2.707-2.135v-0.044c0-1.32-1.408-1.804-2.97-2.244c-1.827-0.528-3.851-1.078-3.851-3.08v-0.044
		c0-1.805,1.518-3.103,3.696-3.103c1.342,0,2.86,0.483,3.982,1.232l-0.572,0.901c-1.034-0.682-2.267-1.122-3.455-1.122
		c-1.54,0-2.552,0.836-2.552,1.958v0.045c0,1.254,1.518,1.716,3.125,2.178c1.804,0.506,3.696,1.166,3.696,3.146v0.044
		c0,2.002-1.716,3.278-3.873,3.278C371.861,249.618,370.079,248.958,368.891,247.99z"/>
	<path display="inline" fill="#031634" d="M382.816,246.516v-7.349h-1.628v-0.99h1.628v-3.587h1.079v3.587h3.938v0.99h-3.938v7.239
		c0,1.606,0.946,2.178,2.244,2.178c0.55,0,1.012-0.109,1.65-0.396v1.012c-0.572,0.265-1.123,0.396-1.827,0.396
		C384.224,249.597,382.816,248.65,382.816,246.516z"/>
	<path display="inline" fill="#031634" d="M391.748,246.142v-0.044c0-2.332,2.002-3.652,4.907-3.652
		c1.562,0,2.641,0.198,3.719,0.484v-0.484c0-2.267-1.386-3.433-3.697-3.433c-1.364,0-2.486,0.374-3.521,0.902l-0.396-0.946
		c1.232-0.572,2.442-0.968,3.982-0.968c1.519,0,2.729,0.418,3.542,1.232c0.749,0.748,1.145,1.782,1.145,3.168v6.997h-1.056v-1.87
		c-0.771,1.078-2.156,2.134-4.291,2.134C393.993,249.662,391.748,248.475,391.748,246.142z M400.396,245.196v-1.276
		c-0.946-0.242-2.201-0.506-3.807-0.506c-2.376,0-3.697,1.056-3.697,2.618v0.044c0,1.628,1.541,2.574,3.257,2.574
		C398.437,248.65,400.396,247.242,400.396,245.196z"/>
	<path display="inline" fill="#031634" d="M406.972,233.776h1.342v1.474h-1.342V233.776z M407.104,238.177h1.078v11.222h-1.078
		V238.177z"/>
	<path display="inline" fill="#031634" d="M414.078,238.177h1.078v2.091c0.748-1.32,2.002-2.354,4.048-2.354
		c2.838,0,4.489,1.936,4.489,4.62v6.865h-1.078v-6.667c0-2.311-1.298-3.828-3.564-3.828c-2.2,0-3.895,1.672-3.895,4.004v6.491
		h-1.078V238.177z"/>
	<path display="inline" fill="#031634" d="M428.29,246.142v-0.044c0-2.332,2.002-3.652,4.907-3.652c1.562,0,2.641,0.198,3.719,0.484
		v-0.484c0-2.267-1.386-3.433-3.697-3.433c-1.364,0-2.486,0.374-3.521,0.902l-0.396-0.946c1.232-0.572,2.442-0.968,3.982-0.968
		c1.519,0,2.729,0.418,3.542,1.232c0.749,0.748,1.145,1.782,1.145,3.168v6.997h-1.056v-1.87c-0.77,1.078-2.156,2.134-4.291,2.134
		C430.534,249.662,428.29,248.475,428.29,246.142z M436.937,245.196v-1.276c-0.946-0.242-2.2-0.506-3.807-0.506
		c-2.376,0-3.697,1.056-3.697,2.618v0.044c0,1.628,1.541,2.574,3.257,2.574C434.979,248.65,436.937,247.242,436.937,245.196z"/>
	<path display="inline" fill="#031634" d="M444.569,246.979v2.42h-1.078v-16.062h1.078v7.35c0.968-1.475,2.398-2.772,4.621-2.772
		c2.707,0,5.457,2.178,5.457,5.83v0.045c0,3.652-2.75,5.874-5.457,5.874C446.946,249.662,445.494,248.387,444.569,246.979z
		 M453.48,243.832v-0.044c0-2.949-2.046-4.841-4.4-4.841c-2.333,0-4.577,1.958-4.577,4.818v0.044c0,2.883,2.244,4.818,4.577,4.818
		C451.522,248.628,453.48,246.846,453.48,243.832z"/>
	<path display="inline" fill="#031634" d="M459.815,233.336h1.078v16.062h-1.078V233.336z"/>
	<path display="inline" fill="#031634" d="M466.019,243.81v-0.044c0-3.257,2.288-5.853,5.325-5.853c3.146,0,5.148,2.552,5.148,5.875
		c0,0.197,0,0.264-0.022,0.439h-9.307c0.198,2.795,2.2,4.423,4.4,4.423c1.738,0,2.927-0.771,3.851-1.761l0.748,0.66
		c-1.144,1.232-2.486,2.112-4.643,2.112C468.571,249.662,466.019,247.309,466.019,243.81z M475.326,243.26
		c-0.154-2.267-1.452-4.356-4.026-4.356c-2.223,0-3.939,1.87-4.137,4.356H475.326z"/>
	<path display="inline" fill="#031634" d="M489.537,233.336h1.078v6.932c0.748-1.32,2.002-2.354,4.048-2.354
		c2.838,0,4.489,1.936,4.489,4.62v6.865h-1.078v-6.667c0-2.311-1.298-3.828-3.564-3.828c-2.2,0-3.895,1.672-3.895,4.004v6.491
		h-1.078V233.336z"/>
	<path display="inline" fill="#031634" d="M503.748,246.142v-0.044c0-2.332,2.002-3.652,4.907-3.652
		c1.562,0,2.641,0.198,3.719,0.484v-0.484c0-2.267-1.386-3.433-3.697-3.433c-1.364,0-2.486,0.374-3.521,0.902l-0.396-0.946
		c1.232-0.572,2.442-0.968,3.982-0.968c1.519,0,2.729,0.418,3.542,1.232c0.749,0.748,1.145,1.782,1.145,3.168v6.997h-1.056v-1.87
		c-0.771,1.078-2.156,2.134-4.291,2.134C505.993,249.662,503.748,248.475,503.748,246.142z M512.396,245.196v-1.276
		c-0.946-0.242-2.201-0.506-3.807-0.506c-2.376,0-3.697,1.056-3.697,2.618v0.044c0,1.628,1.541,2.574,3.257,2.574
		C510.437,248.65,512.396,247.242,512.396,245.196z"/>
	<path display="inline" fill="#031634" d="M518.95,238.177h1.078v3.19c0.88-2.002,2.75-3.454,4.973-3.366v1.188h-0.11
		c-2.597,0-4.863,1.958-4.863,5.61v4.599h-1.078V238.177z"/>
	<path display="inline" fill="#031634" d="M528.256,238.177h1.254l4.247,10.012l4.291-10.012h1.21l-5.039,11.31h-0.924
		L528.256,238.177z"/>
	<path display="inline" fill="#031634" d="M542.423,243.81v-0.044c0-3.257,2.288-5.853,5.325-5.853c3.146,0,5.148,2.552,5.148,5.875
		c0,0.197,0,0.264-0.022,0.439h-9.307c0.198,2.795,2.2,4.423,4.4,4.423c1.738,0,2.927-0.771,3.851-1.761l0.748,0.66
		c-1.144,1.232-2.486,2.112-4.643,2.112C544.976,249.662,542.423,247.309,542.423,243.81z M551.73,243.26
		c-0.154-2.267-1.452-4.356-4.026-4.356c-2.223,0-3.939,1.87-4.137,4.356H551.73z"/>
	<path display="inline" fill="#031634" d="M556.723,247.99l0.638-0.858c1.232,0.946,2.596,1.475,4.026,1.475
		c1.519,0,2.707-0.836,2.707-2.135v-0.044c0-1.32-1.408-1.804-2.97-2.244c-1.827-0.528-3.851-1.078-3.851-3.08v-0.044
		c0-1.805,1.518-3.103,3.696-3.103c1.342,0,2.86,0.483,3.982,1.232l-0.572,0.901c-1.034-0.682-2.267-1.122-3.455-1.122
		c-1.54,0-2.552,0.836-2.552,1.958v0.045c0,1.254,1.518,1.716,3.125,2.178c1.804,0.506,3.696,1.166,3.696,3.146v0.044
		c0,2.002-1.716,3.278-3.873,3.278C559.694,249.618,557.911,248.958,556.723,247.99z"/>
	<path display="inline" fill="#031634" d="M570.649,246.516v-7.349h-1.628v-0.99h1.628v-3.587h1.078v3.587h3.938v0.99h-3.938v7.239
		c0,1.606,0.946,2.178,2.244,2.178c0.55,0,1.012-0.109,1.65-0.396v1.012c-0.572,0.265-1.123,0.396-1.827,0.396
		C572.057,249.597,570.649,248.65,570.649,246.516z"/>
	<path display="inline" fill="#031634" d="M580.527,233.776h1.342v1.474h-1.342V233.776z M580.659,238.177h1.078v11.222h-1.078
		V238.177z"/>
	<path display="inline" fill="#031634" d="M587.633,238.177h1.078v2.091c0.748-1.32,2.002-2.354,4.048-2.354
		c2.838,0,4.489,1.936,4.489,4.62v6.865h-1.078v-6.667c0-2.311-1.298-3.828-3.564-3.828c-2.2,0-3.895,1.672-3.895,4.004v6.491
		h-1.078V238.177z"/>
	<path display="inline" fill="#031634" d="M602.548,251.247l0.638-0.881c1.342,1.034,2.882,1.585,4.533,1.585
		c2.574,0,4.4-1.475,4.4-4.357v-1.628c-0.968,1.387-2.464,2.597-4.687,2.597c-2.707,0-5.391-2.068-5.391-5.281v-0.044
		c0-3.234,2.684-5.324,5.391-5.324c2.244,0,3.763,1.188,4.687,2.508v-2.244h1.078v9.483c0,1.628-0.528,2.904-1.43,3.807
		c-0.968,0.968-2.42,1.496-4.07,1.496C605.827,252.963,604.089,252.391,602.548,251.247z M612.186,243.26v-0.044
		c0-2.597-2.311-4.269-4.643-4.269c-2.354,0-4.334,1.628-4.334,4.246v0.044c0,2.53,2.024,4.291,4.334,4.291
		C609.875,247.528,612.186,245.812,612.186,243.26z"/>
</g>
<g id="clean">
	<path fill="#FFFFFF" d="M150.687,123.571c0-3.904,0.24-10.343,0.24-14.438c0-15.221-4.448-21.514-12.503-25.806
		c7.934-4.097,12.503-10.582,12.503-25.802c0-4.097-0.24-10.538-0.24-14.438c0-10.611-0.378-17.604,5.868-22.668
		c2.139-1.734,7.973-4.974,15-5.267l186.035-7.015L167.683,0.105c-1.626-0.082-6.765,0.005-10.843,1.721
		c-17.044,6.881-21.476,18.833-21.476,37.015c0,2.928,0.24,10.729,0.24,14.048c0,0.641-0.016,1.243-0.029,1.852
		c-29.056,13.121-54.069-8.916-63.033-16.349C48.617,15.86,20.744,4.014,4.02,1.227c-4.878,0-4.414,2.323-3.252,2.323
		s8.362,6.039,8.827,7.665c2.555,0.465,4.878,3.484,4.878,3.484c-1.162-0.93-4.646-1.394-4.646-1.394
		c1.161,0,1.858,3.251,2.09,4.646c0.632,1.525,0.226,1.438,0.697,3.716c0.697,4.646,3.681,4.575,3.855,5.591
		c0.174,1.017-0.365,1.826-0.371,2.771s0.232,5.807,0.464,6.968c0.232,1.162,0.226,1.236,1.161,2.323
		c1.881,2.194,1.649,5.91,1.184,8.93c-0.464,2.788,2.033,6.533,2.533,8.105c2.903,4.45,3.949,12.697,7.201,15.949
		c3.251,3.252,1.238,7.277,2.167,7.742s1.549,4.026,28.493,4.646c-1.858,0.929-27.1,2.632-28.726,3.562
		c-2.09,3.252,1.355,10.141-3.677,16.684c-3.948,6.735-3.755,11.962-2.594,12.427c2.091,0.231-3.445,3.833-3.097,5.42
		c0.389,1.772-2.013,8.672-1.549,10.53c0.929-0.929,7.124,1.857,13.627-0.619c-0.929,2.09-16.027,6.271-15.795,6.968
		c0.232,0.697,0.529,3.148,0.464,3.484s-1.474,2.277-1.626,2.787c-0.151,0.51-0.464,2.091-0.697,4.878
		c-0.035,2.049-1.146,2.432-1.549,3.562s-5.03,6.386-7.975,7.433c-3.484,1.239-6.736,6.039-0.697,5.575
		c36.545-8.052,50.172-24.699,62.947-36.545c12.775-11.847,27.874-21.138,45.991-21.37c3.468,0,16.62,3.309,21.195,8.469
		c-0.071,3.574-0.184,7.872-0.184,9.879c0,17.841,4.262,29.685,20.524,36.624c6.118,2.562,10.793,2.156,12.317,2.164l189.384-8.087
		l-186.366-7.027c-5.496-0.146-11.041-2.689-12.897-3.943C150.41,142.198,150.687,135.108,150.687,123.571z"/>
	<path fill="#FFFFFF" d="M707.708,151.278c-0.814,0-3.054-0.465-3.054-0.465l2.647-1.858c0,0-2.851-4.878-5.293-7.2
		c-2.444-2.323-1.629-8.595-6.923-11.847l-17.51-3.716l15.271-1.161c0,0-2.647-6.736-4.887-7.897
		c-2.239-1.162-6.923-2.323-6.923-2.323l6.517-0.929c0,0-3.258-7.434-4.072-8.362c-0.815-0.929-2.036-6.039-2.036-6.969
		c0-0.929-3.869-0.231-3.869-0.231l2.239-1.858c0,0-2.85-5.808-4.275-7.434c-1.424-1.626-2.239-4.646-0.61-8.826
		c1.628-4.181,3.054-6.039,4.479-8.595c1.424-2.555,3.46-9.987,3.257-10.685c-0.204-0.696,1.833-8.594,1.833-8.594
		s-5.16-1.326-7.047-0.717c1.486-0.996,5.24-3.365,7.861-2.535c1.629-2.787,3.665-3.949,3.665-5.575s3.054-9.987,4.072-11.613
		s5.09-7.665,4.683-9.06c-0.408-1.394,4.276-4.877,4.479-7.2c0.203-2.322,5.293-8.13,5.904-9.523
		c0.611-1.394,2.24-3.948-1.425-3.717c-29.522,4.182-25.857,10.453-93.249,52.03c-0.815,0.465-6.256,3.439-8.125,3.852
		c-1.868,0.411-5.269,0.863-8.022,0.903c-3.257,0-14.456-3.949-17.561-7.11l-0.154,0.01c0.03-3.641,0.235-10.521,0.235-13.231
		c0-17.909-4.295-29.776-20.715-36.704c-3.02-1.228-7.212-2.342-11.627-2.104L357.589,8.139l186.132,7.02
		c6.503,0.187,12.523,3.361,15.325,5.612c5.848,4.996,5.445,11.951,5.445,22.317c0,3.9-0.239,10.342-0.239,14.438
		c0,15.22,4.569,21.705,12.503,25.802c-8.055,4.292-12.503,10.585-12.503,25.806c0,4.095,0.239,10.533,0.239,14.438
		c0,11.541,0.277,18.631-7.646,23.979c-1.855,1.252-7.508,3.975-13.2,3.951l-186.056,7.016l189.737,8.102
		c4.587,0.297,9.334-1.024,12-2.192c16.233-6.941,20.489-18.782,20.489-36.61c0-2.927-0.24-10.729-0.24-14.048
		c0-0.114,0.005-0.217,0.005-0.329c8.894-4.377,17.329-4.61,24.896-2.325c42.151,20.886,83.076,48.295,104.657,46.901
		c1.425-0.232,3.054-1.626,2.85-2.556C711.78,154.53,708.522,151.278,707.708,151.278z"/>
</g>
<g id="Wild_and_Fresh_Seafood">
	<path fill="#FFFFFF" d="M171.507,112.848h3.213l4.034,12.539l4.155-12.587h2.513l4.155,12.587l4.035-12.539h3.116l-5.895,17.032
		h-2.561l-4.155-12.151l-4.155,12.151h-2.561L171.507,112.848z"/>
	<path fill="#FFFFFF" d="M200.858,112.848h2.971v16.911h-2.971V112.848z"/>
	<path fill="#FFFFFF" d="M209.264,112.848h2.972v14.206h8.89v2.705h-11.862V112.848z"/>
	<path fill="#FFFFFF" d="M225.135,112.848h6.306c5.314,0,8.987,3.648,8.987,8.408v0.048c0,4.759-3.672,8.455-8.987,8.455h-6.306
		V112.848z M231.44,127.054c3.551,0,5.87-2.393,5.87-5.702v-0.048c0-3.31-2.319-5.75-5.87-5.75h-3.334v11.5H231.44z"/>
	<path fill="#FFFFFF" d="M259.099,112.729h2.754l7.44,17.03h-3.14l-1.715-4.083h-7.997l-1.739,4.083h-3.043L259.099,112.729z
		 M263.351,123.043l-2.923-6.765l-2.899,6.765H263.351z"/>
	<path fill="#FFFFFF" d="M273.11,112.848h2.753l9.06,11.693v-11.693h2.923v16.911h-2.488l-9.325-12.03v12.03h-2.923V112.848z"/>
	<path fill="#FFFFFF" d="M293.111,112.848h6.306c5.315,0,8.987,3.648,8.987,8.408v0.048c0,4.759-3.672,8.455-8.987,8.455h-6.306
		V112.848z M299.417,127.054c3.551,0,5.87-2.393,5.87-5.702v-0.048c0-3.31-2.319-5.75-5.87-5.75h-3.334v11.5H299.417z"/>
	<path fill="#FFFFFF" d="M321.084,112.848h12.587v2.706h-9.615v4.614h8.528v2.706h-8.528v6.885h-2.972V112.848z"/>
	<path fill="#FFFFFF" d="M337.85,112.848h7.537c2.126,0,3.793,0.629,4.88,1.691c0.894,0.919,1.401,2.174,1.401,3.647v0.049
		c0,2.778-1.667,4.445-4.034,5.121l4.565,6.402h-3.502l-4.155-5.894h-0.048h-3.672v5.894h-2.971V112.848z M345.169,121.231
		c2.126,0,3.479-1.112,3.479-2.827v-0.048c0-1.812-1.304-2.803-3.502-2.803h-4.325v5.678H345.169z"/>
	<path fill="#FFFFFF" d="M356.233,112.848h12.538v2.658h-9.566v4.396h8.479v2.658h-8.479v4.541h9.687v2.657h-12.658V112.848z"/>
	<path fill="#FFFFFF" d="M372.201,127.295l1.788-2.126c1.619,1.401,3.237,2.198,5.339,2.198c1.836,0,2.995-0.846,2.995-2.126v-0.048
		c0-1.209-0.676-1.86-3.816-2.585c-3.6-0.87-5.629-1.933-5.629-5.05v-0.048c0-2.898,2.416-4.904,5.773-4.904
		c2.464,0,4.421,0.75,6.136,2.126l-1.594,2.248c-1.522-1.137-3.044-1.74-4.59-1.74c-1.74,0-2.754,0.895-2.754,2.005v0.049
		c0,1.304,0.773,1.884,4.01,2.656c3.576,0.87,5.436,2.15,5.436,4.953v0.049c0,3.164-2.488,5.048-6.039,5.048
		C376.67,130,374.23,129.106,372.201,127.295z"/>
	<path fill="#FFFFFF" d="M389.714,112.848h2.971v7.03h8.069v-7.03h2.971v16.911h-2.971v-7.126h-8.069v7.126h-2.971V112.848z"/>
	<path fill="#FFFFFF" d="M416.021,127.295l1.787-2.126c1.619,1.401,3.238,2.198,5.339,2.198c1.836,0,2.996-0.846,2.996-2.126v-0.048
		c0-1.209-0.677-1.86-3.817-2.585c-3.6-0.87-5.629-1.933-5.629-5.05v-0.048c0-2.898,2.416-4.904,5.774-4.904
		c2.464,0,4.42,0.75,6.136,2.126l-1.595,2.248c-1.521-1.137-3.043-1.74-4.59-1.74c-1.739,0-2.754,0.895-2.754,2.005v0.049
		c0,1.304,0.773,1.884,4.01,2.656c3.576,0.87,5.436,2.15,5.436,4.953v0.049c0,3.164-2.488,5.048-6.039,5.048
		C420.49,130,418.05,129.106,416.021,127.295z"/>
	<path fill="#FFFFFF" d="M433.534,112.848h12.538v2.658h-9.566v4.396h8.479v2.658h-8.479v4.541h9.688v2.657h-12.659V112.848z"/>
	<path fill="#FFFFFF" d="M456.629,112.729h2.753l7.441,17.03h-3.141l-1.715-4.083h-7.996l-1.739,4.083h-3.044L456.629,112.729z
		 M460.88,123.043l-2.923-6.765l-2.899,6.765H460.88z"/>
	<path fill="#FFFFFF" d="M470.639,112.848h12.587v2.706h-9.615v4.614h8.528v2.706h-8.528v6.885h-2.972V112.848z"/>
	<path fill="#FFFFFF" d="M486.508,121.352v-0.048c0-4.759,3.672-8.745,8.866-8.745s8.818,3.938,8.818,8.697v0.048
		c0,4.759-3.672,8.745-8.866,8.745C490.131,130.049,486.508,126.111,486.508,121.352z M501.075,121.352v-0.048
		c0-3.286-2.392-6.015-5.749-6.015c-3.358,0-5.702,2.681-5.702,5.967v0.048c0,3.285,2.392,6.016,5.75,6.016
		C498.732,127.319,501.075,124.638,501.075,121.352z"/>
	<path fill="#FFFFFF" d="M507.958,121.352v-0.048c0-4.759,3.672-8.745,8.866-8.745c5.194,0,8.817,3.938,8.817,8.697v0.048
		c0,4.759-3.672,8.745-8.866,8.745C511.583,130.049,507.958,126.111,507.958,121.352z M522.526,121.352v-0.048
		c0-3.286-2.392-6.015-5.75-6.015s-5.701,2.681-5.701,5.967v0.048c0,3.285,2.391,6.016,5.749,6.016
		C520.182,127.319,522.526,124.638,522.526,121.352z"/>
	<path fill="#FFFFFF" d="M530.158,112.848h6.305c5.315,0,8.987,3.648,8.987,8.408v0.048c0,4.759-3.672,8.455-8.987,8.455h-6.305
		V112.848z M536.463,127.054c3.551,0,5.87-2.393,5.87-5.702v-0.048c0-3.31-2.319-5.75-5.87-5.75h-3.333v11.5H536.463z"/>
</g>
<g id="CHIGNIK">
	<path fill="#FFFFFF" d="M216.823,78.45c-1.316,0-2.039,1.395-2.317,1.936c-1.26,2.19-2.446,3.952-3.525,5.234
		c-1,1.187-2.402,2.203-4.169,3.023c-1.767,0.819-4.065,1.235-6.833,1.235c-1.77,0-3.919-0.434-6.389-1.288
		c-2.466-0.854-4.937-2.268-7.343-4.204c-2.371-1.906-4.38-4.55-5.973-7.856c-1.592-3.304-2.399-7.325-2.399-11.953
		c0-5.05,0.921-9.492,2.737-13.205c1.792-3.663,4.256-6.476,7.324-8.359c3.074-1.886,6.566-2.842,10.38-2.842
		c2.895,0,5.825,0.622,8.708,1.85c3.652,1.556,4.772,2.727,5.15,3.339c0.146,0.214,0.484,0.925,0.484,2.885
		c0,0.874,0.154,1.542,0.471,2.045c0.391,0.619,1.054,1.01,1.973,1.163l1.414,0.236l0.195-1.42c0.432-3.134,0.934-5.755,1.494-7.795
		c0.164-0.367,0.344-1.054,0.704-2.67l0.107-0.482l-0.221-0.442c-0.099-0.196-0.235-0.38-0.432-0.576
		c-0.244-0.244-0.68-0.536-1.369-0.536c-0.198,0-0.37,0.015-0.532,0.041l-0.381,0.06c-0.24,0.038-0.46,0.085-0.665,0.155
		c-0.487,0-1.475-0.129-3.343-0.719c-3.81-1.446-7.822-2.181-11.924-2.181c-5.196,0-10.308,1.056-15.195,3.14
		c-4.951,2.111-9.079,5.44-12.271,9.895c-3.215,4.485-4.845,10.039-4.845,16.505c0,4.704,0.876,8.97,2.604,12.679
		c1.724,3.699,4.093,6.883,7.042,9.459c2.935,2.564,6.287,4.525,9.961,5.829c3.658,1.298,7.373,1.956,11.042,1.956
		c3.006,0,5.837-0.259,8.417-0.771c2.529-0.504,5.383-1.225,8.483-2.143l0.729-0.217l2.049-7.051
		c0.796-2.81,0.863-3.431,0.863-3.792C219.027,79.318,218.142,78.45,216.823,78.45z"/>
	<path fill="#FFFFFF" d="M285.877,89.858c-0.353-0.129-0.658-0.413-0.933-0.865c-0.23-0.38-0.547-1.173-0.746-2.795
		c-0.177-1.44-0.267-3.406-0.267-5.843c0-1.632,0.014-2.926,0.042-3.898l0.384-21.753c0.056-3.741,0.141-6.553,0.253-8.357
		c0.105-1.708,0.306-3.026,0.596-3.922c0.23-0.712,0.562-1.207,1.015-1.515c0.37-0.252,1.114-0.603,2.558-0.844l1.342-0.225
		l-0.534-3.738h-1.208c-0.229,0-0.931,0.021-4.372,0.173c-2.989,0.14-4.026,0.169-4.37,0.169c-2.562,0-4.394-0.056-5.448-0.164
		c-1.164-0.116-1.994-0.189-2.488-0.218c-0.459-0.026-0.932-0.067-1.419-0.122l-1.325-0.147l-0.623,3.986l1.291,0.274
		c2.83,0.603,3.818,0.957,4.154,1.115c0.371,0.173,0.665,0.538,0.88,1.063c0.312,0.869,0.685,3.157,0.685,9.124l-0.074,10.171
		c-0.607,0.056-1.447,0.102-2.605,0.12c-1.824,0.027-6.623,0.042-14.265,0.042h-18.815c-0.031-1.456-0.047-3.274-0.047-5.43
		c0-2.622,0.142-5.609,0.419-8.857c0.307-3.033,0.572-4.355,0.74-4.931c0.236-0.807,0.477-0.957,0.478-0.957
		c0.165-0.09,0.736-0.332,2.422-0.636l3.517-0.53l-0.234-4.094l-7.499,0.104c-0.722,0-1.547-0.021-2.474-0.062
		c-0.958-0.044-1.836-0.079-2.637-0.107c-0.799-0.028-1.441-0.05-1.926-0.063c-1.18-0.037-3.282-0.049-6.357,0.15l-1.227,0.079
		l-0.246,4.047l1.413,0.063c2.128,0.098,3.012,0.47,3.35,0.683c0.454,0.287,0.822,1.066,1.039,2.196
		c0.28,1.47,0.423,3.821,0.423,6.988l-0.085,15.267c0,0.773-0.05,2.92-0.149,6.378c-0.1,3.48-0.193,6.207-0.276,8.102
		c-0.083,1.896-0.232,3.87-0.441,5.865c-0.216,2.057-0.405,2.703-0.464,2.866c-0.161,0.172-1.002,0.85-4.511,1.247l-1.781,0.201
		l1.603,4.235l1.045-0.085c4.806-0.392,8.084-0.475,9.452-0.383c0.42,0.029,0.95,0.059,1.588,0.087
		c0.619,0.028,1.378,0.07,2.26,0.126c0.745,0.057,1.447,0.108,2.103,0.149c0.662,0.044,1.288,0.079,1.88,0.108l3.056,0.159
		l0.248-3.962l-1.198-0.235c-1.657-0.326-2.869-0.629-3.605-0.901c-0.824-0.302-1.115-0.545-1.202-0.636
		c-0.185-0.193-0.333-0.471-0.429-0.789c-0.211-0.773-0.463-2.669-0.463-7.31c0-5.683,0.066-10.19,0.196-13.43
		c2.35-0.039,5.778-0.06,10.223-0.06c9.981,0,18.525,0.113,25.422,0.339c0.005,0.4,0.008,0.861,0.008,1.381
		c0,1.957-0.036,4.08-0.106,6.31c-0.071,2.245-0.107,3.781-0.107,4.564c0,2.393-0.056,4.292-0.166,5.644
		c-0.099,1.213-0.304,2.142-0.608,2.763c-0.241,0.489-0.571,0.815-1.042,1.024c-0.44,0.195-1.343,0.476-3.146,0.701l-1.36,0.17
		l0.458,4.237l1.304-0.054c2.028-0.087,4.07-0.193,6.127-0.321c2.719-0.172,3.29-0.189,3.409-0.189c3.574,0,6.38,0.166,8.343,0.492
		l1.51,0.252l0.288-4.031l-1.301-0.171C287.079,90.216,286.259,90,285.877,89.858z"/>
	<path fill="#FFFFFF" d="M314.953,42.112c0.276-0.482,0.668-0.786,1.234-0.955c0.534-0.158,1.786-0.347,4.72-0.347h1.394v-4.707
		h-1.394c-0.502,0-2.293,0.055-5.685,0.175c-2.373,0.167-4.435,0.252-6.128,0.252c-0.988,0-2.935-0.058-5.732-0.166
		c-2.188-0.174-4.248-0.261-6.123-0.261h-1.394v4.521l1.379,0.015c3.074,0.032,4.601,0.375,5.342,0.656
		c0.845,0.32,1.359,0.76,1.571,1.346c0.208,0.574,0.47,1.79,0.537,4.33c0.282,7.83,0.425,13.983,0.425,18.287
		c0,4.701-0.079,9.24-0.233,13.49c-0.188,5.119-0.648,7.332-1.017,8.33c-0.283,0.848-0.766,1.419-1.519,1.795
		c-0.621,0.312-2.11,0.724-5.68,0.921l-1.39,0.077l0.232,4.287h1.32c0.493,0,1.327-0.022,2.505-0.064
		c1.145-0.044,2.359-0.079,3.645-0.106c1.291-0.028,2.334-0.049,3.129-0.063c0.789-0.015,1.79-0.021,3.002-0.021
		c0.87,0,1.642,0.007,2.316,0.021l2.92,0.063c1.257,0.027,2.473,0.062,3.648,0.106c1.204,0.042,2.01,0.064,2.417,0.064h1.258
		l0.455-4.434l-1.526-0.018c-2.941-0.032-4.365-0.332-5.042-0.578c-0.7-0.254-1.115-0.575-1.233-0.958
		c-0.149-0.479-0.341-1.538-0.407-3.843c-0.113-4.566-0.17-9.548-0.17-14.806v-7.591C313.729,46.722,314.511,42.958,314.953,42.112z
		"/>
	<path fill="#FFFFFF" d="M380.558,64.128c-2.396,0.223-5.297,0.371-8.621,0.44c-3.347,0.072-7.021,0.122-10.919,0.15l-1.261,0.009
		l-0.455,4.89l1.784-0.297c0.605-0.101,1.433-0.151,2.458-0.151c2.997,0,4.315,0.306,4.892,0.562
		c0.376,0.168,0.902,0.528,1.14,1.727c0.251,1.271,0.379,3.618,0.379,6.979c0,4.348-0.066,5.919-0.121,6.471
		c-0.083,0.833-0.27,1.108-0.298,1.145c-0.297,0.371-1.191,1.153-3.846,2.222c-2.083,0.839-4.684,1.265-7.731,1.265
		c-3.6,0-6.938-0.768-9.925-2.28c-3.008-1.524-5.597-3.605-7.693-6.182c-2.121-2.608-3.722-5.41-4.757-8.33
		c-1.036-2.919-1.562-5.797-1.562-8.553c0-3.888,0.926-7.716,2.754-11.383c1.812-3.638,4.46-6.61,7.872-8.837
		c3.392-2.212,7.354-3.334,11.776-3.334c2.957,0,5.613,0.475,7.894,1.41c2.268,0.931,4.095,2.105,5.431,3.493
		c1.365,1.417,2.411,2.896,3.075,4.317c0.604,1.543,1.526,1.867,2.193,1.867c0.918,0,1.905-0.637,1.905-2.033
		c0-1.071-0.192-2.948-0.589-5.74c-0.464-3.268-0.562-4.572-0.562-5.092c0-2.622-1.247-3.015-1.991-3.015
		c-0.654,0-1.263,0.348-2.328,1.327c-0.254,0.232-0.439,0.395-0.571,0.507c-0.275-0.088-0.748-0.262-1.526-0.606l-0.089-0.035
		c-0.237-0.086-0.73-0.24-2.26-0.583c-1.105-0.247-2.413-0.477-3.887-0.682c-1.494-0.206-3.072-0.312-4.69-0.312
		c-4.248,0-8.443,0.646-12.467,1.92c-4.052,1.281-7.732,3.228-10.939,5.783c-3.231,2.576-5.813,5.791-7.673,9.556
		c-1.864,3.772-2.81,7.991-2.81,12.536c0,3.473,0.615,6.952,1.83,10.343c1.222,3.414,3.182,6.613,5.826,9.511
		c2.658,2.911,6.066,5.244,10.132,6.936c4.047,1.684,8.847,2.537,14.267,2.537c1.741,0,3.288-0.036,4.597-0.108
		c1.306-0.073,3.061-0.248,5.215-0.521c2.142-0.27,4.42-0.626,6.798-1.062c4.634-0.94,5.555-1.071,5.736-1.083l0.852-0.053
		l1.18-2.712l-0.789-0.67c-0.555-0.471-0.804-0.796-0.916-0.986c-0.021-0.036-0.214-0.395-0.349-1.679
		c-0.108-1.025-0.163-2.799-0.163-5.271c0-3.419,0.014-5.775,0.042-7.004c0.028-1.217,0.062-2.144,0.104-2.751
		c0.043-0.637,0.136-0.954,0.189-1.093c0.136-0.357,0.241-0.488,0.228-0.488c0.077-0.045,0.444-0.233,1.811-0.689l0.952-0.317
		v-4.112L380.558,64.128z"/>
	<path fill="#FFFFFF" d="M453.289,36.104h-6.726c-1.319,0-2.676-0.028-4.007-0.082c-0.923-0.058-1.773-0.102-2.552-0.13
		c-0.752-0.027-1.352-0.057-1.798-0.084c-0.483-0.029-0.98-0.045-1.493-0.045c-1.066,0-1.813,0.032-2.285,0.099l-0.805,0.114
		l-1.397,3.558l1.704,0.278c2.178,0.354,3.728,0.697,4.604,1.019c0.653,0.241,1.181,0.729,1.615,1.491
		c0.341,0.602,0.799,1.845,1.04,4.351c0.208,2.163,0.313,5.446,0.313,9.76v8.23c0,5.354-0.063,9.729-0.189,13.062l-22.934-21.768
		c-0.371-0.37-1.989-1.945-4.854-4.727c-2.82-2.734-5.411-5.34-7.702-7.744c-2.264-2.374-4.258-4.651-5.928-6.768l-0.431-0.545
		l-4.33,0.101c-2.229,0-4.685-0.113-7.302-0.336l-1.512-0.129v4.527l1.255,0.125c2.626,0.263,4.261,1.154,4.996,2.722
		c0.861,1.839,1.297,4.975,1.297,9.325c0,1.773-0.014,3.154-0.042,4.161l-0.256,20.346c-0.028,2.964-0.12,5.42-0.272,7.3
		c-0.181,2.214-0.457,3.293-0.657,3.81c-0.213,0.553-0.473,0.937-0.729,1.081c-0.218,0.123-0.791,0.353-2.109,0.505
		c-0.504,0.031-1.235,0.129-1.769,0.616c-0.315,0.287-0.69,0.824-0.69,1.756c0,0.991,0.418,1.554,0.771,1.854
		c0.442,0.374,1.039,0.563,1.774,0.563c0.032,0,0.346-0.021,0.947-0.068c0.521-0.043,1.084-0.084,1.686-0.128
		c0.609-0.041,1.366-0.092,2.246-0.146c3.271-0.141,4.324-0.17,4.631-0.17c0.324,0,1.307,0.029,4.152,0.169
		c3.097,0.154,3.859,0.172,4.164,0.172h1.089l0.263-1.056c0.141-0.564,0.212-1.209,0.212-1.916v-1.141l-1.118-0.226
		c-4.064-0.819-5.762-1.383-6.471-1.71c-0.769-0.355-1.32-1.103-1.685-2.282c-0.44-1.422-0.663-3.98-0.663-7.605
		c0-1.947,0.014-3.484,0.042-4.618l0.489-23.057c0.049,0.047,0.099,0.093,0.15,0.141l5.478,5.139
		c2.701,2.535,3.594,3.283,4.003,3.594l15.938,14.875c9.687,9.018,15.549,15.644,17.425,19.693l0.354,0.767l4.167,0.203
		l-0.119-1.574c-0.112-1.481-0.197-3.11-0.253-4.845c-0.057-1.757-0.106-3.741-0.148-5.952c-0.042-2.197-0.064-4.527-0.064-6.924
		c0-6.097,0.108-12.611,0.319-19.359c0.209-6.679,0.564-11.197,1.046-13.396c0.23-0.919,0.583-1.559,1.048-1.898
		c0.38-0.278,1.218-0.666,3.052-0.941l1.264-0.189L453.289,36.104z"/>
	<path fill="#FFFFFF" d="M477.614,42.112c0.276-0.482,0.668-0.786,1.234-0.955c0.534-0.158,1.786-0.347,4.72-0.347h1.394v-4.707
		h-1.394c-0.502,0-2.293,0.055-5.685,0.175c-2.373,0.167-4.435,0.252-6.128,0.252c-0.988,0-2.935-0.058-5.732-0.166
		c-2.188-0.174-4.248-0.261-6.123-0.261h-1.394v4.521l1.379,0.015c3.074,0.032,4.601,0.375,5.342,0.656
		c0.845,0.32,1.359,0.76,1.571,1.346c0.208,0.574,0.47,1.79,0.537,4.33c0.282,7.83,0.425,13.983,0.425,18.287
		c0,4.701-0.079,9.24-0.233,13.49c-0.188,5.119-0.648,7.332-1.017,8.33c-0.283,0.848-0.766,1.419-1.519,1.795
		c-0.621,0.312-2.11,0.724-5.68,0.921l-1.39,0.077l0.232,4.287h1.32c0.493,0,1.327-0.022,2.505-0.064
		c1.145-0.044,2.359-0.079,3.645-0.106c1.291-0.028,2.334-0.049,3.129-0.063c0.789-0.015,1.79-0.021,3.002-0.021
		c0.87,0,1.642,0.007,2.316,0.021l2.92,0.063c1.257,0.027,2.473,0.062,3.649,0.106c1.204,0.042,2.009,0.064,2.416,0.064h1.258
		l0.455-4.434l-1.526-0.018c-2.941-0.032-4.365-0.332-5.042-0.578c-0.7-0.254-1.115-0.575-1.233-0.958
		c-0.149-0.479-0.341-1.538-0.407-3.843c-0.113-4.566-0.17-9.548-0.17-14.806v-7.591C476.391,46.722,477.172,42.958,477.614,42.112z
		"/>
	<path fill="#FFFFFF" d="M545.498,90.872l-0.694-0.364c-1.601-0.841-3.258-1.904-4.927-3.163c-1.702-1.282-3.985-3.125-6.788-5.478
		c-2.828-2.373-5.335-4.481-7.53-6.335l-14.666-12.216c0.871-0.88,1.894-1.878,3.06-2.985l5.91-5.739
		c6.63-6.209,10.875-10.004,12.632-11.286c2.372-1.773,4.407-2.759,6.048-2.93l1.314-0.137l-0.229-4.462l-1.471,0.164
		c-0.978,0.109-2.481,0.208-4.467,0.291c-1.99,0.085-3.491,0.127-4.445,0.127l-8.568-0.104l0.234,4.317l1.252,0.064
		c2.159,0.11,2.857,0.575,2.857,0.783c0,0.599-0.201,1.105-0.632,1.593l-0.066,0.081c-0.757,1-2.624,2.989-5.538,5.904
		L508.33,59.284c-1.101,1.101-2.058,2.046-2.866,2.833V60.27c0-1.388,0.05-3.561,0.148-6.456c0.099-2.92,0.249-5.654,0.444-8.126
		c0.261-3.302,0.507-3.993,0.516-4.024c0.148-0.272,0.943-1.197,4.913-1.673l1.228-0.147v-4.176l-1.563,0.191
		c-1.154,0.141-2.387,0.274-3.697,0.4c-1.266,0.124-2.935,0.187-4.961,0.187c-2.078,0-5.47-0.114-10.082-0.34l-1.548-0.075
		l0.241,4.207l1.162,0.137c1.651,0.194,2.477,0.421,2.878,0.577c0.384,0.148,0.654,0.391,0.852,0.761
		c0.185,0.349,0.435,1.031,0.57,2.307c0.123,1.168,0.213,3.116,0.27,5.795c0.056,2.272,0.106,4.529,0.15,6.772
		c0.042,2.25,0.07,3.676,0.085,4.27c0.014,0.593,0.021,2.004,0.021,4.233c0,0.669-0.043,2.896-0.127,6.62
		c-0.084,3.709-0.227,7.155-0.424,10.242c-0.241,3.76-0.482,5.313-0.653,5.995c-0.163,0.744-0.443,1.228-0.833,1.438
		c-0.408,0.219-1.289,0.514-3.167,0.67l-1.277,0.107v4.241l1.465-0.075c2.172-0.111,4.529-0.168,7.007-0.168
		c2.989,0,5.238,0.027,6.679,0.084c2.629,0.109,4.452,0.248,5.416,0.408l1.623,0.271v-4.318h-1.394
		c-0.322,0-1.151-0.104-3.083-0.811c-1.556-0.568-2.031-1.127-2.175-1.434c-0.14-0.477-0.373-1.85-0.492-5.786
		c-0.099-3.21-0.149-6.755-0.149-10.533c0-0.671,0.004-1.283,0.011-1.838c0.115,0.084,0.234,0.17,0.358,0.26
		c1.425,1.029,2.721,2.007,3.853,2.903c1.171,0.93,2.014,1.594,2.527,1.992c0.478,0.371,0.864,0.69,1.215,1.006l7.904,6.408
		c5.409,4.27,7.587,6.32,8.463,7.285c-0.04,0.007-0.082,0.015-0.125,0.022c-0.566,0.119-0.968,0.209-1.205,0.268
		c-0.278,0.07-0.556,0.156-0.833,0.261l-0.974,0.366l0.261,3.646l1.412-0.126c3.779-0.335,6.88-0.506,9.216-0.506
		c1.27,0,2.58,0.056,3.889,0.165c0.608,0.053,1.106,0.112,1.483,0.178c0.449,0.077,0.829,0.13,1.14,0.161l1.635,0.167
		L545.498,90.872z"/>
</g>
</svg>
