<?xml version="1.0" encoding="utf-8"?>
<!-- Generator: Adobe Illustrator 15.0.2, SVG Export Plug-In . SVG Version: 6.00 Build 0)  -->
<!DOCTYPE svg PUBLIC "-//W3C//DTD SVG 1.1//EN" "http://www.w3.org/Graphics/SVG/1.1/DTD/svg11.dtd">
<svg version="1.1" id="Layer_1" xmlns="http://www.w3.org/2000/svg" xmlns:xlink="http://www.w3.org/1999/xlink" x="0px" y="0px"
	 width="230px" height="104px" viewBox="0 0 230 104" enable-background="new 0 0 230 104" xml:space="preserve">
<g>
	<g id="LOGO_2_">
		<g>
			<g>
				<path fill="#FFFFFF" d="M37.43,68.553c0,0.431-0.123,0.648-0.372,0.648c-1.048,0-2.288-0.045-3.721-0.139
					c-1.357-0.093-2.504-0.14-3.445-0.14c-0.939,0-2.026,0.047-3.261,0.14c-1.293,0.094-2.457,0.139-3.489,0.139
					c-0.247,0-0.371-0.217-0.371-0.648c0-0.386,0.131-0.594,0.394-0.625c1.295-0.154,2.259-0.366,2.89-0.638
					c0.632-0.27,1.037-0.623,1.215-1.066c0.177-0.438,0.265-1.178,0.265-2.213V53.685H9.894V64.01c0,1.035,0.09,1.774,0.266,2.213
					c0.178,0.443,0.581,0.796,1.215,1.066c0.631,0.272,1.601,0.484,2.912,0.638c0.247,0.031,0.372,0.239,0.372,0.625
					c0,0.431-0.125,0.648-0.372,0.648c-1.032,0-2.194-0.045-3.489-0.139c-1.233-0.093-2.321-0.14-3.261-0.14
					c-0.939,0-2.097,0.047-3.466,0.14c-1.435,0.094-2.669,0.139-3.699,0.139C0.123,69.201,0,68.984,0,68.553
					c0-0.386,0.123-0.594,0.371-0.625c1.864-0.218,3.132-0.563,3.802-1.042c0.669-0.48,1.005-1.438,1.005-2.875V42.2
					c0-1.081-0.135-1.841-0.406-2.282c-0.268-0.44-0.741-0.789-1.419-1.043c-0.679-0.255-1.673-0.459-2.982-0.614
					C0.123,38.26,0,38.048,0,37.624c0-0.424,0.123-0.638,0.371-0.638c1.03,0,2.265,0.047,3.699,0.14
					c1.37,0.093,2.527,0.139,3.466,0.139c0.94,0,2.028-0.046,3.261-0.139c1.295-0.092,2.457-0.14,3.489-0.14
					c0.247,0,0.372,0.214,0.372,0.638c0,0.425-0.125,0.636-0.372,0.636c-1.2,0.14-2.112,0.326-2.727,0.555
					c-0.617,0.232-1.048,0.546-1.295,0.94c-0.246,0.395-0.371,1.209-0.371,2.444v10.002h17.64V42.2c0-1.034-0.088-1.777-0.265-2.225
					c-0.178-0.447-0.579-0.808-1.202-1.078c-0.624-0.27-1.6-0.483-2.925-0.638c-0.247,0-0.371-0.211-0.371-0.636
					c0-0.424,0.124-0.638,0.371-0.638c1.032,0,2.195,0.047,3.489,0.14c1.234,0.093,2.321,0.139,3.261,0.139
					c0.941,0,2.088-0.046,3.445-0.139c1.434-0.092,2.673-0.14,3.721-0.14c0.249,0,0.372,0.214,0.372,0.638
					c0,0.425-0.123,0.636-0.372,0.636c-1.308,0.155-2.303,0.359-2.981,0.614s-1.152,0.604-1.422,1.043
					c-0.27,0.441-0.404,1.202-0.404,2.282V64.01c0,1.438,0.335,2.396,1.004,2.875c0.67,0.479,1.938,0.823,3.803,1.042
					C37.307,67.958,37.43,68.167,37.43,68.553z"/>
				<path fill="#FFFFFF" d="M57.935,59.334c0,3.073-0.998,5.601-2.997,7.584c-1.999,1.985-4.587,2.976-7.766,2.976
					c-3.178,0-5.77-0.996-7.774-2.986c-2.007-1.992-3.01-4.517-3.01-7.575c0-3.102,1.012-5.685,3.032-7.745
					c2.021-2.063,4.604-3.093,7.752-3.093c3.163,0,5.749,1.028,7.754,3.08C56.931,53.629,57.935,56.216,57.935,59.334z
					 M53.265,59.289c0-2.826-0.544-5.083-1.63-6.774c-1.087-1.69-2.577-2.537-4.473-2.537c-1.882,0-3.368,0.85-4.463,2.548
					c-1.095,1.7-1.641,3.952-1.641,6.763c0,2.795,0.54,5.014,1.619,6.658c1.078,1.646,2.574,2.467,4.485,2.467
					c1.91,0,3.405-0.814,4.484-2.443C52.725,64.343,53.265,62.115,53.265,59.289z"/>
				<path fill="#FFFFFF" d="M94.762,68.553c0,0.431-0.125,0.648-0.371,0.648c-0.617,0-1.371-0.045-2.266-0.139
					c-0.983-0.093-1.86-0.14-2.626-0.14c-0.753,0-1.621,0.047-2.602,0.14c-0.891,0.094-1.65,0.139-2.279,0.139
					c-0.245,0-0.369-0.217-0.369-0.648c0-0.386,0.124-0.594,0.369-0.625c1.045-0.122,1.729-0.424,2.053-0.902
					c0.323-0.481,0.484-1.483,0.484-3.012v-7.734c0-1.745-0.329-3.015-0.99-3.809c-0.662-0.795-1.7-1.194-3.114-1.194
					c-1.858,0-3.398,0.634-4.611,1.899v10.838c0,1.529,0.167,2.531,0.506,3.012c0.337,0.478,1.03,0.78,2.076,0.902
					c0.244,0.031,0.368,0.239,0.368,0.625c0,0.431-0.124,0.648-0.371,0.648c-0.618,0-1.337-0.045-2.154-0.139
					c-0.896-0.093-1.716-0.14-2.457-0.14c-0.771,0-1.615,0.047-2.526,0.14c-0.817,0.094-1.537,0.139-2.154,0.139
					c-0.247,0-0.371-0.217-0.371-0.648c0-0.386,0.124-0.594,0.371-0.625c1.067-0.122,1.766-0.424,2.097-0.902
					c0.333-0.481,0.499-1.483,0.499-3.012v-7.734c0-1.732-0.338-2.996-1.02-3.799c-0.679-0.803-1.73-1.204-3.151-1.204
					c-0.897,0-1.688,0.169-2.376,0.51c-0.688,0.338-1.426,0.941-2.214,1.806v10.421c0,1.529,0.165,2.531,0.499,3.012
					c0.331,0.478,1.031,0.78,2.098,0.902c0.246,0.031,0.371,0.239,0.371,0.625c0,0.431-0.123,0.648-0.37,0.648
					c-0.629,0-1.398-0.045-2.307-0.139c-0.999-0.093-1.876-0.14-2.629-0.14c-0.77,0-1.646,0.047-2.632,0.14
					c-0.88,0.094-1.635,0.139-2.266,0.139c-0.248,0-0.371-0.217-0.371-0.648c0-0.386,0.123-0.594,0.371-0.625
					c1.31-0.168,2.154-0.487,2.53-0.948c0.379-0.461,0.567-1.45,0.567-2.96v-8.558c0-1.232-0.157-2.042-0.473-2.428
					c-0.316-0.384-1.006-0.64-2.071-0.764c-0.247,0-0.37-0.202-0.37-0.613c0-0.379,0.123-0.565,0.37-0.565
					c1.521-0.388,2.789-0.825,3.802-1.311c1.015-0.486,1.653-0.882,1.913-1.193c0.153-0.186,0.324-0.277,0.507-0.277
					c0.43,0,0.646,0.123,0.646,0.37l-0.186,2.916c2.227-2.068,4.3-3.102,6.217-3.102c2.939,0,4.933,1.126,5.986,3.38
					c2.336-2.254,4.616-3.38,6.845-3.38c2.104,0,3.744,0.603,4.92,1.807c1.175,1.206,1.762,2.827,1.762,4.863v8.847
					c0,1.514,0.188,2.502,0.568,2.964c0.378,0.462,1.221,0.78,2.53,0.95C94.637,67.958,94.762,68.167,94.762,68.553z"/>
				<path fill="#FFFFFF" d="M112.632,56.046c0,0.432-0.278,0.648-0.833,0.648H99.131c-0.093,0.834-0.138,1.698-0.138,2.594
					c0,2.485,0.587,4.396,1.766,5.732c1.181,1.335,2.857,2.004,5.029,2.004c1.096,0,2.196-0.295,3.308-0.881
					c1.108-0.587,2.002-1.335,2.681-2.246l0.116-0.049c0.138,0,0.272,0.086,0.404,0.256c0.13,0.169,0.195,0.371,0.195,0.603
					c0,0.326-0.492,1.001-1.479,2.028c-0.986,1.026-2.058,1.809-3.214,2.349c-1.156,0.542-2.366,0.81-3.629,0.81
					c-2.774,0-5.109-1.019-7.004-3.056c-1.896-2.038-2.844-4.539-2.844-7.505c0-3.026,0.93-5.588,2.786-7.688
					c1.857-2.1,4.212-3.15,7.063-3.15c2.388,0,4.396,0.785,6.022,2.351C111.818,52.415,112.632,54.147,112.632,56.046z
					 M108.426,54.009c0-1.157-0.399-2.12-1.191-2.884c-0.794-0.765-1.815-1.146-3.063-1.146c-1.188,0-2.214,0.499-3.086,1.496
					c-0.872,0.996-1.46,2.303-1.769,3.924l6.427-0.185c0.971-0.015,1.661-0.108,2.069-0.277
					C108.22,54.765,108.426,54.456,108.426,54.009z"/>
				<path fill="#FFFFFF" d="M151.458,50.812c0,0.617-0.187,1.143-0.567,1.574c-0.377,0.434-0.834,0.649-1.374,0.649
					c-0.676,0-1.348-0.224-2.012-0.673c-0.523-0.354-0.979-0.532-1.363-0.532c-1.003,0-2.035,0.588-3.1,1.761v10.421
					c0,1.344,0.232,2.281,0.694,2.814c0.463,0.531,1.45,0.9,2.959,1.1c0.248,0.031,0.37,0.239,0.37,0.625
					c0,0.431-0.122,0.648-0.37,0.648c-0.632,0-1.526-0.045-2.681-0.139c-1.276-0.093-2.288-0.14-3.04-0.14
					c-0.766,0-1.695,0.047-2.786,0.14c-0.987,0.094-1.795,0.139-2.426,0.139c-0.248,0-0.371-0.217-0.371-0.648
					c0-0.386,0.123-0.594,0.371-0.625c1.339-0.168,2.2-0.487,2.575-0.948c0.381-0.461,0.568-1.45,0.568-2.96v-8.558
					c0-1.232-0.157-2.042-0.474-2.428c-0.315-0.384-1.022-0.64-2.115-0.764c-0.246,0-0.368-0.202-0.368-0.613
					c0-0.379,0.122-0.565,0.368-0.565c1.526-0.388,2.785-0.817,3.773-1.288c0.989-0.47,1.637-0.874,1.946-1.215
					c0.182-0.186,0.365-0.277,0.551-0.277c0.429,0,0.645,0.123,0.645,0.37l-0.188,2.916c1.233-1.14,2.295-1.942,3.181-2.407
					c0.885-0.462,1.767-0.695,2.647-0.695c0.708,0,1.318,0.232,1.824,0.695C151.204,49.656,151.458,50.195,151.458,50.812z"/>
				<path fill="#FFFFFF" d="M172.312,59.334c0,3.073-1,5.601-2.998,7.584c-1.999,1.985-4.585,2.976-7.765,2.976
					c-3.178,0-5.769-0.996-7.775-2.986c-2.006-1.992-3.01-4.517-3.01-7.575c0-3.102,1.012-5.685,3.033-7.745
					c2.02-2.063,4.604-3.093,7.752-3.093c3.163,0,5.749,1.028,7.754,3.08C171.308,53.629,172.312,56.216,172.312,59.334z
					 M167.642,59.289c0-2.826-0.543-5.083-1.631-6.774c-1.085-1.69-2.577-2.537-4.472-2.537c-1.883,0-3.369,0.85-4.461,2.548
					c-1.096,1.7-1.642,3.952-1.642,6.763c0,2.795,0.541,5.014,1.617,6.658c1.08,1.646,2.574,2.467,4.486,2.467
					c1.91,0,3.404-0.814,4.483-2.443C167.101,64.343,167.642,62.115,167.642,59.289z"/>
				<path fill="#FFFFFF" d="M205.07,49.886c0,0.386-0.124,0.595-0.37,0.627c-1.264,0.185-2.131,0.517-2.602,0.996
					c-0.47,0.477-1.027,1.451-1.674,2.917l-6.634,15.146c-0.141,0.248-0.34,0.369-0.603,0.369c-0.248,0-0.417-0.122-0.509-0.369
					l-4.728-12.14l-5.421,12.14c-0.151,0.248-0.354,0.369-0.6,0.369c-0.278,0-0.47-0.122-0.58-0.369l-6.218-15.146
					c-0.54-1.335-1.125-2.295-1.756-2.877c-0.633-0.583-1.481-0.926-2.542-1.035c-0.247-0.032-0.371-0.245-0.371-0.637
					c0-0.425,0.118-0.637,0.358-0.637c0.617,0,1.373,0.044,2.271,0.138c1.004,0.093,1.882,0.139,2.629,0.139
					c0.736,0,1.596-0.046,2.587-0.139c0.908-0.094,1.676-0.138,2.308-0.138c0.246,0,0.37,0.211,0.37,0.637
					c0,0.392-0.124,0.605-0.37,0.637c-0.769,0.095-1.306,0.259-1.609,0.488c-0.301,0.23-0.453,0.594-0.453,1.088
					c0,0.493,0.211,1.313,0.63,2.46l3.748,9.132l4.002-9.083l-0.151-0.728c-0.076-0.171-0.168-0.413-0.275-0.725
					c-0.386-1.042-0.72-1.721-0.994-2.041c-0.278-0.316-0.78-0.516-1.503-0.593c-0.247-0.032-0.371-0.245-0.371-0.637
					c0-0.425,0.124-0.637,0.371-0.637c0.553,0,1.226,0.044,2.01,0.138c0.836,0.093,1.569,0.139,2.194,0.139
					c0.729,0,1.586-0.046,2.572-0.139c0.935-0.094,1.718-0.138,2.351-0.138c0.248,0,0.37,0.216,0.37,0.647
					c0,0.386-0.122,0.595-0.37,0.627c-1.613,0.218-2.421,1.008-2.421,2.369c0,0.627,0.084,1.159,0.247,1.598l3.354,8.928l3.667-8.6
					c0.449-0.99,0.673-1.814,0.673-2.475c0-1.034-0.694-1.642-2.083-1.82c-0.262-0.032-0.394-0.241-0.394-0.627
					c0-0.431,0.123-0.647,0.37-0.647c0.664,0,1.399,0.044,2.205,0.138c0.788,0.093,1.495,0.139,2.12,0.139
					c0.339,0,0.846-0.038,1.518-0.116c0.918-0.108,1.68-0.161,2.291-0.161C204.942,49.239,205.07,49.455,205.07,49.886z"/>
				<g>
					<path fill="#FFFFFF" d="M230,68.591c0,0.432-0.124,0.649-0.37,0.649c-0.617,0-1.372-0.047-2.267-0.141
						c-0.985-0.092-1.853-0.138-2.604-0.138c-0.771,0-1.652,0.046-2.653,0.138c-0.905,0.094-1.667,0.141-2.28,0.141
						c-0.245,0-0.368-0.217-0.368-0.649c0-0.385,0.123-0.594,0.371-0.624c1.062-0.126,1.758-0.425,2.092-0.905
						c0.329-0.479,0.497-1.482,0.497-3.011l0.019-8.519c0-1.73-0.468-3.365-0.755-3.714c-0.289-0.347-1.156-1.417-2.601-1.505
						c-2.283-0.231-3.469,1.128-5.313,2.941l-0.087,10.796c0,1.528,0.163,2.532,0.495,3.011c0.331,0.48,1.029,0.779,2.094,0.905
						c0.246,0.03,0.37,0.238,0.37,0.624c0,0.432-0.124,0.649-0.37,0.649c-0.633,0-1.404-0.047-2.313-0.141
						c-1.001-0.092-1.881-0.138-2.633-0.138c-0.74,0-1.603,0.046-2.588,0.138c-0.912,0.094-1.681,0.141-2.314,0.141
						c-0.247,0-0.369-0.217-0.369-0.649c0-0.385,0.122-0.594,0.369-0.624c1.326-0.171,2.182-0.493,2.568-0.961
						c0.382-0.471,0.576-1.454,0.576-2.95V53.648c0-1.233-0.157-2.043-0.473-2.429c-0.316-0.384-0.996-0.581-2.092-0.705
						c-0.244,0-0.34-0.353-0.34-0.765c0-0.375,0.083-0.517,0.331-0.517c1.525-0.385,2.769-0.527,3.786-1.013
						c1.017-0.485,1.655-0.773,1.917-1.083c0.154-0.184,0.327-0.278,0.511-0.278c0.43,0,0.647,0.124,0.647,0.372l-0.056,4.155
						c1.665-2.061,4.931-3.823,6.782-3.561c2.262,0.115,3.396,1.112,4.574,2.315c1.004,1.158,1.425,3.633,1.425,5.669l-0.041,8.243
						c0,1.514,0.187,2.5,0.567,2.963c0.379,0.464,1.22,0.78,2.531,0.953C229.876,67.998,230,68.206,230,68.591z"/>
				</g>
			</g>
			<g>
				<g>
					<path fill="#FFFFFF" d="M132.976,52.579l0.993-0.215c0.403,0,0.448-0.112,0.536-0.315c0-0.834-0.021-0.82-0.431-0.885
						c-0.46-0.109-2.443,0.122-3.71-0.602c-1.135-0.711-4.064-2.663-5.046-2.354c-0.982,0.308-1.356,0.288-2.024,0.288
						c-2.264,0-4.217,0.796-5.855,2.386c-1.639,1.589-2.459,3.45-2.459,5.581c0,1.328,0.371,2.534,1.109,3.612
						c0.74,1.081,1.772,1.946,3.099,2.597c-1.219,0.213-2.393,0.64-3.525,1.274c-1.135,0.634-1.7,1.229-1.7,1.788
						c0,0.789,0.299,1.583,0.901,2.379c0.601,0.798,1.379,1.412,2.335,1.845c-1.433,0.509-2.679,1.308-3.734,2.394
						c-1.057,1.087-1.583,2.201-1.583,3.341c0,1.696,0.83,3.137,2.494,4.327c1.664,1.186,3.71,1.781,6.143,1.781
						c3.71,0,6.92-0.935,9.63-2.803c2.71-1.87,4.067-4.052,4.067-6.555c0-1.652-0.644-2.94-1.925-3.867
						c-1.284-0.927-3.079-1.414-5.383-1.46l-5.349-0.068c-1.076-0.015-1.914-0.198-2.512-0.544
						c-0.599-0.349-0.899-0.792-0.899-1.332c0-0.431,0.361-0.811,1.082-1.135c0.723-0.323,1.697-0.487,2.926-0.487h0.922
						c2.349,0,4.336-0.742,5.954-2.223c1.621-1.482,2.43-3.335,2.43-5.559c0-0.55-0.112-1.335-0.186-1.632
						C131.316,53.061,132.976,52.579,132.976,52.579z M118.562,70.564c0.818,0.31,1.757,0.465,2.82,0.465l5.365,0.116
						c1.649,0.032,2.823,0.278,3.524,0.74c0.702,0.461,1.053,1.224,1.053,2.287c0,1.571-0.872,2.894-2.612,3.972
						c-1.744,1.078-3.8,1.617-6.173,1.617c-1.972,0-3.599-0.474-4.877-1.419c-1.28-0.948-1.918-2.184-1.918-3.71
						C115.743,72.953,116.682,71.595,118.562,70.564z M123.312,62.068c-1.366,0-2.347-0.446-2.938-1.333
						c-0.591-0.886-0.889-2.313-0.889-4.273c0-4.322,1.275-6.485,3.827-6.485c1.337,0,2.31,0.464,2.917,1.392
						c0.606,0.924,0.908,2.375,0.908,4.355C127.137,59.954,125.863,62.068,123.312,62.068z"/>
					<path fill="#FFFFFF" d="M117.418,81.394c0.346,0.175,2.851-0.117,4.123,5.441c-0.232,0.465-1.426,2.72-2.504,2.953
						c-1.08,0.232-1.619,1.216-1.619,1.216s1.272-1.159,1.656-0.925c0.542-0.118,2.35-1.565,2.388-1.911
						c0.158-0.406,0.501-0.116,0.695,0.637c0.193,0.75,0.618,1.505-0.385,3.01c-1.003,1.504-1.58,3.532-1.118,4.862
						c0.462,1.333,1.811,6.024,1.771,7.066c0.35-0.521,0.039-6.718-0.075-7.817c-0.075-0.71,0.638-1.859,1.256-2.659
						c0.087-0.109,0.488,0.815,1.324,1.083c0.837,0.273,1.15,2.358,1.224,2.281c0.074-0.083-0.378-2.436-1.055-2.593
						c-0.679-0.157-0.737-1.624-0.708-1.645c0.386-0.289,0.039-4.979-0.309-5.615c-0.346-0.639,0.463-4.634,3.313-6.312
						L117.418,81.394z"/>
					<g>
						<g>
							<path fill="#FFFFFF" d="M144.897,12.195c2.221,0.064,3.238-0.954,3.238-0.954c0.442,1.018,1.649,1.337,1.649,1.337
								s0.443-0.51,0.698-0.764c-0.318-3.053-1.905-2.798-2.92-2.988c-4.95-4.895-9.773-4.324-10.724-4.324
								c-0.254,1.019-1.208,1.336-1.081,1.526c0.128,0.191,0.128,1.208,0.256,1.844c2.666,3.623-1.207,3.051-0.635,1.462
								c-0.127-1.335-1.841-1.717-1.841-1.717c-0.507,1.08-1.968,1.462-1.968,1.462v0.698c-0.571,0.51-0.19,1.399-0.063,1.91
								c-0.127,0.952,0.7,2.732,0.7,2.732s-0.636,0.699-0.318,1.271c0.318,0.572,0.318,2.099,0.256,2.926
								c-0.319,0.253-1.207,2.542-1.843,3.876c-1.014-1.081-2.157-0.572-2.157-0.572l0.063-1.017
								c-1.205-2.48-3.808,0.064-5.14-0.509c0,0-0.697-0.19,1.394-2.097c5.46-1.399,5.205-4.451,4.827-10.299
								c-0.128-0.254-1.713-2.543-2.221-4.005c-0.508-1.461-1.461-1.144-1.842-1.527c-0.38-0.38-2.03-1.08-3.171-1.589
								c-0.637-1.462-0.701-0.698-0.889-0.509c-0.192,0.194-2.666,1.59-3.557,1.719c-1.711,1.208-1.395,1.587-1.522,2.032
								c-1.903,1.654-2.792,4.389-2.728,4.834c0.062,0.443,0.507,1.715,0.507,4.259c0,2.542,0.254,2.796,0.952,3.369
								c2.981,2.036,1.523,2.289,0.953,2.162c-0.574-0.126-1.145,0.381-1.079,0.953c0.443,0.382,0.443,0.952,0.443,0.952
								s-0.063,0.891,0,1.718c0.508,0.127,0.636,1.08,1.268,1.399c1.46,0.062,1.525,1.082,1.967,1.082
								c1.969,0.38,1.843,1.016,1.969,2.35c0.827,2.544-1.144,0.828-1.458,1.145c-0.318,0.318-1.145,1.271,0.444,2.415
								c1.586,1.146,1.52,2.544,1.52,2.544l-1.012,0.062c0.252-3.242-2.477-1.08-3.366-0.826c-0.823-0.062-2.41,0-2.283,1.08
								c0.443,1.718-0.127,1.845-0.698,2.289c-2.158-0.761-2.35-5.212-1.969-5.848c0.382-0.636-0.062-1.143,0-1.651
								c0.128-1.21-0.696-2.1-1.015-2.291c-0.316-0.19-0.952-1.461-1.585,0.191c-0.636,1.653-0.952,1.145-1.459,1.018
								c-0.509-0.128-0.318-1.399-0.128-2.416c1.015-1.591-0.824-2.543-1.143-2.796c-0.38,0.062-1.206-0.193-1.713-0.51
								c-3.553-2.288-5.078,0.443-6.219,1.779c-4.569-0.127-4.253,1.908-4.253,2.48c-0.38,0.19-0.571,0.762-0.444,1.082
								c-0.381,2.351,0.762,2.415,1.46,2.796c1.459,1.526,1.522,1.208,1.966,1.082c0.444-0.128,1.271-0.892,1.46-1.209
								c1.84-0.063,1.586-0.508,2.094-0.635c0.507-0.128,1.143-0.446,1.714-0.891c1.396-0.573,1.968,0.254,1.586,0.827
								c-0.381,0.572-2.474,1.399-2.54,2.353c0.065,1.908,2.095,0.762,2.475,0.698c0.381-0.063,1.143,0.698,2.159-0.127
								c1.015-0.828,1.206,0,1.651-0.191c0.443-0.191,0.825,0,1.395,0.444c1.714,2.989,0.571,6.233,0.571,6.233
								s1.207,1.778,2.032,0.379c1.014-2.161,2.538-0.573,2.792-0.19c0.253,0.381,2.476,2.925,2.496,3.18
								c-0.336,0.085-1.185,0.085-1.016,0.762c0.169,0.679,1.608,0.679,2.033,0.679c0.423,0,2.284,4.83,2.707,5.681l0.7,0.76
								l2.283-0.062l1.396-0.827c1.84-1.272,2.92-6.993,2.92-6.993s0.508-0.636,0.888-1.272c1.142,0.127,1.269-0.317,1.397-0.826
								c-0.51-0.891-0.128-1.018,0-1.397c0.125-0.382,1.968-2.673,3.362-4.26c3.68-2.416,4.38,0.19,5.713-1.526
								c0.253-0.573-1.207-1.335-1.778-1.463c-1.841-0.445-0.888-0.828-0.508-1.018c1.207-0.318,3.109,0.445,3.807-0.126
								c0.636-0.51,3.43-0.255,3.81-0.318c0.507-0.826,1.205-1.017,1.649-0.7c0.444,0.318,1.776,1.399,2.222,1.527
								c1.651-1.209,1.142-1.716,0.824-1.972c-0.126-0.445-1.903-1.653-2.602-2.097c-1.269-2.036-2.792-1.527-3.808-1.654
								c-1.458-0.701-1.838-0.573-2.409-0.509c-1.778,1.271-3.811,0.891-5.015,0.891c-1.207,0.762-0.443,1.716,0,2.16
								c2.159,1.082,0.89,1.274,0.125,0.828c-1.014-0.192-2.538-1.462-3.744-1.082c-1.204,0.381-0.697,0.826-0.697,0.826
								s0.379,0.51,0.761,0.828c1.143,0.636,1.65,1.081,1.714,1.843c0.063,2.036-2.856,5.149-3.491,5.976
								c-0.57,1.464-1.079,0.954-1.458,0.637c0-0.256,0.697-5.913,1.077-6.295c1.335,0.128,1.397-0.318,1.397-0.827
								c0-0.508-0.19-0.572-1.016-0.889c-0.507-0.446,0.189-4.26,0.573-4.833c0.381-0.571,1.396-0.508,1.774-0.445
								c0.7,0.638,1.587,0.764,2.985,0.638c2.159-0.319,2.475-1.272,2.667-2.035c1.584-3.245-1.778-3.371-2.479-3.371
								c-2.792,1.462-2.474,0.699-2.283,0.065c0.189-0.637,1.586-1.527,2.538-2.162c0.571-0.89,2.982-1.4,4.571-0.254
								c1.585,1.143,2.601,0.254,3.108,0.19c1.203-0.89,1.078-1.715,1.143-2.099c0.319-0.127,0.443-0.444,0.253-0.889
								C143.374,12.64,144.39,12.384,144.897,12.195z M121.667,47.161l-0.316,0.32c0,0-4.252-7.949-6.156-8.838
								c0-0.51,0.064-1.336,0.446-1.781c0.128-0.635,0.128-1.144,0.128-1.144l1.142-0.191c0,0,0.762-0.19,0.95,0.637
								c-0.444,0.253-1.711,0.444-0.761,1.588c0.953,1.144,1.017,1.144,2.094,1.144c0.382,0.128,1.018,0,0.637,0.827
								c-0.382,0.827,0.062,1.143,0.635,1.526c0.569,0.381,0.698,1.271-0.573,1.143c-0.126,0.382,0.318,1.273,1.207,1.527
								c0.568,0.446,1.269,1.019,0.445,1.782C121.733,46.146,122.303,46.654,121.667,47.161z M124.78,46.715
								c0,0-0.128-0.254,0-0.506c0.126-0.256,1.395-2.29,1.395-2.29C126.048,45.064,124.78,46.715,124.78,46.715z M129.221,25.355
								c-0.063,0.191-0.316,1.843-0.316,2.799c0,0.952-0.192,1.334-0.573,0.952c-0.381-0.382-0.253-0.507-0.887-0.126
								c-0.636,0.381,0.634,1.59,1.015,1.908c0.317,0.89-0.571,4.132-0.825,5.721c-1.521,0.444-0.062,1.525-0.062,1.525
								s-0.7,2.988-1.08,4.131c-1.967,2.354-2.792,4.897-2.792,4.897l-0.254-0.317l-0.062-0.955c0.634-0.254,0.316-0.761,0.188-0.89
								c-0.126-0.127-1.015-0.253,0.192-1.334c1.204-1.081,0.379-1.78,0.379-1.78l-1.016,0.443c0,0-0.317-0.953,0.506-1.333
								c0.824-0.381,0.954-1.463,0.573-1.717c-0.379-0.254-0.443-1.208-0.507-1.654c-0.446-0.318-0.823-1.334-1.205-1.78
								c-0.065-4.195,1.014-3.687,1.963-4.004c0.955-0.317,0.638-1.525-0.63-1.843c-1.46,0.125-1.333-1.146-1.333-3.371
								c0-2.225,1.649-2.416,2.727-2.161c2.286,0.89,2.474-0.255,2.667-0.636C129.918,25.102,129.285,25.165,129.221,25.355z"/>
						</g>
					</g>
				</g>
			</g>
		</g>
	</g>
</g>
</svg>
