<?xml version="1.0" encoding="utf-8"?>
<!-- Generator: Adobe Illustrator 15.0.2, SVG Export Plug-In . SVG Version: 6.00 Build 0)  -->
<!DOCTYPE svg PUBLIC "-//W3C//DTD SVG 1.1//EN" "http://www.w3.org/Graphics/SVG/1.1/DTD/svg11.dtd">
<svg version="1.1" id="Layer_1" xmlns="http://www.w3.org/2000/svg" xmlns:xlink="http://www.w3.org/1999/xlink" x="0px" y="0px"
	 width="245px" height="40px" viewBox="0 0 245 40" enable-background="new 0 0 245 40" xml:space="preserve">
<g id="Phil_Borges">
	<g>
		<g>
			<path fill="#FFFFFF" d="M145.387,32.618h4.233v0.412h-3.788v2.466h3.402v0.412h-3.402v2.724h-0.445V32.618z"/>
			<path fill="#FFFFFF" d="M150.841,35.643v-0.018c0-1.641,1.211-3.109,3.031-3.109c1.823,0,3.017,1.451,3.017,3.092
				c0.008,0.009,0.008,0.009,0,0.018c0,1.64-1.211,3.109-3.033,3.109C152.034,38.734,150.841,37.283,150.841,35.643z
				 M156.425,35.643v-0.018c0-1.487-1.083-2.706-2.569-2.706s-2.551,1.203-2.551,2.688v0.018c0,1.486,1.082,2.706,2.567,2.706
				C155.359,38.331,156.425,37.127,156.425,35.643z"/>
			<path fill="#FFFFFF" d="M158.667,32.618h2.524c0.739,0,1.332,0.232,1.693,0.592c0.283,0.284,0.455,0.688,0.455,1.117v0.018
				c0,1.004-0.748,1.581-1.761,1.718l1.983,2.569h-0.566l-1.916-2.491h-0.018h-1.949v2.491h-0.446V32.618z M161.141,35.737
				c1.006,0,1.752-0.508,1.752-1.374v-0.018c0-0.808-0.635-1.315-1.726-1.315h-2.054v2.707H161.141z"/>
			<path fill="#FFFFFF" d="M167.585,37.755l0.293-0.334c0.66,0.61,1.271,0.892,2.155,0.892c0.902,0,1.52-0.506,1.52-1.194v-0.017
				c0-0.636-0.334-1.005-1.701-1.279c-1.441-0.292-2.025-0.781-2.025-1.693v-0.017c0-0.894,0.815-1.58,1.933-1.58
				c0.876,0,1.451,0.24,2.061,0.73l-0.282,0.352c-0.567-0.489-1.135-0.678-1.796-0.678c-0.884,0-1.47,0.507-1.47,1.133v0.018
				c0,0.636,0.327,1.022,1.754,1.315c1.391,0.283,1.975,0.781,1.975,1.656v0.018c0,0.971-0.833,1.641-1.992,1.641
				C169.046,38.717,168.307,38.399,167.585,37.755z"/>
			<path fill="#FFFFFF" d="M173.461,35.643v-0.018c0-1.641,1.211-3.109,3.032-3.109s3.015,1.451,3.015,3.092
				c0.009,0.009,0.009,0.009,0,0.018c0,1.64-1.211,3.109-3.031,3.109C174.654,38.734,173.461,37.283,173.461,35.643z
				 M179.045,35.643v-0.018c0-1.487-1.082-2.706-2.568-2.706s-2.553,1.203-2.553,2.688v0.018c0,1.486,1.084,2.706,2.569,2.706
				C177.979,38.331,179.045,37.127,179.045,35.643z"/>
			<path fill="#FFFFFF" d="M181.021,35.643v-0.018c0-1.701,1.271-3.109,3.006-3.109c1.075,0,1.719,0.394,2.338,0.961l-0.319,0.327
				c-0.523-0.507-1.124-0.885-2.026-0.885c-1.443,0-2.534,1.177-2.534,2.688v0.018c0,1.52,1.108,2.706,2.542,2.706
				c0.868,0,1.46-0.335,2.07-0.937l0.301,0.293c-0.636,0.626-1.322,1.048-2.387,1.048C182.293,38.734,181.021,37.368,181.021,35.643
				z"/>
			<path fill="#FFFFFF" d="M187.945,32.618h0.447v6.014h-0.447V32.618z"/>
			<path fill="#FFFFFF" d="M192.782,32.576h0.43l2.8,6.056h-0.49l-0.764-1.685h-3.547l-0.766,1.685h-0.463L192.782,32.576z
				 M194.568,36.544l-1.58-3.479l-1.588,3.479H194.568z"/>
			<path fill="#FFFFFF" d="M197.543,32.618h0.445v5.6h3.531v0.414h-3.977V32.618z"/>
			<path fill="#FFFFFF" d="M205.687,35.643v-0.018c0-1.701,1.272-3.109,3.007-3.109c1.074,0,1.717,0.394,2.336,0.961l-0.317,0.327
				c-0.524-0.507-1.125-0.885-2.028-0.885c-1.441,0-2.533,1.177-2.533,2.688v0.018c0,1.52,1.109,2.706,2.543,2.706
				c0.867,0,1.459-0.335,2.07-0.937l0.301,0.293c-0.637,0.626-1.323,1.048-2.387,1.048
				C206.959,38.734,205.687,37.368,205.687,35.643z"/>
			<path fill="#FFFFFF" d="M212.551,32.618h0.447v2.784h3.848v-2.784h0.447v6.014h-0.447v-2.818h-3.848v2.818h-0.447V32.618z"/>
			<path fill="#FFFFFF" d="M221.623,32.576h0.43l2.799,6.056h-0.489l-0.765-1.685h-3.547l-0.766,1.685h-0.463L221.623,32.576z
				 M223.409,36.544l-1.581-3.479l-1.588,3.479H223.409z"/>
			<path fill="#FFFFFF" d="M226.384,32.618h0.42l4.149,5.232v-5.232h0.43v6.014h-0.336l-4.234-5.344v5.344h-0.429V32.618z"/>
			<path fill="#FFFFFF" d="M233.162,35.643v-0.018c0-1.623,1.177-3.109,2.971-3.109c0.979,0,1.598,0.292,2.199,0.79l-0.293,0.335
				c-0.471-0.412-1.021-0.721-1.932-0.721c-1.459,0-2.482,1.237-2.482,2.688v0.018c0,1.555,0.971,2.715,2.578,2.715
				c0.764,0,1.477-0.318,1.914-0.687v-1.727h-2.01v-0.413h2.44v2.319c-0.542,0.48-1.384,0.902-2.362,0.902
				C234.287,38.734,233.162,37.334,233.162,35.643z"/>
			<path fill="#FFFFFF" d="M240.421,32.618h4.277v0.412h-3.831v2.363h3.445v0.412h-3.445v2.413h3.874v0.414h-4.32V32.618z"/>
		</g>
		<g>
			<path fill="#FFFFFF" d="M150.393,27.183l0.571-0.676c0.851,0.769,1.668,1.154,2.799,1.154c1.096,0,1.819-0.584,1.819-1.388V26.25
				c0-0.758-0.408-1.19-2.123-1.552c-1.877-0.408-2.74-1.014-2.74-2.355V22.32c0-1.284,1.131-2.228,2.682-2.228
				c1.189,0,2.041,0.338,2.869,1.003l-0.536,0.711c-0.758-0.618-1.517-0.886-2.354-0.886c-1.062,0-1.738,0.583-1.738,1.317v0.024
				c0,0.77,0.418,1.201,2.215,1.585c1.818,0.397,2.66,1.062,2.66,2.31v0.024c0,1.398-1.166,2.309-2.788,2.309
				C152.433,28.488,151.371,28.056,150.393,27.183z"/>
			<path fill="#FFFFFF" d="M160.73,21.06h-2.74v-0.851h6.413v0.851h-2.741v7.312h-0.932V21.06z"/>
			<path fill="#FFFFFF" d="M165.562,24.313V24.29c0-2.25,1.69-4.221,4.175-4.221c2.483,0,4.151,1.947,4.151,4.199
				c0.012,0.011,0.012,0.011,0,0.022c0,2.252-1.691,4.221-4.175,4.221S165.562,26.564,165.562,24.313z M172.932,24.313V24.29
				c0-1.854-1.354-3.37-3.218-3.37c-1.866,0-3.194,1.492-3.194,3.347v0.022c0,1.855,1.352,3.371,3.218,3.371
				C171.603,27.661,172.932,26.168,172.932,24.313z"/>
			<path fill="#FFFFFF" d="M176.192,20.209h3.51c1.003,0,1.808,0.303,2.321,0.816c0.396,0.396,0.629,0.968,0.629,1.609v0.024
				c0,1.352-0.934,2.145-2.217,2.377l2.509,3.336h-1.132l-2.367-3.172h-0.023h-2.309v3.172h-0.921V20.209z M179.621,24.373
				c1.223,0,2.098-0.63,2.098-1.679v-0.024c0-1.003-0.769-1.609-2.087-1.609h-2.519v3.312H179.621z"/>
			<path fill="#FFFFFF" d="M187.242,25.142l-3.395-4.933h1.12l2.751,4.081l2.776-4.081h1.073l-3.393,4.921v3.242h-0.934V25.142z"/>
			<path fill="#FFFFFF" d="M195.551,21.06h-2.74v-0.851h6.413v0.851h-2.74v7.312h-0.933V21.06z"/>
			<path fill="#FFFFFF" d="M201.305,20.209h5.9v0.838h-4.979v2.787h4.455v0.841h-4.455v2.856h5.037v0.84h-5.959V20.209z"/>
			<path fill="#FFFFFF" d="M209.473,20.209h0.922v7.312h4.595v0.852h-5.517V20.209z"/>
			<path fill="#FFFFFF" d="M217.047,20.209h0.92v7.312h4.595v0.852h-5.515V20.209z"/>
			<path fill="#FFFFFF" d="M224.7,20.209h0.921v8.163H224.7V20.209z"/>
			<path fill="#FFFFFF" d="M228.364,20.209h0.863l5.143,6.541v-6.541h0.897v8.163h-0.734l-5.271-6.694v6.694h-0.898V20.209z"/>
			<path fill="#FFFFFF" d="M237.57,24.313V24.29c0-2.239,1.646-4.221,4.094-4.221c1.376,0,2.229,0.397,3.045,1.084l-0.596,0.7
				c-0.629-0.548-1.329-0.933-2.484-0.933c-1.807,0-3.102,1.527-3.102,3.347v0.022c0,1.949,1.25,3.394,3.23,3.394
				c0.933,0,1.797-0.361,2.355-0.816v-2.028h-2.484V24.01H245v3.254c-0.758,0.676-1.901,1.247-3.277,1.247
				C239.157,28.511,237.57,26.645,237.57,24.313z"/>
		</g>
	</g>
	<g>
		<g>
			<path fill="#FFFFFF" d="M0.337,18.317h4.03c2.429,0,4.029,1.292,4.029,3.413v0.031c0,2.321-1.938,3.521-4.229,3.521H1.552v3.799
				H0.337V18.317z M4.213,24.176c1.785,0,2.953-0.953,2.953-2.368v-0.032c0-1.537-1.153-2.337-2.892-2.337H1.552v4.737H4.213z"/>
			<path fill="#FFFFFF" d="M11.385,18.317h4.63c1.322,0,2.383,0.399,3.061,1.077c0.521,0.522,0.83,1.275,0.83,2.121v0.032
				c0,1.784-1.232,2.83-2.924,3.137l3.309,4.399h-1.492l-3.122-4.184h-0.031H12.6v4.184h-1.214V18.317z M15.908,23.806
				c1.613,0,2.766-0.831,2.766-2.214v-0.031c0-1.322-1.014-2.123-2.752-2.123H12.6v4.368H15.908z"/>
			<path fill="#FFFFFF" d="M22.804,23.73v-0.032c0-2.967,2.229-5.565,5.507-5.565c3.273,0,5.474,2.566,5.474,5.536
				c0.015,0.015,0.015,0.015,0,0.03c0,2.97-2.229,5.568-5.506,5.568S22.804,26.697,22.804,23.73z M32.523,23.73v-0.032
				c0-2.444-1.785-4.444-4.245-4.444c-2.461,0-4.214,1.969-4.214,4.414v0.03c0,2.446,1.785,4.445,4.246,4.445
				C30.771,28.144,32.523,26.175,32.523,23.73z"/>
			<path fill="#FFFFFF" d="M37.127,18.317h3.738c3.383,0,5.721,2.321,5.721,5.352v0.03c0,3.031-2.338,5.384-5.721,5.384h-3.738
				V18.317z M40.865,27.958c2.722,0,4.459-1.846,4.459-4.229v-0.032c0-2.382-1.737-4.26-4.459-4.26h-2.523v8.52H40.865z"/>
			<path fill="#FFFFFF" d="M49.761,24.575v-6.258h1.216v6.182c0,2.321,1.229,3.628,3.291,3.628c1.982,0,3.244-1.2,3.244-3.553
				v-6.258h1.215v6.167c0,3.137-1.799,4.768-4.49,4.768C51.576,29.251,49.761,27.621,49.761,24.575z"/>
			<path fill="#FFFFFF" d="M61.902,23.73v-0.032c0-3.044,2.275-5.565,5.443-5.565c1.953,0,3.123,0.69,4.199,1.706l-0.83,0.892
				c-0.908-0.862-1.923-1.477-3.385-1.477c-2.383,0-4.167,1.937-4.167,4.414v0.03c0,2.493,1.799,4.445,4.167,4.445
				c1.477,0,2.445-0.569,3.477-1.554l0.799,0.785c-1.121,1.137-2.354,1.892-4.305,1.892C64.193,29.267,61.902,26.82,61.902,23.73z"
				/>
			<path fill="#FFFFFF" d="M77.35,19.438h-3.613v-1.122h8.457v1.122h-3.614v9.644H77.35V19.438z"/>
			<path fill="#FFFFFF" d="M85.353,18.317h1.215v10.765h-1.215V18.317z"/>
			<path fill="#FFFFFF" d="M90.014,23.73v-0.032c0-2.967,2.23-5.565,5.506-5.565s5.475,2.566,5.475,5.536
				c0.016,0.015,0.016,0.015,0,0.03c0,2.97-2.23,5.568-5.506,5.568S90.014,26.697,90.014,23.73z M99.732,23.73v-0.032
				c0-2.444-1.783-4.444-4.244-4.444s-4.214,1.969-4.214,4.414v0.03c0,2.446,1.784,4.445,4.245,4.445S99.732,26.175,99.732,23.73z"
				/>
			<path fill="#FFFFFF" d="M104.339,18.317h1.139l6.782,8.627v-8.627h1.185v10.765h-0.97l-6.951-8.828v8.828h-1.185V18.317z"/>
			<path fill="#FFFFFF" d="M116.557,27.513l0.754-0.891c1.123,1.014,2.199,1.522,3.69,1.522c1.446,0,2.399-0.769,2.399-1.831v-0.029
				c0-1.001-0.538-1.57-2.799-2.047c-2.475-0.539-3.613-1.337-3.613-3.106V21.1c0-1.692,1.491-2.938,3.537-2.938
				c1.568,0,2.691,0.446,3.783,1.323l-0.707,0.938c-1-0.814-2-1.168-3.107-1.168c-1.398,0-2.292,0.769-2.292,1.738v0.031
				c0,1.015,0.554,1.584,2.923,2.092c2.399,0.522,3.506,1.398,3.506,3.044v0.032c0,1.845-1.537,3.045-3.675,3.045
				C119.248,29.236,117.85,28.666,116.557,27.513z"/>
		</g>
		<g>
			<path fill="#FFFFFF" d="M0,0.23h5.309c3.135,0,5.117,1.79,5.117,4.5V4.77c0,3.02-2.423,4.597-5.386,4.597H2.366v4.327H0V0.23z
				 M5.117,7.231c1.788,0,2.904-1,2.904-2.404V4.789c0-1.577-1.134-2.405-2.904-2.405H2.366v4.848H5.117z"/>
			<path fill="#FFFFFF" d="M12.85,0.23h2.365v5.598h6.424V0.23h2.365v13.463h-2.365V8.021h-6.424v5.673H12.85V0.23z"/>
			<path fill="#FFFFFF" d="M27.602,0.23h2.366v13.463h-2.366V0.23z"/>
			<path fill="#FFFFFF" d="M33.564,0.23h2.365v11.31h7.078v2.153h-9.443V0.23z"/>
			<path fill="#FFFFFF" d="M51.24,0.23h6.039c1.539,0,2.75,0.423,3.52,1.192c0.596,0.598,0.904,1.328,0.904,2.232v0.039
				c0,1.615-0.923,2.481-1.924,3c1.578,0.538,2.674,1.442,2.674,3.27v0.039c0,2.404-1.981,3.692-4.982,3.692h-6.23V0.23z
				 M56.798,5.905c1.521,0,2.54-0.597,2.54-1.828V4.039c0-1.057-0.847-1.712-2.365-1.712h-3.406v3.579H56.798z M57.49,11.598
				c1.617,0,2.598-0.634,2.598-1.847V9.712c0-1.135-0.904-1.807-2.771-1.807h-3.751v3.692H57.49z"/>
			<path fill="#FFFFFF" d="M64.531,7.001V6.962C64.531,3.173,67.455,0,71.59,0s7.02,3.134,7.02,6.924v0.039
				c0,3.789-2.924,6.962-7.059,6.962S64.531,10.79,64.531,7.001z M76.129,7.001V6.962c0-2.616-1.904-4.79-4.578-4.79
				s-4.54,2.135-4.54,4.751v0.039c0,2.616,1.905,4.788,4.579,4.788C74.263,11.75,76.129,9.617,76.129,7.001z"/>
			<path fill="#FFFFFF" d="M81.475,0.23h6.002c1.693,0,3.021,0.5,3.886,1.346c0.712,0.731,1.115,1.731,1.115,2.905v0.037
				c0,2.213-1.327,3.539-3.212,4.079l3.635,5.096h-2.789l-3.308-4.692h-0.038h-2.924v4.692h-2.367V0.23z M87.303,6.905
				c1.693,0,2.771-0.885,2.771-2.25V4.616c0-1.442-1.038-2.232-2.788-2.232h-3.443v4.521H87.303z"/>
			<path fill="#FFFFFF" d="M94.785,7.001V6.962c0-3.77,2.886-6.962,6.943-6.962c2.348,0,3.789,0.654,5.174,1.827l-1.5,1.789
				c-1.038-0.884-2.057-1.443-3.77-1.443c-2.48,0-4.367,2.174-4.367,4.751v0.039c0,2.77,1.828,4.809,4.578,4.809
				c1.271,0,2.424-0.405,3.252-1.02V8.232h-3.443V6.174h5.731v5.655c-1.327,1.134-3.231,2.096-5.616,2.096
				C97.556,13.925,94.785,10.924,94.785,7.001z"/>
			<path fill="#FFFFFF" d="M110.461,0.23h9.983v2.116h-7.618v3.5h6.752v2.116h-6.752v3.614h7.713v2.116h-10.078V0.23z"/>
			<path fill="#FFFFFF" d="M122.443,11.732l1.425-1.692c1.288,1.115,2.576,1.75,4.25,1.75c1.462,0,2.386-0.672,2.386-1.692v-0.039
				c0-0.961-0.539-1.482-3.039-2.059c-2.867-0.692-4.482-1.538-4.482-4.02V3.943c0-2.309,1.924-3.905,4.597-3.905
				c1.962,0,3.521,0.596,4.886,1.692l-1.27,1.789c-1.212-0.903-2.424-1.384-3.655-1.384c-1.384,0-2.192,0.711-2.192,1.596V3.77
				c0,1.04,0.616,1.5,3.193,2.116c2.847,0.692,4.328,1.711,4.328,3.943v0.038c0,2.519-1.98,4.02-4.809,4.02
				C126.002,13.886,124.059,13.175,122.443,11.732z"/>
		</g>
	</g>
	<g>
		<g>
			<polygon fill="#FFFFFF" points="148.427,0.152 151.692,0.152 132.945,39.37 132.504,39.37 			"/>
		</g>
		<g>
			<polygon fill="#FFFFFF" points="143.598,0.152 146.863,0.152 127.015,39.37 126.574,39.37 			"/>
		</g>
	</g>
</g>
</svg>
