<?xml version="1.0" encoding="utf-8"?>
<!-- Generator: Adobe Illustrator 15.0.2, SVG Export Plug-In . SVG Version: 6.00 Build 0)  -->
<!DOCTYPE svg PUBLIC "-//W3C//DTD SVG 1.1//EN" "http://www.w3.org/Graphics/SVG/1.1/DTD/svg11.dtd">
<svg version="1.1" id="Layer_1" xmlns="http://www.w3.org/2000/svg" xmlns:xlink="http://www.w3.org/1999/xlink" x="0px" y="0px"
	 width="275px" height="132px" viewBox="0 0 275 132" enable-background="new 0 0 275 132" xml:space="preserve">
<g id="RSM_LOGO_1_">
	<g>
		<path fill="#FFFFFF" d="M0,49.267v2.553c2.26-2.375,4.486-4.565,7.847-5.624c0.53,0.241,1.004,0.567,1.501,0.911
			c0.908,0.627,1.938,1.336,3.441,1.562c0.632,0.198,1.277,0.296,1.97,0.296c0.901,0,1.718-0.162,2.509-0.318
			c0.674-0.133,1.311-0.258,1.908-0.258c0.746,0,1.346,0.195,1.945,0.637l0.551,0.404l0.533-0.428
			c1.177-0.94,3.137-1.379,6.174-1.379c0.574,0,1.191,0.016,1.889,0.046l0.344,0.015l0.264-0.218
			c1.258-1.037,2.949-1.685,4.752-2.366c0.589-0.078,0.878,0.093,1.322,0.386c0.473,0.312,1.062,0.699,2.025,0.699
			c0.205,0,0.422-0.019,0.646-0.054l0.11-0.02l0.104-0.045c1.066-0.469,2.017-1.043,2.938-1.596
			c2.109-1.273,4.102-2.473,7.382-2.404l0.265,0.006l0.227-0.141c2.204-1.379,4.838-2.445,7.384-3.479
			c1.065-0.432,2.163-0.876,3.231-1.344c0.446,0.262,0.983,0.394,1.606,0.394c0.88,0,1.774-0.259,2.493-0.468l0.02-0.005
			c0.683,0.345,1.254,0.842,1.854,1.364c0.941,0.82,2.008,1.75,3.624,2.121l0.356,0.082l0.312-0.192
			c1.166-0.722,4.629-2.38,7.352-2.941l0.285-0.059l0.195-0.216c1.039-1.147,2.174-2.531,2.664-4.552
			c1.235-0.597,2.131-1.476,3.002-2.328c0.824-0.808,1.604-1.571,2.625-2.041c0.789-0.195,1.543-0.427,2.272-0.65
			c1.07-0.328,2.081-0.638,3.202-0.848l0.284-0.053l0.198-0.209c0.512-0.54,1.074-1.028,1.669-1.545
			c1.284-1.116,2.61-2.269,3.444-3.984c2.57-1.141,4.027-3.3,5.423-5.408c1.831-0.113,2.87-1.087,3.714-1.88
			c0.561-0.525,1.045-0.979,1.709-1.221l0.238-0.087l0.156-0.199c0.424-0.537,0.641-1.176,0.85-1.793
			c0.244-0.716,0.426-1.197,0.729-1.432c0.165,0.002,0.332,0.006,0.498,0.01c1.027,0.024,2.071,0.057,2.887-0.361
			c0.207,0.079,0.418,0.118,0.631,0.118c1.115,0,1.745-1.014,2.3-1.908c0.194-0.315,0.714-1.151,0.912-1.151
			c0,0,0.06,0.001,0.192,0.088l0.352,0.231l0.404-0.125c1.234-0.386,4.195-1.741,6.084-2.991c0.596-0.003,1.4-0.238,2.333-0.511
			c0.921-0.269,1.964-0.574,2.607-0.574c0.029,0,0.057,0,0.08,0.001c0.175,0.128,0.38,0.284,0.61,0.457
			c1.422,1.076,3.574,2.701,5.104,3.117l0.523,0.143l0.277-0.301c0.35,0.076,1.111,0.568,1.627,0.902
			c1.037,0.669,2.107,1.362,3.119,1.362c0.18,0,0.354-0.022,0.518-0.065l0.168-0.063c0.449-0.222,0.693-0.25,0.856-0.25
			c0.198,0,0.413,0.051,0.685,0.116c0.512,0.123,1.166,0.281,2.188,0.226l0.309-0.017l0.232-0.205
			c0.182-0.16,0.341-0.248,0.448-0.248c0.315,0,0.89,0.637,1.351,1.148c0.943,1.046,2.118,2.348,3.956,2.364
			c0.466,0.436,0.907,0.815,1.306,1.157c1.426,1.223,2.457,2.106,3.222,4.365l0.208,0.618l0.752-0.013
			c1.282,0,2.078,0.468,2.662,1.565l0.062,0.118l0.094,0.094c0.396,0.397,0.838,0.704,1.264,1c0.723,0.502,1.346,0.935,1.57,1.681
			l0.279,0.935l0.904-0.362c1.555-0.621,2.715-0.719,4.057-0.833c0.1-0.008,0.199-0.017,0.3-0.025
			c0.04,0.183,0.116,0.344,0.236,0.486c0.192,0.227,0.472,0.356,0.77,0.356c0.155,0,0.292-0.033,0.415-0.083
			c0.311,0.229,0.553,0.629,0.811,1.051c0.158,0.262,0.322,0.532,0.508,0.778c0.385,0.535,0.818,0.996,1.238,1.442
			c0.699,0.745,1.363,1.448,1.701,2.409l0.125,0.357l0.346,0.157c2.117,0.967,4.114,2.137,6.045,3.268
			c1.322,0.775,2.689,1.576,4.1,2.314l0.115,0.062l0.131,0.025c0.291,0.056,0.562,0.083,0.832,0.083
			c0.734,0,1.271-0.213,1.702-0.385c0.392-0.156,0.704-0.275,1.136-0.256l0.208,0.396l0.237-0.077
			c0.432,1.389,1.147,2.398,1.76,3.151l0.049,0.056c0.453,0.471,0.965,0.858,1.523,1.149l0.094,0.051l0.105,0.025
			c2.661,0.656,5.756,2.161,6.822,2.821l0.312,0.192l0.357-0.082c1.616-0.371,2.683-1.301,3.623-2.121
			c0.6-0.522,1.171-1.02,1.854-1.364l0.021,0.005c0.717,0.209,1.611,0.468,2.492,0.468c0.622,0,1.16-0.132,1.605-0.394
			c1.068,0.468,2.166,0.912,3.231,1.344c2.547,1.033,5.18,2.1,7.385,3.479l0.226,0.141l0.266-0.006
			c3.26-0.068,5.271,1.131,7.383,2.404c0.919,0.553,1.869,1.127,2.936,1.596l0.104,0.045l0.112,0.02
			c0.223,0.035,0.44,0.054,0.645,0.054c0.963,0,1.553-0.388,2.025-0.699c0.446-0.293,0.736-0.464,1.322-0.386
			c1.798,0.679,3.491,1.327,4.752,2.366l0.265,0.218l0.342-0.015c0.698-0.03,1.316-0.046,1.891-0.046
			c3.034,0,4.997,0.438,6.173,1.379l0.533,0.428l0.551-0.404c0.602-0.441,1.201-0.637,1.945-0.637c0.598,0,1.234,0.125,1.908,0.258
			c0.791,0.156,1.607,0.318,2.51,0.318c0.693,0,1.338-0.098,1.969-0.296c1.505-0.226,2.533-0.935,3.442-1.562
			c0.497-0.344,0.97-0.67,1.501-0.911c3.591,1.131,5.855,3.553,8.281,6.114c0.826,0.871,1.555,1.768,2.559,2.609v-2.49
			c0-0.447-0.84-0.898-1.264-1.347c-2.547-2.687-5.165-5.466-9.393-6.688l-0.279-0.084l-0.276,0.107
			c-0.842,0.322-1.503,0.779-2.144,1.221c-0.871,0.602-1.623,1.121-2.749,1.275l-0.156,0.036c-0.475,0.155-0.962,0.23-1.491,0.23
			c-0.728,0-1.426-0.138-2.164-0.283c-0.729-0.144-1.48-0.292-2.254-0.292c-0.894,0-1.7,0.205-2.447,0.625
			c-1.508-0.957-3.632-1.391-6.755-1.391c-0.507,0-1.046,0.012-1.637,0.035c-1.464-1.115-3.291-1.805-5.072-2.478l-0.171-0.046
			c-0.225-0.035-0.441-0.055-0.646-0.055c-0.964,0-1.552,0.388-2.026,0.699c-0.438,0.289-0.726,0.459-1.297,0.39
			c-0.918-0.414-1.748-1.054-2.625-1.583C227.983,41.494,225.736,40,222.12,40c-0.014,0-0.026,0-0.039,0
			c-2.284-2-4.903-2.313-7.436-3.339c-1.212-0.492-2.466-0.929-3.653-1.462l-0.564-0.218l-0.434,0.455
			c-0.066,0.066-0.265,0.276-0.855,0.276c-0.627,0-1.387-0.216-1.996-0.393l-0.652-0.182l-0.286,0.123
			c-1.069,0.453-1.85,1.133-2.604,1.791c-0.81,0.705-1.52,1.324-2.521,1.638c-1.275-0.725-4.171-2.121-6.885-2.808
			c-0.345-0.192-0.658-0.433-0.949-0.731c-0.909-1.126-1.391-2.116-1.605-3.303l-0.184-1.004l-0.939,0.307l-0.097-0.018
			c-0.292-0.056-0.563-0.083-0.832-0.083c-0.736,0-1.271,0.213-1.702,0.385c-0.472,0.188-0.846,0.315-1.418,0.229
			c-1.328-0.701-2.637-1.467-3.901-2.208c-1.87-1.096-3.802-2.227-5.877-3.199c-0.479-1.119-1.222-1.91-1.944-2.676
			c-0.396-0.423-0.771-0.822-1.098-1.276c-0.146-0.192-0.279-0.414-0.423-0.649c-0.264-0.431-0.555-0.91-0.976-1.308
			c-0.158-0.68-0.658-0.838-0.906-0.875l0.119-0.716l-1.182,0.142c-0.436,0.052-0.851,0.087-1.26,0.122
			c-1.151,0.097-2.336,0.198-3.764,0.663c-0.488-0.805-1.217-1.312-1.877-1.771c-0.343-0.237-0.667-0.463-0.936-0.713
			c-0.816-1.456-2.016-2.232-3.652-2.364c-0.904-2.305-2.131-3.357-3.534-4.561c-0.479-0.412-0.978-0.837-1.507-1.35l-0.299-0.289
			l-0.412,0.042c-1.184,0.115-2.042-0.834-2.881-1.765c-0.771-0.854-1.568-1.737-2.675-1.737c-0.464,0-0.923,0.162-1.363,0.481
			c-0.584,0.022-1.005-0.094-1.396-0.188c-0.341-0.082-0.692-0.506-1.102-0.506c-0.489,0-0.978,0.039-1.529,0.039
			c-0.004,0-0.008,0-0.013,0c-0.486,0-1.408-0.255-2.15-0.735c-0.994-0.643-1.854-1.027-2.678-1.027
			c-0.215,0-0.416,0.122-0.601,0.197c-1.22-0.488-3.026-1.811-4.147-2.658c-0.326-0.246-0.607-0.437-0.822-0.59l-0.146-0.094
			l-0.175-0.034c-0.93-0.212-2.367,0.186-3.73,0.584c-0.703,0.206-1.502,0.441-1.842,0.446l-0.398-0.106l-0.34,0.237
			c-1.526,1.063-4.166,2.326-5.526,2.82c-0.251-0.105-0.505-0.158-0.758-0.158c-1.189,0-1.876,1.105-2.427,1.993
			c-0.217,0.348-0.618,0.996-0.773,1.066c0,0-0.053-0.012-0.158-0.094l-0.643-0.494l-0.553,0.591
			c-0.105,0.114-0.443,0.249-1.447,0.249c-0.226,0-0.457-0.092-0.688-0.098C111.834,7.092,111.59,7,111.35,7h-0.254l-0.179,0.173
			c-1.103,0.522-1.485,1.693-1.794,2.599c-0.139,0.409-0.271,0.82-0.443,1.111c-0.861,0.378-1.485,0.975-2.041,1.496
			c-0.839,0.787-1.5,1.413-2.852,1.413l-0.6-0.01l-0.469,0.708c-1.383,2.089-2.689,4.065-4.99,4.971l-0.346,0.137l-0.146,0.34
			c-0.658,1.53-1.858,2.574-3.129,3.678c-0.531,0.461-1.078,0.937-1.592,1.456c-1.109,0.226-2.129,0.539-3.115,0.841
			c-0.764,0.234-1.484,0.455-2.254,0.643l-0.148,0.051c-1.353,0.598-2.303,1.529-3.221,2.429c-0.885,0.868-1.721,1.687-2.861,2.143
			l-0.459,0.183l-0.088,0.485c-0.312,1.709-1.177,2.853-2.141,3.934c-2.688,0.61-5.84,2.073-7.302,2.909
			c-1.001-0.314-1.71-0.933-2.521-1.639c-0.755-0.657-1.534-1.337-2.604-1.79l-0.287-0.122l-0.65,0.184
			c-0.609,0.177-1.369,0.397-1.997,0.397c-0.591,0-0.79-0.2-0.855-0.267l-0.435-0.438l-0.563,0.253
			c-1.188,0.533-2.442,1.041-3.653,1.533c-2.534,1.026-5.15,2.088-7.436,3.479c-3.643-0.002-5.895,1.348-8.073,2.662
			c-0.878,0.528-1.708,1.028-2.626,1.443c-0.575,0.066-0.857-0.102-1.298-0.391c-0.472-0.312-1.062-0.699-2.024-0.699
			c-0.205,0-0.423,0.02-0.645,0.055l-0.184,0.05c-1.77,0.669-3.597,1.358-5.062,2.474c-0.591-0.023-1.13-0.035-1.636-0.035
			c-3.124,0-5.247,0.434-6.756,1.391c-0.746-0.42-1.553-0.625-2.447-0.625c-0.771,0-1.525,0.148-2.253,0.292
			c-0.739,0.146-1.437,0.283-2.164,0.283c-0.529,0-1.018-0.075-1.492-0.23l-0.156-0.036c-1.127-0.154-1.88-0.674-2.752-1.275
			c-0.64-0.441-1.303-0.898-2.145-1.221L7.935,44.31l-0.287,0.084C4.375,45.341,2.061,47.22,0,49.267z"/>
		<rect y="131" fill="#FFFFFF" width="275" height="1"/>
	</g>
	<g>
		<path fill="#FFFFFF" d="M77.176,112.97c0-0.078-0.018-0.141-0.053-0.187s-0.103-0.069-0.203-0.069v-0.129h4.481
			c0.187,0,0.304-0.016,0.354-0.049c0.049-0.031,0.074-0.086,0.074-0.164h0.128v1.219H81.83c0-0.093-0.029-0.166-0.086-0.22
			c-0.058-0.054-0.167-0.079-0.332-0.079h-3.336v1.689h2.171c0.128,0,0.233-0.021,0.314-0.064c0.083-0.043,0.124-0.121,0.124-0.235
			h0.128v1.295h-0.128c0-0.107-0.031-0.183-0.097-0.226c-0.064-0.042-0.171-0.063-0.32-0.063h-2.192v1.818h3.572
			c0.148,0,0.26-0.026,0.332-0.081c0.07-0.053,0.105-0.147,0.105-0.283h0.129v1.273h-0.129c0-0.136-0.124-0.203-0.373-0.203H76.92
			v-0.129c0.101,0,0.168-0.022,0.203-0.069c0.035-0.046,0.053-0.108,0.053-0.187V112.97z"/>
		<path fill="#FFFFFF" d="M85.541,116.521c-0.021,0.05-0.031,0.097-0.031,0.14c0,0.1,0.062,0.203,0.187,0.311
			c0.124,0.106,0.289,0.205,0.493,0.293c0.203,0.09,0.432,0.162,0.689,0.22c0.256,0.058,0.518,0.086,0.781,0.086
			c0.677,0,1.167-0.101,1.471-0.3c0.303-0.199,0.455-0.457,0.455-0.771c0-0.149-0.037-0.274-0.113-0.374
			c-0.075-0.1-0.178-0.177-0.311-0.23c-0.131-0.053-0.285-0.09-0.459-0.111c-0.176-0.021-0.362-0.033-0.562-0.033
			c-0.328,0-0.676-0.001-1.043-0.006c-0.367-0.002-0.703-0.049-1.01-0.139c-0.307-0.088-0.561-0.236-0.76-0.443
			c-0.2-0.207-0.301-0.514-0.301-0.92c0-0.257,0.072-0.49,0.215-0.7c0.143-0.211,0.336-0.391,0.582-0.54
			c0.246-0.15,0.537-0.268,0.873-0.354c0.334-0.086,0.699-0.129,1.091-0.129c0.307,0,0.572,0.021,0.797,0.064
			c0.224,0.043,0.419,0.09,0.583,0.139c0.164,0.051,0.299,0.097,0.406,0.14c0.106,0.043,0.197,0.063,0.268,0.063
			c0.078,0,0.136-0.014,0.171-0.042c0.036-0.028,0.071-0.062,0.106-0.097l0.129,0.054l-0.588,1.23l-0.117-0.075
			c0.006-0.021,0.01-0.068,0.01-0.139c0-0.05-0.043-0.111-0.128-0.182c-0.087-0.072-0.207-0.141-0.364-0.209
			c-0.156-0.067-0.344-0.125-0.561-0.171c-0.219-0.047-0.455-0.07-0.712-0.07c-0.579,0-1.036,0.093-1.374,0.278
			c-0.34,0.186-0.508,0.428-0.508,0.729c0,0.135,0.037,0.244,0.111,0.325c0.074,0.082,0.179,0.146,0.311,0.192
			s0.285,0.077,0.46,0.091c0.175,0.015,0.362,0.021,0.561,0.021c0.335,0,0.686,0.005,1.049,0.017
			c0.364,0.011,0.699,0.066,1.006,0.166s0.56,0.26,0.759,0.48c0.201,0.222,0.3,0.545,0.3,0.974c0,0.228-0.06,0.448-0.177,0.657
			c-0.117,0.211-0.294,0.398-0.529,0.562c-0.234,0.164-0.525,0.293-0.871,0.385c-0.346,0.093-0.748,0.14-1.203,0.14
			c-0.386,0-0.719-0.031-1.001-0.091c-0.282-0.062-0.522-0.132-0.722-0.215c-0.199-0.082-0.363-0.156-0.492-0.225
			c-0.128-0.067-0.232-0.102-0.311-0.102c-0.071,0-0.146,0.043-0.225,0.129l-0.106-0.064l0.577-1.23L85.541,116.521z"/>
		<path fill="#FFFFFF" d="M94.837,118.083c0.101,0,0.168-0.022,0.203-0.069c0.036-0.046,0.054-0.108,0.054-0.187v-4.535h-1.797
			c-0.136,0-0.232,0.02-0.289,0.058c-0.057,0.04-0.086,0.112-0.086,0.22h-0.127v-1.262h0.127c0,0.186,0.125,0.277,0.375,0.277h4.492
			c0.25,0,0.375-0.092,0.375-0.277h0.128v1.262h-0.128c0-0.107-0.029-0.18-0.086-0.22c-0.058-0.038-0.154-0.058-0.289-0.058h-1.797
			v4.535c0,0.078,0.018,0.141,0.055,0.187c0.035,0.047,0.103,0.069,0.203,0.069v0.129h-1.413V118.083z"/>
		<path fill="#FFFFFF" d="M101.49,117.57c-0.028,0.063-0.061,0.136-0.096,0.214c-0.037,0.078-0.053,0.139-0.053,0.182
			c0,0.078,0.059,0.117,0.181,0.117v0.129h-1.315v-0.129c0.043,0,0.08-0.004,0.113-0.011c0.031-0.007,0.062-0.028,0.09-0.063
			s0.061-0.088,0.096-0.155c0.037-0.067,0.082-0.159,0.14-0.272l1.937-4.322c0.056-0.121,0.1-0.212,0.129-0.273
			c0.027-0.06,0.041-0.107,0.041-0.144c0-0.085-0.062-0.128-0.191-0.128v-0.129h1.561v0.129c-0.113,0-0.171,0.043-0.171,0.128
			c0,0.043,0.018,0.099,0.054,0.166c0.037,0.067,0.082,0.163,0.14,0.284l2.054,4.256c0.064,0.129,0.114,0.229,0.15,0.301
			c0.035,0.07,0.068,0.125,0.102,0.16c0.031,0.035,0.064,0.057,0.101,0.063s0.086,0.011,0.149,0.011v0.129h-1.486v-0.129
			c0.086,0,0.143-0.012,0.172-0.037c0.027-0.024,0.041-0.062,0.041-0.112c0-0.036-0.008-0.073-0.025-0.112s-0.055-0.123-0.113-0.251
			l-0.406-0.856h-3.025L101.49,117.57z M104.518,116.009l-1.209-2.525l-1.111,2.525H104.518z"/>
		<path fill="#FFFFFF" d="M109.353,112.97c0-0.078-0.018-0.141-0.054-0.187s-0.104-0.069-0.203-0.069v-0.129h3.681
			c0.342,0,0.632,0.037,0.871,0.112c0.238,0.075,0.434,0.179,0.583,0.311s0.26,0.285,0.326,0.46
			c0.067,0.174,0.102,0.365,0.102,0.572c0,0.277-0.059,0.519-0.176,0.723c-0.118,0.203-0.326,0.344-0.627,0.422v0.021
			c0.308,0.071,0.542,0.23,0.707,0.476c0.163,0.246,0.246,0.544,0.246,0.894c0,0.521-0.165,0.924-0.492,1.209
			c-0.328,0.285-0.867,0.428-1.615,0.428h-3.605v-0.129c0.1,0,0.167-0.022,0.203-0.069c0.036-0.046,0.054-0.108,0.054-0.187V112.97z
			 M112.701,114.831c0.405,0,0.688-0.061,0.845-0.182s0.235-0.307,0.235-0.556c0-0.25-0.078-0.436-0.235-0.556
			c-0.157-0.122-0.439-0.184-0.845-0.184h-2.451v1.477H112.701z M112.936,117.442c0.343,0,0.602-0.079,0.775-0.236
			c0.175-0.156,0.264-0.385,0.264-0.685s-0.089-0.527-0.264-0.685c-0.174-0.156-0.433-0.235-0.775-0.235h-2.686v1.841H112.936z"/>
		<path fill="#FFFFFF" d="M119.3,112.714c-0.099,0-0.167,0.025-0.202,0.074c-0.035,0.051-0.055,0.125-0.055,0.225v4.493h3.596
			c0.248,0,0.374-0.106,0.374-0.321h0.128v1.23h-0.128c0-0.136-0.126-0.203-0.374-0.203h-4.75v-0.129c0.1,0,0.168-0.022,0.203-0.069
			c0.035-0.046,0.054-0.108,0.054-0.187v-4.857c0-0.078-0.019-0.141-0.054-0.187s-0.104-0.069-0.203-0.069v-0.129h1.411V112.714z"/>
		<path fill="#FFFFFF" d="M125.559,118.083c0.1,0,0.167-0.022,0.203-0.069c0.035-0.046,0.053-0.108,0.053-0.187v-4.857
			c0-0.078-0.018-0.141-0.053-0.187c-0.036-0.046-0.104-0.069-0.203-0.069v-0.129h1.412v0.129c-0.1,0-0.168,0.023-0.204,0.069
			c-0.035,0.046-0.053,0.108-0.053,0.187v4.857c0,0.078,0.018,0.141,0.053,0.187c0.036,0.047,0.104,0.069,0.204,0.069v0.129h-1.412
			V118.083z"/>
		<path fill="#FFFFFF" d="M130.585,116.521c-0.021,0.05-0.032,0.097-0.032,0.14c0,0.1,0.064,0.203,0.188,0.311
			c0.124,0.106,0.289,0.205,0.491,0.293c0.203,0.09,0.434,0.162,0.69,0.22c0.256,0.058,0.517,0.086,0.781,0.086
			c0.677,0,1.167-0.101,1.47-0.3s0.455-0.457,0.455-0.771c0-0.149-0.037-0.274-0.112-0.374s-0.179-0.177-0.31-0.23
			c-0.133-0.053-0.287-0.09-0.46-0.111c-0.175-0.021-0.362-0.033-0.562-0.033c-0.327,0-0.675-0.001-1.042-0.006
			c-0.367-0.002-0.705-0.049-1.012-0.139c-0.307-0.088-0.56-0.236-0.76-0.443c-0.199-0.207-0.299-0.514-0.299-0.92
			c0-0.257,0.07-0.49,0.214-0.7c0.144-0.211,0.337-0.391,0.583-0.54c0.246-0.15,0.537-0.268,0.871-0.354
			c0.336-0.086,0.699-0.129,1.092-0.129c0.307,0,0.573,0.021,0.797,0.064c0.225,0.043,0.419,0.09,0.583,0.139
			c0.163,0.051,0.3,0.097,0.407,0.14c0.105,0.043,0.195,0.063,0.268,0.063c0.078,0,0.135-0.014,0.171-0.042
			c0.035-0.028,0.07-0.062,0.106-0.097l0.128,0.054l-0.589,1.23l-0.116-0.075c0.006-0.021,0.01-0.068,0.01-0.139
			c0-0.05-0.042-0.111-0.128-0.182c-0.086-0.072-0.207-0.141-0.363-0.209c-0.157-0.067-0.345-0.125-0.562-0.171
			c-0.217-0.047-0.455-0.07-0.711-0.07c-0.578,0-1.036,0.093-1.375,0.278s-0.508,0.428-0.508,0.729c0,0.135,0.038,0.244,0.112,0.325
			c0.075,0.082,0.179,0.146,0.311,0.192s0.285,0.077,0.46,0.091c0.174,0.015,0.361,0.021,0.562,0.021
			c0.335,0,0.685,0.005,1.048,0.017c0.364,0.011,0.699,0.066,1.006,0.166s0.561,0.26,0.76,0.48c0.199,0.222,0.299,0.545,0.299,0.974
			c0,0.228-0.059,0.448-0.176,0.657c-0.117,0.211-0.295,0.398-0.529,0.562c-0.236,0.164-0.526,0.293-0.873,0.385
			c-0.346,0.093-0.746,0.14-1.203,0.14c-0.385,0-0.719-0.031-1-0.091c-0.281-0.062-0.521-0.132-0.721-0.215
			c-0.201-0.082-0.365-0.156-0.493-0.225c-0.128-0.067-0.232-0.102-0.31-0.102c-0.072,0-0.146,0.043-0.225,0.129l-0.107-0.064
			l0.578-1.23L130.585,116.521z"/>
		<path fill="#FFFFFF" d="M144.277,117.827c0,0.078,0.018,0.141,0.053,0.187c0.035,0.047,0.104,0.069,0.204,0.069v0.129h-1.412
			v-0.129c0.101,0,0.167-0.022,0.204-0.069c0.035-0.046,0.053-0.108,0.053-0.187v-2.14h-3.786v2.14c0,0.078,0.018,0.141,0.053,0.187
			c0.035,0.047,0.104,0.069,0.204,0.069v0.129h-1.412v-0.129c0.1,0,0.166-0.022,0.202-0.069c0.036-0.046,0.054-0.108,0.054-0.187
			v-4.857c0-0.078-0.018-0.141-0.054-0.187s-0.103-0.069-0.202-0.069v-0.129h1.412v0.129c-0.1,0-0.169,0.023-0.204,0.069
			s-0.053,0.108-0.053,0.187v2.012h3.786v-2.012c0-0.078-0.018-0.141-0.053-0.187c-0.037-0.046-0.104-0.069-0.204-0.069v-0.129
			h1.412v0.129c-0.1,0-0.169,0.023-0.204,0.069s-0.053,0.108-0.053,0.187V117.827z"/>
		<path fill="#FFFFFF" d="M148.021,112.97c0-0.078-0.018-0.141-0.053-0.187c-0.036-0.046-0.104-0.069-0.203-0.069v-0.129h4.481
			c0.186,0,0.304-0.016,0.354-0.049c0.049-0.031,0.074-0.086,0.074-0.164h0.129v1.219h-0.129c0-0.093-0.027-0.166-0.085-0.22
			c-0.057-0.054-0.167-0.079-0.331-0.079h-3.338v1.689h2.172c0.128,0,0.232-0.021,0.315-0.064c0.081-0.043,0.122-0.121,0.122-0.235
			h0.129v1.295h-0.129c0-0.107-0.031-0.183-0.096-0.226c-0.064-0.042-0.171-0.063-0.322-0.063h-2.191v1.818h3.572
			c0.15,0,0.261-0.026,0.332-0.081c0.072-0.053,0.107-0.147,0.107-0.283h0.128v1.273h-0.128c0-0.136-0.125-0.203-0.375-0.203h-4.792
			v-0.129c0.099,0,0.167-0.022,0.203-0.069c0.035-0.046,0.053-0.108,0.053-0.187V112.97z"/>
		<path fill="#FFFFFF" d="M156.075,112.97c0-0.078-0.018-0.141-0.053-0.187s-0.104-0.069-0.204-0.069v-0.129h3.316
			c0.442,0,0.84,0.07,1.193,0.209s0.652,0.334,0.898,0.582c0.246,0.25,0.437,0.548,0.572,0.895c0.136,0.346,0.203,0.721,0.203,1.127
			c0,0.408-0.058,0.783-0.172,1.129c-0.113,0.347-0.283,0.645-0.508,0.894c-0.225,0.25-0.502,0.444-0.834,0.583
			s-0.715,0.209-1.15,0.209h-3.52v-0.129c0.1,0,0.169-0.022,0.204-0.069c0.035-0.046,0.053-0.108,0.053-0.187V112.97z
			 M159.242,117.506c0.627,0,1.098-0.179,1.412-0.534c0.314-0.357,0.471-0.881,0.471-1.574c0-0.691-0.18-1.215-0.541-1.571
			c-0.359-0.356-0.871-0.534-1.535-0.534h-2.074v4.214H159.242z"/>
		<path fill="#FFFFFF" d="M168.742,118.266c0-0.45,0.092-0.829,0.277-1.14c0.185-0.311,0.418-0.574,0.7-0.791
			c0.281-0.218,0.586-0.404,0.915-0.557c0.328-0.153,0.633-0.307,0.914-0.46c0.282-0.153,0.516-0.317,0.701-0.492
			c0.185-0.175,0.277-0.394,0.277-0.658c0-0.321-0.104-0.565-0.309-0.732c-0.209-0.167-0.504-0.251-0.89-0.251
			c-0.285,0-0.536,0.047-0.755,0.139c-0.217,0.093-0.396,0.197-0.54,0.315c-0.142,0.118-0.249,0.233-0.319,0.348
			c-0.072,0.114-0.104,0.192-0.098,0.235c0,0.043,0.006,0.082,0.016,0.118c0.012,0.035,0.023,0.071,0.039,0.106l-0.107,0.086
			l-0.845-1.113l0.106-0.074c0.021,0.014,0.054,0.037,0.097,0.069c0.042,0.032,0.079,0.048,0.106,0.048
			c0.078,0,0.17-0.049,0.273-0.149c0.104-0.1,0.244-0.208,0.422-0.327c0.178-0.116,0.402-0.223,0.674-0.32
			c0.271-0.096,0.613-0.145,1.027-0.145c0.605,0,1.076,0.146,1.412,0.439c0.335,0.292,0.502,0.694,0.502,1.208
			c0,0.321-0.08,0.595-0.24,0.819c-0.16,0.224-0.362,0.418-0.604,0.582c-0.242,0.164-0.51,0.311-0.797,0.439
			c-0.289,0.127-0.562,0.26-0.818,0.395c-0.256,0.137-0.48,0.284-0.669,0.444c-0.189,0.161-0.306,0.358-0.349,0.595h3.477
			c0.107,0,0.179-0.021,0.215-0.061c0.035-0.038,0.053-0.104,0.053-0.197h0.129v1.209h-0.129c0-0.064-0.018-0.111-0.053-0.139
			c-0.036-0.029-0.107-0.043-0.215-0.043h-4.171c-0.18,0-0.278,0.061-0.3,0.182h-0.127V118.266z"/>
		<path fill="#FFFFFF" d="M181.823,115.397c0,0.408-0.066,0.785-0.198,1.135s-0.321,0.652-0.567,0.91
			c-0.245,0.256-0.547,0.454-0.903,0.593c-0.357,0.14-0.764,0.209-1.219,0.209c-0.457,0-0.864-0.069-1.221-0.209
			c-0.355-0.139-0.656-0.337-0.904-0.593c-0.246-0.258-0.435-0.561-0.566-0.91s-0.197-0.727-0.197-1.135
			c0-0.406,0.065-0.783,0.197-1.133s0.32-0.652,0.566-0.91c0.248-0.256,0.549-0.459,0.904-0.609
			c0.356-0.149,0.764-0.225,1.221-0.225c0.455,0,0.861,0.075,1.219,0.225c0.356,0.15,0.658,0.354,0.903,0.609
			c0.246,0.258,0.436,0.561,0.567,0.91S181.823,114.991,181.823,115.397z M180.945,115.397c0-0.677-0.164-1.215-0.491-1.615
			c-0.329-0.398-0.835-0.598-1.519-0.598c-0.686,0-1.191,0.199-1.52,0.598c-0.328,0.4-0.492,0.938-0.492,1.615
			c0,0.678,0.164,1.217,0.492,1.616s0.834,0.599,1.52,0.599c0.684,0,1.189-0.199,1.519-0.599
			C180.781,116.614,180.945,116.075,180.945,115.397z"/>
		<path fill="#FFFFFF" d="M185.932,118.083c0.098,0,0.166-0.022,0.202-0.069c0.035-0.046,0.054-0.108,0.054-0.187v-4.022
			c-0.05,0-0.107,0.004-0.172,0.011s-0.123,0.021-0.177,0.043c-0.053,0.021-0.097,0.053-0.134,0.096
			c-0.035,0.043-0.053,0.096-0.053,0.16h-0.128v-1.09h0.128c0,0.135,0.047,0.202,0.14,0.202c0.085,0,0.188-0.028,0.311-0.085
			c0.12-0.057,0.181-0.132,0.181-0.225c0-0.136-0.082-0.203-0.246-0.203v-0.129h1.264v0.129c-0.087,0-0.144,0.02-0.172,0.059
			c-0.029,0.039-0.043,0.109-0.043,0.209v4.846c0,0.078,0.018,0.141,0.054,0.187c0.035,0.047,0.103,0.069,0.202,0.069v0.129h-1.41
			V118.083z"/>
		<path fill="#FFFFFF" d="M197.033,115.397c0,0.408-0.064,0.785-0.197,1.135c-0.131,0.35-0.32,0.652-0.566,0.91
			c-0.247,0.256-0.548,0.454-0.904,0.593c-0.357,0.14-0.764,0.209-1.22,0.209c-0.457,0-0.862-0.069-1.22-0.209
			c-0.356-0.139-0.657-0.337-0.903-0.593c-0.246-0.258-0.435-0.561-0.566-0.91s-0.199-0.727-0.199-1.135
			c0-0.406,0.067-0.783,0.199-1.133s0.32-0.652,0.566-0.91c0.246-0.256,0.547-0.459,0.903-0.609c0.357-0.149,0.763-0.225,1.22-0.225
			c0.456,0,0.862,0.075,1.22,0.225c0.356,0.15,0.657,0.354,0.904,0.609c0.246,0.258,0.436,0.561,0.566,0.91
			C196.969,114.614,197.033,114.991,197.033,115.397z M196.156,115.397c0-0.677-0.163-1.215-0.492-1.615
			c-0.328-0.398-0.834-0.598-1.519-0.598s-1.19,0.199-1.519,0.598c-0.328,0.4-0.492,0.938-0.492,1.615
			c0,0.678,0.164,1.217,0.492,1.616s0.834,0.599,1.519,0.599s1.19-0.199,1.519-0.599
			C195.993,116.614,196.156,116.075,196.156,115.397z"/>
	</g>
	<g>
		<path fill="#FFFFFF" d="M77.909,105.233L67.891,86.47v16.674c0,0.412,0.092,0.724,0.278,0.936
			c0.187,0.213,0.518,0.385,0.995,0.518v0.637h-7.979v-0.637c0.477-0.133,0.809-0.305,0.994-0.518
			c0.186-0.212,0.279-0.523,0.279-0.936V80.143c0-0.397-0.094-0.702-0.279-0.915s-0.518-0.385-0.994-0.518v-0.637h10.469v0.637
			c-0.625,0.158-0.936,0.523-0.936,1.094c0,0.266,0.092,0.571,0.279,0.916l7.408,14.039l7.509-13.801
			c0.331-0.609,0.497-1.055,0.497-1.333c0-0.544-0.332-0.849-0.994-0.915v-0.637h10.27v0.637c-0.479,0.133-0.809,0.305-0.996,0.518
			c-0.186,0.213-0.277,0.518-0.277,0.915v23.001c0,0.412,0.092,0.724,0.277,0.936c0.188,0.213,0.518,0.385,0.996,0.518v0.637h-8.477
			v-0.637c0.463-0.119,0.793-0.289,0.984-0.508c0.192-0.219,0.289-0.533,0.289-0.945V86.47L77.909,105.233z"/>
		<path fill="#FFFFFF" d="M107.766,93.314v7.441h17.469c0.398,0,0.703-0.092,0.916-0.278c0.211-0.186,0.384-0.518,0.518-0.994h0.636
			v7.023h-0.636c-0.134-0.478-0.307-0.81-0.518-0.995c-0.213-0.187-0.518-0.278-0.916-0.278h-24.672v-0.637
			c0.477-0.133,0.809-0.305,0.994-0.518c0.186-0.212,0.278-0.523,0.278-0.936V80.162c0-0.411-0.093-0.722-0.278-0.935
			s-0.518-0.385-0.994-0.518v-0.637h24.195c0.397,0,0.702-0.095,0.915-0.284c0.212-0.188,0.384-0.519,0.518-0.989h0.636v7.023
			h-0.636c-0.134-0.471-0.306-0.802-0.518-0.99c-0.213-0.188-0.518-0.283-0.915-0.283h-16.992v6.447h11.021
			c0.398,0,0.704-0.093,0.916-0.279c0.213-0.186,0.385-0.517,0.518-0.994h0.637v6.864h-0.637c-0.133-0.464-0.305-0.792-0.518-0.985
			c-0.212-0.191-0.518-0.288-0.916-0.288H107.766z"/>
		<path fill="#FFFFFF" d="M151.418,98.309h-12.345l-1.827,3.821c-0.252,0.53-0.379,0.947-0.379,1.253
			c0,0.583,0.443,0.988,1.33,1.214v0.637h-8.983v-0.637c0.53-0.106,0.935-0.291,1.214-0.558c0.279-0.265,0.598-0.782,0.955-1.552
			l9.988-20.873c0.318-0.662,0.478-1.193,0.478-1.592c0-0.609-0.385-1.047-1.153-1.312v-0.637h9.631v0.637
			c-0.784,0.226-1.174,0.617-1.174,1.174c0,0.385,0.125,0.822,0.378,1.313l10.347,20.933c0.437,0.889,0.822,1.495,1.152,1.82
			c0.332,0.325,0.777,0.54,1.334,0.646v0.637h-9.998v-0.637c0.877-0.146,1.316-0.558,1.316-1.234c0-0.277-0.132-0.689-0.397-1.232
			L151.418,98.309z M149.713,94.588l-4.405-9.675l-4.476,9.675H149.713z"/>
		<path fill="#FFFFFF" d="M175.992,82.55v20.594c0,0.412,0.094,0.724,0.279,0.936c0.186,0.213,0.518,0.385,0.995,0.518v0.637h-8.476
			v-0.637c0.477-0.133,0.809-0.305,0.994-0.518c0.186-0.212,0.278-0.523,0.278-0.936V82.55h-8.437c-0.398,0-0.704,0.091-0.914,0.273
			c-0.213,0.182-0.386,0.516-0.518,1h-0.638V76.8h0.638c0.145,0.484,0.32,0.816,0.525,0.999c0.206,0.183,0.508,0.274,0.906,0.274
			h22.783c0.41,0,0.723-0.092,0.935-0.274s0.384-0.515,0.518-0.999h0.638v7.023h-0.638c-0.134-0.484-0.306-0.818-0.518-1
			c-0.212-0.183-0.524-0.273-0.935-0.273H175.992z"/>
		<path fill="#FFFFFF" d="M214.693,80.374l-3.242,6.395l-0.559-0.318c0.014-0.133,0.02-0.239,0.02-0.318
			c0-0.451-0.384-0.936-1.153-1.453c-2.36-1.645-5.133-2.467-8.317-2.467c-1.405,0-2.646,0.172-3.721,0.517
			c-0.783,0.265-1.416,0.663-1.9,1.192c-0.484,0.53-0.725,1.107-0.725,1.729c0,1.021,0.616,1.717,1.85,2.088
			c0.637,0.186,2.003,0.385,4.098,0.596l3.124,0.318c1.857,0.199,3.36,0.471,4.508,0.815s2.165,0.829,3.054,1.452
			c0.902,0.649,1.615,1.504,2.139,2.564s0.787,2.193,0.787,3.399c0,1.909-0.617,3.605-1.852,5.09
			c-1.114,1.353-2.845,2.353-5.192,3.003c-1.751,0.49-3.628,0.734-5.632,0.734c-3.596,0-7.143-0.861-10.645-2.586
			c-0.744-0.345-1.188-0.518-1.334-0.518c-0.172,0-0.443,0.146-0.814,0.438l-0.578-0.299l2.945-6.664l0.578,0.277
			c0,0.119,0,0.207,0,0.26c0,0.596,0.283,1.146,0.854,1.65c0.863,0.77,2.196,1.434,4,1.99s3.516,0.836,5.133,0.836
			c1.765,0,3.271-0.298,4.518-0.895c0.689-0.33,1.24-0.771,1.652-1.32c0.41-0.549,0.616-1.122,0.616-1.717
			c0-0.9-0.484-1.543-1.452-1.928c-0.677-0.264-2.043-0.51-4.1-0.734l-3.063-0.317c-2.057-0.212-3.509-0.415-4.358-0.607
			c-0.848-0.192-1.698-0.501-2.547-0.927c-1.207-0.596-2.155-1.492-2.846-2.688c-0.623-1.075-0.935-2.311-0.935-3.704
			c0-2.296,0.789-4.194,2.368-5.694c2.068-1.979,5.173-2.968,9.312-2.968c1.737,0,3.355,0.177,4.855,0.53
			c1.498,0.353,3.368,1.002,5.609,1.947c0.77,0.307,1.24,0.461,1.414,0.461c0.278,0,0.603-0.154,0.975-0.461L214.693,80.374z"/>
	</g>
	<g>
		<path fill="#FFFFFF" d="M59.676,71.438c0.031,0.146,0.088,0.256,0.173,0.328c0.085,0.073,0.22,0.09,0.405,0.051l0.051,0.239
			l-2.632,0.551l-0.052-0.239c0.188-0.039,0.305-0.109,0.353-0.209c0.049-0.1,0.058-0.223,0.026-0.369l-1.893-9.056
			c-0.03-0.146-0.088-0.255-0.172-0.327c-0.086-0.073-0.221-0.09-0.406-0.051l-0.051-0.239l6.682-1.397
			c1.316-0.275,2.312-0.223,2.988,0.156c0.676,0.379,1.111,1.041,1.309,1.984c0.176,0.837,0.096,1.549-0.24,2.132
			s-0.988,1.046-1.957,1.388l3.324,3.363c0.191,0.183,0.338,0.298,0.438,0.346c0.1,0.049,0.25,0.053,0.45,0.01l0.05,0.24l-2.871,0.6
			L65.6,70.699c0.173-0.036,0.279-0.071,0.32-0.108c0.041-0.036,0.055-0.088,0.041-0.154c-0.016-0.079-0.064-0.146-0.146-0.198
			l-3.27-3.396l-3.67,0.767L59.676,71.438z M62.959,65.341c0.811-0.17,1.352-0.442,1.619-0.817c0.27-0.376,0.348-0.829,0.236-1.361
			c-0.056-0.267-0.137-0.484-0.242-0.657c-0.105-0.172-0.258-0.303-0.457-0.394c-0.198-0.09-0.454-0.134-0.766-0.131
			c-0.312,0.003-0.699,0.052-1.166,0.149l-4.268,0.893l0.675,3.23L62.959,65.341z"/>
		<path fill="#FFFFFF" d="M74.676,68.044c-0.035,0.129-0.074,0.272-0.119,0.43c-0.045,0.158-0.059,0.277-0.047,0.359
			c0.023,0.146,0.147,0.203,0.377,0.168l0.037,0.241l-2.476,0.384l-0.038-0.24c0.081-0.014,0.149-0.031,0.207-0.055
			c0.059-0.021,0.11-0.07,0.153-0.146c0.043-0.075,0.089-0.182,0.136-0.32c0.047-0.137,0.107-0.322,0.182-0.554l2.382-8.7
			c0.071-0.244,0.126-0.428,0.161-0.551c0.037-0.122,0.05-0.217,0.039-0.284c-0.025-0.161-0.158-0.224-0.4-0.186l-0.037-0.241
			l2.94-0.457l0.037,0.242c-0.216,0.033-0.311,0.131-0.285,0.291c0.013,0.082,0.063,0.18,0.149,0.297
			c0.087,0.117,0.201,0.281,0.344,0.493l5.11,7.413c0.159,0.223,0.28,0.396,0.37,0.52c0.086,0.125,0.167,0.215,0.238,0.272
			c0.07,0.059,0.141,0.089,0.209,0.091c0.07,0.004,0.164-0.004,0.285-0.023l0.037,0.242l-2.798,0.435l-0.038-0.241
			c0.162-0.025,0.266-0.065,0.312-0.121c0.046-0.055,0.062-0.13,0.048-0.225c-0.011-0.066-0.038-0.135-0.084-0.203
			c-0.045-0.068-0.14-0.215-0.283-0.44l-1.017-1.492l-5.698,0.885L74.676,68.044z M79.918,64.22l-3.014-4.399l-1.355,5.077
			L79.918,64.22z"/>
		<path fill="#FFFFFF" d="M89.188,66.949c0.189-0.023,0.312-0.082,0.369-0.178s0.076-0.218,0.059-0.366l-1.102-9.185
			c-0.018-0.148-0.064-0.263-0.144-0.342c-0.078-0.079-0.21-0.108-0.399-0.085l-0.029-0.244l2.67-0.319l0.029,0.243
			c-0.188,0.022-0.312,0.081-0.369,0.177c-0.057,0.097-0.075,0.218-0.059,0.366l1.102,9.185c0.018,0.149,0.066,0.263,0.143,0.343
			c0.079,0.079,0.211,0.107,0.4,0.084l0.029,0.243l-2.671,0.32L89.188,66.949z"/>
		<path fill="#FFFFFF" d="M107.348,62.683l-0.613-7.269c-0.014-0.148-0.057-0.265-0.132-0.347s-0.208-0.115-0.397-0.1l-0.02-0.243
			l2.436-0.206l0.021,0.243c-0.19,0.017-0.314,0.071-0.375,0.165s-0.084,0.215-0.071,0.363l0.779,9.217
			c0.013,0.15,0.056,0.266,0.132,0.348c0.074,0.082,0.206,0.115,0.396,0.1l0.021,0.244l-2.6,0.219l-0.021-0.244
			c0.271-0.022,0.402-0.088,0.393-0.196c-0.008-0.095-0.041-0.17-0.101-0.227c-0.059-0.056-0.104-0.104-0.136-0.142l-7.923-7.611
			l0.701,8.283c0.013,0.148,0.057,0.265,0.132,0.347c0.074,0.082,0.207,0.116,0.396,0.099l0.021,0.244l-2.437,0.207l-0.02-0.244
			c0.189-0.016,0.314-0.071,0.374-0.165s0.085-0.214,0.071-0.364l-0.779-9.217c-0.012-0.148-0.057-0.265-0.132-0.347
			s-0.207-0.115-0.397-0.1l-0.02-0.243l3.431-0.291l0.021,0.244c-0.148,0.013-0.248,0.038-0.3,0.077
			c-0.051,0.038-0.073,0.098-0.066,0.179c0.004,0.041,0.023,0.083,0.062,0.128c0.037,0.044,0.079,0.085,0.122,0.123l6.99,6.729
			L107.348,62.683z"/>
		<path fill="#FFFFFF" d="M124.469,61.229c-0.039,0.097-0.057,0.185-0.055,0.267c0.004,0.189,0.127,0.384,0.371,0.582
			c0.242,0.197,0.559,0.377,0.949,0.537c0.393,0.16,0.834,0.289,1.325,0.386s0.988,0.14,1.489,0.128
			c1.291-0.032,2.22-0.244,2.788-0.639c0.567-0.395,0.845-0.891,0.83-1.488c-0.007-0.285-0.083-0.521-0.231-0.707
			c-0.146-0.187-0.348-0.328-0.602-0.424s-0.547-0.16-0.88-0.193c-0.335-0.032-0.691-0.043-1.071-0.035
			c-0.625,0.016-1.287,0.029-1.986,0.039s-1.344-0.062-1.931-0.219c-0.589-0.155-1.078-0.426-1.468-0.811
			c-0.389-0.385-0.594-0.963-0.611-1.738c-0.012-0.488,0.112-0.936,0.374-1.344c0.263-0.406,0.624-0.759,1.085-1.055
			c0.461-0.297,1.01-0.534,1.645-0.713c0.635-0.178,1.324-0.276,2.07-0.295c0.585-0.014,1.092,0.016,1.521,0.086
			c0.43,0.071,0.801,0.15,1.117,0.238c0.314,0.088,0.574,0.169,0.779,0.246c0.206,0.076,0.377,0.113,0.514,0.109
			c0.148-0.004,0.256-0.033,0.322-0.09c0.067-0.055,0.134-0.117,0.201-0.188l0.245,0.096l-1.063,2.369l-0.227-0.137
			c0.012-0.041,0.018-0.129,0.014-0.266c-0.002-0.095-0.087-0.208-0.254-0.34c-0.165-0.132-0.399-0.259-0.701-0.381
			c-0.302-0.121-0.66-0.222-1.077-0.3c-0.417-0.077-0.87-0.111-1.357-0.101c-1.101,0.027-1.97,0.225-2.605,0.594
			s-0.948,0.838-0.933,1.408c0.006,0.258,0.082,0.464,0.229,0.616c0.146,0.153,0.346,0.271,0.6,0.353
			c0.252,0.082,0.546,0.133,0.879,0.152c0.334,0.02,0.689,0.023,1.07,0.015c0.639-0.015,1.305-0.021,1.998-0.019
			c0.692,0.004,1.334,0.094,1.922,0.271c0.589,0.176,1.078,0.47,1.469,0.881c0.391,0.412,0.596,1.025,0.615,1.841
			c0.01,0.434-0.092,0.854-0.306,1.26c-0.216,0.406-0.543,0.771-0.983,1.094c-0.44,0.324-0.987,0.582-1.643,0.773
			c-0.654,0.193-1.415,0.301-2.284,0.32c-0.733,0.019-1.37-0.025-1.909-0.127s-1.001-0.227-1.385-0.374
			c-0.384-0.146-0.699-0.281-0.947-0.405c-0.248-0.123-0.445-0.182-0.596-0.179c-0.135,0.003-0.275,0.088-0.422,0.255l-0.205-0.117
			l1.041-2.369L124.469,61.229z"/>
		<path fill="#FFFFFF" d="M150.504,63.607c-0.002,0.149,0.029,0.269,0.098,0.356c0.065,0.09,0.195,0.137,0.385,0.139l-0.004,0.244
			l-2.689-0.037l0.004-0.244c0.189,0.002,0.32-0.039,0.389-0.127c0.069-0.088,0.105-0.206,0.107-0.355l0.057-4.074l-7.211-0.102
			l-0.059,4.074c-0.002,0.15,0.031,0.27,0.098,0.358c0.066,0.09,0.195,0.136,0.385,0.138l-0.003,0.244l-2.689-0.037l0.004-0.244
			c0.188,0.002,0.319-0.039,0.388-0.127c0.07-0.087,0.106-0.205,0.107-0.355l0.131-9.25c0.002-0.148-0.031-0.268-0.098-0.357
			s-0.195-0.135-0.385-0.138l0.002-0.245l2.689,0.038l-0.002,0.245c-0.191-0.003-0.32,0.039-0.39,0.127
			c-0.069,0.087-0.104,0.205-0.106,0.354l-0.055,3.83l7.213,0.101l0.053-3.828c0.002-0.15-0.029-0.27-0.097-0.359
			c-0.066-0.089-0.194-0.135-0.386-0.138l0.004-0.245l2.689,0.038l-0.003,0.245c-0.19-0.004-0.321,0.04-0.39,0.127
			c-0.069,0.088-0.104,0.205-0.106,0.355L150.504,63.607z"/>
		<path fill="#FFFFFF" d="M158.13,63.403c-0.062,0.119-0.13,0.251-0.205,0.396c-0.075,0.146-0.116,0.26-0.12,0.341
			c-0.008,0.149,0.104,0.229,0.334,0.241l-0.013,0.245l-2.503-0.134l0.014-0.244c0.081,0.005,0.152,0.002,0.215-0.009
			c0.061-0.01,0.121-0.048,0.179-0.112c0.057-0.065,0.124-0.16,0.198-0.285c0.075-0.125,0.172-0.294,0.292-0.505l4.12-8.024
			c0.121-0.225,0.212-0.393,0.271-0.506c0.061-0.112,0.094-0.201,0.096-0.27c0.01-0.163-0.108-0.251-0.353-0.264l0.013-0.244
			l2.971,0.158l-0.012,0.244c-0.219-0.012-0.33,0.063-0.34,0.227c-0.004,0.082,0.024,0.188,0.086,0.32
			c0.061,0.133,0.139,0.316,0.235,0.554l3.476,8.306c0.109,0.25,0.194,0.445,0.255,0.585c0.06,0.14,0.12,0.245,0.177,0.315
			c0.058,0.07,0.119,0.115,0.188,0.132c0.066,0.018,0.161,0.029,0.283,0.036l-0.014,0.243l-2.827-0.149l0.013-0.244
			c0.162,0.008,0.272-0.01,0.329-0.055c0.056-0.045,0.087-0.114,0.093-0.209c0.004-0.068-0.01-0.14-0.039-0.217
			c-0.031-0.076-0.093-0.239-0.189-0.489l-0.686-1.669l-5.758-0.307L158.13,63.403z M164.046,60.739l-2.044-4.924l-2.371,4.688
			L164.046,60.739z"/>
		<path fill="#FFFFFF" d="M173.615,55.573c0.014-0.148-0.01-0.27-0.068-0.364c-0.06-0.095-0.184-0.15-0.373-0.168l0.023-0.243
			l6.289,0.588c0.838,0.078,1.579,0.28,2.225,0.606c0.645,0.326,1.179,0.749,1.6,1.265c0.423,0.518,0.732,1.116,0.928,1.796
			c0.196,0.681,0.258,1.405,0.186,2.177c-0.072,0.771-0.247,1.474-0.524,2.109c-0.278,0.636-0.651,1.17-1.122,1.604
			c-0.47,0.434-1.032,0.753-1.686,0.958c-0.653,0.204-1.394,0.269-2.218,0.191l-6.675-0.624l0.023-0.242
			c0.188,0.017,0.32-0.015,0.397-0.097c0.075-0.082,0.121-0.196,0.136-0.346L173.615,55.573z M178.816,64.736
			c1.189,0.11,2.113-0.144,2.772-0.765c0.659-0.62,1.049-1.586,1.171-2.898c0.123-1.312-0.125-2.338-0.745-3.078
			s-1.559-1.168-2.815-1.286l-3.936-0.368l-0.748,7.993L178.816,64.736z"/>
		<path fill="#FFFFFF" d="M195.808,57.169c0.874,0.122,1.665,0.352,2.372,0.691c0.707,0.338,1.302,0.777,1.781,1.317
			c0.48,0.54,0.824,1.167,1.033,1.882c0.21,0.715,0.254,1.51,0.132,2.384c-0.122,0.875-0.382,1.628-0.777,2.258
			c-0.397,0.63-0.899,1.138-1.509,1.519c-0.607,0.381-1.297,0.631-2.068,0.75c-0.771,0.119-1.593,0.117-2.469-0.004
			c-0.874-0.122-1.666-0.346-2.375-0.671c-0.708-0.324-1.303-0.753-1.785-1.287c-0.48-0.533-0.825-1.157-1.035-1.872
			c-0.209-0.715-0.252-1.51-0.131-2.384c0.122-0.875,0.382-1.628,0.777-2.259c0.397-0.63,0.9-1.139,1.509-1.527
			c0.61-0.388,1.301-0.648,2.074-0.781C194.109,57.054,194.933,57.048,195.808,57.169z M195.617,58.542
			c-1.373-0.191-2.482,0.021-3.329,0.637c-0.848,0.615-1.359,1.556-1.534,2.82c-0.178,1.264,0.059,2.309,0.704,3.133
			c0.647,0.823,1.656,1.33,3.028,1.521c1.373,0.191,2.482-0.021,3.328-0.637c0.848-0.615,1.359-1.555,1.535-2.82
			c0.176-1.265-0.059-2.309-0.705-3.133C197.998,59.24,196.988,58.731,195.617,58.542z"/>
		<path fill="#FFFFFF" d="M207.723,69.755c0.186,0.037,0.303,0.043,0.35,0.018c0.046-0.025,0.077-0.077,0.094-0.158
			c0.018-0.092,0.019-0.199,0.001-0.32c-0.017-0.121-0.029-0.231-0.037-0.33l-1.495-9.15c-0.033-0.242-0.087-0.43-0.157-0.562
			c-0.071-0.131-0.199-0.215-0.386-0.254l0.047-0.238l2.619,0.523l-0.049,0.239c-0.174-0.034-0.295-0.031-0.365,0.011
			c-0.07,0.041-0.115,0.107-0.135,0.201c-0.016,0.08-0.011,0.174,0.018,0.283c0.025,0.109,0.053,0.236,0.078,0.381l1.252,7.771
			l0.039,0.008l4.2-7.076c0.063-0.112,0.104-0.209,0.12-0.289c0.031-0.159-0.053-0.259-0.252-0.299l0.049-0.24l2.776,0.557
			l-0.048,0.239c-0.24-0.048-0.377,0.015-0.412,0.188c-0.014,0.067-0.01,0.153,0.01,0.262s0.039,0.22,0.059,0.334l1.179,7.612
			l0.039,0.008l4.097-6.661c0.045-0.088,0.087-0.159,0.126-0.214c0.038-0.055,0.065-0.122,0.081-0.202
			c0.037-0.187-0.09-0.31-0.383-0.368l0.048-0.239l2.519,0.504l-0.05,0.239c-0.173-0.035-0.309-0.013-0.407,0.064
			c-0.098,0.078-0.228,0.238-0.388,0.483l-4.831,7.844c-0.102,0.159-0.18,0.282-0.238,0.368c-0.06,0.085-0.1,0.181-0.121,0.287
			c-0.023,0.119,0.097,0.207,0.363,0.26l-0.047,0.24l-2.638-0.527l0.048-0.24c0.173,0.034,0.287,0.039,0.34,0.016
			s0.086-0.068,0.1-0.136c0.019-0.093,0.014-0.208-0.014-0.345c-0.028-0.138-0.052-0.264-0.07-0.379l-1.223-7.807l-0.04-0.008
			l-4.171,6.936c-0.043,0.075-0.086,0.146-0.127,0.214s-0.07,0.148-0.09,0.242c-0.027,0.134,0.093,0.226,0.36,0.28l-0.048,0.238
			l-2.838-0.566L207.723,69.755z"/>
	</g>
</g>
</svg>
