<?xml version="1.0" encoding="utf-8"?>
<!-- Generator: Adobe Illustrator 15.0.2, SVG Export Plug-In . SVG Version: 6.00 Build 0)  -->
<!DOCTYPE svg PUBLIC "-//W3C//DTD SVG 1.1//EN" "http://www.w3.org/Graphics/SVG/1.1/DTD/svg11.dtd">
<svg version="1.1" id="Layer_1" xmlns="http://www.w3.org/2000/svg" xmlns:xlink="http://www.w3.org/1999/xlink" x="0px" y="0px"
	 width="90px" height="158px" viewBox="0 0 90 158" enable-background="new 0 0 90 158" xml:space="preserve">
<g id="Seattle_Salads">
	<g>
		<path fill="#FFFFFF" d="M17.441,24.248c-0.344,0.051-0.686,0.095-1.025,0.144c0.354,0.591,1.559,0.417,2.596,0.394
			c0.088,0.197,0.002,0.332-0.09,0.467c3.773,0.181,8.432-0.436,10.523,1.248c-3.262,0.083-5.904-0.401-9.5-0.025
			c0.189,0.542,1.42,0.152,1.826,0.5c-1.812,0.183-4.533-0.365-5.084,0.868c0.838-0.106,1.611-0.15,2.172-0.002
			c-0.32,0.224-1.1,0.283-0.804,0.72c1.354-0.045,3.673-0.375,4.425-0.472c-0.026,0.527-1.867,0.439-1.774,1.006
			c2.511-0.42,5.257-0.764,6.396-1.658c3.54-0.58,4.464,1.187,6.073,2.33c-0.37,0.08-0.966,0.085-0.971,0.289
			c0.78,0.161,2.093,0.171,0.798,0.646c0.672-0.016,1.551-0.222,1.713,0.215c-4.043,0.918-6.947-2.047-9.709,0.151
			c1.547-0.28,2.678-0.192,3.373,0.282c0.111,0.456-1.186,0.428-0.687,1.01c1.798,0.143,0.451,1.917,2.387,1.938
			c-0.2-1.559,1.603-2.433,4.86-2.807c0.732,1.742,2.559,2.505,4.098,3.52c-2.541-0.053-3.076-1.905-5.046-2.478
			c1.274,1.224-2.481,0.724-2.996,1.333c2.772,2.646,10.983,1.297,13.059,4.229c1.302,1.846,0.075,6.17,1.425,8.447
			c-0.053-0.089-0.688,0.041-1.461,0.24c-3.694,0.529-6.588,4.178-7.771,11.953c-0.082,1.576-0.145,3.012-0.189,4.332
			c7.382,0.197,15.371,0.154,22.411-0.045c0.734-6.478-0.012-14.592-5.876-16.145c-0.281-0.117-0.57-0.219-0.862-0.306
			c0.009,0.082-0.969-0.372-0.851-0.791c-0.398-1.999,0.461-3.569,0.273-5.499c3.061-1.646,2.764-4.437,5.723-6.114
			c1.32,0.35,2.105-0.015,3.969-0.257c0.198-0.566-0.902,0.037-0.939-0.32c0.818-0.093,1.553-0.215,1.686-0.543
			c-1.156-0.208-2.722,0.348-3.859,0.543c0.062-0.559,0.676-0.93,1.723-1.152c-0.243-0.734-0.881,0.092-1.252-0.43
			c-0.656-1.342-0.075-2.26,1.916-2.696c0.189-0.624-1.127,0.103-1.201-0.29c0.291-0.992,3.509-0.547,4.686-0.505
			c-0.524,0.938-3.438,1.06-3.803,2.053c2-0.266,2.84-0.933,4.03-1.478c0.058,0.186-0.252,0.245-0.091,0.467
			c1.59-0.285,1.371-1.186,1.693-1.905c1.336-0.679,2.509-0.058,4.051-0.724c-0.568-0.084,0.904-0.511,0.748-0.864
			c-1.048,0.099-2.486,0.547-2.74-0.068c0.846-0.292,1.699,0.396,2.115-0.146c-0.674-0.241-1.348-0.481-2.144-0.61
			c1.365-0.647-0.425-2.383,1.609-2.802c-1.341-0.122-1.469,0.81-1.944,0.576c-0.072-0.192-0.144-0.383-0.229-0.574
			c-1.256-0.017-0.117,0.785-0.686,1.003c-0.818,0.091-1.569,0.119-1.766-0.354c0.143-0.447,1.098-0.617,1.824-0.864
			c-0.4-0.484-1.423-0.406-2.135-0.609c0.273-0.086,0.641-0.75-0.025-0.756c-0.854,0.66-1.23,1.483-1.836,2.232
			c-0.137-0.339,0.275-0.487-0.081-0.898c-1.07,0.044-0.394,0.691-1.317,0.79c0.777-0.975,1.075-2.117,3.316-2.589
			c-0.468-0.166-1.48,0.165-1.507-0.394c0.624-0.041,1.053,0.09,1.854-0.108c-0.584-0.445-2.137-0.647-0.766-1.261
			c-0.763-0.154-2.01,0.117-2.34-0.428c-1.91,0.673-3.184,1.41-6.457,1.517c1.184-0.882,3.461-1.384,3.581-2.628
			c-1.657,0.082-3.13,1.229-4.032,1.479c0.454-1.25,2.826-1.46,4.943-1.909c2.884-0.616,4.625-2.675,5.695-4.138
			c-2.322,0.395-3.518,2.398-5.714,2.014c0.294-0.063,0.737-0.076,0.715-0.252c-1.899,0.184-2.37,0.849-3.572,1.263
			c0.292-1.89,5.432-2.114,6.683-3.67c-1.489,0.112-3.513,0.693-4.678,0.506c0.69-1.507,3.877-2.153,3.893-3.886
			c-1.543,0.385-2.357,1.674-3.658,1.731c0.296-1.102,1.093-2.029,1.181-3.202c-0.963,0.013-0.776,1.049-1.628,0.686
			c0.133-0.887,1.199-2.045,0.834-2.697c-1.941,0.496-3.252,1.864-4.572,2.161c0.479-0.83,1.328-1.536,1.466-2.48
			c-0.66,0.11-1.041-0.233-0.911-0.936c-1.619,0.192-0.174,1.432-1.178,1.833c-0.523-0.759,0.256-1.072-0.168-1.796
			c-1.508,0.435-1.328,1.449-0.885,2.554c-0.597,0.208-0.855,0.535-1.634,0.684c-0.603-0.943-0.513,0.4-1.341,0.037
			c-0.408-0.43,0.769-0.317,0.549-0.684c-3.734,0.171-2.738,2.625-6.375,2.414c0.437-0.471,0.528-1.062,0.092-1.833
			c1.525-1.339,5.548-1.827,6.857-3.24c-0.998-0.25-2.354,1.068-3.336,0.469c-0.043-0.592,1.736-0.562,1.711-1.151
			c-3.236,0.215-2.528,1.782-5.085,2.235c0.552-1.677,2.005-3.041,1.214-5.179c-1.646,0.224,0.332,1.689-1.43,1.871
			c-0.294-0.764,0.72-1.08,0.031-1.979c-1.037,0.159-0.221,1.419-1.772,1.009c0.153,0.909,1.517,1.746,1.021,2.585
			c-1.331-0.753-2.147-1.962-4.302-1.971c0.125,1.142,1.057,1.762,0.359,2.982c-0.422-0.336-0.541-0.938-1.223-1.042
			c0.236,1.303,0.297,1.897,0.786,3.379c-1.616-0.167-1.999-1.447-3.618-1.615c0.109,2.113,3.527,2.277,3.24,4.094
			c-1.158-0.519-2.536-0.837-4.561-0.571c2.051,1.336,6.512,1.542,6.49,4.087c-4.168,0.114-4.984-2.788-8.379-3.366
			c1.145,3.446,6.069,3.499,9.314,5.057c-0.658,0.519,0.027,1.499-0.232,2.159c-1.866,0.184-3.34,0.015-4.909-0.069
			c0.526,1.606,3.263,1.218,4.815,1.901c0.285,0.719-0.623,1.027-0.72,1.618c-1.534-0.437-2.47-1.412-4.388-1.507
			c-0.004,0.262,0.525,0.314,0.172,0.43c-1.166-0.191-2.83-0.957-3.796-0.677c1.464,0.138,0.651,1.049,0.679,1.723
			c-0.99,0.048-1.305-0.512-2.34-0.429c0.293,0.643-0.979,0.821-1.881,0.72c0.072-0.349,0.318-0.635,0.115-1.077
			c-1.16,0.017-0.172,0.771-1.001,0.898c0.452-0.501-0.913-1.133-1.567-0.534c0.548-0.107,0.861,0,0.939,0.319
			c-1.188,1.112,1.803,2.889-1.122,3.341c-0.699-0.369-0.217-1.077-1.14-1.507c-0.133,0.285,0.199,0.732-0.172,0.935
			c-0.585-0.451-0.793-1.231-1.251-1.794c-2.195,0.868,1.585,2.246,1.046,3.34c-2.758-0.638-4.521-2.167-7.928-2.221
			c0.439,0.714,2.475,1.018,2.482,1.471c-1.221-0.051-2.539-0.894-3.879-0.214C15.752,24.081,16.944,23.856,17.441,24.248z
			 M62.803,18.923c-0.084,0.336-0.837,0.709-1.426,0.505C61.258,19.057,62.124,19.022,62.803,18.923z M58.281,6.062
			c-0.354,0.293,0.254,0.917-0.69,1.007C57.966,6.784,57.151,6.09,58.281,6.062z M61.622,14.541
			c-0.496,0.538-1.433,0.919-3.116,1.044C59.189,15.115,60.347,14.809,61.622,14.541z M58.678,16.016
			c-0.396,0.252-2.586,1.026-3.088,0.435C56.622,16.306,57.644,16.16,58.678,16.016z M56.221,7.716
			c0.449,1.193-0.267,3.058-0.73,4.352C55.416,11.004,54.684,8.643,56.221,7.716z M55.716,31.904
			c-0.136-0.333-0.268-0.668-0.397-1.002c0.422-0.23,1.142-0.358,1.687-0.543C56.865,30.973,56.762,31.602,55.716,31.904z
			 M62.346,28.088c0.024-0.6,1.61-1.606,2.201-0.61C63.445,27.555,63.579,28.057,62.346,28.088z M64.212,23.883
			c0.528,0.309,1.301,0.391,2.087,0.467c-0.564,0.741-2.354,1.515-3.688,0.97C62.21,24.521,64.678,24.703,64.212,23.883z
			 M64.124,25.716c0.502,0.635-2.216,0.708-2.572,0.358C62.354,25.671,63.039,25.872,64.124,25.716z M61.55,27.443
			c-0.654,0.133-1.269,0.23-1.198-0.285C61.006,27.021,61.477,27.053,61.55,27.443z M59.179,27.623
			c0.253,0.463-0.034,0.735-0.745,0.866C58.439,28.119,58.367,27.718,59.179,27.623z M54.352,20.872
			c1.182-0.283,1.74-0.005,2.887-0.255c0.323,1.092,2.437,3.346,0.295,4.205c-0.078-0.706-0.68-0.945-0.879-1.545
			c1.268-0.103,0.57-0.88,0.831-1.329c-0.604-0.424-0.632,0.566-1.287,0.182c-0.108-0.288-0.224-0.579-0.338-0.862
			c-0.688,0.05,0.019,0.583-0.858,0.574c-0.001-0.261-0.307-0.242-0.621-0.216C54.137,21.294,54.725,21.25,54.352,20.872z
			 M30.906,25.386c0.786-0.183,1.012,0.131,1.857-0.11c0.126,0.534,0.406,0.93,0.764,1.257
			C32.306,26.469,31.422,26.09,30.906,25.386z M32.908,23.588c0.736-0.05,1.683,0.216,1.315,0.573
			C33.49,24.235,33.028,24.066,32.908,23.588z M31.932,26.607c1.154,0.389,2.346,0.749,2.451,2.083
			C32.869,28.621,32.604,27.427,31.932,26.607z M35.793,23.334c-0.973-0.382-0.458-1.311,1.146-1.224
			c0.361,0.477,1.414,1.065,0.936,1.69C36.839,24.069,36.238,22.946,35.793,23.334z M40.672,32.961
			c-0.184-0.685,0.105-1.206,0.09-1.834c0.257-0.037,0.514-0.073,0.771-0.107C41.515,31.76,41.418,32.47,40.672,32.961z
			 M42.197,18.945c0.848-0.175,0.676,0.562,1.119,0.751c-0.408,0.193-0.678,0.436-0.805,0.719
			C41.46,20.089,42.58,19.452,42.197,18.945z M43.843,14.163c-0.015,0.49-0.417,0.85-1.2,1.078
			C42.441,14.677,42.568,14.223,43.843,14.163z M42.36,22.104c0.119,0.93,0.906,1.267,1.306,1.942
			c-1.934-0.326-2.42-1.659-3.788-2.047C41.014,21.758,41.531,22.072,42.36,22.104z M43.105,31.557
			c0.785,0.158,0.375,0.947-0.435,0.973C42.332,32.039,43.441,32.045,43.105,31.557z M43.609,32.849
			c-0.195,0.433,0.082,1.024,0.053,1.51C42.075,34.086,41.7,33.283,43.609,32.849z M42.289,27.427
			c0.937,0.037-0.434,1.305-1.289,1.544C41.072,28.336,41.998,27.986,42.289,27.427z M41.998,29.438
			c0.469-0.045,0.469-0.25,0.966-0.287c0.001,0.285-0.63,0.363-0.228,0.788C42.273,29.967,42.052,29.772,41.998,29.438z
			 M43.607,35.582c-0.617-0.035-1.146-0.146-1.316-0.575c0.346-0.048,0.686-0.096,1.026-0.144
			C43.487,35.217,43.977,35.24,43.607,35.582z M45.002,17.791c-0.281,0.249-1.148,0.489-1.488,0.36
			c-0.111-0.287-0.225-0.574-0.34-0.864c0.85-0.112,1.797-0.313,1.975,0.18c-0.52,0.137-0.725-0.002-1.088,0
			C44.033,17.88,44.703,17.669,45.002,17.791z M45.582,22.714c-0.41-0.187-0.439-0.505-0.34-0.863
			C46.206,21.824,45.868,22.475,45.582,22.714z M46.48,45.643c-1.484-1.672-0.285-2.087-0.527-3.689
			c0.281,0.073-0.131-1.097,0.062-0.947c0.871-1.471-0.562-1.531,0.887-2.551c-0.119,0.633,0.736,0.372,0.855,0.788
			c-0.209,0.056-0.266-0.022-0.314-0.106c-0.027,0.995,0.089,2.627,0.246,4.326C48.232,43.945,47.615,45.333,46.48,45.643z
			 M46.779,33.314c0.797,0.243,0.557,1.18,0.307,1.473C46.589,34.646,46.857,33.723,46.779,33.314z M46.809,23.752
			c-0.311-0.708-0.027-0.738-0.514-1.293C46.822,22.44,47.833,23.628,46.809,23.752z M50.021,18.144
			c0.595,0.208-0.05,0.281,0.283,0.72c-1.15-0.82-1.531,0.443-1.149,1.222C47.429,19.873,48.653,18.415,50.021,18.144z
			 M49.628,42.622c-1.031-0.404-0.097-1.19-0.421-1.763c0.258-0.035,0.514-0.071,0.775-0.109
			C50.13,41.697,49.934,41.791,49.628,42.622z M50.116,23.896c-0.134-0.335-0.263-0.671-0.396-1.007
			c0.823,0.168,1.303,0.648,1.793,1.114C50.889,24.115,50.635,23.888,50.116,23.896z M50.463,14.442
			c1.297-0.104,0.115,0.679,0.396,1.006C49.994,15.34,50.82,14.79,50.463,14.442z M53.27,19.509
			c-0.482,0.33-1.384,0.519-2.457,0.648c-0.334-0.612,0.307-0.889,0.263-1.401C52.232,18.627,52.498,19.294,53.27,19.509z
			 M52.59,17.784c0.77-0.068,0.662-0.436,1.426-0.503c-0.318,0.467-0.238,1.076-0.461,1.581
			C53.021,18.695,52.746,18.293,52.59,17.784z M53.172,24.073c-0.893-0.5-1.514-1.236-1.937-2.156
			c0.608,0.105,1.13,0.283,1.568,0.541C52.796,23.11,53.166,23.699,53.172,24.073z M52.512,25.833
			c0.74-0.083,0.702,0.534,0.908,0.933c-0.521,0.235-1.006,0.486-1.318,0.793C50.782,26.976,53.086,26.574,52.512,25.833z
			 M52.25,34.82c0.928,0.367-0.082,1.125,0.422,1.76C51.819,36.238,52.178,35.254,52.25,34.82z M52.84,29.43
			c0.064-0.312,0.534-0.482,1.115-0.615C54.175,29.252,53.307,29.59,52.84,29.43z M53.438,28.887
			c-0.715-0.374,0.477-1.158,0.095-1.832C54.445,27.498,54.344,28.654,53.438,28.887z M54.079,16.057
			c-0.774,0.639-1.295-0.065-1.882,0.72c-0.025-0.67,0.336-1.209,1.289-1.547C53.034,15.616,53.979,15.608,54.079,16.057z
			 M53.594,7.935c0.26,0.503-0.077,0.803-1.004,0.901c-0.07-0.263-0.432-0.262-0.486-0.54C52.715,8.213,52.77,7.942,53.594,7.935z
			 M52.788,10.021c1.284,0.904-0.356,1.303,0.39,2.37c-2.342,0.486-2.65-0.861-3.82-1.434C49.998,10.273,51.19,10.134,52.788,10.021
			z M49.822,9.376c0.695,0.127-0.127,0.773-0.748,0.865C48.671,9.729,49.934,9.787,49.822,9.376z M49.456,16.708
			c0.222,0.369-0.169,0.522-0.856,0.574C48.371,16.917,48.768,16.762,49.456,16.708z M46.914,16.459
			c-0.37-0.708,0.67-0.933,0.154-1.689c-1.534,0.222-1.41,1.01-1.497,1.725c-1.112,0.223-1.856,0.111-2.479-0.104
			c-0.038-1.338,4.073-2.683,5.225-1.191C48.329,15.785,47.477,16.071,46.914,16.459z M47.361,10.025
			c0.165,0.554-0.967,0.663-1.516,0.974c0.232-0.212,0.096-0.551-0.08-0.9C46.508,9.884,46.76,10.113,47.361,10.025z M44.729,12.975
			c-0.709-0.204-1.625-0.225-1.739-0.97C43.879,12.052,44.737,12.125,44.729,12.975z M42.934,13.228
			c0.657-0.076,1.079,0.07,1.252,0.43c-0.515,0.073-1.027,0.145-1.541,0.217C42.531,13.591,43.274,13.593,42.934,13.228z
			 M42.406,8.45c-1.141-1.303-0.365-3.025-0.672-4.458C43.621,5.213,42.076,6.982,42.406,8.45z M40.535,21.605
			c-0.094-0.241-0.19-0.479-0.281-0.72C41.464,20.848,42.512,21.783,40.535,21.605z M39.113,20.744
			c0.257-0.036,0.514-0.074,0.769-0.11c-0.032,0.322-0.357,0.541-0.488,0.828C38.595,21.445,39.366,20.978,39.113,20.744z
			 M38.792,23.365c0.657-0.137,0.922,0.082,0.993,0.467C38.906,24.238,38.616,23.91,38.792,23.365z M41.326,24.981
			c0.074,0.189,0.146,0.382,0.225,0.575c-0.344,0.286-1.223-0.01-1.428,0.505c-0.523-0.305-1.193-0.482-1.681-0.825
			C39.029,24.722,40.344,25.205,41.326,24.981z M37.27,27.07c0.484,0.211,0.756,0.612,0.961,1.076
			C37.255,28.378,37.618,27.4,37.27,27.07z M37.995,21.353c-0.741,0.216-0.855-0.141-1.595,0.074
			c-0.609-0.49-1.184-1.011-1.711-1.58c1.223,0.266,2.542,0.441,3.396,1.039C37.793,20.953,37.969,21.179,37.995,21.353z
			 M37.43,19.918c-1.457,0.012-2.754-0.118-3.335-0.896C35.289,19.246,36.709,19.269,37.43,19.918z M30.693,20.714
			c0.969,0.166,1.174,1.021,2.109,1.221c0.109,0.489-1.39-0.263-0.916,0.435c-1.363,0.054-2.163-0.394-2.824-0.971
			C29.762,21.223,31.336,21.349,30.693,20.714z M33.568,23.192c-1.539,0-2.589,0.181-2.911,0.864
			c-1.021-0.125-1.655-0.594-2.31-1.04C30.416,23.25,32.784,21.678,33.568,23.192z M30.366,24.704
			c-0.542,0.67,0.155,1.054,0.478,1.904c-1.262-0.747-2.785-1.259-3.844-2.188C28.687,24.009,29.371,24.493,30.366,24.704z"/>
		<path fill="#FFFFFF" d="M50.873,112.818c-0.516-0.326,0.104-2.639,0.884-4.931c-4.11,0.075-8.372,0.064-12.269-0.034
			c-0.148,1.58-0.387,3.071-0.502,3.6c-0.234,1.054-0.713,8.773,1.902,11.551s4.732,14.986,3.959,17.197
			c-0.774,2.211-2.901,7.316-1.777,9.375c0,0-2.088,5.579-0.83,7.35c1.26,1.771,4.088,1.309,3.796-0.301
			c-0.289-1.608,2.647-8.451,4.257-10.209c1.604-1.76,4.694-18.402,1.398-27.534C52.367,117.436,51.882,113.454,50.873,112.818z"/>
	</g>
	<g>
		<path fill="#FFFFFF" d="M58.732,107.668c0.113,0.199,0.233,0.385,0.365,0.549c1.804,2.238,1.506,11.801,0.721,13.497
			c-0.786,1.695-2.865,5.603-2.163,7.238c0,0-2.088,4.277-1.257,5.692c0.833,1.414,3.07,1.139,2.979-0.122
			c-0.093-1.259,2.762-6.493,4.16-7.813c1.291-1.225,4.635-12.345,3.688-19.699C64.986,107.293,62.038,107.513,58.732,107.668z"/>
		<path fill="#FFFFFF" d="M89.995,33.688c-0.826,0.045-1.981,0.352-2.127-0.135c0.681-0.201,1.289,0.359,1.655-0.051
			c-0.502-0.207-1.006-0.414-1.617-0.538c1.12-0.463-0.129-1.866,1.486-2.132c-1.031-0.135-1.209,0.586-1.559,0.391
			c-0.041-0.152-0.08-0.302-0.131-0.453c-0.975-0.051-0.158,0.605-0.615,0.759c-0.646,0.047-1.232,0.046-1.344-0.327
			c0.148-0.344,0.905-0.447,1.49-0.619c-0.271-0.387-1.074-0.357-1.609-0.537c0.221-0.059,0.561-0.564,0.043-0.59
			c-0.72,0.488-1.082,1.119-1.616,1.683c-0.077-0.268,0.257-0.37,0.014-0.7c-0.837,0.002-0.364,0.525-1.089,0.574
			c0.685-0.736,1.01-1.614,2.793-1.916c-0.35-0.143-1.164,0.084-1.138-0.35c0.488-0.014,0.81,0.101,1.45-0.029
			c-0.416-0.363-1.607-0.566-0.492-1.004c-0.58-0.143-1.57,0.031-1.783-0.402c-1.541,0.467-2.594,1.002-5.148,0.988
			c0.992-0.651,2.809-0.974,3.004-1.939c-1.297,0.015-2.535,0.864-3.26,1.031c0.459-0.958,2.32-1.051,4.004-1.338
			c2.295-0.393,3.822-1.944,4.773-3.05c-1.836,0.238-2.934,1.762-4.611,1.397c0.234-0.041,0.58-0.038,0.578-0.175
			c-1.491,0.086-1.914,0.591-2.885,0.876c0.385-1.46,4.4-1.482,5.505-2.656c-1.169,0.043-2.79,0.435-3.681,0.255
			c0.664-1.152,3.195-1.56,3.35-2.907c-1.232,0.253-1.973,1.232-2.987,1.238c0.32-0.849,1.019-1.547,1.185-2.456
			c-0.752-0.019-0.691,0.792-1.322,0.484c0.176-0.686,1.103-1.555,0.872-2.073c-1.552,0.328-2.686,1.353-3.736,1.545
			c0.44-0.632,1.161-1.155,1.347-1.886c-0.523,0.067-0.791-0.213-0.633-0.754c-1.274,0.101-0.252,1.108-1.066,1.391
			c-0.344-0.606,0.286-0.827,0.019-1.402c-1.211,0.294-1.155,1.088-0.903,1.96c-0.48,0.145-0.71,0.392-1.326,0.484
			c-0.391-0.752-0.432,0.296-1.047-0.011c-0.281-0.347,0.626-0.224,0.486-0.515c-2.92,0.021-2.35,1.959-5.162,1.688
			c0.379-0.354,0.501-0.811,0.225-1.424c1.299-0.996,4.467-1.255,5.605-2.316c-0.756-0.225-1.92,0.762-2.635,0.266
			c0.016-0.462,1.396-0.386,1.426-0.845c-2.533,0.071-2.115,1.311-4.143,1.587c0.57-1.288,1.814-2.307,1.377-3.992
			c-1.299,0.125,0.117,1.323-1.268,1.413c-0.165-0.603,0.649-0.819,0.188-1.538c-0.819,0.092-0.288,1.097-1.463,0.732
			c0.044,0.711,1.034,1.403,0.579,2.042c-0.973-0.625-1.506-1.59-3.182-1.661c0.002,0.892,0.674,1.403,0.031,2.331
			c-0.301-0.274-0.343-0.747-0.864-0.847c0.075,1.021,0.073,1.485,0.33,2.653c-1.243-0.179-1.435-1.186-2.68-1.364
			c-0.091,1.647,2.554,1.876,2.179,3.281c-0.857-0.439-1.902-0.728-3.5-0.58c1.485,1.1,4.938,1.393,4.709,3.372
			c-3.252-0.035-3.646-2.316-6.238-2.868c0.604,2.715,4.432,2.903,6.824,4.211c-0.554,0.384-0.102,1.166-0.359,1.672
			c-1.467,0.087-2.6-0.088-3.814-0.2c0.277,1.266,2.438,1.044,3.588,1.623c0.164,0.566-0.57,0.78-0.693,1.236
			c-1.157-0.385-1.805-1.171-3.287-1.303c-0.025,0.203,0.381,0.26,0.098,0.34c-0.893-0.183-2.123-0.829-2.897-0.639
			c1.129,0.151,0.42,0.835,0.386,1.36c-0.774,0.008-0.973-0.437-1.785-0.402c0.175,0.509-0.83,0.609-1.523,0.504
			c0.085-0.27,0.301-0.484,0.18-0.834c-0.903-0.021-0.197,0.594-0.854,0.669c0.393-0.377-0.616-0.909-1.175-0.462
			c0.435-0.067,0.671,0.024,0.706,0.275c-1.02,0.83,1.159,2.303-1.152,2.566c-0.514-0.309-0.08-0.844-0.761-1.207
			c-0.128,0.218,0.093,0.576-0.212,0.723c-0.418-0.368-0.514-0.981-0.824-1.434c-1.779,0.611,1.045,1.795,0.536,2.631
			c-2.092-0.578-3.338-1.822-5.981-1.965c0.281,0.568,1.84,0.865,1.807,1.219c-0.944-0.076-1.899-0.771-2.998-0.281
			c0.138,0.492,1.085,0.353,1.439,0.672c-0.273,0.029-0.543,0.054-0.811,0.082c0.225,0.471,1.178,0.37,1.986,0.383
			c0.051,0.156-0.027,0.258-0.109,0.361c2.92,0.252,6.594-0.088,8.082,1.283c-2.543-0.032-4.56-0.488-7.388-0.303
			c0.103,0.428,1.091,0.16,1.38,0.443c-1.426,0.09-3.497-0.418-4.027,0.525c0.66-0.059,1.266-0.07,1.688,0.062
			c-0.268,0.164-0.88,0.188-0.685,0.536c1.059,0.005,2.889-0.183,3.482-0.235c-0.066,0.408-1.49,0.285-1.465,0.73
			c1.987-0.252,4.151-0.438,5.113-1.102c2.801-0.346,3.373,1.057,4.529,1.994c-0.294,0.052-0.758,0.037-0.779,0.196
			c0.594,0.148,1.614,0.194,0.567,0.526c0.522,0.008,1.225-0.126,1.313,0.218c-3.221,0.595-5.232-1.799-7.563-0.17
			c1.227-0.173,2.099-0.071,2.599,0.319c0.049,0.357-0.957,0.297-0.617,0.765c1.387,0.164,0.191,1.505,1.695,1.578
			c-0.026-1.218,1.45-1.844,4.014-2.039c0.425,1.377,1.783,2.024,2.895,2.859c-1.972-0.115-2.234-1.573-3.719-2.076
			c0.891,0.989-1.99,0.488-2.441,0.948c1.936,2.14,8.436,1.334,9.807,3.677c0.858,1.475-0.457,4.802,0.404,6.613
			c-0.033-0.071-0.539,0.011-1.157,0.144c-2.918,0.302-6.794,4.723-7.04,9.066c-0.297,1.859-0.531,3.475-0.715,4.887
			c8.184-0.266,14.838-0.744,17.352-1.295c0.898-5.299,0.848-11.817-2.936-12.329c-0.208-0.099-0.424-0.188-0.645-0.264
			c0,0.064-0.723-0.317-0.596-0.641c-0.143-1.566,0.657-2.763,0.67-4.269c2.518-1.189,2.521-3.369,4.961-4.586
			c0.999,0.311,1.64,0.051,3.11-0.082c0.2-0.435-0.706,0.002-0.705-0.277c0.644-0.047,1.226-0.12,1.357-0.373
			c-0.885-0.195-2.146,0.19-3.048,0.309c0.096-0.432,0.603-0.703,1.436-0.846c-0.129-0.578-0.691,0.045-0.939-0.371
			c-0.396-1.062,0.131-1.76,1.715-2.041c0.2-0.479-0.883,0.048-0.908-0.261c0.308-0.763,2.775-0.321,3.687-0.253
			c-0.486,0.714-2.764,0.723-3.13,1.484c1.578-0.148,2.287-0.643,3.26-1.03c0.028,0.146-0.217,0.184-0.11,0.36
			c1.261-0.174,1.165-0.882,1.474-1.432c1.097-0.488,1.957,0.029,3.213-0.442C88.906,34.255,90.087,33.967,89.995,33.688z
			 M84.812,27.908c-0.095,0.26-0.712,0.527-1.15,0.352C83.598,27.967,84.275,27.965,84.812,27.908z M84.258,24.465
			c-0.432,0.403-1.193,0.672-2.512,0.719C82.318,24.839,83.242,24.636,84.258,24.465z M82.363,17.77
			c-0.298,0.218,0.123,0.722-0.619,0.763C82.06,18.321,81.482,17.758,82.363,17.77z M80.623,18.995
			c0.252,0.942-0.461,2.371-0.931,3.364C79.725,21.529,79.352,19.671,80.623,18.995z M81.844,25.524
			c-0.33,0.184-2.098,0.721-2.438,0.246C80.221,25.688,81.027,25.606,81.844,25.524z M78.562,19.088
			c0.16,0.398-0.127,0.622-0.857,0.67c-0.031-0.207-0.312-0.217-0.332-0.435C77.855,19.277,77.92,19.068,78.562,19.088z
			 M78.264,25.42c-0.656,0.474-1.002-0.09-1.523,0.504c0.037-0.522,0.361-0.931,1.131-1.165
			C77.488,25.045,78.223,25.067,78.264,25.42z M77.762,20.687c0.924,0.742-0.385,1.003,0.105,1.855
			c-1.863,0.308-1.989-0.749-2.853-1.229C75.57,20.8,76.508,20.726,77.762,20.687z M75.81,24.85
			c-0.664-0.11,0.024-0.514-0.224-0.795C76.603,24.013,75.617,24.587,75.81,24.85z M75.51,20.096c0.529,0.12-0.164,0.598-0.655,0.65
			C74.583,20.336,75.561,20.419,75.51,20.096z M74.613,25.789c0.142,0.293-0.175,0.401-0.715,0.42
			C73.752,25.919,74.072,25.811,74.613,25.789z M72.293,20.538c0.595-0.145,0.772,0.041,1.247-0.01
			c0.083,0.436-0.808,0.487-1.259,0.712C72.479,21.082,72.4,20.815,72.293,20.538z M71.248,22.744
			c-0.536-0.179-1.248-0.223-1.272-0.806C70.664,22,71.324,22.083,71.248,22.744z M69.83,22.887c0.518-0.04,0.834,0.086,0.937,0.372
			c-0.405,0.041-0.811,0.082-1.217,0.124C69.487,23.158,70.064,23.182,69.83,22.887z M69.667,15.667
			c1.364,1.006,0.015,2.336,0.149,3.488C69.039,18.107,69.785,16.791,69.667,15.667z M70.459,23.642
			c-0.053,0.381-0.395,0.649-1.025,0.803C69.326,24,69.463,23.65,70.459,23.642z M71.059,26.499
			c-0.24,0.185-0.935,0.346-1.188,0.236c-0.063-0.227-0.127-0.453-0.193-0.682c0.672-0.062,1.425-0.189,1.521,0.199
			c-0.415,0.092-0.563-0.023-0.845-0.032C70.297,26.539,70.836,26.395,71.059,26.499z M71.1,30.346
			c-0.304-0.158-0.3-0.406-0.193-0.682C71.659,29.672,71.342,30.168,71.1,30.346z M68.779,27.312
			c0.676-0.111,0.479,0.457,0.809,0.618c-0.333,0.138-0.562,0.318-0.686,0.535C68.112,28.18,69.037,27.719,68.779,27.312z
			 M67.266,29.332c-0.052-0.189-0.107-0.379-0.158-0.568C68.053,28.771,68.789,29.529,67.266,29.332z M66.232,28.621
			c0.203-0.021,0.405-0.043,0.605-0.064c-0.051,0.25-0.322,0.41-0.447,0.63C65.771,29.15,66.41,28.81,66.232,28.621z M65.764,30.65
			c0.523-0.087,0.709,0.091,0.734,0.393C65.779,31.332,65.582,31.067,65.764,30.65z M59.686,28.346
			c0.739,0.158,0.826,0.83,1.539,1.014c0.043,0.383-1.06-0.246-0.75,0.311c-1.064,0.001-1.648-0.371-2.115-0.84
			C58.918,28.715,60.133,28.859,59.686,28.346z M56.503,31.119c1.347-0.27,1.839,0.128,2.595,0.32
			c-0.476,0.506,0.032,0.826,0.213,1.496C58.393,32.316,57.249,31.873,56.503,31.119z M57.669,30.067
			c1.589,0.244,3.562-0.909,4.046,0.292c-1.197-0.047-2.028,0.063-2.338,0.586C58.594,30.816,58.14,30.434,57.669,30.067z
			 M59.461,31.986c0.627-0.119,0.776,0.133,1.455-0.029c0.054,0.419,0.238,0.735,0.488,1C60.459,32.871,59.805,32.551,59.461,31.986
			z M60.158,32.967c0.865,0.337,1.762,0.652,1.732,1.693C60.719,34.562,60.613,33.625,60.158,32.967z M62.145,31.133
			c-0.578,0.036-0.922-0.109-0.977-0.484C61.744,30.631,62.459,30.867,62.145,31.133z M62.473,27.131
			c0.91,0.211,2.012,0.271,2.518,0.797C63.857,27.895,62.859,27.754,62.473,27.131z M64.271,33.487
			c0.358,0.179,0.537,0.497,0.658,0.865C64.15,34.503,64.516,33.754,64.271,33.487z M65.016,30.961
			c-0.83,0.178-1.204-0.713-1.582-0.425c-0.725-0.325-0.248-1.032,0.994-0.917C64.668,30,65.439,30.488,65.016,30.961z
			 M64.064,29.07c-0.434-0.398-0.836-0.822-1.199-1.279c0.928,0.242,1.941,0.419,2.554,0.909c-0.231,0.044-0.114,0.225-0.106,0.36
			C64.717,29.207,64.658,28.926,64.064,29.07z M67.602,31.982c0.041,0.15,0.082,0.301,0.127,0.453
			c-0.293,0.213-0.951-0.043-1.154,0.351c-0.381-0.253-0.887-0.41-1.238-0.69C65.836,31.712,66.818,32.127,67.602,31.982z
			 M68.284,35.881c-0.362,0.008-0.519-0.15-0.53-0.412c0.366-0.021,0.385-0.182,0.773-0.195
			C68.504,35.496,68.006,35.537,68.284,35.881z M67.016,35.076c0.107-0.492,0.858-0.737,1.129-1.163
			C68.871,33.97,67.699,34.915,67.016,35.076z M66.427,38.17c-0.085-0.538,0.183-0.936,0.223-1.425
			c0.204-0.021,0.406-0.04,0.608-0.06C67.184,37.26,67.048,37.811,66.427,38.17z M68.492,40.295
			c-0.477-0.045-0.881-0.146-0.977-0.486c0.272-0.025,0.541-0.053,0.811-0.08C68.429,40.008,68.809,40.041,68.492,40.295z
			 M68.639,39.346c-1.213-0.26-1.439-0.895,0.082-1.176C68.534,38.5,68.699,38.969,68.639,39.346z M68.019,37.893
			c-0.223-0.391,0.639-0.353,0.419-0.742C69.033,37.296,68.65,37.898,68.019,37.893z M66.722,29.62
			c0.904-0.153,1.28,0.104,1.923,0.155c0.016,0.727,0.6,1.012,0.854,1.549C68.021,31.014,67.756,29.962,66.722,29.62z M71.18,43.174
			c-0.104,0.774-0.443,2.176-0.6,3.213c0.382,0.392,0.218,1.613-0.689,1.82c-1.016-1.346-0.428-2.666-0.482-3.92
			c0.213,0.066,0.367,0.178,0.506,0.299c0.801-1.117-0.309-1.207,0.902-1.957c-0.145,0.488,0.542,0.311,0.599,0.639
			C71.25,43.305,71.211,43.242,71.18,43.174z M71.264,39.781c-0.375-0.124-0.09-0.834-0.115-1.154
			C71.749,38.84,71.482,39.561,71.264,39.781z M71.677,30.168c0.411,0.002,1.099,0.955,0.29,1.021
			C71.785,30.631,72.007,30.614,71.677,30.168z M72.59,45.951c-0.77-0.346,0.025-0.929-0.181-1.384
			c0.204-0.019,0.405-0.04,0.61-0.061C73.057,45.246,72.896,45.314,72.59,45.951z M72.657,25.519
			c-0.229-0.562,0.597-0.705,0.261-1.309c-1.213,0.127-1.182,0.744-1.31,1.297c-0.884,0.141-1.452,0.032-1.919-0.155
			c0.082-1.043,3.393-1.965,4.163-0.771C73.812,25.038,73.127,25.234,72.657,25.519z M74.098,28.406
			c-1.324-0.216-0.251-1.314,0.837-1.484c0.444,0.179-0.063,0.218,0.16,0.568C74.268,26.818,73.866,27.79,74.098,28.406z
			 M74.305,30.604c0.626,0.155,0.959,0.543,1.301,0.92c-0.496,0.068-0.673-0.116-1.077-0.125
			C74.451,31.135,74.379,30.869,74.305,30.604z M76.891,31.627c-0.652-0.414-1.074-1.006-1.328-1.733
			c0.465,0.101,0.855,0.253,1.176,0.467C76.679,30.867,76.918,31.338,76.891,31.627z M75.461,41.342
			c-0.635-0.291-0.273-1.047-0.182-1.381C75.97,40.274,75.121,40.834,75.461,41.342z M76.23,32.979
			c0.584-0.043,0.5,0.436,0.629,0.752c-0.426,0.167-0.822,0.35-1.092,0.578C74.789,33.814,76.615,33.571,76.23,32.979z
			 M76.186,35.785c0.076-0.242,0.455-0.359,0.919-0.445C77.238,35.686,76.535,35.923,76.186,35.785z M76.696,35.381
			c-0.526-0.312,0.468-0.887,0.227-1.423C77.596,34.33,77.42,35.227,76.696,35.381z M75.382,28.512
			c-0.209-0.486,0.312-0.682,0.321-1.082c0.91-0.066,1.062,0.461,1.644,0.65C76.943,28.322,76.227,28.443,75.382,28.512z
			 M76.962,26.719c0.604-0.03,0.551-0.32,1.149-0.348c-0.285,0.353-0.273,0.829-0.49,1.215
			C77.221,27.439,77.041,27.119,76.962,26.719z M78.217,37.796c-0.077-0.263-0.152-0.528-0.226-0.792
			c0.349-0.166,0.917-0.244,1.358-0.372C79.189,37.104,79.056,37.591,78.217,37.796z M80.221,32.34
			c-0.002-0.551-0.449-0.756-0.555-1.228c0.994-0.042,0.517-0.667,0.757-1.009c-0.435-0.348-0.54,0.422-1.017,0.104
			c-0.061-0.228-0.125-0.457-0.19-0.682c-0.542,0.019-0.034,0.455-0.715,0.422c0.019-0.203-0.22-0.197-0.466-0.186
			c-0.162-0.266,0.298-0.283,0.039-0.588c0.943-0.186,1.355,0.047,2.267-0.113C80.502,29.92,81.958,31.736,80.221,32.34z
			 M80.615,35.22c0.036-0.288,0.014-0.603,0.652-0.651C81.426,34.936,81.18,35.14,80.615,35.22z M82.22,34.242
			c0.519-0.088,0.882-0.049,0.905,0.257C82.607,34.584,82.12,34.641,82.22,34.242z M85.273,33.232
			c0.337,0.508-1.784,0.484-2.031,0.203C83.898,33.145,84.417,33.322,85.273,33.232z M83.693,35.023
			c0.068-0.465,1.387-1.201,1.763-0.408C84.592,34.643,84.653,35.035,83.693,35.023z M84.129,32.879
			c-0.246-0.635,1.661-0.418,1.365-1.07c0.385,0.256,0.979,0.342,1.583,0.425C86.576,32.793,85.122,33.342,84.129,32.879z"/>
	</g>
	<g>
		<path fill="#FFFFFF" d="M18.314,42.626c0.029,1.713,0.947,3.069,0.799,4.852c0.146,0.366-0.672,0.802-0.672,0.729
			c-0.252,0.088-0.496,0.189-0.732,0.302c-3.652,1.417-4.094,7.251-3.44,12.53c3.958,1.076,11.378,1.69,19.815,1.971
			c-0.197-1.373-0.436-2.898-0.723-4.609c-0.105-4.967-4.761-9.953-8.081-10.287c-0.704-0.146-1.278-0.238-1.317-0.158
			c0.964-2.062-0.559-5.841,0.406-7.52c1.536-2.668,8.934-1.772,11.115-4.212c-0.516-0.521-3.786,0.059-2.783-1.071
			c-1.684,0.578-1.969,2.236-4.209,2.373c1.257-0.952,2.795-1.691,3.266-3.26c2.917,0.214,4.601,0.922,4.582,2.307
			c1.709-0.088,0.338-1.608,1.914-1.8c0.381-0.533-0.762-0.462-0.711-0.868c0.567-0.445,1.559-0.563,2.953-0.371
			c-2.664-1.844-4.932,0.883-8.598,0.217c0.1-0.391,0.896-0.241,1.492-0.252c-1.191-0.373-0.034-0.43,0.639-0.6
			c-0.024-0.181-0.551-0.162-0.887-0.221c1.307-1.07,1.945-2.665,5.133-2.279c1.098,0.75,3.561,0.954,5.824,1.234
			c0.023-0.506-1.595-0.361-1.672-0.826c0.676,0.059,2.758,0.268,3.96,0.258c0.218-0.396-0.478-0.422-0.782-0.607
			c0.479-0.15,1.168-0.141,1.919-0.076c-0.61-1.071-2.962-0.489-4.583-0.584c0.324-0.322,1.451-0.023,1.566-0.51
			c-3.219-0.201-5.506,0.322-8.398,0.367c1.68-1.564,5.859-1.188,9.178-1.484c-0.094-0.115-0.186-0.232-0.127-0.41
			c0.92-0.016,2.002,0.095,2.256-0.441c-0.307-0.031-0.613-0.057-0.922-0.09c0.4-0.364,1.477-0.209,1.629-0.77
			c-1.252-0.553-2.332,0.24-3.407,0.329c-0.039-0.401,1.73-0.743,2.046-1.391c-3.006,0.171-4.411,1.587-6.785,2.251
			c-0.586-0.948,2.616-2.303,0.588-2.992c-0.35,0.516-0.453,1.213-0.925,1.632c-0.349-0.167-0.101-0.573-0.247-0.82
			c-0.771,0.414-0.273,1.022-0.854,1.374c-2.632-0.293-0.167-1.973-1.33-2.914c0.036-0.286,0.304-0.391,0.796-0.316
			c-0.637-0.505-1.779,0.103-1.33,0.529c-0.746-0.083,0.051-0.784-0.976-0.757c-0.135,0.398,0.112,0.642,0.212,0.948
			c-0.788,0.122-1.932,0.01-1.736-0.569c-0.926-0.036-1.146,0.47-2.026,0.464c-0.044-0.597-0.855-1.373,0.426-1.548
			c-0.882-0.212-2.276,0.524-3.287,0.735c-0.325-0.09,0.138-0.155,0.108-0.386c-1.688,0.154-2.414,1.05-3.727,1.492
			c-0.145-0.519-0.98-0.759-0.801-1.405c1.305-0.66,3.762-0.415,4.064-1.855c-1.378,0.132-2.664,0.334-4.334,0.239
			c-0.296-0.574,0.211-1.465-0.423-1.9c2.71-1.495,7.06-1.719,7.723-4.808c-2.942,0.634-3.37,3.229-7.066,3.279
			c-0.278-2.249,3.646-2.593,5.323-3.849c-1.816-0.162-3.002,0.169-3.975,0.67c-0.438-1.596,2.567-1.865,2.45-3.737
			c-1.413,0.206-1.622,1.351-3.035,1.558c0.282-1.328,0.276-1.855,0.353-3.016c-0.592,0.116-0.636,0.653-0.975,0.965
			c-0.74-1.052,0.021-1.636,0.016-2.649c-1.904,0.086-2.504,1.185-3.604,1.898c-0.523-0.724,0.598-1.514,0.641-2.322
			c-1.33,0.418-0.735-0.726-1.67-0.829c-0.518,0.82,0.41,1.062,0.229,1.748c-1.576-0.098,0.024-1.464-1.453-1.602
			c-0.484,1.918,0.939,3.073,1.598,4.535c-2.307-0.308-1.84-1.719-4.723-1.792c0.037,0.522,1.607,0.431,1.63,0.956
			c-0.81,0.566-2.141-0.551-2.997-0.293c1.302,1.202,4.906,1.487,6.391,2.616c-0.307,0.698-0.166,1.218,0.268,1.618
			c-3.194,0.317-2.562-1.887-5.881-1.903c-0.158,0.332,0.873,0.189,0.555,0.584c-0.696,0.352-0.752-0.84-1.189,0.016
			c-0.703-0.103-0.965-0.383-1.514-0.546c0.281-0.993,0.336-1.896-1.041-2.226c-0.301,0.655,0.419,0.904,0.033,1.594
			c-0.929-0.319,0.225-1.467-1.227-1.578c0.186,0.616-0.116,0.934-0.711,0.86c0.217,0.831,1.039,1.424,1.547,2.14
			c-1.197-0.214-2.496-1.376-4.262-1.745c-0.258,0.59,0.805,1.575,1.01,2.354c-0.716,0.351-0.654-0.571-1.508-0.547
			c0.195,1.033,0.996,1.825,1.367,2.788c-1.154-0.003-2.004-1.113-3.408-1.398c0.189,1.532,3.07,1.987,3.835,3.295
			c-1.012,0.208-2.858-0.233-4.188-0.278c1.265,1.331,5.83,1.342,6.281,3.002c-1.106-0.322-1.591-0.894-3.286-0.987
			c-0.002,0.156,0.391,0.151,0.657,0.197c-1.903,0.419-3.164-1.309-5.256-1.575c1.093,1.255,2.841,3.013,5.454,3.453
			c1.917,0.321,4.035,0.421,4.563,1.509c-0.823-0.188-2.24-1.149-3.714-1.162c0.232,1.096,2.297,1.458,3.432,2.194
			c-2.904,0.023-4.105-0.582-5.861-1.107c-0.238,0.493-1.369,0.299-2.025,0.462c1.273,0.493-0.08,0.729-0.551,1.143
			c0.73,0.146,1.096,0.015,1.65,0.028c0.034,0.495-0.895,0.239-1.293,0.402c2.032,0.337,2.409,1.335,3.194,2.169
			c-0.825-0.053-0.292-0.649-1.243-0.649c-0.273,0.376,0.105,0.492,0.02,0.797c-0.611-0.64-1.029-1.355-1.85-1.907
			c-0.589,0.03-0.197,0.602,0.054,0.67c-0.608,0.205-1.521,0.173-1.826,0.615c0.667,0.193,1.528,0.309,1.702,0.698
			c-0.127,0.425-0.793,0.429-1.526,0.378c-0.522-0.173,0.4-0.922-0.708-0.862c-0.055,0.173-0.098,0.343-0.145,0.516
			c-0.396,0.224-0.603-0.596-1.775-0.439c1.84,0.298,0.434,1.896,1.707,2.42c-0.691,0.143-1.264,0.38-1.834,0.617
			c0.422,0.465,1.108-0.175,1.885,0.052c-0.163,0.553-1.479,0.209-2.416,0.16c-0.103,0.317,1.242,0.642,0.748,0.736
			c1.432,0.532,2.406-0.06,3.656,0.494c0.356,0.623,0.256,1.428,1.689,1.623c0.12-0.203-0.16-0.244-0.127-0.41
			c1.107,0.438,1.916,0.998,3.713,1.16c-0.424-0.864-3.013-0.867-3.57-1.677c1.035-0.08,3.836-0.589,4.193,0.276
			c-0.026,0.352-1.264-0.244-1.032,0.299c1.805,0.315,2.411,1.107,1.968,2.316c-0.277,0.474-0.924-0.233-1.064,0.424
			c0.947,0.16,1.527,0.466,1.641,0.956c-1.027-0.131-2.467-0.565-3.469-0.339c0.15,0.285,0.814,0.366,1.547,0.418
			c0.004,0.316-1.032-0.176-0.801,0.317c1.673,0.147,2.404,0.44,3.536,0.083C15.42,38.803,15.441,41.281,18.314,42.626z
			 M8.545,12.627c1.001-0.017,0.352,0.626,0.711,0.865C8.412,13.447,8.887,12.873,8.545,12.627z M10.533,14.015
			c1.452,0.765,1.044,2.879,1.086,3.822C11.079,16.709,10.256,15.087,10.533,14.015z M6.449,20.244
			c1.154,0.192,2.208,0.42,2.859,0.81C7.81,21.005,6.942,20.702,6.449,20.244z M9.203,21.442c0.928,0.09,1.846,0.182,2.773,0.272
			C11.592,22.256,9.578,21.651,9.203,21.442z M5.848,24.162c0.611,0.062,1.381,0.062,1.312,0.395
			C6.661,24.759,5.959,24.456,5.848,24.162z M13.713,20.56c0.877,0.263,1.249,0.728,1.297,1.321c-0.6-0.673-0.988-0.031-1.738-0.569
			C13.315,20.912,14.151,20.885,13.713,20.56z M16.201,23.589c0.012,0.456,0.606,0.676,0.374,1.229
			c-0.962-0.075-1.778-0.209-2.238-0.483C14.996,24.118,15.164,23.518,16.201,23.589z M16.057,20.657
			c0.216-0.299-0.908-0.948,0.248-0.904C16.023,20.073,16.811,20.53,16.057,20.657z M15.049,26.925
			c0.36-0.244,0.803-0.419,1.33-0.535c-0.28,0.829-0.756,1.502-1.493,1.976C14.854,28.035,15.121,27.502,15.049,26.925z
			 M14.869,31.016c-0.27,0.609,0.863,1.26,0.27,1.617C14.314,32.459,14.107,31.441,14.869,31.016z M14.674,32.588
			c0.526,0.096,0.96,0.229,1.049,0.502C15.326,33.248,14.524,32.982,14.674,32.588z M16.185,31.41
			c-0.308-0.26-0.761-0.465-1.245-0.652c0.142-0.361,0.045-0.905,0.709-0.857C15.215,30.574,17.293,30.847,16.185,31.41z
			 M16.596,39.406c0.381-0.578-0.59-1.213,0.193-1.571C16.896,38.217,17.313,39.074,16.596,39.406z M17.569,28.1
			c-0.458,0.012-0.659,0.221-1.224,0.146c0.385-0.43,0.762-0.872,1.472-1.05C17.734,27.496,17.653,27.799,17.569,28.1z
			 M18.032,24.695c0.26-0.701-0.206-1.805-1.14-1.038c0.25-0.4-0.327-0.442,0.178-0.647C18.307,23.2,19.538,24.446,18.032,24.695z
			 M19.897,44.638c-0.354-0.724-0.537-0.8-0.501-1.642c0.234,0.023,0.464,0.048,0.695,0.068
			C19.863,43.582,20.77,44.244,19.897,44.638z M20.48,27.854c-0.921-0.072-0.146-1.16,0.321-1.162
			C20.429,27.199,20.682,27.217,20.48,27.854z M21.311,22.236c0.106-0.442,0.965-0.299,1.728-0.23
			c-0.073,0.26-0.144,0.518-0.213,0.776c-0.287,0.125-1.079-0.055-1.354-0.265c0.253-0.118,0.866,0.043,0.801-0.32
			C21.951,22.208,21.784,22.339,21.311,22.236z M21.672,26.114c0.124,0.313,0.131,0.597-0.214,0.776
			C21.182,26.689,20.816,26.126,21.672,26.114z M21.474,36.307c-0.026,0.363,0.304,1.17-0.121,1.312
			C21.103,37.369,20.794,36.549,21.474,36.307z M22.986,47.194c-1.034-0.232-0.59-1.56-0.16-2.005
			c-1.658-0.877-1.224-2.832-1.35-3.713c-0.035,0.077-0.077,0.148-0.268,0.107c0.062-0.373,0.848-0.174,0.678-0.728
			c1.383,0.849,0.121,0.954,1.041,2.222c0.156-0.139,0.332-0.266,0.572-0.342C23.449,44.163,24.13,45.664,22.986,47.194z
			 M25.307,32.705c-0.012,0.299-0.188,0.479-0.601,0.471c0.313-0.392-0.253-0.437-0.28-0.689
			C24.868,32.5,24.891,32.682,25.307,32.705z M24.848,30.938c0.312,0.484,1.168,0.76,1.295,1.319
			C25.363,32.075,24.023,31.005,24.848,30.938z M24.543,34.619c-0.246,0.444,0.732,0.398,0.484,0.844
			C24.309,35.47,23.865,34.787,24.543,34.619z M24.335,37.117c-0.074-0.43,0.11-0.963-0.104-1.338
			C25.961,36.094,25.711,36.816,24.335,37.117z M24.508,38.195c-0.359-0.289,0.068-0.327,0.184-0.646
			c0.307,0.03,0.612,0.062,0.922,0.091C25.508,38.025,25.051,38.144,24.508,38.195z M26.839,35.771
			c-0.71-0.406-0.867-1.03-0.96-1.685c0.232,0.021,0.463,0.043,0.695,0.067C26.623,34.709,26.93,35.16,26.839,35.771z
			 M26.625,29.652c-0.234-0.449-0.98-0.154-1.315-0.395c0.052-0.174,0.093-0.347,0.141-0.517c0.892,0.161,2.005-0.313,2.576,0.121
			C27.631,29.184,27.057,29.363,26.625,29.652z M28.508,31.428c0.135-0.418,0.334-0.781,0.741-0.986
			C28.975,30.745,29.395,31.596,28.508,31.428z M30.176,27.086c-0.432-0.329-0.85,0.687-1.793,0.486
			c-0.487-0.535,0.385-1.094,0.654-1.528C30.448,25.91,30.998,26.711,30.176,27.086z M31.967,31.769
			c-0.043-1.185,0.974-1.545,1.954-1.93C33.41,30.588,33.297,31.652,31.967,31.769z M32.504,29.83
			c0.283-0.303,0.49-0.662,0.547-1.139c0.772,0.183,0.94-0.104,1.654,0.029C34.32,29.363,33.577,29.73,32.504,29.83z M38.061,27.727
			c-0.843,0.858-2.137,1.367-3.178,2.073c0.201-0.763,0.777-1.128,0.23-1.701C35.971,27.877,36.527,27.424,38.061,27.727z
			 M34.418,24.583c-0.502,0.585,0.877,0.416,1.514,0.547c-0.526,0.534-1.188,0.958-2.399,0.96c0.349-0.633-0.899,0.084-0.854-0.351
			C33.486,25.528,33.58,24.766,34.418,24.583z M36.727,26.534c-0.533,0.418-1.047,0.855-1.938,1.003
			c-0.354-0.593-1.301-0.716-2.66-0.659C32.67,25.511,34.922,26.816,36.727,26.534z M32.753,27.205
			c-0.058,0.427-0.448,0.593-1.104,0.554C31.287,27.457,32.098,27.188,32.753,27.205z M31.241,23.209
			c-0.435,0.71-1.568,0.873-2.858,0.915C28.955,23.523,30.207,23.452,31.241,23.209z M30.799,23.961
			c-0.408,0.521-0.863,1.003-1.354,1.458c-0.674-0.163-0.739,0.157-1.418-0.007c0.006-0.155,0.139-0.36-0.125-0.41
			C28.596,24.443,29.745,24.24,30.799,23.961z M27.529,27.221c0.209,0.475-0.015,0.775-0.832,0.449
			C26.721,27.326,26.934,27.124,27.529,27.221z M26.979,24.915c-0.2,0.216,0.529,0.601-0.176,0.644
			c-0.145-0.25-0.453-0.43-0.515-0.714C26.517,24.867,26.748,24.891,26.979,24.915z M25.985,25.08
			c-0.058,0.217-0.118,0.43-0.177,0.647C24.08,25.956,24.91,25.091,25.985,25.08z M26.43,26.053
			c-1.171,0.392-1.465,1.588-3.143,1.946c0.285-0.611,0.947-0.937,0.959-1.764C24.976,26.176,25.4,25.88,26.43,26.053z
			 M24.069,23.436c-0.287,0.461,0.768,0.985-0.128,1.312c-0.142-0.247-0.405-0.452-0.785-0.607
			C23.529,23.957,23.301,23.311,24.069,23.436z M23.301,20.176c-0.716-0.172-1.107-0.475-1.17-0.909
			C23.263,19.274,23.422,19.671,23.301,20.176z M23.16,18.97c-0.461-0.045-0.922-0.091-1.383-0.137
			c0.115-0.325,0.473-0.469,1.062-0.425C22.574,18.743,23.232,18.714,23.16,18.97z M22.964,10.198
			c-0.126,1.279,0.735,2.772-0.142,3.966C22.965,12.854,21.42,11.347,22.964,10.198z M22.666,17.329
			c-0.025,0.663-0.834,0.715-1.439,0.921C21.133,17.498,21.884,17.402,22.666,17.329z M20.018,15.744
			c-0.118,0.315-0.205,0.619,0.02,0.798c-0.516-0.255-1.527-0.31-1.438-0.806C19.141,15.792,19.342,15.581,20.018,15.744z
			 M23.019,21.21c-0.528,0.212-1.175,0.338-2.18,0.181c-0.149-0.628-0.12-1.33-1.499-1.471c-0.379,0.688,0.562,0.849,0.307,1.488
			c-0.537-0.323-1.318-0.544-1.367-1.063C19.146,18.984,22.916,20.024,23.019,21.21z M17.425,21.721
			c0.614,0.023,0.981,0.146,0.815,0.477C17.627,22.177,17.266,22.056,17.425,21.721z M16.357,15.251
			c-0.055,0.368,1.055,0.27,0.75,0.737C16.549,15.931,15.757,15.389,16.357,15.251z M16.93,16.632
			c-0.977,0.549-1.112,1.751-3.231,1.406c0.551-0.97-0.94-1.264,0.104-2.109C15.226,15.971,16.293,16.051,16.93,16.632z
			 M12.877,14.114c0.73-0.024,0.807,0.213,1.355,0.265c-0.02,0.248-0.34,0.26-0.376,0.495C13.027,14.82,12.7,14.568,12.877,14.114z
			 M3.309,29.086c0.687-0.096,1.361-0.195,1.797-0.488c-0.329,0.742,1.835,0.491,1.561,1.213C5.543,30.34,3.883,29.721,3.309,29.086
			z M5.173,31.788c0.423-0.901,1.927-0.069,2.009,0.46C6.088,32.265,6.154,31.817,5.173,31.788z M5.369,30.217
			c0.975,0.098,1.56-0.105,2.311,0.224C7.4,30.762,4.989,30.795,5.369,30.217z M7.82,31.65c0.025-0.349,0.438-0.395,1.029-0.297
			C8.965,31.808,8.412,31.744,7.82,31.65z M9.935,31.723c0.728,0.055,0.703,0.412,0.745,0.739
			C10.039,32.372,9.757,32.141,9.935,31.723z M10.856,26.644c0.276,0.387-0.261,1.1,0.868,1.145
			c-0.114,0.537-0.621,0.771-0.619,1.398c-1.98-0.683-0.34-2.751-0.166-3.729c1.039,0.18,1.506-0.086,2.579,0.121
			c-0.292,0.347,0.232,0.366,0.05,0.668c-0.279-0.012-0.551-0.017-0.527,0.213c-0.773,0.04-0.201-0.458-0.816-0.476
			c-0.073,0.254-0.144,0.516-0.212,0.774C11.473,27.122,11.348,26.248,10.856,26.644z M13.431,35.383
			c-0.956-0.23-1.112-0.783-1.297-1.32c0.501,0.145,1.149,0.231,1.546,0.42C13.599,34.782,13.516,35.083,13.431,35.383z
			 M13.451,22.392c0.683,0.032,0.625,0.361,1.312,0.394c-0.088,0.455-0.29,0.82-0.744,0.988
			C13.771,23.334,13.779,22.793,13.451,22.392z"/>
		<path fill="#FFFFFF" d="M33.082,130.739c-0.908-1.927-0.272-12.799,1.758-15.349c1.334-1.676,1.271-5.187,0.983-7.661
			c-4.444-0.192-8.074-0.519-9.916-0.983c-0.22-0.07-0.507-0.121-0.831-0.168c-0.018,0.074-0.049,0.133-0.097,0.168
			c-0.827,0.598-0.852,4.135-0.106,5.391c-1.99,8.194,2.428,22.797,4.024,24.293c1.601,1.496,4.891,7.439,4.796,8.873
			c-0.094,1.434,2.453,1.739,3.389,0.129c0.932-1.611-1.479-6.469-1.479-6.469C36.389,137.102,33.99,132.665,33.082,130.739z"/>
	</g>
	<g>
		<path fill="#FFFFFF" d="M29.948,98.012c-0.106-0.264-0.239-0.551-0.399-0.867c-0.34-0.663-0.799-1.354-1.36-2.048
			c-0.175-0.224-0.517-0.603-1.044-1.163c-0.414-0.431-0.734-0.805-0.952-1.113c-0.563-0.785-0.896-1.535-0.987-2.231
			c-0.057-0.421-0.043-0.761,0.042-1.009c0.073-0.219,0.136-0.225,0.231-0.217c0.201,0.019,0.351,0.107,0.481,0.288
			c0.255,0.353,0.447,0.851,0.573,1.481l0.094,0.467l0.469-0.075c0.607-0.097,1.215-0.196,1.822-0.298l0.492-0.082l-0.087-0.49
			c-0.14-0.795-0.376-1.518-0.701-2.148c-0.335-0.646-0.749-1.175-1.231-1.568c-0.627-0.508-1.356-0.805-2.17-0.878
			c-0.897-0.083-1.619,0.153-2.166,0.697c-0.809,0.833-1.094,2.119-0.851,3.825c0.131,0.914,0.409,1.788,0.828,2.604
			c0.374,0.711,0.954,1.535,1.727,2.449l1.959,2.304c0.503,0.667,0.798,1.319,0.874,1.938c0.066,0.538,0.016,0.785-0.024,0.895
			c-0.14,0.409-0.282,0.422-0.384,0.409c-0.119-0.003-0.283-0.133-0.451-0.357c-0.316-0.416-0.578-0.801-0.776-1.729L25.873,99
			h-0.399c-0.589,0-1.178-0.298-1.767-0.303l-0.602-0.152l0.111,0.517c0.18,0.946,0.448,1.776,0.799,2.54
			c0.357,0.779,0.791,1.404,1.281,1.891c0.626,0.631,1.363,0.981,2.192,1.059c0.118,0.011,0.23,0.012,0.339,0.012
			c0.318,0,0.611-0.051,0.869-0.145c0.643-0.236,1.113-0.701,1.394-1.369c0.392-0.887,0.511-1.982,0.353-3.258
			C30.377,99.27,30.211,98.672,29.948,98.012z"/>
		<path fill="#FFFFFF" d="M35.477,87.358L35.4,86.982l-0.383-0.02c-0.465-0.023-0.93-0.048-1.396-0.074l-0.073-0.004
			c-0.416-0.023-0.831-0.047-1.247-0.073l-0.507-0.031l-0.018,0.508c-0.193,5.643-0.344,11.331-0.449,16.907l-0.008,0.469
			l0.467,0.033c0.632,0.047,1.263,0.09,1.894,0.13l0.517,0.033l0.01-0.518c0.02-1.126,0.041-2.249,0.063-3.374
			c0.346,0.021,0.69,0.04,1.035,0.059c0.226,1.185,0.45,2.37,0.673,3.555l0.072,0.383l0.389,0.02
			c0.635,0.031,1.269,0.061,1.902,0.086l0.621,0.025l-0.116-0.611C37.771,98.842,36.637,93.08,35.477,87.358z M34.633,97.51
			l-0.285-0.016c0.006-0.465,0.014-0.928,0.021-1.393C34.457,96.571,34.545,97.041,34.633,97.51z"/>
		<path fill="#FFFFFF" d="M45.034,101.693c-0.892-0.006-1.784-0.019-2.677-0.037l-0.704-14.448l-0.459-0.012
			c-0.655-0.017-1.31-0.035-1.966-0.057l-0.541-0.019l0.031,0.541c0.332,5.67,0.665,11.34,1,17.01l0.027,0.451l0.451,0.014
			c1.639,0.052,3.275,0.083,4.91,0.094l0.514,0.004l-0.111-3.537L45.034,101.693z"/>
		<path fill="#FFFFFF" d="M51.702,87.674l-0.054-0.44l-0.444-0.122C50.763,87.119,50.322,87,49.881,87h-0.07
			c-0.436,0-0.871,0.137-1.306,0.141l-0.438,0.066l-0.05,0.468c-0.646,5.636-1.26,11.749-1.827,17.383L46.134,106h0.548
			c0.624,0,1.249-0.387,1.873-0.393l0.443-0.195l0.044-0.537c0.116-1.154,0.233-2.357,0.353-3.512
			c0.342-0.005,0.686-0.033,1.027-0.04c0.125,1.146,0.248,2.279,0.369,3.424l0.047,0.446l0.455-0.014
			c0.631-0.015,1.264-0.034,1.895-0.056l0.533-0.018l-0.058-0.53C53.054,98.979,52.394,93.293,51.702,87.674z M49.756,97.832
			c0.045-0.471,0.091-0.939,0.137-1.409c0.05,0.468,0.1,0.937,0.149,1.404C49.946,97.828,49.852,97.83,49.756,97.832z"/>
		<path fill="#FFFFFF" d="M58.648,86.996L58.496,87c-1.031,0.047-2.062,0.088-3.093,0.123l-0.466,0.016l-0.012,0.466
			c-0.13,5.647-0.264,11.296-0.4,16.942l-0.012,0.528l0.527-0.022c0.944-0.041,1.891-0.088,2.838-0.141
			c0.934-0.053,1.754-0.562,2.439-1.514c0.657-0.9,1.025-1.97,1.093-3.178l0.489-8.832c0.065-1.217-0.218-2.265-0.844-3.115
			C60.426,87.426,59.615,86.996,58.648,86.996z M58,90v0.588c1,0,0.455,0.023,0.58,0.193c0.135,0.184,0.326,0.415,0.313,0.707
			l-0.337,8.852c-0.014,0.301-0.066,0.559-0.227,0.787c-0.184,0.261-0.31,0.268-0.363,0.271l-0.555,0.029
			c0.123-3.602,0.248-7.205,0.367-10.807l0.723-0.085L58.315,90H58z"/>
		<path fill="#FFFFFF" d="M69.975,88.295c-0.221-0.634-0.555-1.126-0.996-1.465c-0.566-0.433-1.269-0.621-2.112-0.555
			c-0.854,0.067-1.597,0.4-2.214,0.996c-0.939,0.93-1.47,2.241-1.578,3.895c-0.06,0.914,0.039,1.766,0.297,2.537
			c0.235,0.674,0.658,1.424,1.26,2.229l1.489,1.966c0.354,0.558,0.501,1.118,0.447,1.713c-0.046,0.517-0.149,0.798-0.232,0.95
			c-0.209,0.399-0.434,0.619-0.706,0.654c-0.072,0-0.147-0.098-0.202-0.187c-0.147-0.229-0.323-0.732-0.327-1.824l-0.002-0.588
			l-0.578,0.104c-0.597,0.107-1.191,0.211-1.784,0.314l-0.4,0.068l-0.01,0.406c-0.022,0.938,0.065,1.779,0.261,2.499
			c0.202,0.759,0.52,1.362,0.936,1.786c0.473,0.498,1.08,0.75,1.809,0.75c0.1,0,0.203-0.005,0.311-0.016
			c0.447-0.043,0.854-0.156,1.207-0.338c0.644-0.326,1.174-0.834,1.57-1.504c0.577-0.944,0.926-2.053,1.036-3.297
			c0.044-0.52,0.001-1.102-0.128-1.729c-0.055-0.251-0.13-0.523-0.229-0.819c-0.21-0.624-0.54-1.257-0.975-1.872
			c-0.14-0.206-0.411-0.535-0.836-1.012c-0.32-0.353-0.557-0.661-0.705-0.921c-0.389-0.667-0.56-1.342-0.51-2.008
			c0.033-0.427,0.123-0.785,0.27-1.069c0.203-0.396,0.398-0.411,0.527-0.42c0.133,0,0.182,0.041,0.227,0.115
			c0.17,0.285,0.253,0.729,0.248,1.319l-0.006,0.681l0.649-0.205c0.638-0.203,1.278-0.408,1.921-0.615l0.33-0.107l0.012-0.348
			C70.273,89.595,70.182,88.893,69.975,88.295z"/>
	</g>
	<g>
		<path fill="#FFFFFF" d="M24.981,76.83c-0.128-0.258-0.286-0.541-0.478-0.851c-0.406-0.653-0.947-1.329-1.604-2.003
			c-0.212-0.225-0.611-0.596-1.225-1.135c-0.488-0.424-0.867-0.79-1.127-1.092c-0.67-0.766-1.073-1.494-1.2-2.165
			c-0.075-0.399-0.071-0.716,0.013-0.945c0.068-0.187,0.141-0.226,0.345-0.218c0.267,0.02,0.472,0.119,0.644,0.313
			c0.301,0.341,0.535,0.823,0.696,1.435l0.11,0.424l0.435-0.061c0.695-0.096,1.392-0.194,2.087-0.295l0.533-0.076l-0.121-0.523
			c-0.183-0.787-0.475-1.5-0.867-2.118c-0.402-0.632-0.89-1.145-1.451-1.523c-0.721-0.484-1.549-0.763-2.463-0.828
			c-0.996-0.073-1.797,0.149-2.396,0.669c-0.92,0.83-1.21,2.111-0.862,3.807c0.185,0.898,0.537,1.758,1.05,2.559
			c0.452,0.691,1.143,1.493,2.055,2.385c1.041,1.012,1.812,1.767,2.305,2.251c0.59,0.649,0.941,1.282,1.045,1.88
			c0.088,0.51,0.043,0.736,0.004,0.839c-0.145,0.401-0.324,0.392-0.475,0.4c-0.178-0.005-0.379-0.131-0.602-0.38
			c-0.371-0.406-0.69-1.193-0.947-2.096L20.383,77H20.01c-0.667,0-1.335,0.123-2.002,0.119l-0.644,0.058l0.161,0.653
			c0.241,0.928,0.58,1.793,1.01,2.542c0.433,0.761,0.941,1.396,1.508,1.866c0.709,0.604,1.527,0.951,2.43,1.025
			c0.129,0.011,0.254,0.018,0.372,0.018c0.345,0,0.657-0.044,0.927-0.133c0.703-0.227,1.213-0.678,1.51-1.334
			c0.422-0.881,0.527-1.967,0.312-3.23C25.504,78.068,25.299,77.479,24.981,76.83z"/>
		<path fill="#FFFFFF" d="M33.388,80.253c-1.13-0.049-2.263-0.104-3.396-0.165l-0.447-3.564c0.769,0.041,1.535,0.078,2.301,0.111
			l0.572,0.025l-0.363-3.525l-0.426-0.02c-0.84-0.036-1.681-0.076-2.522-0.119l-0.44-3.563c1.192,0.06,2.384,0.111,3.572,0.157
			l0.564,0.022l-0.33-3.526l-0.434-0.016c-2.166-0.084-4.338-0.186-6.516-0.307l-0.6-0.033l0.083,0.594
			c0.772,5.571,1.553,11.142,2.343,16.713l0.057,0.397l0.4,0.026c1.934,0.123,3.86,0.227,5.783,0.311l0.568,0.025l-0.342-3.525
			L33.388,80.253z"/>
		<path fill="#FFFFFF" d="M40.201,66.697l-0.073-0.396l-0.403-0.007c-1.043-0.019-2.084-0.04-3.126-0.065l-0.466-0.012l-0.039,0.464
			c-0.469,5.536-0.876,11.134-1.211,16.64l-0.031,0.504l0.506,0.02c0.701,0.025,1.401,0.049,2.102,0.071l0.478,0.015l0.03-0.478
			c0.07-1.116,0.144-2.233,0.22-3.351c0.428,0.012,0.855,0.021,1.284,0.03c0.193,1.147,0.385,2.296,0.574,3.442l0.066,0.406
			l0.412,0.008c0.705,0.014,1.41,0.023,2.115,0.031l0.588,0.006l-0.096-0.58C42.219,77.893,41.232,72.258,40.201,66.697z
			 M38.552,74.736c0.11,0.647,0.22,1.295,0.328,1.943l-0.452-0.01C38.469,76.025,38.51,75.381,38.552,74.736z"/>
		<path fill="#FFFFFF" d="M42.451,66.329l-0.509-0.005l0.078,3.521L42.5,69.85c0.629,0.006,1.258,0.01,1.887,0.012l0.082,14.172
			l1.181,0.003l1.808-0.006l0.142-14.173c0.626-0.003,1.251-0.009,1.878-0.016l0.475-0.006l0.094-3.521l-0.513,0.006
			C47.173,66.348,44.813,66.35,42.451,66.329z"/>
		<path fill="#FFFFFF" d="M59.179,66.084l-0.56,0.02c-2.386,0.088-4.775,0.151-7.102,0.189l-0.467,0.008l-0.142,3.521l0.523-0.008
			c0.614-0.011,1.229-0.023,1.845-0.037c-0.26,4.547-0.521,9.091-0.785,13.637l-0.031,0.537l0.537-0.015
			c0.672-0.018,1.344-0.039,2.018-0.062l0.442-0.016l0.032-0.441c0.34-4.576,0.676-9.152,1.01-13.728
			c0.643-0.021,1.286-0.042,1.93-0.066l0.435-0.017L59.179,66.084z"/>
		<path fill="#FFFFFF" d="M62.033,80.07c0.555-4.537,1.104-9.072,1.648-13.607l0.07-0.582l-0.585,0.029
			c-0.763,0.037-1.525,0.072-2.287,0.104l-0.427,0.018l-0.043,0.425c-0.582,5.566-1.171,11.133-1.766,16.699l-0.062,0.574
			l0.577-0.028c1.842-0.091,3.69-0.199,5.545-0.326l0.396-0.027l0.527-3.505l-0.613,0.041C64.02,79.951,63.025,80.014,62.033,80.07z
			"/>
		<path fill="#FFFFFF" d="M75.746,65.068c-2.21,0.182-4.411,0.345-6.604,0.486L68.75,65.58l-0.062,0.389
			c-0.896,5.568-1.802,11.138-2.717,16.706l-0.102,0.619l0.625-0.046c1.949-0.145,3.906-0.311,5.873-0.494l0.362-0.035l0.745-3.54
			l-0.666,0.062c-1.084,0.1-2.164,0.193-3.241,0.28l0.637-3.549c0.851-0.065,1.703-0.136,2.558-0.209l0.369-0.031l0.707-3.538
			l-0.654,0.055c-0.784,0.065-1.567,0.129-2.35,0.188l0.629-3.55c1.279-0.094,2.562-0.195,3.848-0.303l0.367-0.031l0.725-3.538
			L75.746,65.068z"/>
	</g>
</g>
</svg>
