<?xml version="1.0" encoding="utf-8"?>
<!-- Generator: Adobe Illustrator 15.0.2, SVG Export Plug-In . SVG Version: 6.00 Build 0)  -->
<!DOCTYPE svg PUBLIC "-//W3C//DTD SVG 1.1//EN" "http://www.w3.org/Graphics/SVG/1.1/DTD/svg11.dtd">
<svg version="1.1" id="Layer_1" xmlns="http://www.w3.org/2000/svg" xmlns:xlink="http://www.w3.org/1999/xlink" x="0px" y="0px"
	 width="200px" height="88px" viewBox="0 0 200 88" enable-background="new 0 0 200 88" xml:space="preserve">
<g id="Sole_Logo">
	<g id="Toes_1_">
		<g>
			<path fill="#FFFFFF" d="M166.268,79.079c1.478,2.361,1.759,7.561-1.883,7.963c-3.965,0.437-8.572,0.391-7.867-5.028
				c0.367-2.75,2.785-5.688,5.754-5.688c0.938,0.007,1.771,0.401,2.47,1.012C165.358,77.87,165.875,78.446,166.268,79.079z"/>
		</g>
		<g>
			<path fill="#FFFFFF" d="M167.736,74.765c-3.533-4.83,1.562-9.688,6.673-8.883c3.37,0.533,5.862,4.433,5.312,7.768
				c-0.301,1.794-2.002,3.633-3.687,4.309C173.369,79.025,169.546,77.236,167.736,74.765z"/>
		</g>
		<g>
			<path fill="#FFFFFF" d="M176.698,54.679c-0.613,0.73-1.065,1.542-1.259,2.379c-0.426,1.844,0.993,4.769,2.148,6.092
				c1.504,1.721,3.883,2.927,6.2,2.836c4.852-0.194,6.553-6.316,5.032-10.219c-0.653-1.69-2.891-4.175-4.85-4.375
				C181.537,51.143,178.448,52.597,176.698,54.679z"/>
		</g>
		<g>
			<path fill="#FFFFFF" d="M198.217,38.42c-5.187-7.047-19.17,1.001-12.499,10.083C190.625,55.182,203.268,45.298,198.217,38.42z"/>
		</g>
		<g>
			<path fill="#FFFFFF" d="M176.286,26.503c3.829,4.871,10.393,8.396,17.048,4.145c4.883-3.119,8.474-8.312,5.696-14.362
				c-2.439-5.315-8.625-7.278-14.102-8.353c-4.977-0.975-12.075,1.805-12.984,6.536C171.168,18.509,173.714,23.232,176.286,26.503z"
				/>
		</g>
	</g>
	<g id="Sole">
		<path fill="#FFFFFF" d="M150.762,63.357c-3.617,0-7.012,0.595-10.181,1.778c-3.176,1.189-5.933,2.865-8.271,5.023
			c-2.343,2.17-4.197,4.805-5.562,7.916c-1.171,2.682-1.811,5.656-1.973,8.888c6.946,0.341,13.883-0.316,18.307-3.262
			c5.766-3.84,13.154-9.968,19.506-17.577c-0.58-0.301-1.163-0.595-1.776-0.853C157.789,63.997,154.438,63.357,150.762,63.357z"/>
		<path fill="#FFFFFF" d="M161.385,55.604c3.633-1.805,6.407-4.262,8.32-7.379l-13.444-6.803c-0.604,0.766-1.491,1.463-2.665,2.09
			c-1.178,0.633-2.637,0.939-4.387,0.939c-0.874,0-1.738-0.105-2.584-0.326c-0.849-0.219-1.613-0.545-2.293-0.984
			c-0.686-0.438-1.262,0.281-1.723-0.319c-0.466-0.606-0.727-0.823-0.782-0.823h29.027c0.054-4,0.094-2.335,0.122-3.076
			c0.027-0.739,0.041-2.079,0.041-2.79c0-3.393-0.545-6.839-1.639-9.738c-1.092-2.895-2.637-5.55-4.634-7.655
			c-1.995-2.104-4.388-3.823-7.172-4.998c-2.79-1.175-5.879-1.802-9.267-1.802c-3.335,0-6.467,0.527-9.389,1.621
			c-2.926,1.094-5.469,2.628-7.626,4.624c-2.157,1.997-3.867,4.424-5.126,7.292c-1.257,2.87-1.886,6.074-1.886,9.629
			c0,3.824,0.687,7.187,2.051,10.086c1.366,2.9,3.185,5.312,5.453,7.256c2.267,1.939,4.879,3.4,7.832,4.391
			c2.95,0.98,5.984,1.474,9.101,1.474C153.523,58.314,157.749,57.411,161.385,55.604z M143.635,26.159
			c1.146-1.148,2.759-1.879,4.834-1.879c1.914,0,3.433,0.727,4.551,1.711c1.121,0.983,1.682,2.01,1.682,4.01h-13.034
			C141.827,30,142.484,27.305,143.635,26.159z"/>
		<path fill="#FFFFFF" d="M118,26.582c-4,4.644-12,7.677-20,9.292v46.085c0,0.032-0.57,0.071-0.458,0.104
			c4.838,1.435,9.806,2.58,14.782,3.47c2.148,0.384,5.676,0.734,5.676,1.005V26.582z"/>
		<path fill="#FFFFFF" d="M59.326,34.335c-2.578,0.937-4.863,2.257-6.834,3.984c-2.092,1.836-3.76,4.094-5.01,6.775
			c-1.254,2.677-1.877,5.724-1.877,9.145c0,3.47,0.623,6.555,1.877,9.258c1.25,2.708,2.918,4.988,5.01,6.852
			c1.189,1.06,2.502,1.955,3.912,2.725c5.533,0.373,11.277,1.339,16.811,2.562c1.375-0.243,2.721-0.584,4.037-1.041
			c2.781-0.968,5.23-2.382,7.348-4.246c2.117-1.863,3.797-4.144,5.051-6.852c1.25-2.703,1.871-5.788,1.871-9.258
			c0-3.421-0.621-6.468-1.871-9.145c-1.254-2.682-2.934-4.939-5.051-6.775c-0.434-0.373-0.887-0.717-1.344-1.053
			C75.018,37.46,66.82,36.423,59.326,34.335z M73.309,59.136c-1.221,1.328-2.803,1.991-4.74,1.991c-1.941,0-3.523-0.663-4.748-1.991
			s-1.836-2.934-1.836-4.822c0-1.783,0.6-3.342,1.799-4.666c1.199-1.328,2.768-1.99,4.707-1.99c1.938,0,3.531,0.662,4.781,1.99
			c1.25,1.324,1.875,2.883,1.875,4.666C75.146,56.202,74.537,57.808,73.309,59.136z"/>
		<path fill="#FFFFFF" d="M21.955,38.029c0.66-0.271,1.5-0.405,2.521-0.405c1.5,0,3.028,0.27,4.588,0.809
			c1.559,0.543,6.85,2.592,8.75,4.034l9.803-11.911c-2.879-1.917-10.363-4.9-13.961-5.981c-3.602-1.076-7.229-1.618-10.889-1.618
			c-2.158,0-4.453,0.316-6.885,0.946c-2.43,0.629-4.678,1.619-6.749,2.968c-2.069,1.352-3.776,3.107-5.129,5.264
			c-1.351,2.162-2.023,4.771-2.023,7.83c0,2.279,0.419,4.246,1.259,5.894c0.839,1.649,1.901,3.044,3.194,4.185
			c1.29,1.139,2.715,2.055,4.272,2.744c1.562,0.691,3.092,1.217,4.592,1.578c2.758,0.657,4.693,1.213,5.805,1.664
			c1.105,0.447,1.664,1.063,1.664,1.845c0,0.72-0.314,1.216-0.943,1.479c-0.633,0.274-1.307,0.408-2.025,0.408
			c-1.802,0-3.678-0.408-5.625-1.215c-1.949-0.812-3.928-1.282-6.104-3.286L0,67.381c0.967,2.226,4.662,5.06,7.486,6.055
			c3.869,1.358,7.933,1.754,12.014,1.754c2.215,0,4.544-0.282,6.996-0.852c2.446-0.573,6.35-2.804,8.406-4.094
			c2.061-1.29,3.76-3.016,5.104-5.176c1.348-2.159,2.018-4.827,2.018-8.008c0-2.277-0.42-4.259-1.256-5.937
			c-0.836-1.681-1.953-3.107-3.357-4.273c-1.406-1.174-2.991-2.127-4.75-2.881c-1.764-0.746-3.57-1.307-5.422-1.664
			c-2.687-0.541-4.406-0.975-5.15-1.305c-0.75-0.331-1.122-0.797-1.122-1.395C20.966,38.827,21.299,38.298,21.955,38.029z"/>
	</g>
	<g id="_x32_.0" opacity="0.5">
		<path fill="#FFFFFF" d="M113.714,5.22c-0.972-1.512-2.317-2.758-4.036-3.744C107.959,0.492,105.74,0,103.021,0
			c-1.803,0-3.381,0.228-4.74,0.687c-1.359,0.457-2.525,1.074-3.494,1.85c-0.972,0.777-1.783,1.68-2.434,2.703
			c-0.652,1.027-1.166,2.109-1.543,3.246c-0.371,1.137-0.637,2.303-0.789,3.494c-0.148,1.192-0.227,2.329-0.227,3.41
			c0,1.11,0.078,2.262,0.227,3.454c0.152,1.193,0.418,2.371,0.789,3.535c0.377,1.166,0.891,2.273,1.543,3.33
			c0.65,1.052,1.462,1.981,2.434,2.784c0.203,0.17,0.45,0.302,0.669,0.455c7.04-1.455,13.933-4.177,20.284-8.503
			c0.115-0.536,0.213-1.078,0.281-1.624c0.15-1.205,0.229-2.349,0.229-3.432c0-1.634-0.182-3.361-0.541-5.179
			C115.35,8.396,114.682,6.731,113.714,5.22z M105.891,17.867c-0.08,0.845-0.225,1.613-0.435,2.308
			c-0.208,0.693-0.515,1.256-0.914,1.685c-0.401,0.43-0.909,0.646-1.521,0.646c-0.609,0-1.107-0.217-1.496-0.646
			c-0.389-0.429-0.695-0.991-0.914-1.685c-0.223-0.694-0.377-1.463-0.457-2.308c-0.086-0.846-0.125-1.673-0.125-2.478
			c0-0.773,0.039-1.571,0.125-2.391c0.08-0.816,0.234-1.561,0.457-2.226c0.219-0.665,0.525-1.206,0.914-1.622
			s0.887-0.623,1.496-0.623c0.611,0,1.119,0.207,1.521,0.623c0.399,0.416,0.706,0.957,0.914,1.622
			c0.21,0.665,0.354,1.409,0.435,2.226c0.084,0.819,0.125,1.617,0.125,2.391C106.016,16.194,105.975,17.021,105.891,17.867z"/>
		<path fill="#FFFFFF" d="M88.789,25.18c-0.301-0.291-0.648-0.524-1.037-0.7c-0.391-0.175-0.805-0.262-1.234-0.262
			c-0.449,0-0.879,0.087-1.285,0.262c-0.412,0.176-0.77,0.409-1.074,0.7c-0.309,0.29-0.549,0.632-0.725,1.022
			c-0.176,0.39-0.264,0.812-0.264,1.26c0,0.451,0.088,0.875,0.264,1.273s0.416,0.74,0.725,1.023
			c0.188,0.172,0.398,0.317,0.625,0.445c1.242-0.041,2.486-0.119,3.732-0.232c0.092-0.07,0.189-0.135,0.273-0.213
			c0.297-0.283,0.535-0.625,0.711-1.023c0.172-0.398,0.26-0.822,0.26-1.273c0-0.448-0.088-0.87-0.26-1.26
			C89.324,25.812,89.086,25.47,88.789,25.18z"/>
		<path fill="#FFFFFF" d="M73.654,18.921c0.75-0.525,1.461-1.078,2.141-1.661c0.684-0.581,1.291-1.232,1.832-1.953
			c0.543-0.719,0.971-1.546,1.291-2.477c0.316-0.93,0.475-2.003,0.475-3.222c0-1.721-0.348-3.189-1.039-4.41
			S76.76,2.989,75.65,2.225c-1.111-0.762-2.379-1.325-3.805-1.684C70.416,0.181,68.98,0,67.541,0c-1.582,0-3.113,0.215-4.598,0.644
			c-1.484,0.431-2.828,1.103-4.037,2.019c-1.203,0.914-2.211,2.064-3.014,3.451c-0.805,1.387-1.305,3.037-1.5,4.951l9.443,1.079
			c0.057-1.079,0.348-1.938,0.873-2.577c0.529-0.639,1.193-0.957,1.998-0.957c0.748,0,1.297,0.209,1.645,0.623
			c0.344,0.415,0.52,0.902,0.52,1.455c0,0.473-0.154,0.93-0.457,1.375c-0.307,0.443-1.495,0.846-1.966,1.206L54,22.587v2.437
			c8,2.901,16,4.798,24,5.173V22h-8.672L73.654,18.921z"/>
	</g>
</g>
</svg>
