<?xml version="1.0" encoding="utf-8"?>
<!-- Generator: Adobe Illustrator 15.0.2, SVG Export Plug-In . SVG Version: 6.00 Build 0)  -->
<!DOCTYPE svg PUBLIC "-//W3C//DTD SVG 1.1//EN" "http://www.w3.org/Graphics/SVG/1.1/DTD/svg11.dtd">
<svg version="1.1" id="Layer_1" xmlns="http://www.w3.org/2000/svg" xmlns:xlink="http://www.w3.org/1999/xlink" x="0px" y="0px"
	 width="260px" height="116px" viewBox="0 0 260 116" enable-background="new 0 0 260 116" xml:space="preserve">
<g id="STF">
	<g opacity="0.5">
		<g>
			<g>
				<path fill="#FFFFFF" stroke="#FFFFFF" d="M117.417,39.719l-0.136,2.331c-0.075,1.352-0.188,3.09-0.447,4.612
					c-0.615,3.546-1.704,5.966-2.85,8.407c-1.113,2.429-2.628,4.205-2.624,4.203c-0.008-0.003,0.443-0.575,1.001-1.474
					c0.567-0.898,1.203-2.148,1.755-3.417c0.59-1.37,1.019-2.461,1.426-3.642c0.401-1.181,0.765-2.458,1.063-4.222
					c0.258-1.516,0.425-3.218,0.56-4.537C117.293,40.66,117.417,39.719,117.417,39.719z"/>
			</g>
		</g>
		<g>
			<g>
				<path fill="#FFFFFF" stroke="#FFFFFF" d="M21.771,48.93c0.001,0.002-0.667-0.643-1.078-1.253
					c-0.484-0.697-0.718-1.277-1.157-1.765c-0.426-0.485-0.929-0.739-0.923-0.743c-0.006-0.001,0.632,0.306,1.062,0.84
					c0.461,0.562,0.595,0.958,1.08,1.656C21.166,48.27,21.771,48.932,21.771,48.93z"/>
			</g>
			<g>
				<path fill="#FFFFFF" stroke="#FFFFFF" d="M26.439,62.062c0.004-0.002-0.628-0.273-1.371-0.9
					c-0.748-0.617-1.578-1.566-2.174-2.493c-1.376-2.169-1.878-3.976-2.632-5.749c-0.738-1.752-1.28-3.3-1.257-3.308
					c-0.031,0.014,0.757,1.895,1.555,3.71c0.864,1.946,1.166,3.158,2.523,5.314c0.595,0.916,1.374,1.862,2.074,2.488
					C25.85,61.76,26.442,62.06,26.439,62.062z"/>
			</g>
			<g>
				<path fill="#FFFFFF" stroke="#FFFFFF" d="M41.772,63.712c0,0.01-1.807-0.244-3.186-0.659c-1.604-0.476-2.701-1.017-3.907-1.424
					c-1.19-0.388-2.195-0.777-2.183-0.808c-0.014,0.042,1.265,0.438,2.512,0.837c1.337,0.442,2.055,0.822,3.658,1.299
					C40.043,63.368,41.772,63.721,41.772,63.712z"/>
			</g>
			<g>
				<path fill="#FFFFFF" stroke="#FFFFFF" d="M43.132,54.982c0.001-0.004-1.111-0.122-1.961-0.376
					c-0.987-0.296-1.639-0.678-2.338-1.018c-0.69-0.33-1.264-0.666-1.266-0.663l1.463,0.705c0.781,0.357,1.208,0.618,2.19,0.917
					C42.066,54.797,43.133,54.979,43.132,54.982z"/>
			</g>
			<g>
				<path fill="#FFFFFF" stroke="#FFFFFF" d="M55.275,67.392c-0.001,0.004-0.32-0.042-0.763-0.049
					c-0.442-0.012-1.006,0.02-1.506,0.031c-1.163,0.038-2.015-0.029-2.902-0.028c-0.874,0.013-1.629-0.031-1.63-0.029l1.853-0.026
					c0.982-0.017,1.545,0.039,2.712,0.003c0.501-0.014,1.061-0.021,1.494,0.01C54.968,67.333,55.274,67.396,55.275,67.392z"/>
			</g>
			<g>
				<path fill="#FFFFFF" stroke="#FFFFFF" d="M61.779,76.705c0.007,0-2.543,0.934-4.687,1.148c-2.482,0.266-4.286-0.045-6.16-0.149
					c-1.847-0.117-3.438-0.296-3.439-0.292l3.919,0.195c2.072,0.082,3.265,0.301,5.733,0.056
					C59.271,77.444,61.782,76.705,61.779,76.705z"/>
			</g>
			<g>
				<path fill="#FFFFFF" stroke="#FFFFFF" d="M57.922,74.778c-0.002-0.005-1.852,0.698-3.391,0.891
					c-1.805,0.235-3.121-0.161-4.455-0.323c-1.327-0.158-2.486-0.249-2.486-0.244c0-0.006,1.46-0.014,2.844,0.134
					c1.476,0.142,2.333,0.42,4.123,0.208C56.086,75.249,57.922,74.773,57.922,74.778z"/>
			</g>
			<g>
				<path fill="#FFFFFF" stroke="#FFFFFF" d="M41.353,72.97c0.001-0.013-3.027-0.342-5.261-1.183
					c-2.598-0.99-4.187-2.341-5.953-3.423c-1.753-1.057-3.125-2.196-3.126-2.198c-0.002,0.021,1.846,1.239,3.692,2.273
					c1.98,1.129,3.009,2.06,5.582,3.058C38.507,72.329,41.356,72.958,41.353,72.97z"/>
			</g>
			<g>
				<path fill="#FFFFFF" stroke="#FFFFFF" d="M72.215,67.707c0,0-1.45,0.521-2.636,0.792c-1.377,0.316-2.408,0.392-3.459,0.634
					c-1.032,0.237-1.913,0.487-1.913,0.487s1.082-0.363,2.164-0.613c1.162-0.268,1.849-0.296,3.227-0.612
					C70.782,68.122,72.215,67.707,72.215,67.707z"/>
			</g>
			<g>
				<path fill="#FFFFFF" stroke="#FFFFFF" d="M75.257,76.405c-0.002-0.004-0.95,0.36-1.744,0.493
					c-0.923,0.153-1.607,0.081-2.308,0.038c-0.692-0.039-1.282-0.164-1.283-0.16c0.001-0.001,0.742,0.103,1.462,0.122
					c0.773,0.02,1.227,0.075,2.146-0.073C74.318,76.691,75.255,76.401,75.257,76.405z"/>
			</g>
			<g>
				<path fill="#FFFFFF" stroke="#FFFFFF" d="M69.314,85.93c0,0-0.31,0.114-0.563,0.174c-0.295,0.068-0.517,0.081-0.741,0.134
					l-0.408,0.104c0,0,0.231-0.079,0.462-0.133c0.249-0.057,0.396-0.062,0.691-0.13C69.008,86.021,69.314,85.93,69.314,85.93z"/>
			</g>
			<g>
				<path fill="#FFFFFF" stroke="#FFFFFF" stroke-width="0.2806" d="M73.783,59.818"/>
			</g>
			<g>
				<path fill="#FFFFFF" stroke="#FFFFFF" d="M73.361,72.127c0-0.01-2.538,0.207-6.104,0.056c-3.561-0.134-8.156-0.729-12.062-1.934
					c-4.542-1.382-8.219-3.274-11.401-5.317c-3.182-2.058-5.884-4.26-8.568-6.589c-5.324-4.559-8.751-9.648-8.759-9.626
					c0.012-0.01,1.148,1.512,3.032,3.57c1.874,2.067,4.542,4.604,7.373,6.871c3.048,2.433,5.551,4.216,8.346,5.918
					c2.804,1.673,5.927,3.27,10.427,4.628c3.872,1.172,8.326,1.892,11.788,2.173C70.896,72.173,73.361,72.118,73.361,72.127z"/>
			</g>
			<g>
				<path fill="#FFFFFF" stroke="#FFFFFF" stroke-width="0.3" d="M84.562,81.544"/>
			</g>
			<g>
				<path fill="#FFFFFF" stroke="#FFFFFF" d="M81.053,62.243c0,0-2.3,1.807-4.269,3.006c-2.29,1.396-4.101,2.148-5.849,3.214
					c-1.716,1.046-3.15,2.023-3.15,2.023s1.729-1.302,3.526-2.398c1.935-1.18,3.151-1.643,5.441-3.038
					C78.723,63.849,81.053,62.243,81.053,62.243z"/>
			</g>
			<g>
				<path fill="#FFFFFF" stroke="#FFFFFF" d="M88.249,64.072c0.014,0.003-0.359,0.687-0.788,1.128
					c-0.481,0.522-0.897,0.829-1.254,1.238c-0.356,0.399-0.586,0.799-0.585,0.799c-0.004,0,0.269-0.512,0.65-0.922
					c0.4-0.449,0.686-0.642,1.166-1.164C87.863,64.712,88.261,64.078,88.249,64.072z"/>
			</g>
			<g>
				<path fill="#FFFFFF" stroke="#FFFFFF" d="M81.66,53.787c-0.003,0,0.058,0.148,0.07,0.373c0.015,0.225-0.013,0.512-0.056,0.76
					c-0.1,0.577-0.206,0.993-0.184,1.446c0.021,0.443,0.136,0.81,0.132,0.81c0.004,0.001-0.16-0.453-0.164-0.923
					c-0.008-0.502,0.083-0.778,0.179-1.356C81.757,54.397,81.689,53.779,81.66,53.787z"/>
			</g>
			<g>
				<path fill="#FFFFFF" stroke="#FFFFFF" d="M69.433,55.721c0.018,0.005-0.428,0.799-0.958,1.29
					c-0.596,0.58-1.114,0.893-1.596,1.301l-0.87,0.757c-0.001,0,0.473-0.471,0.967-0.89c0.53-0.453,0.882-0.651,1.476-1.226
					C68.978,56.464,69.448,55.727,69.433,55.721z"/>
			</g>
			<g>
				<path fill="#FFFFFF" stroke="#FFFFFF" d="M97.777,43.985c0.016-0.006-2.062,6.306-4.802,10.812
					c-3.168,5.232-6.374,8.397-9.67,11.578c-1.638,1.56-3.324,2.833-4.667,3.594c-1.336,0.772-2.282,1.073-2.276,1.084
					c-0.006-0.011,1.152-0.446,2.644-1.449c1.504-0.985,3.287-2.558,4.928-4.238c1.769-1.81,3.11-3.289,4.481-4.908
					c1.358-1.629,2.732-3.419,4.288-6.029C95.417,49.947,97.789,43.983,97.777,43.985z"/>
			</g>
			<g>
				<path fill="#FFFFFF" stroke="#FFFFFF" d="M88.286,38.71c-0.003,0.002-0.214,1.85-0.476,3.292
					c-0.315,1.677-0.708,2.862-0.969,4.139l-0.459,2.338c0,0,0.193-1.363,0.446-2.676c0.277-1.414,0.557-2.193,0.874-3.872
					L88.286,38.71z"/>
			</g>
			<g>
				<path fill="#FFFFFF" stroke="#FFFFFF" d="M102.344,48.193c0,0,0.156,0.436,0.238,0.79c0.095,0.414,0.117,0.722,0.189,1.038
					l0.146,0.573c0,0-0.109-0.324-0.184-0.648c-0.081-0.349-0.09-0.555-0.185-0.969C102.469,48.623,102.344,48.193,102.344,48.193z"
					/>
			</g>
			<g>
				<path fill="#FFFFFF" stroke="#FFFFFF" d="M97.326,37.521c-0.021,0.015,0.48,1.146,0.892,2.034
					c0.45,1.047,0.663,1.856,0.95,2.674c0.292,0.802,0.483,1.514,0.486,1.514c0-0.002-0.295-0.87-0.61-1.702
					c-0.333-0.898-0.463-1.437-0.912-2.486C97.721,38.665,97.306,37.532,97.326,37.521z"/>
			</g>
			<g>
				<path fill="#FFFFFF" stroke="#FFFFFF" d="M107.438,30.933c-0.072,0.017,1.292,5.508,1.239,10.016
					c-0.066,5.235-1.297,8.892-2.467,12.611c-1.16,3.686-2.776,6.634-2.771,6.634c-0.005-0.003,0.454-0.943,1.031-2.369
					c0.581-1.427,1.245-3.35,1.801-5.278c0.598-2.075,1.027-3.717,1.394-5.487c0.353-1.769,0.638-3.673,0.654-6.264
					C108.354,36.33,107.366,30.948,107.438,30.933z"/>
			</g>
			<g>
				<path fill="#FFFFFF" stroke="#FFFFFF" d="M99.87,23.443c-0.003,0.001,1.844,3.746,2.894,6.874c1.22,3.635,1.63,6.407,2.42,9.215
					l1.444,5.144c-0.001-0.002-0.98-2.926-1.817-5.803c-0.894-3.098-1.123-4.944-2.334-8.578
					C101.426,27.173,99.867,23.444,99.87,23.443z"/>
			</g>
			<g>
				<path fill="#FFFFFF" stroke="#FFFFFF" d="M92.025,22.751c0-0.006,3.288,5.113,5.12,9.565c2.148,5.164,2.893,9.184,4.141,13.23
					c1.222,3.984,2.177,7.457,2.184,7.456l-2.748-8.399c-0.7-2.236-1.188-4.009-1.743-5.879c-0.551-1.871-1.178-3.838-2.253-6.408
					C94.893,27.882,92.025,22.748,92.025,22.751z"/>
			</g>
			<g>
				<path fill="#FFFFFF" stroke="#FFFFFF" d="M69.632,20.49c-0.002,0.003,1.674,0.475,3.95,1.332
					c2.275,0.851,5.146,2.124,7.519,3.561c2.761,1.664,4.94,3.416,6.831,5.168c1.891,1.759,3.497,3.513,5.089,5.343
					c1.568,1.795,2.838,3.625,3.642,5.041c0.811,1.412,1.195,2.379,1.206,2.374c-0.011,0.005-0.551-1.175-1.589-2.765
					c-1.028-1.596-2.599-3.554-4.293-5.358c-1.826-1.941-3.326-3.416-4.992-4.905c-1.677-1.476-3.536-2.963-6.283-4.614
					C75.996,22.776,69.628,20.471,69.632,20.49z"/>
			</g>
			<g>
				<path fill="#FFFFFF" stroke="#FFFFFF" d="M90.661,29.513c-0.002,0.012-1.577-0.535-3.812-0.986
					c-2.234-0.471-5.117-0.739-7.669-0.784c-2.966-0.071-5.541,0.057-7.946,0.284c-2.403,0.233-4.631,0.584-6.858,1.17
					c-4.368,1.17-8.02,2.541-8.024,2.525c0.006,0.019,4.474-1.908,9.08-3.086c2.479-0.622,4.477-0.899,6.589-1.089
					c2.113-0.172,4.343-0.296,7.347-0.218c2.584,0.063,5.452,0.45,7.626,1.022C89.171,28.9,90.658,29.524,90.661,29.513z"/>
			</g>
			<g>
				<path fill="#FFFFFF" stroke="#FFFFFF" d="M100.142,27.583c0,0,0.207,0.581,0.315,1.055c0.126,0.551,0.155,0.964,0.253,1.383
					l0.195,0.766c0,0-0.146-0.433-0.246-0.865c-0.106-0.466-0.118-0.74-0.244-1.292C100.307,28.156,100.142,27.583,100.142,27.583z"
					/>
			</g>
			<g>
				<path fill="#FFFFFF" stroke="#FFFFFF" d="M122.782,39.171c-0.006-0.002,0.068,1.791-0.207,4.294
					c-0.261,2.501-0.902,5.7-1.896,8.4c-1.143,3.14-2.567,5.673-4.08,7.87c-1.523,2.195-3.131,4.06-4.887,5.838
					c-1.722,1.756-3.593,3.108-5.075,3.896c-1.479,0.799-2.517,1.105-2.509,1.119c-0.01-0.014,1.267-0.462,2.918-1.507
					c1.663-1.03,3.616-2.725,5.304-4.63c1.816-2.05,3.117-3.789,4.384-5.717c1.248-1.936,2.45-4.093,3.58-7.208
					c0.972-2.68,1.695-5.777,2.054-8.199C122.739,40.904,122.777,39.169,122.782,39.171z"/>
			</g>
			<g>
				<path fill="#FFFFFF" stroke="#FFFFFF" d="M66.831,18.397c0.001,0.002,1.117-0.888,2.102-1.444
					c1.144-0.646,2.064-0.927,2.988-1.291c0.91-0.356,1.729-0.578,1.729-0.581c-0.002,0.001-1.001,0.334-1.939,0.73
					c-1.013,0.42-1.623,0.601-2.767,1.239C67.963,17.607,66.832,18.4,66.831,18.397z"/>
			</g>
			<g>
				<path fill="#FFFFFF" stroke="#FFFFFF" d="M97.328,18.984c0,0.003,1.112,0.122,1.962,0.374c0.987,0.296,1.64,0.677,2.337,1.018
					c0.691,0.332,1.263,0.668,1.265,0.665l-1.462-0.707c-0.78-0.356-1.205-0.617-2.188-0.915
					C98.395,19.169,97.328,18.987,97.328,18.984z"/>
			</g>
			<g>
				<path fill="#FFFFFF" stroke="#FFFFFF" d="M114.447,31.057c0,0,0.261,0.726,0.396,1.318c0.157,0.689,0.195,1.203,0.315,1.729
					c0.118,0.516,0.242,0.956,0.242,0.956s-0.182-0.54-0.306-1.08c-0.132-0.583-0.147-0.926-0.306-1.614
					C114.654,31.773,114.447,31.057,114.447,31.057z"/>
			</g>
			<g>
				<path fill="#FFFFFF" stroke="#FFFFFF" d="M80.266,58.919c-0.004-0.012-1.122,0.831-2.914,1.649
					c-1.779,0.833-4.242,1.572-6.482,1.799c-2.604,0.274-4.868,0.061-6.916-0.282c-2.053-0.355-3.904-0.853-5.79-1.378
					c-3.725-1-6.715-2.527-6.716-2.518c0.002-0.008,0.956,0.424,2.397,0.947c1.443,0.529,3.386,1.117,5.331,1.589
					c2.091,0.508,3.747,0.867,5.529,1.126c1.779,0.253,3.701,0.409,6.274,0.141c2.215-0.228,4.621-0.884,6.382-1.617
					C79.132,59.656,80.261,58.907,80.266,58.919z"/>
			</g>
			<g>
				<path fill="#FFFFFF" stroke="#FFFFFF" d="M24.112,55.854c0.014-0.008-1.249-0.802-2.569-2.438
					c-1.343-1.609-2.587-4.077-3.224-6.379c-0.758-2.675-0.981-5.055-1.146-7.252c-0.156-2.2-0.223-4.239-0.473-6.317
					c-0.243-2.042-0.549-3.937-0.839-5.309c-0.286-1.374-0.54-2.225-0.537-2.225c-0.003,0,0.364,1.047,0.74,2.653
					c0.382,1.604,0.764,3.76,1.013,5.897c0.27,2.301,0.36,4.11,0.522,6.021c0.175,1.907,0.376,3.938,1.13,6.581
					c0.645,2.271,1.782,4.681,3.017,6.288C22.958,55.002,24.126,55.846,24.112,55.854z"/>
			</g>
			<g>
				<path fill="#FFFFFF" stroke="#FFFFFF" d="M24.847,44.844c-0.012,0.013-1.249-2.155-1.854-4.032
					c-0.729-2.165-0.973-3.813-1.559-5.458c-0.566-1.616-1.241-2.935-1.241-2.934c0.002-0.005,0.911,1.609,1.488,3.313
					c0.634,1.825,0.752,2.93,1.483,5.09C23.771,42.694,24.835,44.852,24.847,44.844z"/>
			</g>
			<g>
				<path fill="#FFFFFF" stroke="#FFFFFF" d="M100.09,57.087c-0.006-0.004-0.183,0.608-0.531,1.428
					c-0.352,0.82-0.885,1.84-1.468,2.672c-1.364,1.937-2.716,3.021-4.002,4.244c-1.271,1.206-2.484,2.117-2.481,2.122
					c0.001-0.004,1.44-1.222,2.731-2.51c1.387-1.384,2.294-2.093,3.657-4.005c0.577-0.828,1.13-1.809,1.505-2.592
					C99.877,57.664,100.084,57.083,100.09,57.087z"/>
			</g>
			<g>
				<path fill="#FFFFFF" stroke="#FFFFFF" d="M111.676,48.543c-0.006,0.001-0.398,1.622-0.639,2.904
					c-0.3,1.489-0.561,2.576-0.633,3.747c-0.064,1.147-0.022,2.138-0.025,2.138c0.002,0-0.104-1.233-0.027-2.437
					c0.099-1.294,0.293-2.014,0.591-3.512C111.188,50.09,111.672,48.542,111.676,48.543z"/>
			</g>
			<g>
				<path fill="#FFFFFF" stroke="#FFFFFF" d="M106.471,23.384c-0.011,0.007,0.782,0.732,1.654,1.962
					c0.885,1.217,1.82,2.944,2.362,4.579c1.249,3.818,1.154,6.763,1.338,9.745c0.17,2.952-0.01,5.505-0.016,5.505
					c0.021-0.004,0.043-3.182-0.213-6.249c-0.116-1.652-0.207-2.95-0.366-4.322c-0.17-1.369-0.402-2.824-1.041-4.701
					c-0.541-1.615-1.404-3.316-2.21-4.536C107.18,24.139,106.461,23.391,106.471,23.384z"/>
			</g>
			<g>
				<path fill="#FFFFFF" stroke="#FFFFFF" stroke-miterlimit="10" d="M104.616,24.865c-1.357-2.221-3.513-4.258-5.487-5.497"/>
				<g>
					<path fill="#FFFFFF" stroke="#FFFFFF" d="M99.093,19.424c0-0.009,1.324,0.642,2.195,1.426c1.019,0.894,1.57,1.717,2.212,2.51
						c0.631,0.781,1.113,1.506,1.116,1.504c-0.002-0.001-0.652-0.865-1.327-1.665c-0.728-0.86-1.083-1.413-2.092-2.305
						C100.33,20.12,99.094,19.417,99.093,19.424z"/>
				</g>
			</g>
			<g>
				<path fill="#FFFFFF" stroke="#FFFFFF" d="M90.165,17.229c-0.002,0.002,0.706,0.321,1.204,0.685
					c0.578,0.423,0.905,0.833,1.281,1.218l0.678,0.724l-0.796-0.797c-0.424-0.418-0.637-0.692-1.21-1.116
					C90.828,17.581,90.164,17.232,90.165,17.229z"/>
			</g>
			<g>
				<path fill="#FFFFFF" stroke="#FFFFFF" d="M77.062,22.793c-0.001,0.009,1.332,0.615,2.394,1.045
					c1.229,0.519,2.116,0.942,3.121,1.177c0.987,0.229,1.862,0.258,1.86,0.261c0.004,0-1.093,0.003-2.128-0.26
					c-1.107-0.284-1.688-0.592-2.926-1.107C78.313,23.472,77.06,22.8,77.062,22.793z"/>
			</g>
			<g>
				<path fill="#FFFFFF" stroke="#FFFFFF" d="M88.257,23.613c-0.002,0,1.386-0.035,2.467,0.178c1.255,0.243,2.1,0.64,3.017,0.941
					l1.681,0.556c-0.001,0.001-0.987-0.272-1.932-0.576c-1.019-0.318-1.571-0.597-2.819-0.841
					C89.597,23.661,88.256,23.614,88.257,23.613z"/>
			</g>
			<g>
				<path fill="#FFFFFF" stroke="#FFFFFF" d="M110.838,37.8c0.014-0.018,0.881,2.484,0.852,4.593
					c0.001,2.433-0.567,4.122-0.968,5.895c-0.405,1.748-0.837,3.239-0.831,3.241l0.823-3.714c0.396-1.969,0.796-3.082,0.808-5.49
					C111.541,40.241,110.852,37.788,110.838,37.8z"/>
			</g>
			<g>
				<path fill="#FFFFFF" stroke="#FFFFFF" d="M109.103,59.28c0.023,0.008-0.479,0.867-1.019,1.437
					c-0.604,0.672-1.105,1.104-1.523,1.659c-0.412,0.543-0.692,1.06-0.694,1.058c0.001,0.002,0.324-0.658,0.768-1.223
					c0.471-0.608,0.818-0.88,1.421-1.556C108.592,60.085,109.122,59.29,109.103,59.28z"/>
			</g>
			<g>
				<path fill="#FFFFFF" stroke="#FFFFFF" d="M116.645,26.328c-0.008,0.008,0.958,2.625,1.671,4.698
					c0.805,2.422,1.219,4.248,1.942,6.066c0.72,1.783,1.435,3.281,1.433,3.281c0.002,0-0.979-1.823-1.724-3.694
					c-0.796-2.018-1.033-3.24-1.845-5.667C117.412,28.927,116.638,26.332,116.645,26.328z"/>
			</g>
			<g>
				<path fill="#FFFFFF" stroke="#FFFFFF" d="M96.726,9.021c-0.008-0.017,1.816-0.011,3.192,0.435
					c1.598,0.481,2.639,1.11,3.806,1.588l2.143,0.866c-0.001,0.001-1.267-0.424-2.466-0.916c-1.293-0.521-1.975-0.958-3.562-1.442
					C98.473,9.114,96.723,9.007,96.726,9.021z"/>
			</g>
			<g>
				<path fill="#FFFFFF" stroke="#FFFFFF" d="M108.908,18.01c0,0,1.184,0.559,2.058,1.106c1.016,0.636,1.679,1.21,2.455,1.696
					c0.761,0.478,1.439,0.855,1.439,0.855s-0.867-0.431-1.664-0.931c-0.858-0.538-1.288-0.933-2.305-1.569
					C110.017,18.621,108.908,18.01,108.908,18.01z"/>
			</g>
			<g>
				<path fill="#FFFFFF" stroke="#FFFFFF" d="M118.302,18.375c0.002-0.014,0.763,0.392,1.197,0.924
					c0.511,0.601,0.729,1.137,0.974,1.671c0.246,0.526,0.37,1.016,0.374,1.015c0-0.001-0.199-0.595-0.469-1.135
					c-0.294-0.577-0.432-0.936-0.935-1.533C119.013,18.792,118.304,18.363,118.302,18.375z"/>
			</g>
			<g>
				<path fill="#FFFFFF" stroke="#FFFFFF" d="M66.587,10.06c-0.009-0.013,2.343-0.802,4.288-1.04
					c2.248-0.305,3.904-0.246,5.615-0.534c1.681-0.271,3.094-0.683,3.093-0.68c0.003,0-1.739,0.583-3.507,0.855
					c-1.897,0.297-2.999,0.218-5.245,0.524C68.891,9.425,66.581,10.048,66.587,10.06z"/>
			</g>
			<g>
				<path fill="#FFFFFF" stroke="#FFFFFF" d="M77.858,15.018c0,0.002,1.172-0.432,2.149-0.596c1.136-0.191,1.977-0.134,2.845-0.153
					c0.855-0.023,1.596,0.025,1.596,0.021c-0.002,0-0.922,0.001-1.813,0.036c-0.959,0.042-1.515-0.007-2.646,0.179
					C79.016,14.67,77.859,15.02,77.858,15.018z"/>
			</g>
			<g>
				<path fill="#FFFFFF" stroke="#FFFFFF" d="M62.053,19.586c-0.004,0.001,2.854-1.909,5.358-2.976
					c2.906-1.247,5.176-1.677,7.46-2.387c2.25-0.691,4.212-1.229,4.212-1.233l-4.744,1.553c-2.516,0.815-4.025,1.074-6.925,2.305
					C64.921,17.913,62.052,19.588,62.053,19.586z"/>
			</g>
			<g>
				<path fill="#FFFFFF" stroke="#FFFFFF" d="M82.847,14.674c0,0,0.29-0.104,0.527-0.158l0.691-0.127l0.383-0.098
					c0,0-0.217,0.073-0.433,0.123l-0.646,0.123L82.847,14.674z"/>
			</g>
			<g>
				<path fill="#FFFFFF" stroke="#FFFFFF" d="M75.404,18.947c-0.012-0.001,0.778-0.797,1.609-1.125
					c0.941-0.399,1.687-0.458,2.429-0.65l1.364-0.356c0,0.001-0.773,0.256-1.54,0.448c-0.82,0.218-1.317,0.243-2.252,0.635
					C76.196,18.226,75.396,18.944,75.404,18.947z"/>
			</g>
			<g>
				<path fill="#FFFFFF" stroke="#FFFFFF" d="M65.766,21.132c0.001,0.001,0.238-0.516,0.495-0.887
					c0.301-0.43,0.587-0.689,0.893-0.938c0.296-0.257,0.632-0.344,0.63-0.345c-0.004-0.005-0.397,0.145-0.691,0.427
					c-0.319,0.292-0.508,0.463-0.81,0.89C66.026,20.647,65.767,21.133,65.766,21.132z"/>
			</g>
			<g>
				<path fill="#FFFFFF" stroke="#FFFFFF" d="M55.008,32.921c-0.02-0.002,0.483-1.746,1.078-3.044c0.668-1.51,1.27-2.566,1.568-3.81
					c0.301-1.219,0.248-2.309,0.25-2.305c0.006-0.008,0.106,1.356-0.253,2.635c-0.377,1.368-0.818,2.053-1.479,3.571
					C55.575,31.268,54.99,32.917,55.008,32.921z"/>
			</g>
			<g>
				<path fill="#FFFFFF" stroke="#FFFFFF" d="M50.141,33.99c-0.019,0.015-0.15-0.564,0.035-1.002
					c0.18-0.499,0.428-0.795,0.626-1.137l0.366-0.628c0.002,0-0.189,0.375-0.396,0.727c-0.215,0.38-0.389,0.573-0.567,1.064
					C50.025,33.443,50.124,34,50.141,33.99z"/>
			</g>
			<g>
				<path fill="#FFFFFF" stroke="#FFFFFF" d="M60.826,32.447c0.009,0,0.637-2.129,1.206-3.781c0.681-1.918,1.357-3.247,1.902-4.701
					l1.006-2.661c-0.002,0.001-0.514,1.561-1.053,3.061c-0.592,1.613-1.059,2.485-1.742,4.405
					C61.573,30.425,60.833,32.449,60.826,32.447z"/>
			</g>
			<g>
				<path fill="#FFFFFF" stroke="#FFFFFF" d="M58.224,39.739c0.002,0-0.229-0.615-0.322-1.127c-0.106-0.597-0.065-1.05,0.045-1.487
					c0.106-0.437,0.32-0.771,0.314-0.772c0.006,0.003-0.236,0.432-0.312,0.889c-0.078,0.489-0.103,0.788-0.002,1.381
					C58.04,39.131,58.226,39.739,58.224,39.739z"/>
			</g>
			<g>
				<path fill="#FFFFFF" stroke="#FFFFFF" d="M53.67,30.691c0.005,0.002,0.051-0.524,0.248-1.237
					c0.189-0.713,0.555-1.607,1.029-2.312c1.12-1.642,2.404-2.392,3.67-3.102c1.268-0.704,2.501-1.006,2.497-1.012
					c-0.001-0.001-1.5,0.478-2.772,1.273c-0.691,0.416-1.215,0.778-1.735,1.209c-0.519,0.433-1.039,0.943-1.576,1.754
					C54.053,28.658,53.647,30.699,53.67,30.691z"/>
			</g>
			<g>
				<path fill="#FFFFFF" stroke="#FFFFFF" d="M58.283,47.277c0.003-0.004-0.338-0.154-0.773-0.447
					c-0.434-0.293-0.943-0.751-1.306-1.231c-0.838-1.125-1.09-2.126-1.447-3.1c-0.348-0.967-0.566-1.832-0.573-1.83
					c0.004,0,0.342,1.056,0.724,2.055c0.424,1.064,0.582,1.732,1.398,2.848c0.359,0.472,0.842,0.929,1.25,1.233
					C57.966,47.107,58.286,47.273,58.283,47.277z"/>
			</g>
			<g>
				<path fill="#FFFFFF" stroke="#FFFFFF" d="M46.922,38.112c-0.015,0.013-0.567-1.69-0.56-3.112
					c-0.02-1.641,0.291-2.799,0.474-4.019c0.178-1.202,0.393-2.231,0.388-2.232l-0.36,2.552c-0.176,1.351-0.398,2.115-0.388,3.745
					C46.473,36.454,46.908,38.121,46.922,38.112z"/>
			</g>
			<g>
				<path fill="#FFFFFF" stroke="#FFFFFF" d="M47.632,33.723c0.004-0.001-0.213-0.561-0.394-1.383
					c-0.187-0.818-0.312-1.904-0.259-2.865c0.136-2.245,0.831-3.75,1.442-5.298c0.616-1.531,1.344-2.766,1.34-2.768
					c-0.002,0.001-0.811,1.588-1.399,3.199c-0.609,1.73-1.077,2.725-1.232,4.938C46.991,31.467,47.615,33.737,47.632,33.723z"/>
			</g>
			<g>
				<path fill="#FFFFFF" stroke="#FFFFFF" d="M50.399,42.341c0.007,0.009-1.18-0.876-1.722-1.931
					c-0.641-1.202-0.676-2.215-0.767-3.208c-0.075-0.989-0.011-1.85-0.018-1.85c0.007,0-0.016,1.074,0.103,2.098
					c0.14,1.09,0.173,1.76,0.781,2.95C49.314,41.433,50.405,42.345,50.399,42.341z"/>
			</g>
			<g>
				<path fill="#FFFFFF" stroke="#FFFFFF" d="M61.432,53.297c0.002-0.001-2.202-2.093-3.702-3.969
					c-1.743-2.18-2.707-3.978-3.929-5.713l-2.209-3.198c0.002,0.001,1.35,1.794,2.624,3.559c1.366,1.907,1.98,3.113,3.716,5.294
					C59.43,51.143,61.434,53.296,61.432,53.297z"/>
			</g>
			<g>
				<path fill="#FFFFFF" stroke="#FFFFFF" d="M57.514,14.589c0.003,0.002,0.32-0.706,0.685-1.204
					c0.422-0.579,0.831-0.906,1.217-1.283l0.724-0.677l-0.798,0.796c-0.418,0.424-0.691,0.637-1.115,1.209
					C57.865,13.926,57.517,14.59,57.514,14.589z"/>
			</g>
			<g>
				<path fill="#FFFFFF" stroke="#FFFFFF" d="M53.751,23.872c0.002,0-0.331-0.888-0.455-1.63c-0.142-0.864-0.082-1.503-0.041-2.159
					c0.035-0.647,0.153-1.198,0.149-1.199c0.002,0.001-0.101,0.693-0.119,1.367c-0.018,0.724-0.062,1.147,0.075,2.006
					C53.485,22.994,53.753,23.872,53.751,23.872z"/>
			</g>
			<g>
				<path fill="#FFFFFF" stroke="#FFFFFF" d="M60.605,31.589c0.002,0-0.434-1.172-0.597-2.149c-0.192-1.135-0.135-1.976-0.153-2.844
					c-0.022-0.856,0.027-1.595,0.022-1.595c0.001,0.001,0,0.922,0.035,1.813c0.043,0.958-0.007,1.515,0.179,2.646
					C60.257,30.433,60.607,31.589,60.605,31.589z"/>
			</g>
			<g>
				<path fill="#FFFFFF" stroke="#FFFFFF" d="M66.179,41.257c0,0-0.985-0.466-1.713-0.923c-0.848-0.531-1.399-1.009-2.047-1.415
					c-0.634-0.398-1.198-0.714-1.198-0.714s0.722,0.36,1.387,0.777c0.716,0.448,1.072,0.776,1.919,1.308
					C65.256,40.747,66.179,41.257,66.179,41.257z"/>
			</g>
			<g>
				<path fill="#FFFFFF" stroke="#FFFFFF" d="M65.165,51.614c0.001-0.005-0.271-0.026-0.64-0.135
					c-0.367-0.108-0.822-0.315-1.187-0.556c-0.845-0.563-1.323-1.127-1.944-1.582c-0.603-0.457-1.176-0.771-1.174-0.772
					c-0.001-0.002,0.728,0.368,1.356,0.851c0.683,0.51,0.986,0.9,1.824,1.46C64.119,51.395,65.167,51.631,65.165,51.614z"/>
			</g>
			<g>
				<path fill="#FFFFFF" stroke="#FFFFFF" d="M57.935,41.429c0.012-0.005-0.712-0.851-1.437-2.236
					c-0.737-1.372-1.427-3.301-1.636-5.084c-0.262-2.068-0.073-3.878,0.269-5.491c0.356-1.617,0.862-3.053,1.447-4.487
					c1.124-2.849,2.826-4.928,2.812-4.93c0.009,0.003-0.486,0.676-1.091,1.728c-0.611,1.051-1.297,2.506-1.82,3.996
					c-0.568,1.602-0.927,2.895-1.185,4.297c-0.248,1.4-0.394,2.932-0.133,4.97c0.22,1.754,0.827,3.642,1.491,5.001
					C57.298,40.564,57.946,41.424,57.935,41.429z"/>
			</g>
			<g>
				<path fill="#FFFFFF" stroke="#FFFFFF" d="M64.764,45.858c0.005,0.002-0.334-2.143-0.263-3.864
					c0.082-2.002,0.528-3.403,0.917-4.855c0.384-1.434,0.874-2.625,0.868-2.628c0.004,0.004-0.519,1.517-0.875,3.019
					c-0.379,1.615-0.678,2.541-0.775,4.53C64.57,43.77,64.769,45.86,64.764,45.858z"/>
			</g>
			<g>
				<path fill="#FFFFFF" stroke="#FFFFFF" d="M105.321,88.256c0.008,0.013-2.762,0.098-4.898-0.385
					c-2.479-0.527-4.15-1.337-5.999-1.858c-1.814-0.521-3.403-0.898-3.404-0.896c0.001-0.002,2.007,0.36,3.907,0.898
					c2.048,0.567,3.142,1.143,5.61,1.673C102.661,88.162,105.325,88.267,105.321,88.256z"/>
			</g>
			<g>
				<path fill="#FFFFFF" stroke="#FFFFFF" d="M94.317,96.581c0.008,0.014-3.067-0.463-5.288-1.551
					c-2.581-1.239-4.099-2.699-5.769-4.031c-1.647-1.318-2.956-2.599-2.96-2.595c0.002,0.002,1.731,1.483,3.478,2.812
					c1.886,1.413,2.872,2.403,5.422,3.644C91.401,95.928,94.32,96.592,94.317,96.581z"/>
			</g>
			<g>
				<path fill="#FFFFFF" stroke="#FFFFFF" d="M90.027,41.73c-0.017,0.008-0.861-2.522-1.271-4.581
					c-0.492-2.378-0.691-4.155-1.395-5.899c-0.684-1.713-1.608-3.015-1.603-3.014c-0.003-0.008,1.208,1.584,1.881,3.412
					c0.72,1.958,0.789,3.155,1.298,5.537C89.347,39.247,90.012,41.735,90.027,41.73z"/>
			</g>
			<g>
				<path fill="#FFFFFF" stroke="#FFFFFF" d="M95.129,41.34c-0.006,0.004-0.747-1.169-1.905-2.688
					c-1.15-1.527-2.758-3.347-4.28-4.841c-1.763-1.745-3.429-3.105-5.133-4.183c-1.705-1.067-3.459-1.85-5.364-2.231
					c-3.778-0.776-7.058,0.049-7.031,0.024c0,0.01,0.98-0.278,2.5-0.428c1.513-0.156,3.58-0.112,5.542,0.393
					c2.106,0.547,3.635,1.358,5.118,2.336c1.478,0.996,2.935,2.173,4.718,3.944c1.537,1.523,3.06,3.405,4.118,4.956
					C94.478,40.166,95.122,41.344,95.129,41.34z"/>
			</g>
			<g>
				<path fill="#FFFFFF" stroke="#FFFFFF" d="M94.939,37.225c0.022-0.015-1.176-3.208-2.283-5.631
					c-1.246-2.833-2.136-4.95-3.57-6.88c-1.408-1.896-2.985-3.201-2.979-3.2c-0.002-0.015,2.021,1.561,3.455,3.601
					c1.526,2.189,2.057,3.632,3.329,6.477C93.999,34.042,94.961,37.217,94.939,37.225z"/>
			</g>
			<g>
				<path fill="#FFFFFF" stroke="#FFFFFF" d="M92.408,33.54c-0.002,0-1.969-3.009-3.564-5.314c-1.839-2.671-3.253-4.669-5.4-6.062
					c-2.118-1.377-4.333-1.578-4.308-1.585c-0.001,0.008,0.664,0.036,1.634,0.286c0.967,0.244,2.215,0.769,3.293,1.527
					c1.16,0.818,1.921,1.639,2.655,2.534c0.735,0.899,1.442,1.893,2.369,3.25C90.688,30.511,92.406,33.542,92.408,33.54z"/>
			</g>
			<g>
				<path fill="#FFFFFF" stroke="#FFFFFF" d="M96.322,47.246c-0.013-0.01,0.931-0.777,1.955-2.063
					c1.042-1.275,1.98-3.159,2.24-4.942c0.336-2.066,0.048-3.928-0.431-5.589c-0.493-1.664-1.21-3.151-2.167-4.518
					c-1.893-2.693-4.123-4.472-4.105-4.477c-0.017-0.007,2.854,2.125,4.746,5.062c1.014,1.564,1.576,2.943,1.967,4.431
					c0.36,1.486,0.627,3.126,0.267,5.265c-0.302,1.847-1.355,3.716-2.449,4.917C97.265,46.552,96.312,47.235,96.322,47.246z"/>
			</g>
			<g>
				<path fill="#FFFFFF" stroke="#FFFFFF" d="M90.103,49.382c-0.004-0.001,0.396-3.158,0.929-5.604
					c0.616-2.842,1.298-4.863,1.58-7.081c0.279-2.176,0.267-4.071,0.271-4.069c-0.002-0.003,0.11,2.362-0.211,4.644
					c-0.345,2.454-0.851,3.782-1.462,6.632C90.674,46.355,90.099,49.381,90.103,49.382z"/>
			</g>
			<g>
				<path fill="#FFFFFF" stroke="#FFFFFF" d="M96.397,41.049c0.011-0.008-0.523,2.601-1.524,4.465
					c-1.131,2.171-2.384,3.456-3.543,4.88c-1.148,1.399-2.24,2.525-2.236,2.53c-0.002-0.005,1.278-1.478,2.441-2.961
					c1.242-1.601,2.084-2.441,3.222-4.589C95.74,43.522,96.405,41.045,96.397,41.049z"/>
			</g>
			<g>
				<path fill="#FFFFFF" stroke="#FFFFFF" d="M103.143,47.21l-0.375-6.113c-0.144-3.126-0.08-5.427-0.471-7.806
					c-0.384-2.335-0.964-4.293-0.958-4.293c-0.004-0.002,0.82,2.413,1.2,4.87c0.395,2.643,0.298,4.173,0.451,7.312
					C103.128,43.88,103.146,47.208,103.143,47.21z"/>
			</g>
			<g>
				<path fill="#FFFFFF" stroke="#FFFFFF" d="M100.965,12.118c-0.004,0.004-0.577-0.494-1.441-1.079
					c-0.86-0.59-2.019-1.235-3.065-1.753c-2.431-1.188-4.325-1.936-6.426-2.189c-2.069-0.236-3.853,0.047-3.847,0.041
					c-0.012-0.001,2.211-0.426,4.391-0.102c1.166,0.162,2.053,0.433,2.964,0.762c0.908,0.341,1.848,0.735,3.075,1.354
					c1.058,0.529,2.183,1.22,3,1.84C100.437,11.606,100.961,12.123,100.965,12.118z"/>
			</g>
			<g>
				<path fill="#FFFFFF" stroke="#FFFFFF" d="M114.282,29.406c-0.006,0-1.247-3.645-2.421-6.398
					c-1.337-3.187-2.553-5.533-4.663-7.283c-2.084-1.714-4.385-2.264-4.359-2.275c-0.002,0.009,0.693,0.149,1.687,0.55
					c0.989,0.392,2.252,1.096,3.301,2.046c1.13,1.018,1.816,2.009,2.444,3.08c0.626,1.076,1.182,2.258,1.856,3.883
					C113.3,25.803,114.274,29.41,114.282,29.406z"/>
			</g>
			<g>
				<path fill="#FFFFFF" stroke="#FFFFFF" d="M88.972,44.589c0.015,0.001,0.934-2.683,1.309-4.851
					c0.482-2.506,0.689-4.407,0.477-6.386c-0.23-1.939-0.725-3.553-0.718-3.552c-0.007-0.003,0.696,1.987,0.892,4.038
					c0.171,2.203-0.025,3.472-0.489,6.007C90.044,42.046,88.981,44.595,88.972,44.589z"/>
			</g>
			<g>
				<path fill="#FFFFFF" stroke="#FFFFFF" d="M90.001,32.988c-0.015,0,1.018,2.666,1.207,4.941c0.217,2.641-0.475,4.599-1.626,6.16
					c-1.149,1.577-2.713,2.372-2.684,2.389c-0.022-0.007,1.835-1.135,2.857-2.863c0.557-0.91,0.859-1.709,1.072-2.589
					c0.206-0.881,0.301-1.856,0.192-3.159C90.824,35.623,89.986,32.988,90.001,32.988z"/>
			</g>
			<g>
				<path fill="#FFFFFF" stroke="#FFFFFF" d="M97.675,30.681c-0.014,0.007-0.28-0.896-0.876-2.031
					c-0.572-1.147-1.539-2.459-2.568-3.428c-1.188-1.14-2.419-1.903-3.655-2.446c-1.237-0.542-2.492-0.841-3.79-0.907
					c-2.571-0.12-4.697,0.584-4.689,0.564c-0.02,0.015,2.625-0.95,5.357-0.676c1.449,0.138,2.557,0.493,3.639,1.004
					c1.078,0.517,2.156,1.192,3.371,2.359c1.048,1.006,1.953,2.374,2.464,3.529C97.455,29.8,97.662,30.687,97.675,30.681z"/>
			</g>
			<g>
				<path fill="#FFFFFF" stroke="#FFFFFF" d="M97.95,40.665c-0.004,0-0.155,0.946-0.514,2.238c-0.354,1.291-0.937,2.924-1.63,4.285
					c-1.624,3.168-3.397,5.074-4.992,7.222c-1.58,2.111-3.026,3.876-3.023,3.879l3.295-4.52c1.718-2.405,2.921-3.645,4.548-6.785
					C97.052,44.282,97.976,40.665,97.95,40.665z"/>
			</g>
			<g>
				<path fill="#FFFFFF" stroke="#FFFFFF" d="M68.544,36.629c0.008,0.008,0.362-0.613,0.979-1.401c0.607-0.79,1.48-1.747,2.36-2.471
					c2.056-1.687,3.864-2.405,5.622-3.339c1.742-0.908,3.288-1.613,3.286-1.619l-3.673,1.963c-0.972,0.522-1.741,0.918-2.537,1.375
					c-0.798,0.453-1.631,0.965-2.643,1.808c-0.87,0.722-1.749,1.628-2.374,2.374C68.931,36.058,68.553,36.637,68.544,36.629z"/>
			</g>
			<g>
				<path fill="#FFFFFF" stroke="#FFFFFF" d="M65.961,32.916c0.003,0.002,0.106-1.001,0.345-1.764
					c0.28-0.888,0.662-1.46,1.056-2.033c0.389-0.568,0.846-0.96,0.842-0.963c0.002,0.002-0.53,0.525-0.904,1.134
					c-0.406,0.649-0.652,1.03-0.939,1.907C66.125,31.956,65.964,32.917,65.961,32.916z"/>
			</g>
			<g>
				<path fill="#FFFFFF" stroke="#FFFFFF" d="M64.311,36.653c0.008-0.002-0.129-0.341-0.216-0.85
					c-0.088-0.505-0.114-1.174-0.051-1.755c0.151-1.354,0.531-2.271,0.714-3.285c0.194-0.996,0.237-1.872,0.237-1.871
					c0.004-0.002-0.012,1.095-0.225,2.137c-0.207,1.121-0.484,1.723-0.638,3.068c-0.061,0.577-0.054,1.228,0.011,1.722
					C64.205,36.316,64.319,36.651,64.311,36.653z"/>
			</g>
			<g>
				<path fill="#FFFFFF" stroke="#FFFFFF" d="M73.352,57.946c-0.002-0.01-1.395,0.53-3.438,0.993
					c-2.035,0.479-4.73,0.832-7.118,0.786c-5.569-0.129-9.416-1.448-13.533-2.182c-4.048-0.765-7.561-1.35-7.562-1.342
					c0.002-0.011,4.412,0.514,8.647,1.282c2.281,0.408,4.053,0.802,5.946,1.155c1.893,0.341,3.912,0.665,6.667,0.705
					c2.37,0.041,5.005-0.223,7.006-0.605C71.973,58.375,73.35,57.936,73.352,57.946z"/>
			</g>
			<g>
				<path fill="#FFFFFF" stroke="#FFFFFF" d="M83.158,53.114c-0.004-0.011-1.516,0.952-3.813,1.968
					c-2.285,1.031-5.38,2.068-8.216,2.517c-3.294,0.539-6.187,0.519-8.837,0.336c-2.653-0.194-5.077-0.557-7.562-0.901
					c-4.887-0.654-9.018-1.77-9.02-1.755c0.004,0.006,5.21,1.076,10.309,1.611c2.744,0.312,4.899,0.54,7.203,0.656
					c2.299,0.109,4.758,0.103,8.021-0.433c2.808-0.457,5.851-1.368,8.117-2.279C81.637,53.942,83.154,53.103,83.158,53.114z"/>
			</g>
			<g>
				<path fill="#FFFFFF" stroke="#FFFFFF" d="M93.429,47.471c-0.02-0.021-0.475,2.095-2.215,4.597
					c-0.858,1.243-2.021,2.557-3.384,3.727c-1.36,1.173-2.909,2.208-4.444,3.011c-3.585,1.862-6.979,2.715-10.116,3.265
					c-3.151,0.536-6.084,0.752-9.081,0.967c-2.946,0.214-5.702,0.195-7.715,0.067c-2.011-0.126-3.278-0.341-3.279-0.331
					c0.001-0.009,1.592,0.177,3.946,0.205c2.355,0.036,5.467-0.122,8.521-0.433c3.288-0.337,5.865-0.665,8.576-1.197
					c2.697-0.558,5.574-1.296,9.098-3.137c3.027-1.58,6.022-4.041,7.738-6.408C92.842,49.461,93.41,47.451,93.429,47.471z"/>
			</g>
			<g>
				<path fill="#FFFFFF" stroke="#FFFFFF" d="M90.487,48.938c-0.009-0.008-1.011,1.667-2.685,3.822
					c-1.654,2.169-4.034,4.782-6.456,6.752c-2.808,2.292-5.527,3.874-8.131,5.131c-2.609,1.257-5.1,2.207-7.646,3.174
					c-5.002,1.932-9.577,2.826-9.571,2.842c-0.004-0.008,1.407-0.364,3.446-0.998c2.045-0.63,4.702-1.593,7.276-2.656
					c2.771-1.147,4.925-2.097,7.161-3.231c2.217-1.156,4.533-2.496,7.311-4.78c2.392-1.962,4.792-4.438,6.496-6.479
					C89.411,50.486,90.479,48.93,90.487,48.938z"/>
			</g>
			<g>
				<path fill="#FFFFFF" stroke="#FFFFFF" d="M88.015,45.445c-0.015-0.007-0.207,1.266-0.877,2.943
					c-0.639,1.683-1.824,3.727-3.183,5.279c-1.565,1.815-3.176,3.11-4.683,4.267c-1.516,1.154-2.957,2.163-4.343,3.321
					c-2.746,2.251-4.864,4.477-4.856,4.481c-0.021-0.012,2.526-2.886,5.415-5.232c1.536-1.279,2.801-2.194,4.102-3.219
					c1.296-1.025,2.657-2.142,4.204-3.938c1.332-1.542,2.542-3.485,3.228-5.094C87.738,46.656,87.999,45.438,88.015,45.445z"/>
			</g>
			<g>
				<path fill="#FFFFFF" stroke="#FFFFFF" d="M94.325,61.647c-0.005-0.005-0.784,1.145-2.061,2.61
					c-1.267,1.472-3.061,3.237-4.855,4.543c-4.198,3.036-7.839,4.163-11.471,5.454c-3.599,1.276-6.868,1.84-6.864,1.849
					c0.008,0.01,4.008-0.956,7.701-2.403c1.997-0.756,3.557-1.376,5.181-2.12c1.614-0.755,3.302-1.637,5.362-3.154
					c1.773-1.304,3.58-2.967,4.875-4.348C93.5,62.706,94.32,61.641,94.325,61.647z"/>
			</g>
			<g>
				<path fill="#FFFFFF" stroke="#FFFFFF" d="M103.751,51.169c-0.008-0.003-0.13,0.874-0.524,2.05
					c-0.376,1.179-1.07,2.643-1.927,3.781c-2.021,2.653-4.234,3.789-6.396,4.91c-2.164,1.107-4.226,1.618-4.219,1.627
					c0.003,0.002,2.508-0.802,4.695-2.051c1.187-0.656,2.091-1.219,3.001-1.897c0.9-0.684,1.82-1.488,2.792-2.8
					c0.837-1.129,1.553-2.528,1.967-3.659C103.572,52.005,103.742,51.166,103.751,51.169z"/>
			</g>
			<g>
				<path fill="#FFFFFF" stroke="#FFFFFF" d="M98.711,43.891c-0.004-0.001-0.083,0.799-0.342,1.896
					c-0.253,1.096-0.714,2.484-1.309,3.626c-1.399,2.663-3.039,4.149-4.598,5.75c-1.553,1.576-3.069,2.752-3.065,2.757
					c0.002-0.002,1.797-1.572,3.361-3.259c0.85-0.9,1.509-1.616,2.169-2.414c0.652-0.8,1.311-1.687,1.989-3.005
					C98.136,46.976,98.733,43.885,98.711,43.891z"/>
			</g>
			<g>
				<path fill="#FFFFFF" stroke="#FFFFFF" d="M101.156,46.879c-0.004-0.002-0.083,0.799-0.343,1.896
					c-0.252,1.096-0.714,2.484-1.308,3.627c-1.399,2.662-3.039,4.149-4.598,5.75c-1.553,1.576-3.071,2.752-3.065,2.756
					c0.002-0.001,1.797-1.571,3.361-3.258c0.85-0.901,1.509-1.616,2.168-2.413c0.652-0.801,1.312-1.687,1.989-3.007
					C100.581,49.963,101.18,46.873,101.156,46.879z"/>
			</g>
			<g>
				<path fill="#FFFFFF" stroke="#FFFFFF" d="M93.897,38.188c-0.014-0.003-0.101,1.537-0.562,3.646
					c-0.434,2.11-1.322,4.785-2.567,6.935c-1.435,2.502-3.15,4.354-4.888,5.838c-1.748,1.485-3.531,2.61-5.377,3.708
					c-3.639,2.165-7.17,3.271-7.156,3.294c-0.005-0.011,4.283-1.66,7.937-4.084c1.977-1.281,3.464-2.392,4.927-3.718
					c1.451-1.332,2.886-2.908,4.298-5.377c1.214-2.126,2.151-4.696,2.664-6.73C93.706,39.667,93.884,38.185,93.897,38.188z"/>
			</g>
			<g>
				<path fill="#FFFFFF" stroke="#FFFFFF" d="M90.784,23.887c-0.006,0.007,0.509,0.324,1.146,0.883
					c0.636,0.556,1.376,1.375,1.878,2.208c1.159,1.95,1.401,3.605,1.746,5.245c0.345,1.625,0.459,3.063,0.471,3.062
					c-0.005-0.002-0.268-1.775-0.658-3.458c-0.457-1.789-0.591-2.895-1.724-4.822c-0.501-0.819-1.196-1.636-1.791-2.204
					C91.258,24.229,90.778,23.895,90.784,23.887z"/>
			</g>
			<g>
				<path fill="#FFFFFF" stroke="#FFFFFF" d="M94.577,22.191c-0.004,0.003,0.688,0.49,1.547,1.307
					c0.864,0.808,1.88,1.964,2.593,3.116c1.659,2.694,2.12,4.985,2.606,7.275c0.487,2.275,0.432,4.304,0.438,4.301
					c0.013-0.003-0.103-2.513-0.705-4.85c-0.304-1.262-0.577-2.245-0.931-3.273c-0.363-1.022-0.808-2.095-1.64-3.415
					C97.09,24.332,94.586,22.163,94.577,22.191z"/>
			</g>
			<g>
				<path fill="#FFFFFF" stroke="#FFFFFF" d="M88.228,16.029c0,0.008,0.349-0.134,0.871-0.218c0.521-0.083,1.214-0.086,1.808,0.04
					c1.384,0.304,2.23,0.919,3.104,1.487c0.87,0.562,1.535,1.169,1.541,1.164c-0.004,0.001-0.881-0.692-1.797-1.254
					c-0.991-0.58-1.546-1.004-2.906-1.31c-0.586-0.12-1.257-0.136-1.766-0.077C88.572,15.921,88.228,16.038,88.228,16.029z"/>
			</g>
			<g>
				<path fill="#FFFFFF" stroke="#FFFFFF" d="M98.729,22.058c-0.006,0.003,0.648,0.733,1.397,1.884
					c0.758,1.141,1.582,2.723,2.053,4.224c0.55,1.741,0.747,3.321,0.757,4.776c0.015,1.457-0.145,2.789-0.379,4.131
					c-0.436,2.666-1.677,4.701-1.661,4.697c-0.01-0.003,0.344-0.649,0.712-1.649c0.376-1,0.713-2.372,0.889-3.749
					c0.182-1.482,0.23-2.662,0.186-3.917c-0.062-1.252-0.221-2.593-0.772-4.313c-0.476-1.48-1.227-3.045-1.919-4.186
					C99.311,22.805,98.723,22.062,98.729,22.058z"/>
			</g>
			<g>
				<path fill="#FFFFFF" stroke="#FFFFFF" d="M74.565,22.544c-0.008-0.003,1.087-1.434,2.138-2.396
					c1.208-1.125,2.215-1.787,3.127-2.657c0.899-0.851,1.594-1.665,1.592-1.665c0.003,0-0.819,1.053-1.77,1.938
					c-1.015,0.958-1.7,1.375-2.906,2.5C75.7,21.226,74.56,22.54,74.565,22.544z"/>
			</g>
			<g>
				<path fill="#FFFFFF" stroke="#FFFFFF" d="M65.002,32.333c-0.013,0.006,0.829-1.734,1.937-2.805
					c1.259-1.255,2.451-1.806,3.625-2.404c1.172-0.583,2.273-0.87,2.271-0.875c-0.002,0.005-1.346,0.441-2.531,1.102
					c-0.645,0.342-1.146,0.624-1.659,0.958c-0.511,0.333-1.04,0.716-1.656,1.341C65.9,30.712,64.993,32.334,65.002,32.333z"/>
			</g>
			<g>
				<path fill="#FFFFFF" stroke="#FFFFFF" d="M58.698,27.042c0.015,0.006,1.366-1.476,2.409-2.66
					c1.24-1.358,2.255-2.248,3.232-3.254c0.952-0.998,1.839-1.796,1.838-1.798c-0.003,0.001-1.044,1.055-2.021,2.112
					c-1.066,1.127-1.746,1.708-2.991,3.067C60.115,25.696,58.709,27.05,58.698,27.042z"/>
			</g>
			<g>
				<path fill="#FFFFFF" stroke="#FFFFFF" d="M48.441,30.159c-0.008,0.014-0.351-1.021-0.201-1.879
					c0.144-0.982,0.52-1.608,0.827-2.275c0.31-0.658,0.632-1.2,0.627-1.203c0.002,0.002-0.356,0.7-0.665,1.391
					c-0.32,0.745-0.574,1.158-0.724,2.125C48.161,29.16,48.434,30.168,48.441,30.159z"/>
			</g>
			<g>
				<path fill="#FFFFFF" stroke="#FFFFFF" d="M50.824,40.593c0.028-0.023-0.361-0.703-0.685-1.231
					c-0.356-0.631-0.532-1.132-0.741-1.639c-0.215-0.497-0.332-0.951-0.335-0.95c0,0.001,0.188,0.552,0.42,1.064
					c0.244,0.555,0.357,0.887,0.709,1.519C50.518,39.886,50.853,40.575,50.824,40.593z"/>
			</g>
			<g>
				<path fill="#FFFFFF" stroke="#FFFFFF" d="M111.91,104.342c0.01,0.001-5.561,0.387-9.911-0.459
					c-5.054-0.967-8.389-2.78-11.851-4.426c-3.433-1.625-6.152-3.494-6.157-3.484c0,0.012,3.537,2.078,7.15,3.646
					c1.937,0.867,3.463,1.543,5.12,2.189c1.659,0.634,3.454,1.235,5.958,1.698C106.534,104.33,111.916,104.342,111.91,104.342z"/>
			</g>
			<g>
				<path fill="#FFFFFF" stroke="#FFFFFF" d="M120.61,92.425c-0.001-0.011-4.419,0.957-8.002,1.213
					c-4.166,0.295-7.188-0.069-10.333-0.355c-3.101-0.279-5.737-0.825-5.737-0.821c0.001,0.006,3.302,0.534,6.543,0.753
					c3.482,0.232,5.479,0.484,9.633,0.211C116.285,93.162,120.608,92.414,120.61,92.425z"/>
			</g>
			<g>
				<path fill="#FFFFFF" stroke="#FFFFFF" d="M125.626,106.982c0.011,0.004-6.521-0.546-11.428-2.267
					c-5.705-1.976-9.293-4.594-13.143-6.948c-3.805-2.326-6.853-4.712-6.858-4.703c0.002,0.01,3.983,2.707,8.001,5.018
					c2.152,1.268,3.834,2.28,5.666,3.287c1.833,0.997,3.825,1.979,6.654,2.946C119.389,106.009,125.633,106.984,125.626,106.982z"/>
			</g>
			<g>
				<path fill="#FFFFFF" stroke="#FFFFFF" d="M145.646,102.055c-0.001-0.004-1.276,0.632-3.13,1.354
					c-1.851,0.73-4.288,1.529-6.5,1.989c-5.152,1.064-9.001,0.912-12.949,1.443c-3.885,0.507-7.22,1.091-7.219,1.095
					c-0.002-0.006,4.118-0.961,8.178-1.507c4.363-0.611,6.92-0.424,12.052-1.476C140.507,104.07,145.663,102.076,145.646,102.055z"
					/>
			</g>
			<g>
				<path fill="#FFFFFF" stroke="#FFFFFF" d="M198.233,97.704c-0.002-0.006-1.759,1.104-4.324,2.469
					c-2.56,1.373-5.941,2.976-9.048,4.11c-7.236,2.636-12.773,3.466-18.459,4.745c-5.6,1.244-10.478,2.123-10.477,2.132
					c0.003-0.001,6.021-1.331,11.854-2.702c3.144-0.73,5.614-1.265,8.219-1.901c2.603-0.642,5.343-1.38,8.939-2.707
					c3.093-1.14,6.448-2.631,8.992-3.896C196.48,98.699,198.231,97.698,198.233,97.704z"/>
			</g>
			<g>
				<path fill="#FFFFFF" stroke="#FFFFFF" d="M164.725,97.87c-0.002-0.015-3.01,1.126-7.373,2.244
					c-4.354,1.135-10.071,2.188-15.19,2.555c-5.947,0.439-11.095,0.232-15.846-0.142c-4.756-0.394-9.125-0.969-13.611-1.515
					c-8.82-1.035-16.323-2.684-16.325-2.672c0.001-0.009,2.354,0.424,5.856,0.949c3.504,0.53,8.163,1.109,12.773,1.592
					c4.962,0.519,8.853,0.919,12.994,1.197c4.14,0.267,8.537,0.414,14.46-0.024c5.095-0.37,10.716-1.285,15.002-2.263
					C161.758,98.833,164.723,97.855,164.725,97.87z"/>
			</g>
			<g>
				<path fill="#FFFFFF" stroke="#FFFFFF" d="M145.901,112.755c0.01-0.037-12.783,1.508-22.932,0.231
					c-5.876-0.72-10.853-2.052-15.321-3.646c-4.471-1.606-8.437-3.441-12.386-5.47c-3.89-1.983-7.225-4.347-9.434-6.353
					c-2.223-1.992-3.395-3.511-3.411-3.493c0.017-0.021,1.59,1.791,4.33,3.921c2.727,2.155,6.679,4.466,10.793,6.335
					c4.43,2.006,8.018,3.412,11.911,4.71c3.898,1.269,8.132,2.388,13.972,3.094C133.489,113.322,145.907,112.718,145.901,112.755z"
					/>
			</g>
			<g>
				<path fill="#FFFFFF" stroke="#FFFFFF" d="M183.858,87.826c-0.008-0.027-9.835,4.603-18.194,6.7
					c-4.854,1.22-9.188,1.677-13.188,1.826c-4.003,0.155-7.701,0.093-11.488,0.343c-7.438,0.464-13.83,1.255-13.828,1.259
					c-0.005-0.01,7.919-1.381,15.704-1.875c4.185-0.284,7.462-0.302,10.933-0.507c3.466-0.207,7.143-0.618,11.972-1.832
					C174.072,91.636,183.853,87.799,183.858,87.826z"/>
			</g>
			<g>
				<path fill="#FFFFFF" stroke="#FFFFFF" d="M260,54.827c-0.012-0.008-0.75,1.541-2.329,4.009c-1.574,2.469-4.057,5.829-7.438,9.35
					c-3.367,3.53-7.626,7.195-12.344,10.511c-4.712,3.325-9.866,6.308-14.88,8.724c-11.686,5.598-22.426,8.722-32.438,11.151
					c-10.038,2.395-19.426,4.03-29.034,5.794c-9.438,1.733-18.293,2.987-24.796,3.703c-6.504,0.727-10.648,0.955-10.647,0.965
					c-0.001-0.009,5.146-0.476,12.722-1.582c7.578-1.088,17.57-2.863,27.393-4.839c10.568-2.137,18.842-3.866,27.528-6.099
					c4.34-1.126,8.774-2.401,13.595-4.057c4.815-1.66,10.025-3.694,15.799-6.508c4.964-2.42,10.048-5.313,14.704-8.497
					c4.661-3.175,8.877-6.648,12.24-9.986C256.871,60.798,259.982,54.781,260,54.827z"/>
			</g>
			<g>
				<path fill="#FFFFFF" stroke="#FFFFFF" d="M228.568,40.297c-0.008-0.031-1.595,7.023-4.865,11.781
					c-1.859,2.749-3.975,4.745-6.066,6.346c-2.102,1.605-4.179,2.846-6.245,4.199c-4.07,2.646-7.794,4.648-7.783,4.667
					c-0.005-0.017,4.445-2.853,8.573-5.716c2.228-1.543,3.982-2.741,5.747-4.175c1.747-1.439,3.519-3.128,5.346-5.842
					C226.459,46.881,228.556,40.274,228.568,40.297z"/>
			</g>
			<g>
				<path fill="#FFFFFF" stroke="#FFFFFF" d="M95.786,98.76c0.004-0.004-0.96-0.486-2.239-1.279
					c-1.279-0.789-2.871-1.893-4.166-3.002c-3.012-2.583-4.757-4.907-7.01-6.917c-2.204-1.986-4.252-3.527-4.251-3.527
					c-0.001-0.004,2.655,1.791,4.96,3.877c2.489,2.229,3.593,3.822,6.595,6.4C92.244,96.556,95.781,98.778,95.786,98.76z"/>
			</g>
			<g>
				<path fill="#FFFFFF" stroke="#FFFFFF" d="M85.477,92.978c0,0.016-2.452-1.169-4.103-2.557c-1.929-1.581-3.04-3.024-4.449-4.289
					c-1.376-1.252-2.656-2.228-2.657-2.226c0.001-0.005,1.655,1.139,3.094,2.455c1.559,1.398,2.266,2.385,4.186,3.962
					C83.19,91.7,85.475,92.989,85.477,92.978z"/>
			</g>
			<g>
				<path fill="#FFFFFF" stroke="#FFFFFF" d="M95.547,91.506c-0.002-0.002-1.557-0.593-2.731-1.171
					c-1.363-0.679-2.271-1.331-3.305-1.863l-1.906-0.948c0.002,0,1.139,0.471,2.205,1.009c1.146,0.581,1.737,1.032,3.101,1.713
					L95.547,91.506z"/>
			</g>
			<g>
				<path fill="#FFFFFF" stroke="#FFFFFF" d="M109.92,95.714c0.001-0.005-0.682,0.047-1.638-0.053
					c-0.953-0.093-2.179-0.372-3.18-0.836c-2.337-1.097-3.558-2.566-4.895-3.904c-1.315-1.34-2.316-2.631-2.322-2.626
					c0.004-0.001,1.352,1.52,2.758,2.87c0.755,0.73,1.35,1.302,2.023,1.867c0.677,0.556,1.435,1.117,2.586,1.639
					c0.988,0.45,2.165,0.763,3.085,0.897C109.26,95.712,109.921,95.709,109.92,95.714z"/>
			</g>
			<g>
				<path fill="#FFFFFF" stroke="#FFFFFF" d="M92.763,89.529c0.011,0.013-1.566-0.392-2.538-1.258
					c-1.132-0.967-1.607-1.951-2.232-2.858l-1.125-1.692c0.007-0.004,0.702,0.946,1.343,1.883c0.706,0.99,1.012,1.65,2.116,2.612
					C91.285,89.061,92.769,89.537,92.763,89.529z"/>
			</g>
			<g>
				<path fill="#FFFFFF" stroke="#FFFFFF" d="M104.326,87.396c0-0.008-2.589-0.614-4.576-1.258
					c-2.308-0.764-3.899-1.576-5.681-2.115c-1.75-0.526-3.286-0.883-3.286-0.883s1.94,0.339,3.772,0.893
					c1.972,0.602,3.013,1.178,5.323,1.94L104.326,87.396z"/>
			</g>
			<g>
				<path fill="#FFFFFF" stroke="#FFFFFF" stroke-width="0.3259" d="M106.659,84.235"/>
			</g>
			<g>
				<path fill="#FFFFFF" stroke="#FFFFFF" d="M153.637,97.519c0,0-1.669,0.439-3.018,0.604c-1.567,0.188-2.724,0.12-3.92,0.265
					c-1.176,0.141-2.182,0.324-2.182,0.324s1.242-0.297,2.473-0.445c1.324-0.158,2.091-0.087,3.659-0.275
					C151.997,97.827,153.637,97.519,153.637,97.519z"/>
			</g>
			<g>
				<path fill="#FFFFFF" stroke="#FFFFFF" d="M170.91,102.537c0,0-0.166,0.044-0.302,0.061l-0.392,0.025L170,102.655
					c0,0,0.124-0.029,0.246-0.044l0.365-0.026L170.91,102.537z"/>
			</g>
			<g>
				<path fill="#FFFFFF" stroke="#FFFFFF" d="M216.177,77.524c0.008-0.002-1.091,1.406-3.036,3.017
					c-1.923,1.626-4.614,3.454-7.15,4.772c-5.92,3.048-10.668,4.12-15.374,5.871c-4.638,1.711-8.69,3.069-8.692,3.069l9.767-3.817
					c2.599-0.981,4.67-1.67,6.848-2.451c2.174-0.789,4.464-1.665,7.396-3.196c2.521-1.316,5.206-3.011,7.146-4.504
					C215.036,78.807,216.183,77.523,216.177,77.524z"/>
			</g>
			<g>
				<path fill="#FFFFFF" stroke="#FFFFFF" stroke-width="0.3259" d="M214.824,67.226"/>
			</g>
			<g>
				<path fill="#FFFFFF" stroke="#FFFFFF" stroke-width="0.3259" d="M101.966,106.827"/>
			</g>
			<g>
				<path fill="#FFFFFF" stroke="#FFFFFF" d="M142.325,95.888c0,0-1.501,0.394-2.716,0.541c-1.412,0.168-2.452,0.108-3.529,0.237
					c-1.057,0.128-1.963,0.291-1.963,0.291s1.118-0.266,2.227-0.399c1.19-0.143,1.881-0.079,3.292-0.248
					C140.851,96.163,142.325,95.888,142.325,95.888z"/>
			</g>
			<g>
				<path fill="#FFFFFF" stroke="#FFFFFF" d="M53.228,43.377c0,0.013-1.713-1.921-2.497-3.827c-0.923-2.196-0.993-3.967-0.989-5.727
					c-0.002-1.753,0.451-3.223,0.443-3.221c-0.008,0-0.429,1.852-0.331,3.666c0.034,0.974,0.106,1.739,0.243,2.546
					c0.138,0.804,0.348,1.655,0.812,2.735C51.689,41.427,53.227,43.387,53.228,43.377z"/>
			</g>
			<g>
				<path fill="#FFFFFF" stroke="#FFFFFF" d="M55.558,49.644c-0.001,0.006-1.157-3.239-1.517-5.944
					c-0.436-3.138-0.211-5.443-0.261-7.834l-0.02-4.394l0.18,4.995c0.087,2.643-0.088,4.167,0.329,7.294
					C54.634,46.451,55.558,49.647,55.558,49.644z"/>
			</g>
			<g>
				<path fill="#FFFFFF" stroke="#FFFFFF" d="M64.519,45.001c0.003-0.005-0.339-0.154-0.774-0.448
					c-0.434-0.292-0.942-0.751-1.304-1.231c-0.839-1.126-1.09-2.126-1.448-3.101c-0.348-0.967-0.566-1.832-0.573-1.83
					c0.004,0,0.343,1.056,0.723,2.056c0.426,1.064,0.583,1.732,1.399,2.849c0.36,0.472,0.841,0.93,1.25,1.233
					C64.201,44.831,64.521,44.996,64.519,45.001z"/>
			</g>
			<g>
				<path fill="#FFFFFF" stroke="#FFFFFF" d="M62.286,49.72c0.004-0.004-0.559-0.435-1.21-1.187
					c-0.657-0.745-1.379-1.819-1.854-2.85c-1.094-2.409-1.308-4.328-1.818-6.243l-0.932-3.523c0.006-0.001,0.652,2.004,1.175,3.978
					c0.591,2.109,0.699,3.39,1.772,5.779c0.472,1.023,1.145,2.085,1.752,2.835C61.773,49.268,62.29,49.716,62.286,49.72z"/>
			</g>
			<g>
				<path fill="#FFFFFF" stroke="#FFFFFF" d="M60.613,42.522c-0.003,0.019-1.623-1.557-2.378-3.194
					c-0.893-1.879-1.003-3.417-1.131-4.948c-0.12-1.523,0.058-2.844,0.052-2.842c-0.002,0-0.114,1.648,0.078,3.222
					c0.221,1.679,0.292,2.697,1.155,4.561C59.142,40.931,60.609,42.536,60.613,42.522z"/>
			</g>
			<g>
				<path fill="#FFFFFF" stroke="#FFFFFF" d="M63.754,45.205c-0.001,0.009-1.037-1.562-1.47-2.995
					c-0.52-1.652-0.536-2.92-0.668-4.21c-0.126-1.274-0.142-2.383-0.146-2.383c0.003,0.001,0.099,1.377,0.258,2.701
					c0.18,1.421,0.18,2.262,0.684,3.904C62.847,43.64,63.753,45.21,63.754,45.205z"/>
			</g>
			<g>
				<path fill="#FFFFFF" stroke="#FFFFFF" d="M66.698,39.525c-0.019,0.018,0.084-2.498,1.044-4.27
					c1.076-2.054,2.5-3.071,3.935-3.952c1.442-0.879,2.89-1.218,2.882-1.228c0.003,0.002-1.755,0.548-3.188,1.545
					c-0.777,0.522-1.352,0.989-1.91,1.542c-0.555,0.554-1.092,1.212-1.608,2.222C66.923,37.129,66.684,39.536,66.698,39.525z"/>
			</g>
			<g>
				<path fill="#FFFFFF" stroke="#FFFFFF" d="M61.785,39.811c0.014,0.002-0.175-1.063-0.043-2.578
					c0.11-1.509,0.607-3.45,1.452-4.983c0.965-1.789,2.188-3.083,3.419-4.107c1.243-1.022,2.516-1.781,3.85-2.472
					c2.629-1.395,5.226-1.749,5.214-1.763c0.004,0.009-0.793,0.163-1.911,0.53c-1.125,0.359-2.556,0.981-3.875,1.756
					c-1.421,0.831-2.48,1.588-3.516,2.506c-1.026,0.919-2.041,2.026-2.989,3.782c-0.821,1.51-1.353,3.37-1.516,4.83
					C61.68,38.773,61.8,39.812,61.785,39.811z"/>
			</g>
			<g>
				<path fill="#FFFFFF" stroke="#FFFFFF" d="M67.054,36.927c0.02,0.005-0.159-1.172,0.164-2.81
					c0.286-1.637,1.301-3.665,2.721-4.986c1.623-1.557,3.405-2.375,5.055-2.956c1.663-0.573,3.247-0.899,4.864-1.239
					c3.181-0.669,6.003-0.823,6.001-0.833c-0.002,0-3.492,0.4-6.768,1.209c-1.766,0.428-3.142,0.801-4.558,1.342
					c-1.397,0.558-2.899,1.258-4.476,2.783c-1.364,1.306-2.375,3.214-2.712,4.783C66.976,35.786,67.072,36.933,67.054,36.927z"/>
			</g>
			<g>
				<path fill="#FFFFFF" stroke="#FFFFFF" d="M66.06,47.115c0.021-0.012-1.104-1.054-2.161-2.932
					c-0.512-0.941-0.993-2.104-1.181-3.393c-0.2-1.284-0.079-2.671,0.336-3.872c0.478-1.401,1.259-2.553,2.119-3.487
					c0.864-0.938,1.811-1.673,2.761-2.297c1.913-1.241,3.838-2.062,5.808-2.871c3.886-1.597,7.494-2.241,7.487-2.252
					c-0.003-0.007-4.421,1.08-8.368,2.913c-2.127,0.97-3.759,1.82-5.347,2.958c-0.784,0.577-1.562,1.229-2.29,2.076
					c-0.721,0.846-1.416,1.892-1.852,3.242c-0.375,1.16-0.482,2.471-0.31,3.695c0.164,1.229,0.585,2.359,1.049,3.283
					C65.058,46.027,66.082,47.105,66.06,47.115z"/>
			</g>
			<g>
				<path fill="#FFFFFF" stroke="#FFFFFF" d="M67.496,50.242c0.006,0.002-1.781-2.427-2.686-4.651
					c-1.051-2.582-1.19-4.647-1.254-6.718c-0.068-2.057,0.332-3.812,0.322-3.811c-0.005,0.001-0.344,2.204-0.173,4.329
					c0.078,1.145,0.183,2.042,0.354,2.987c0.179,0.943,0.433,1.938,0.958,3.213C65.922,47.793,67.502,50.242,67.496,50.242z"/>
			</g>
			<g>
				<path fill="#FFFFFF" stroke="#FFFFFF" d="M64.061,50.179c0.007-0.006-0.404-0.375-0.882-0.989
					c-0.474-0.613-0.99-1.484-1.29-2.322c-0.688-1.959-0.621-3.49-0.635-5.024c-0.018-1.522,0.16-2.833,0.149-2.834
					c0.003,0.003-0.105,1.641-0.053,3.222c0.093,1.689,0.021,2.707,0.691,4.643c0.302,0.826,0.778,1.686,1.214,2.301
					C63.691,49.793,64.068,50.173,64.061,50.179z"/>
			</g>
			<g>
				<path fill="#FFFFFF" stroke="#FFFFFF" d="M64.034,50.189c0.004,0.006-1.324-0.978-2.076-2.055
					c-0.881-1.239-1.198-2.31-1.59-3.373c-0.388-1.05-0.629-1.992-0.635-1.99c0.004,0,0.375,1.148,0.8,2.234
					c0.474,1.157,0.668,1.872,1.534,3.104C62.816,49.17,64.036,50.192,64.034,50.189z"/>
			</g>
			<g>
				<path fill="#FFFFFF" stroke="#FFFFFF" d="M55.607,52.405c0.004,0.006-1.323-0.977-2.075-2.055
					c-0.883-1.239-1.198-2.31-1.59-3.373c-0.388-1.05-0.629-1.992-0.635-1.99c0.003,0,0.375,1.151,0.799,2.234
					c0.475,1.158,0.669,1.873,1.535,3.103C54.391,51.387,55.609,52.408,55.607,52.405z"/>
			</g>
			<g>
				<path fill="#FFFFFF" stroke="#FFFFFF" d="M115.518,12.132c0.001-0.001-0.85-0.68-1.975-1.702
					c-1.127-1.018-2.516-2.385-3.712-3.602c-1.389-1.417-2.61-2.603-3.901-3.552c-1.286-0.949-2.62-1.672-4.076-2.159
					C98.979,0.171,96.367,0.019,96.376,0c-0.014,0.016,3.265,0.074,6.271,1.202c1.606,0.605,2.766,1.331,3.883,2.193
					c1.115,0.871,2.185,1.894,3.581,3.322c1.199,1.229,2.518,2.619,3.574,3.662C114.737,11.425,115.518,12.131,115.518,12.132z"/>
			</g>
			<g>
				<path fill="#FFFFFF" stroke="#FFFFFF" d="M28.419,55.004c0,0.023-0.604-0.349-1.257-1.121c-0.662-0.753-1.411-1.806-1.976-2.791
					c-1.308-2.298-1.888-4.139-2.732-5.955c-0.843-1.779-1.469-3.359-1.429-3.374c-0.053,0.024,0.853,1.93,1.752,3.782
					c0.955,1.998,1.306,3.231,2.605,5.523c0.564,0.981,1.264,2.033,1.876,2.791C27.862,54.636,28.417,55.024,28.419,55.004z"/>
			</g>
			<g>
				<path fill="#FFFFFF" stroke="#FFFFFF" d="M45.919,69.482c0.008-0.006-1.582,0.029-3.753-0.552
					c-2.167-0.55-4.847-1.706-6.991-3.091c-2.498-1.604-4.397-3.338-6.03-5.046c-1.628-1.718-2.994-3.418-4.355-5.178
					c-1.34-1.726-2.417-3.462-3.071-4.804c-0.661-1.338-0.922-2.257-0.932-2.253c0.009-0.004,0.396,1.124,1.26,2.633
					c0.849,1.517,2.199,3.382,3.652,5.128c1.565,1.878,2.848,3.316,4.291,4.772c1.451,1.442,3.072,2.912,5.549,4.495
					c2.129,1.364,4.698,2.559,6.774,3.179C44.393,69.415,45.925,69.474,45.919,69.482z"/>
			</g>
			<g>
				<path fill="#FFFFFF" stroke="#FFFFFF" d="M57.836,65.199c0.006,0.003-0.974,0.151-2.368,0.062
					c-1.393-0.073-3.173-0.34-4.701-0.748c-3.559-0.967-5.92-2.268-8.451-3.41c-1.243-0.57-2.373-1.157-3.163-1.651
					c-0.792-0.491-1.234-0.891-1.235-0.887c0-0.002,0.577,0.463,1.535,0.98c0.951,0.527,2.264,1.12,3.572,1.689
					c2.825,1.191,4.375,2.086,7.909,3.06c1.523,0.403,3.254,0.719,4.604,0.848C56.89,65.285,57.84,65.201,57.836,65.199z"/>
			</g>
			<g>
				<path fill="#FFFFFF" stroke="#FFFFFF" d="M49.006,59.371c0.004-0.012-1.435-0.107-3.392-0.619
					c-1.957-0.491-4.414-1.449-6.374-2.684c-2.288-1.419-4.001-3.004-5.463-4.561c-1.457-1.571-2.668-3.124-3.91-4.712
					c-2.459-3.11-4.137-6.119-4.146-6.112c-0.003,0.008,2.314,3.602,4.972,6.749c1.415,1.706,2.55,3.028,3.845,4.353
					c1.299,1.315,2.766,2.649,5.028,4.05c1.944,1.208,4.298,2.214,6.182,2.767C47.628,59.181,49.01,59.358,49.006,59.371z"/>
			</g>
			<g>
				<path fill="#FFFFFF" stroke="#FFFFFF" d="M75.604,56.049c0.002-0.005-0.888,0.011-2.119-0.212
					c-1.231-0.216-2.786-0.679-4.079-1.28c-3.005-1.425-4.797-3.089-6.643-4.739c-0.905-0.824-1.677-1.667-2.172-2.339
					c-0.501-0.667-0.75-1.142-0.757-1.137c0.007-0.005,0.344,0.573,0.975,1.313c0.628,0.745,1.554,1.639,2.523,2.465
					c1.042,0.886,1.885,1.562,2.81,2.24c0.932,0.669,1.953,1.338,3.445,2.03c1.285,0.591,2.786,1.086,3.973,1.349
					C74.748,56.005,75.605,56.044,75.604,56.049z"/>
			</g>
			<g>
				<path fill="#FFFFFF" stroke="#FFFFFF" d="M65.874,52.961c0.001-0.004-0.469,0.042-1.131-0.018
					c-0.661-0.053-1.509-0.229-2.21-0.526c-1.636-0.704-2.542-1.68-3.383-2.674c-0.843-0.995-1.252-2.067-1.256-2.061
					c-0.006,0.002,0.604,1.281,1.533,2.258c0.486,0.534,0.901,0.928,1.375,1.308c0.475,0.377,1.017,0.74,1.823,1.077
					C64.021,52.946,65.885,52.983,65.874,52.961z"/>
			</g>
			<g>
				<path fill="#FFFFFF" stroke="#FFFFFF" d="M68.367,51.963c0.005-0.009-0.4-0.126-0.91-0.431c-0.507-0.304-1.09-0.823-1.48-1.379
					c-0.899-1.308-1.103-2.459-1.464-3.572c-0.347-1.106-0.599-2.079-0.604-2.077l0.762,2.338c0.43,1.22,0.544,1.992,1.423,3.283
					c0.387,0.546,0.937,1.062,1.415,1.375C67.987,51.818,68.373,51.954,68.367,51.963z"/>
			</g>
			<g>
				<path fill="#FFFFFF" stroke="#FFFFFF" d="M70.382,54.604c0.006-0.007-0.719-0.36-1.611-1.051
					c-0.902-0.676-1.945-1.718-2.669-2.791c-1.678-2.514-2.111-4.694-2.743-6.836c-0.607-2.128-0.95-4.017-0.956-4.015
					c0.001,0.002,0.562,2.322,1.247,4.52c0.366,1.185,0.652,2.115,1.019,3.083c0.37,0.963,0.812,1.978,1.653,3.203
					c0.722,1.053,1.7,2.097,2.55,2.789C69.71,54.212,70.388,54.596,70.382,54.604z"/>
			</g>
			<g>
				<path fill="#FFFFFF" stroke="#FFFFFF" d="M69.013,52.632c0.008-0.01-0.88-0.167-1.95-0.845
					c-1.077-0.656-2.227-1.898-2.871-3.202c-0.765-1.507-1.041-2.957-1.141-4.279c-0.091-1.33,0-2.554,0.171-3.787
					c0.166-1.213,0.503-2.313,0.844-3.077c0.337-0.767,0.647-1.207,0.641-1.21c0.007,0.002-0.351,0.571-0.684,1.488
					c-0.34,0.914-0.614,2.175-0.722,3.438c-0.112,1.357-0.108,2.437,0.012,3.578c0.135,1.132,0.371,2.356,1.128,3.831
					c0.642,1.272,1.717,2.484,2.729,3.157C68.176,52.416,69.02,52.623,69.013,52.632z"/>
			</g>
			<g>
				<path fill="#FFFFFF" stroke="#FFFFFF" d="M65.106,51.339c0.003-0.004-0.546-0.24-1.246-0.707
					c-0.701-0.457-1.536-1.169-2.128-1.933c-1.373-1.791-1.724-3.44-2.058-5.055c-0.326-1.614-0.254-3.051-0.262-3.049
					c-0.001,0,0.032,1.785,0.45,3.438c0.211,0.892,0.417,1.584,0.697,2.299c0.283,0.711,0.65,1.453,1.334,2.322
					C63.051,50.203,65.107,51.365,65.106,51.339z"/>
			</g>
			<g>
				<path fill="#FFFFFF" stroke="#FFFFFF" d="M82.107,29.489c-0.003,0.006-0.388-0.292-0.978-0.604
					c-0.581-0.324-1.372-0.623-2.088-0.806c-1.665-0.414-2.983-0.453-4.304-0.198c-1.298,0.271-2.341,0.747-2.341,0.74
					c-0.003,0.005,1.279-0.64,2.659-0.885c0.738-0.134,1.333-0.146,1.952-0.109c0.617,0.042,1.267,0.123,2.112,0.347
					c0.729,0.191,1.507,0.529,2.064,0.874C81.749,29.184,82.104,29.495,82.107,29.489z"/>
			</g>
			<g>
				<path fill="#FFFFFF" stroke="#FFFFFF" d="M84.592,28.378c-0.002,0.012-0.938-0.359-2.285-0.572
					c-1.346-0.235-3.075-0.185-4.565,0.08c-1.737,0.293-3.216,0.748-4.579,1.22c-1.361,0.479-2.604,1-3.828,1.626
					c-2.388,1.257-4.451,2.327-4.46,2.314c0.02,0.023,2.5-1.46,5.002-2.777c1.359-0.691,2.475-1.143,3.675-1.554
					c1.202-0.397,2.481-0.799,4.254-1.092c1.522-0.259,3.267-0.224,4.583,0.074C83.707,27.977,84.59,28.39,84.592,28.378z"/>
			</g>
			<g>
				<path fill="#FFFFFF" stroke="#FFFFFF" d="M70.366,27.652c-0.004-0.001-1.683,0.848-2.92,1.632
					c-1.448,0.889-2.496,1.608-3.346,2.629c-0.827,1.012-1.259,2.058-1.264,2.05c0.001,0.011,0.498-1.321,1.418-2.356
					c0.48-0.56,0.928-0.931,1.416-1.292c0.489-0.362,1.02-0.716,1.756-1.161C68.684,28.37,70.366,27.651,70.366,27.652z"/>
			</g>
			<g>
				<path fill="#FFFFFF" stroke="#FFFFFF" d="M73.429,21.443c-0.002,0.002-3.909,1.772-6.758,3.486
					c-3.319,1.951-5.606,3.757-7.392,6.192c-1.727,2.404-2.738,4.752-2.752,4.74c0.011,0.015,1.153-2.975,3.06-5.459
					c1.018-1.332,1.992-2.235,3.068-3.102c1.089-0.853,2.285-1.68,3.978-2.663C69.533,22.916,73.433,21.447,73.429,21.443z"/>
			</g>
			<g>
				<path fill="#FFFFFF" stroke="#FFFFFF" d="M68.743,2.904c0,0.002-0.781,0.271-1.407,0.445c-0.727,0.202-1.271,0.307-1.807,0.531
					c-0.525,0.218-0.949,0.471-0.949,0.469c-0.001,0.001,0.514-0.333,1.071-0.557c0.599-0.238,0.964-0.294,1.691-0.499L68.743,2.904
					z"/>
			</g>
			<g>
				<path fill="#FFFFFF" stroke="#FFFFFF" d="M85.179,32.921c-0.005,0.007-0.749-0.466-1.834-1.015
					c-1.079-0.562-2.507-1.153-3.796-1.576c-2.985-0.969-5.358-1.301-7.805-1.017c-2.404,0.309-4.358,1.067-4.356,1.053
					c-0.006,0.013,2.403-1.029,4.957-1.271c1.364-0.133,2.449-0.061,3.566,0.108c1.119,0.173,2.28,0.438,3.797,0.945
					C82.352,30.973,85.191,32.913,85.179,32.921z"/>
			</g>
			<g>
				<path fill="#FFFFFF" stroke="#FFFFFF" d="M88.59,39.729c0.01-0.007-1.354-3.064-2.739-5.259
					c-1.557-2.544-2.995-4.388-5.192-5.353c-2.182-0.936-4.254-0.503-4.222-0.522c0,0.009,0.604-0.143,1.536-0.139
					c0.925-0.003,2.187,0.217,3.289,0.784c1.187,0.607,1.955,1.335,2.666,2.144c0.708,0.819,1.363,1.746,2.151,3.053
					C87.467,36.675,88.6,39.728,88.59,39.729z"/>
			</g>
			<g>
				<path fill="#FFFFFF" stroke="#FFFFFF" d="M92.573,43.32c0.021-0.014-1.243-3.42-2.465-5.976
					c-1.377-2.985-2.437-5.198-4.142-7.117c-1.677-1.887-3.562-3.006-3.552-3.005c-0.007-0.02,2.392,1.327,4.094,3.39
					c0.922,1.084,1.505,2.042,2.067,3.07c0.559,1.032,1.096,2.141,1.783,3.655C91.582,39.927,92.592,43.314,92.573,43.32z"/>
			</g>
			<g>
				<path fill="#FFFFFF" stroke="#FFFFFF" d="M86.55,47.571c-0.027,0.004,0.865-0.964,1.124-2.592
					c0.307-1.61-0.065-3.664-0.586-5.398c-0.605-2.027-1.335-3.729-2.132-5.263c-0.806-1.527-1.697-2.893-2.853-4.087
					c-1.132-1.174-2.385-2.074-3.391-2.549c-1.007-0.489-1.721-0.557-1.715-0.566c-0.009,0.007,0.893,0.058,2.08,0.652
					c1.189,0.571,2.602,1.653,3.744,2.941c1.229,1.391,1.975,2.648,2.662,4.005c0.672,1.365,1.319,2.837,1.926,4.902
					c0.521,1.771,0.785,3.87,0.394,5.464C87.443,46.692,86.522,47.574,86.55,47.571z"/>
			</g>
			<g>
				<path fill="#FFFFFF" stroke="#FFFFFF" d="M80.869,61.143c-0.015-0.011,1.411-1.066,2.989-2.871
					c1.603-1.788,3.192-4.383,4.275-6.82c1.283-2.825,2.089-5.415,2.675-7.882c0.575-2.47,0.907-4.828,0.929-7.253
					c0.035-4.774-0.736-8.826-0.719-8.822c-0.012-0.011,1.157,5.015,0.989,10.052c-0.086,2.699-0.455,4.802-0.991,6.968
					c-0.562,2.159-1.243,4.417-2.559,7.288c-1.127,2.473-2.843,5.009-4.515,6.691C82.297,60.2,80.854,61.129,80.869,61.143z"/>
			</g>
			<g>
				<path fill="#FFFFFF" stroke="#FFFFFF" d="M91.532,44.615c-0.011-0.016-0.922,1.921-2.929,4.173
					c-1.969,2.272-5.095,4.697-8.183,6.218c-3.585,1.78-6.935,2.669-10.045,3.286c-3.121,0.605-6.029,0.922-9.002,1.287
					c-5.84,0.751-10.948,0.609-10.947,0.607c0-0.007,1.592-0.029,3.934-0.202c2.343-0.168,5.429-0.521,8.458-0.965
					c3.261-0.48,5.818-0.88,8.508-1.466c2.676-0.607,5.52-1.374,9.056-3.143c3.042-1.513,6.117-3.782,8.115-5.901
					C90.524,46.412,91.521,44.6,91.532,44.615z"/>
			</g>
			<g>
				<path fill="#FFFFFF" stroke="#FFFFFF" d="M98.19,44.334c-0.008,0.001,0.026-0.929-0.108-2.194
					c-0.12-1.269-0.437-2.855-0.806-4.232c-0.858-3.19-1.708-5.523-3.095-7.694c-1.384-2.125-2.942-3.667-2.933-3.669
					c-0.006-0.006,2.012,1.853,3.413,4.132c0.757,1.217,1.216,2.248,1.64,3.354c0.415,1.107,0.808,2.291,1.225,3.914
					c0.364,1.396,0.619,2.99,0.672,4.242C98.271,43.438,98.182,44.334,98.19,44.334z"/>
			</g>
			<g>
				<path fill="#FFFFFF" stroke="#FFFFFF" d="M86.907,23.587c-0.002,0.005,0.601,0.167,1.38,0.569
					c0.781,0.393,1.722,1.047,2.417,1.773c1.613,1.703,2.227,3.32,2.939,4.896c0.697,1.569,1.073,3.013,1.077,3.011
					c0.005-0.003-0.578-1.761-1.356-3.367c-0.41-0.868-0.743-1.544-1.144-2.241c-0.403-0.691-0.875-1.41-1.679-2.236
					c-0.69-0.712-1.582-1.375-2.325-1.786C87.478,23.784,86.905,23.592,86.907,23.587z"/>
			</g>
			<g>
				<path fill="#FFFFFF" stroke="#FFFFFF" d="M81.646,21.363c0,0.012-1.228-0.34-2.945-0.426c-1.72-0.107-3.888,0.143-5.764,0.553
					c-2.185,0.461-4.045,1.037-5.758,1.657c-1.708,0.629-3.265,1.323-4.761,2.21c-2.937,1.75-5.22,3.621-5.224,3.61
					c0.002,0.01,2.749-2.447,5.875-4.234c1.679-0.959,3.086-1.547,4.593-2.084c1.513-0.523,3.121-1.034,5.34-1.495
					c1.908-0.404,4.095-0.557,5.785-0.365C80.482,20.962,81.646,21.375,81.646,21.363z"/>
			</g>
			<g>
				<path fill="#FFFFFF" stroke="#FFFFFF" d="M96.043,31.286c-0.004,0.002-0.186-0.561-0.529-1.294
					c-0.337-0.737-0.854-1.628-1.346-2.392c-1.147-1.765-2.097-3.023-3.343-4.091c-1.234-1.038-2.464-1.694-2.46-1.696
					c-0.004-0.003,1.564,0.762,2.839,1.891c1.348,1.227,1.946,2.097,3.123,3.87c0.494,0.773,0.97,1.684,1.267,2.422
					C95.897,30.733,96.039,31.288,96.043,31.286z"/>
			</g>
			<g>
				<path fill="#FFFFFF" stroke="#FFFFFF" d="M96.812,22.984c0.004-0.007-1.342-1.448-2.49-2.466
					c-1.316-1.195-2.342-2.051-3.63-2.582c-1.269-0.521-2.46-0.585-2.453-0.589c-0.011-0.005,1.486,0.039,2.809,0.647
					c1.4,0.659,2.057,1.275,3.398,2.467C95.602,21.497,96.815,22.98,96.812,22.984z"/>
			</g>
			<g>
				<path fill="#FFFFFF" stroke="#FFFFFF" d="M104.274,33.879l-1.739-3.615c-0.87-1.852-1.45-3.247-2.39-4.524
					c-0.923-1.255-1.937-2.14-1.931-2.143c-0.006-0.002,1.302,1.062,2.242,2.409c1.005,1.444,1.348,2.396,2.233,4.252
					C103.447,31.86,104.273,33.879,104.274,33.879z"/>
			</g>
			<g>
				<path fill="#FFFFFF" stroke="#FFFFFF" d="M98.451,44.213c0,0-0.052,0.104-0.101,0.183l-0.152,0.219l-0.076,0.128l0.085-0.149
					l0.14-0.204L98.451,44.213z"/>
			</g>
		</g>
		<g>
			<path fill="#FFFFFF" stroke="#FFFFFF" d="M150.208,100.25c-0.013-0.025,5.787-1.938,10.511-2.812
				c5.474-1.049,9.559-1.267,13.669-2.493c4.041-1.184,7.272-2.866,7.267-2.863c-0.005-0.005-0.972,0.572-2.498,1.285
				c-1.52,0.718-3.604,1.545-5.727,2.148c-4.581,1.272-7.313,1.294-12.793,2.36C155.909,98.75,150.198,100.225,150.208,100.25z"/>
		</g>
		<g>
			<path fill="#FFFFFF" stroke="#FFFFFF" d="M116.976,91.344c0-0.004-2.341-0.155-4.152-0.569c-2.107-0.482-3.536-1.162-5.057-1.755
				c-1.5-0.58-2.735-1.222-2.737-1.218c0.003,0,1.582,0.705,3.158,1.271c1.693,0.618,2.633,1.077,4.73,1.569
				C114.724,91.053,116.976,91.34,116.976,91.344z"/>
		</g>
		<g>
			<path fill="#FFFFFF" stroke="#FFFFFF" d="M129.964,92.787c0.004-0.001-3.041,0.413-5.468,0.334
				c-2.817-0.077-4.831-0.513-6.97-0.658c-2.102-0.15-3.92-0.229-3.92-0.226c0-0.002,2.27-0.017,4.469,0.132
				c2.366,0.157,3.695,0.475,6.508,0.558C127.004,93.003,129.966,92.786,129.964,92.787z"/>
		</g>
		<g>
			<path fill="#FFFFFF" stroke="#FFFFFF" d="M114.242,92.004c0.003-0.006-3.595-0.128-6.367-0.804
				c-1.609-0.385-2.952-0.859-4.199-1.304c-1.25-0.443-2.401-0.848-3.574-1.295c-1.156-0.423-2.256-0.785-3.081-0.967
				c-0.822-0.191-1.357-0.221-1.356-0.227c-0.002,0.004,0.667,0.017,1.643,0.224c0.975,0.2,2.231,0.609,3.441,1.039l3.427,1.168
				c1.091,0.378,2.243,0.778,3.846,1.16C110.781,91.665,114.245,91.998,114.242,92.004z"/>
		</g>
		<g>
			<path fill="#FFFFFF" stroke="#FFFFFF" d="M135.876,95.744c0.007,0.009-3.083,0.459-5.549,0.299
				c-2.861-0.161-4.879-0.709-7.04-0.954c-2.124-0.249-3.965-0.387-3.965-0.386c0-0.002,2.302,0.063,4.525,0.316
				c2.392,0.261,3.721,0.665,6.573,0.831C132.877,96.005,135.879,95.752,135.876,95.744z"/>
		</g>
		<g>
			<path fill="#FFFFFF" stroke="#FFFFFF" stroke-width="0.2806" d="M128.979,94.012"/>
		</g>
		<g>
			<path fill="#FFFFFF" stroke="#FFFFFF" d="M176.569,85.746c-0.004-0.005-0.425,0.428-1.296,1.009
				c-0.864,0.586-2.169,1.31-3.749,2.029c-3.156,1.448-7.393,2.893-11.205,3.909c-8.876,2.331-15.49,3.077-22.361,4.252
				c-3.38,0.528-6.576,0.716-8.896,0.475c-2.325-0.211-3.726-0.766-3.727-0.746c-0.002-0.017,1.765,0.608,4.487,0.703
				c2.719,0.136,6.312-0.307,9.83-0.937l9.938-1.738c3.149-0.579,6.474-1.225,10.899-2.406c3.801-1.019,7.981-2.371,11.094-3.72
				c1.558-0.67,2.842-1.341,3.697-1.888C176.143,86.146,176.566,85.742,176.569,85.746z"/>
		</g>
		<g>
			<path fill="#FFFFFF" stroke="#FFFFFF" d="M148.206,97.357c-0.001-0.016-2.628,0.892-6.488,1.486
				c-3.848,0.627-8.909,0.829-13.328,0.374c-5.131-0.533-9.479-1.479-13.453-2.615c-3.971-1.135-7.553-2.423-11.249-3.653
				l-2.667-0.909l-2.54-0.78c-1.617-0.501-3.062-1.025-4.225-1.6c-1.16-0.571-2.021-1.203-2.525-1.738
				c-0.517-0.526-0.689-0.916-0.699-0.908c0.008-0.009,0.257,0.464,0.925,1.044c0.662,0.585,1.752,1.224,3.153,1.766
				c1.398,0.554,3.091,1.019,4.926,1.518c1.891,0.516,3.746,1.186,5.663,1.76c4.1,1.271,7.313,2.286,10.774,3.212
				c3.461,0.908,7.182,1.703,12.283,2.225c4.39,0.438,9.321,0.393,13.087-0.059C145.613,98.057,148.205,97.344,148.206,97.357z"/>
		</g>
		<g>
			<path fill="#FFFFFF" stroke="#FFFFFF" d="M151.182,92.521c0.002-0.004-5.384,1.468-9.786,2.025
				c-5.113,0.652-8.861,0.514-12.763,0.309c-3.845-0.184-7.098-0.922-7.097-0.92c0.001-0.006,1.016,0.203,2.534,0.403
				c1.52,0.203,3.547,0.364,5.553,0.436c2.159,0.074,3.854,0.088,5.651,0.05c1.796-0.047,3.696-0.151,6.245-0.486
				C145.909,93.773,151.182,92.516,151.182,92.521z"/>
		</g>
		<g>
			<path fill="#FFFFFF" stroke="#FFFFFF" d="M173.259,89.092c0.012,0.006-1.784,1.369-3.435,2.056
				c-1.896,0.819-3.376,1.101-4.835,1.683c-1.438,0.562-2.62,1.179-2.618,1.178c-0.004,0,1.439-0.833,2.951-1.41
				c1.617-0.639,2.609-0.788,4.499-1.606C171.461,90.307,173.267,89.098,173.259,89.092z"/>
		</g>
		<g>
			<path fill="#FFFFFF" stroke="#FFFFFF" d="M258.286,37.158c-0.008-0.008-1.478,2.591-4.005,5.924
				c-2.505,3.346-6.143,7.354-9.771,10.448c-4.211,3.611-8.226,6.229-12.049,8.457c-3.834,2.225-7.492,4.057-11.234,5.953
				c-7.34,3.749-14.019,6.264-14.013,6.272c-0.004-0.007,2.046-0.861,5.03-2.24c2.989-1.373,6.893-3.309,10.692-5.324
				c4.087-2.171,7.272-3.911,10.572-5.897c3.283-2.003,6.706-4.247,10.889-7.843c3.598-3.091,7.236-6.934,9.78-10.124
				C256.741,39.604,258.278,37.149,258.286,37.158z"/>
		</g>
		<g>
			<path fill="#FFFFFF" stroke="#FFFFFF" d="M250.214,26.318l-2.353,5.368c-1.378,3.12-3.146,7.13-5.057,10.524
				c-4.431,7.916-9.341,12.642-15.007,16.376c-5.621,3.724-11.353,5.243-11.315,5.281c-0.006-0.013,1.724-0.577,4.173-1.664
				c2.453-1.078,5.582-2.764,8.38-4.841c3.014-2.228,5.162-4.268,7.253-6.608c2.074-2.354,4.055-5.062,6.255-8.992
				c1.896-3.381,3.731-7.282,5.18-10.294L250.214,26.318z"/>
		</g>
		<g>
			<path fill="#FFFFFF" stroke="#FFFFFF" d="M248.279,54.932c-0.009-0.003-0.329,1.499-1.023,3.534
				c-0.682,2.035-1.77,4.595-3.047,6.691c-3.002,4.876-6.238,7.597-9.541,10.285c-3.27,2.686-6.665,4.146-6.657,4.146
				c-0.006-0.01,1.031-0.499,2.457-1.385c1.427-0.886,3.221-2.197,4.874-3.634c1.787-1.539,3.133-2.818,4.488-4.253
				c1.342-1.444,2.688-3.064,4.151-5.487c1.265-2.083,2.392-4.554,3.141-6.51C247.875,56.363,248.271,54.929,248.279,54.932z"/>
		</g>
		<g>
			<path fill="#FFFFFF" stroke="#FFFFFF" stroke-width="0.3259" d="M168.258,115.444"/>
		</g>
	</g>
	<g>
		<g>
			<path fill="#FFFFFF" d="M0.482,86.47C0.076,86.29,0,86.162,0,85.597c0-1.414,0.102-2.959,0.127-3.37
				c0.025-0.385,0.102-0.669,0.305-0.669c0.228,0,0.253,0.231,0.253,0.438c0,0.335,0.102,0.875,0.229,1.312
				c0.558,1.903,2.055,2.597,3.627,2.597c2.284,0,3.4-1.568,3.4-2.932c0-1.261-0.381-2.443-2.487-4.116l-1.167-0.926
				c-2.791-2.212-3.754-4.013-3.754-6.096c0-2.83,2.333-4.862,5.859-4.862c1.649,0,2.714,0.257,3.374,0.438
				c0.228,0.051,0.354,0.128,0.354,0.309c0,0.334-0.101,1.081-0.101,3.087c0,0.566-0.076,0.771-0.279,0.771
				c-0.177,0-0.254-0.154-0.254-0.463c0-0.231-0.126-1.028-0.66-1.697c-0.38-0.489-1.116-1.261-2.765-1.261
				c-1.876,0-3.019,1.106-3.019,2.65c0,1.183,0.583,2.083,2.689,3.704l0.71,0.54c3.069,2.341,4.16,4.116,4.16,6.559
				c0,1.491-0.558,3.267-2.384,4.476C6.951,86.907,5.53,87.14,4.186,87.14C2.714,87.14,1.573,86.958,0.482,86.47z"/>
			<path fill="#FFFFFF" d="M18.388,71.578l-3.323,0.078c-1.294,0.025-1.827,0.18-2.156,0.669c-0.229,0.308-0.33,0.591-0.381,0.746
				c-0.051,0.18-0.101,0.283-0.253,0.283s-0.203-0.128-0.203-0.36c0-0.36,0.432-2.469,0.482-2.649
				c0.051-0.283,0.127-0.412,0.254-0.412c0.178,0,0.406,0.18,0.964,0.258c0.66,0.077,1.497,0.102,2.232,0.102h9.057
				c0.71,0,1.192-0.051,1.522-0.102c0.355-0.052,0.533-0.103,0.609-0.103c0.152,0,0.177,0.128,0.177,0.463
				c0,0.463-0.05,2.083-0.05,2.649c-0.025,0.231-0.076,0.36-0.203,0.36c-0.178,0-0.229-0.103-0.254-0.438l-0.025-0.231
				c-0.05-0.566-0.634-1.235-2.638-1.261l-2.816-0.052v8.849c0,2.006,0.026,3.729,0.127,4.681c0.076,0.617,0.203,1.029,0.862,1.132
				c0.304,0.051,0.812,0.077,1.141,0.077c0.254,0,0.356,0.128,0.356,0.231c0,0.154-0.178,0.231-0.432,0.231
				c-1.471,0-2.968-0.077-3.602-0.077c-0.507,0-2.03,0.077-2.917,0.077c-0.279,0-0.431-0.077-0.431-0.231
				c0-0.104,0.076-0.231,0.355-0.231c0.33,0,0.609-0.026,0.786-0.077c0.457-0.103,0.584-0.515,0.66-1.157
				c0.102-0.927,0.102-2.649,0.102-4.655V71.578z"/>
			<path fill="#FFFFFF" d="M30.765,76.568c0-3.318,0-3.936-0.026-4.63c-0.05-0.746-0.279-1.003-0.76-1.157
				c-0.254-0.077-0.533-0.103-0.812-0.103c-0.229,0-0.355-0.052-0.355-0.257c0-0.129,0.178-0.181,0.533-0.181
				c0.837,0,2.359,0.051,2.994,0.051c0.558,0,2.004-0.051,2.866-0.051c0.279,0,0.457,0.051,0.457,0.181
				c0,0.205-0.127,0.257-0.355,0.257s-0.406,0.026-0.659,0.077c-0.609,0.103-0.787,0.412-0.837,1.183
				c-0.051,0.694-0.051,1.312-0.051,4.63v3.859c0,2.108,0,3.857,0.102,4.784c0.076,0.591,0.228,0.926,0.888,1.028
				c0.304,0.051,0.812,0.077,1.141,0.077c0.253,0,0.355,0.128,0.355,0.231c0,0.154-0.177,0.231-0.431,0.231
				c-1.471,0-2.993-0.077-3.602-0.077c-0.507,0-2.029,0.077-2.917,0.077c-0.279,0-0.431-0.077-0.431-0.231
				c0-0.104,0.076-0.231,0.354-0.231c0.33,0,0.583-0.026,0.787-0.077c0.457-0.103,0.583-0.412,0.66-1.055
				c0.102-0.9,0.102-2.649,0.102-4.758V76.568z"/>
			<path fill="#FFFFFF" d="M39.362,76.568c0-3.318,0-3.936-0.025-4.63c-0.051-0.746-0.254-0.978-0.964-1.183
				c-0.177-0.051-0.558-0.077-0.888-0.077c-0.229,0-0.38-0.077-0.38-0.231c0-0.155,0.177-0.206,0.507-0.206
				c1.166,0,2.587,0.051,3.044,0.051c0.76,0,2.79-0.051,3.475-0.051c1.42,0,3.044,0.129,4.237,0.926
				c0.634,0.438,1.572,1.543,1.572,3.009c0,1.62-0.914,3.061-3.095,4.836c1.978,2.469,3.552,4.449,4.896,5.812
				c1.243,1.261,2.029,1.363,2.385,1.44c0.229,0.052,0.355,0.052,0.533,0.052s0.278,0.128,0.278,0.231
				c0,0.18-0.152,0.231-0.432,0.231h-2.13c-1.243,0-1.853-0.128-2.436-0.438c-0.963-0.489-1.801-1.518-3.044-3.215
				c-0.889-1.183-1.826-2.649-2.106-2.984c-0.126-0.128-0.253-0.154-0.406-0.154l-2.003-0.052c-0.102,0-0.178,0.052-0.178,0.18v0.31
				c0,2.031,0.025,3.729,0.126,4.655c0.076,0.643,0.178,1.055,0.863,1.157c0.33,0.051,0.812,0.077,1.091,0.077
				c0.177,0,0.278,0.128,0.278,0.231c0,0.154-0.178,0.231-0.456,0.231c-1.294,0-3.146-0.077-3.476-0.077
				c-0.431,0-1.852,0.077-2.739,0.077c-0.279,0-0.432-0.077-0.432-0.231c0-0.104,0.076-0.231,0.355-0.231
				c0.33,0,0.583-0.026,0.786-0.077c0.457-0.103,0.583-0.515,0.66-1.157c0.102-0.927,0.102-2.649,0.102-4.655V76.568z
				 M42.204,78.266c0,0.231,0.05,0.309,0.203,0.386c0.482,0.154,1.141,0.206,1.7,0.206c0.887,0,1.193-0.077,1.573-0.36
				c0.685-0.489,1.446-1.44,1.446-3.241c0-3.087-2.081-3.884-3.399-3.884c-0.558,0-1.091,0.025-1.319,0.077
				c-0.152,0.052-0.203,0.128-0.203,0.309V78.266z"/>
			<path fill="#FFFFFF" d="M56.762,76.568c0-3.318,0-3.936-0.025-4.63c-0.052-0.746-0.254-0.978-0.964-1.183
				c-0.178-0.051-0.56-0.077-0.889-0.077c-0.229,0-0.38-0.077-0.38-0.231c0-0.155,0.178-0.206,0.506-0.206
				c1.169,0,2.59,0.051,3.045,0.051c0.762,0,2.791-0.051,3.476-0.051c1.42,0,3.044,0.129,4.235,0.926
				c0.635,0.438,1.574,1.543,1.574,3.009c0,1.62-0.914,3.061-3.095,4.836c1.978,2.469,3.55,4.449,4.896,5.812
				c1.244,1.261,2.03,1.363,2.385,1.44c0.229,0.052,0.354,0.052,0.531,0.052c0.179,0,0.28,0.128,0.28,0.231
				c0,0.18-0.151,0.231-0.432,0.231h-2.13c-1.243,0-1.852-0.128-2.436-0.438c-0.965-0.489-1.802-1.518-3.044-3.215
				c-0.889-1.183-1.826-2.649-2.106-2.984c-0.126-0.128-0.254-0.154-0.405-0.154l-2.004-0.052c-0.103,0-0.178,0.052-0.178,0.18v0.31
				c0,2.031,0.026,3.729,0.127,4.655c0.076,0.643,0.177,1.055,0.862,1.157c0.329,0.051,0.812,0.077,1.091,0.077
				c0.179,0,0.278,0.128,0.278,0.231c0,0.154-0.177,0.231-0.457,0.231c-1.292,0-3.145-0.077-3.475-0.077
				c-0.43,0-1.851,0.077-2.739,0.077c-0.28,0-0.432-0.077-0.432-0.231c0-0.104,0.077-0.231,0.354-0.231
				c0.331,0,0.584-0.026,0.787-0.077c0.456-0.103,0.584-0.515,0.659-1.157c0.103-0.927,0.103-2.649,0.103-4.655V76.568z
				 M59.603,78.266c0,0.231,0.051,0.309,0.203,0.386c0.48,0.154,1.141,0.206,1.698,0.206c0.889,0,1.193-0.077,1.574-0.36
				c0.684-0.489,1.445-1.44,1.445-3.241c0-3.087-2.079-3.884-3.399-3.884c-0.558,0-1.09,0.025-1.318,0.077
				c-0.152,0.052-0.203,0.128-0.203,0.309V78.266z"/>
			<path fill="#FFFFFF" d="M74.159,76.568c0-3.318,0-3.936-0.025-4.63c-0.05-0.746-0.278-1.003-0.761-1.157
				c-0.254-0.077-0.532-0.103-0.812-0.103c-0.229,0-0.354-0.052-0.354-0.257c0-0.129,0.177-0.181,0.531-0.181
				c0.838,0,2.361,0.051,2.994,0.051c0.559,0,2.005-0.051,2.866-0.051c0.279,0,0.457,0.051,0.457,0.181
				c0,0.205-0.126,0.257-0.354,0.257s-0.406,0.026-0.66,0.077c-0.609,0.103-0.786,0.412-0.838,1.183
				c-0.05,0.694-0.05,1.312-0.05,4.63v3.859c0,2.108,0,3.857,0.102,4.784c0.076,0.591,0.229,0.926,0.889,1.028
				c0.303,0.051,0.812,0.077,1.141,0.077c0.254,0,0.354,0.128,0.354,0.231c0,0.154-0.178,0.231-0.432,0.231
				c-1.47,0-2.993-0.077-3.602-0.077c-0.506,0-2.029,0.077-2.917,0.077c-0.278,0-0.431-0.077-0.431-0.231
				c0-0.104,0.075-0.231,0.354-0.231c0.329,0,0.584-0.026,0.786-0.077c0.457-0.103,0.584-0.412,0.66-1.055
				c0.101-0.9,0.101-2.649,0.101-4.758V76.568z"/>
			<path fill="#FFFFFF" d="M84.381,83.796c0.052,1.697,0.33,2.212,0.761,2.366c0.381,0.128,0.812,0.154,1.168,0.154
				c0.253,0,0.381,0.102,0.381,0.231c0,0.18-0.203,0.231-0.509,0.231c-1.446,0-2.485-0.077-2.891-0.077
				c-0.203,0-1.269,0.077-2.411,0.077c-0.304,0-0.506-0.026-0.506-0.231c0-0.13,0.151-0.231,0.354-0.231
				c0.305,0,0.711-0.026,1.015-0.103c0.583-0.154,0.66-0.746,0.686-2.65l0.203-12.963c0-0.438,0.151-0.746,0.38-0.746
				c0.279,0,0.583,0.334,0.964,0.72c0.279,0.283,3.627,3.755,6.874,6.971c1.523,1.518,4.49,4.603,4.82,4.913h0.102l-0.229-9.723
				c-0.025-1.337-0.229-1.723-0.761-1.929c-0.33-0.129-0.863-0.129-1.166-0.129c-0.28,0-0.357-0.103-0.357-0.231
				c0-0.18,0.229-0.206,0.56-0.206c1.167,0,2.358,0.051,2.842,0.051c0.252,0,1.089-0.051,2.18-0.051
				c0.305,0,0.508,0.026,0.508,0.206c0,0.128-0.126,0.231-0.381,0.231c-0.229,0-0.405,0-0.685,0.077
				c-0.607,0.18-0.786,0.566-0.811,1.801l-0.254,13.786c0,0.488-0.178,0.694-0.354,0.694c-0.382,0-0.687-0.231-0.915-0.463
				c-1.395-1.312-4.185-4.013-6.52-6.302c-2.435-2.366-4.793-5.015-5.225-5.401h-0.077L84.381,83.796z"/>
			<path fill="#FFFFFF" d="M116.035,85.313c0,0.591,0,0.616-0.278,0.771c-1.496,0.745-3.703,0.977-5.454,0.977
				c-5.479,0-10.325-2.52-10.325-8.564c0-3.499,1.853-5.941,3.907-7.151c2.131-1.26,4.135-1.415,6.013-1.415
				c1.548,0,3.5,0.258,3.957,0.36c0.456,0.078,1.243,0.206,1.775,0.231c0.254,0.026,0.305,0.103,0.305,0.258
				c0,0.257-0.152,0.849-0.152,3.601c0,0.334-0.127,0.489-0.304,0.489c-0.153,0-0.203-0.103-0.229-0.283
				c-0.051-0.489-0.177-1.183-0.76-1.8c-0.66-0.695-2.335-1.672-4.846-1.672c-1.218,0-2.766,0.026-4.312,1.286
				c-1.243,1.029-2.055,2.649-2.055,5.325c0,4.707,2.992,8.127,7.763,8.127c0.583,0,1.039,0,1.572-0.23
				c0.33-0.154,0.432-0.386,0.432-0.772v-2.005c0-1.081,0-1.903-0.025-2.573c-0.026-0.746-0.255-0.977-0.964-1.183
				c-0.179-0.051-0.559-0.077-0.863-0.077c-0.203,0-0.354-0.103-0.354-0.231c0-0.181,0.178-0.206,0.481-0.206
				c1.167,0,2.766,0.051,3.425,0.051c0.71,0,1.877-0.051,2.612-0.051c0.305,0,0.457,0.025,0.457,0.206
				c0,0.128-0.127,0.231-0.278,0.231c-0.179,0-0.355,0.025-0.609,0.077c-0.608,0.103-0.837,0.412-0.862,1.183
				c-0.026,0.67-0.026,1.543-0.026,2.624V85.313z"/>
			<path fill="#FFFFFF" d="M125.038,71.578l-3.324,0.078c-1.293,0.025-1.826,0.18-2.155,0.669c-0.229,0.308-0.33,0.591-0.38,0.746
				c-0.052,0.18-0.103,0.283-0.255,0.283c-0.151,0-0.203-0.128-0.203-0.36c0-0.36,0.432-2.469,0.482-2.649
				c0.051-0.283,0.127-0.412,0.254-0.412c0.178,0,0.406,0.18,0.964,0.258c0.659,0.077,1.496,0.102,2.231,0.102h9.057
				c0.711,0,1.192-0.051,1.522-0.102c0.355-0.052,0.533-0.103,0.608-0.103c0.153,0,0.178,0.128,0.178,0.463
				c0,0.463-0.051,2.083-0.051,2.649c-0.025,0.231-0.076,0.36-0.202,0.36c-0.178,0-0.229-0.103-0.255-0.438l-0.025-0.231
				c-0.05-0.566-0.634-1.235-2.638-1.261l-2.816-0.052v8.849c0,2.006,0.026,3.729,0.128,4.681c0.075,0.617,0.202,1.029,0.861,1.132
				c0.306,0.051,0.812,0.077,1.142,0.077c0.255,0,0.356,0.128,0.356,0.231c0,0.154-0.178,0.231-0.432,0.231
				c-1.472,0-2.969-0.077-3.602-0.077c-0.509,0-2.029,0.077-2.918,0.077c-0.279,0-0.432-0.077-0.432-0.231
				c0-0.104,0.076-0.231,0.355-0.231c0.33,0,0.608-0.026,0.786-0.077c0.457-0.103,0.584-0.515,0.66-1.157
				c0.102-0.927,0.102-2.649,0.102-4.655V71.578z"/>
			<path fill="#FFFFFF" d="M149.692,77.365c0.05,0,0.126-0.026,0.126-0.154v-0.463c0-3.318-0.026-4.115-0.051-4.81
				c-0.051-0.746-0.254-0.978-0.964-1.183c-0.178-0.051-0.558-0.077-0.862-0.077c-0.254,0-0.381-0.077-0.381-0.231
				c0-0.155,0.152-0.206,0.482-0.206c1.191,0,2.764,0.051,3.349,0.051c0.532,0,2.004-0.051,2.865-0.051
				c0.33,0,0.483,0.051,0.483,0.206c0,0.154-0.153,0.231-0.406,0.231c-0.178,0-0.38,0.026-0.66,0.077
				c-0.583,0.103-0.761,0.412-0.812,1.183c-0.051,0.694-0.051,1.312-0.051,4.63v3.859c0,2.006,0,3.729,0.102,4.681
				c0.076,0.617,0.203,1.029,0.888,1.132c0.305,0.051,0.786,0.077,1.142,0.077c0.229,0,0.355,0.128,0.355,0.231
				c0,0.154-0.178,0.231-0.457,0.231c-1.445,0-2.917-0.077-3.525-0.077c-0.509,0-2.081,0.077-2.943,0.077
				c-0.304,0-0.481-0.077-0.481-0.231c0-0.104,0.101-0.231,0.355-0.231c0.354,0,0.608-0.026,0.812-0.077
				c0.456-0.103,0.583-0.515,0.659-1.157c0.102-0.927,0.102-2.599,0.102-4.604v-1.672c0-0.077-0.076-0.128-0.126-0.128h-8.424
				c-0.075,0-0.151,0.025-0.151,0.128v1.672c0,2.006,0.025,3.678,0.127,4.63c0.076,0.617,0.203,1.029,0.862,1.132
				c0.305,0.051,0.812,0.077,1.142,0.077c0.253,0,0.355,0.128,0.355,0.231c0,0.154-0.178,0.231-0.457,0.231
				c-1.446,0-2.992-0.077-3.627-0.077c-0.508,0-1.979,0.077-2.867,0.077c-0.278,0-0.432-0.077-0.432-0.231
				c0-0.104,0.077-0.231,0.356-0.231c0.33,0,0.583-0.026,0.786-0.077c0.456-0.103,0.583-0.515,0.659-1.157
				c0.102-0.927,0.102-2.649,0.102-4.655v-3.859c0-3.318,0-3.936-0.025-4.63c-0.051-0.746-0.254-0.978-0.964-1.183
				c-0.178-0.051-0.558-0.077-0.888-0.077c-0.229,0-0.381-0.077-0.381-0.231c0-0.155,0.178-0.206,0.482-0.206
				c1.191,0,2.663,0.051,3.272,0.051c0.533,0,2.079-0.051,2.968-0.051c0.304,0,0.456,0.051,0.456,0.206
				c0,0.154-0.127,0.231-0.405,0.231c-0.178,0-0.381,0.026-0.635,0.077c-0.608,0.103-0.786,0.412-0.836,1.183
				c-0.052,0.694-0.052,1.492-0.052,4.81v0.463c0,0.128,0.076,0.154,0.151,0.154H149.692z"/>
			<path fill="#FFFFFF" d="M160.112,76.568c0-3.318,0-3.936-0.024-4.63c-0.051-0.746-0.254-0.978-0.964-1.183
				c-0.178-0.051-0.558-0.077-0.888-0.077c-0.229,0-0.381-0.077-0.381-0.231c0-0.155,0.178-0.206,0.508-0.206
				c1.166,0,2.587,0.051,3.222,0.051c0.71,0,5.656,0.026,6.088,0c0.405-0.025,0.761-0.102,0.938-0.128
				c0.127-0.025,0.253-0.103,0.354-0.103c0.128,0,0.153,0.103,0.153,0.206c0,0.155-0.127,0.412-0.178,1.415
				c-0.025,0.231-0.077,1.183-0.127,1.44c-0.025,0.103-0.076,0.36-0.254,0.36c-0.152,0-0.178-0.103-0.178-0.283
				c0-0.154-0.025-0.54-0.152-0.797c-0.178-0.386-0.354-0.694-1.471-0.797c-0.381-0.052-3.044-0.103-3.5-0.103
				c-0.103,0-0.153,0.077-0.153,0.206v5.401c0,0.129,0.025,0.231,0.153,0.231c0.506,0,3.398,0,3.905-0.051
				c0.533-0.051,0.862-0.103,1.065-0.334c0.178-0.154,0.254-0.283,0.355-0.283s0.178,0.103,0.178,0.231
				c0,0.129-0.051,0.489-0.178,1.595c-0.05,0.437-0.102,1.312-0.102,1.466c0,0.179-0.025,0.489-0.229,0.489
				c-0.151,0-0.203-0.077-0.203-0.181c-0.025-0.231-0.025-0.514-0.075-0.797c-0.128-0.438-0.406-0.772-1.244-0.849
				c-0.405-0.051-2.942-0.103-3.5-0.103c-0.102,0-0.127,0.103-0.127,0.231v1.749c0,0.746-0.025,2.598,0,3.242
				c0.051,1.491,0.736,1.825,3.019,1.825c0.584,0,1.522-0.025,2.105-0.283c0.559-0.257,0.812-0.72,0.964-1.62
				c0.051-0.231,0.102-0.334,0.254-0.334c0.178,0,0.202,0.282,0.202,0.515c0,0.488-0.177,1.979-0.303,2.417
				c-0.153,0.565-0.355,0.565-1.193,0.565c-1.674,0-3.019-0.025-4.108-0.077c-1.092-0.025-1.929-0.051-2.589-0.051
				c-0.253,0-0.735,0.025-1.268,0.025c-0.533,0.025-1.092,0.052-1.548,0.052c-0.278,0-0.431-0.077-0.431-0.231
				c0-0.104,0.075-0.231,0.355-0.231c0.329,0,0.583-0.026,0.786-0.077c0.457-0.103,0.583-0.515,0.66-1.157
				c0.1-0.927,0.1-2.649,0.1-4.655V76.568z"/>
			<path fill="#FFFFFF" d="M178.427,79.32c0,2.469,0,4.399,0.126,5.479c0.077,0.746,0.229,1.312,0.989,1.415
				c0.355,0.051,0.914,0.103,1.269,0.103c0.33,0,0.432,0.076,0.432,0.204c0,0.182-0.178,0.259-0.559,0.259
				c-1.598,0-3.196-0.077-3.856-0.077c-0.658,0-2.257,0.077-3.221,0.077c-0.355,0-0.533-0.052-0.533-0.259
				c0-0.128,0.102-0.204,0.38-0.204c0.382,0,0.687-0.052,0.915-0.103c0.506-0.103,0.633-0.669,0.734-1.415
				c0.127-1.08,0.127-3.01,0.127-5.479v-4.526c0-3.91,0-4.63-0.05-5.454c-0.052-0.874-0.254-1.286-1.092-1.466
				c-0.203-0.052-0.635-0.077-0.989-0.077c-0.254,0-0.432-0.051-0.432-0.206c0-0.205,0.203-0.257,0.584-0.257
				c0.659,0,1.396,0.026,2.055,0.026c0.66,0.026,1.243,0.051,1.598,0.051c0.965,0,6.114,0,6.697-0.025
				c0.482-0.026,0.787-0.026,1.04-0.103c0.151-0.052,0.279-0.154,0.406-0.154c0.101,0,0.177,0.103,0.177,0.231
				c0,0.18-0.126,0.489-0.202,1.157c-0.026,0.257-0.077,1.774-0.127,2.083c-0.025,0.206-0.076,0.36-0.254,0.36
				c-0.177,0-0.229-0.128-0.253-0.411c0-0.206,0-0.618-0.152-0.978c-0.178-0.36-0.711-0.746-1.674-0.771l-3.907-0.078
				c-0.152,0-0.228,0.078-0.228,0.36v6.43c0,0.154,0.024,0.232,0.177,0.232l3.247-0.026c0.432,0,0.786,0,1.141-0.026
				c0.483-0.026,0.838-0.129,1.092-0.463c0.126-0.154,0.178-0.257,0.329-0.257c0.103,0,0.152,0.077,0.152,0.231
				c0,0.155-0.127,0.797-0.202,1.595c-0.051,0.515-0.102,1.698-0.102,1.878c0,0.231,0,0.489-0.255,0.489
				c-0.151,0-0.202-0.181-0.202-0.36c0-0.18-0.051-0.489-0.152-0.797c-0.127-0.36-0.507-0.823-1.293-0.926
				c-0.635-0.077-3.323-0.077-3.755-0.077c-0.127,0-0.177,0.051-0.177,0.231V79.32z"/>
			<path fill="#FFFFFF" d="M189.001,76.568c0-3.318,0-3.936-0.025-4.63c-0.052-0.746-0.279-1.003-0.761-1.157
				c-0.254-0.077-0.533-0.103-0.812-0.103c-0.229,0-0.354-0.052-0.354-0.257c0-0.129,0.177-0.181,0.531-0.181
				c0.838,0,2.358,0.051,2.993,0.051c0.559,0,2.004-0.051,2.867-0.051c0.279,0,0.457,0.051,0.457,0.181
				c0,0.205-0.127,0.257-0.354,0.257c-0.229,0-0.406,0.026-0.66,0.077c-0.609,0.103-0.786,0.412-0.838,1.183
				c-0.051,0.694-0.051,1.312-0.051,4.63v3.859c0,2.108,0,3.857,0.103,4.784c0.074,0.591,0.229,0.926,0.887,1.028
				c0.305,0.051,0.812,0.077,1.143,0.077c0.253,0,0.354,0.128,0.354,0.231c0,0.154-0.178,0.231-0.432,0.231
				c-1.472,0-2.993-0.077-3.602-0.077c-0.509,0-2.029,0.077-2.918,0.077c-0.278,0-0.432-0.077-0.432-0.231
				c0-0.104,0.077-0.231,0.356-0.231c0.329,0,0.583-0.026,0.786-0.077c0.456-0.103,0.583-0.412,0.659-1.055
				c0.102-0.9,0.102-2.649,0.102-4.758V76.568z"/>
			<path fill="#FFFFFF" d="M197.802,76.568c0-3.318,0-3.936-0.025-4.63c-0.051-0.746-0.254-0.978-0.963-1.183
				c-0.178-0.051-0.558-0.077-0.889-0.077c-0.229,0-0.381-0.077-0.381-0.231c0-0.155,0.178-0.206,0.509-0.206
				c1.166,0,2.587,0.051,3.044,0.051c0.761,0,2.79-0.051,3.475-0.051c1.421,0,3.044,0.129,4.237,0.926
				c0.633,0.438,1.572,1.543,1.572,3.009c0,1.62-0.914,3.061-3.096,4.836c1.979,2.469,3.553,4.449,4.896,5.812
				c1.243,1.261,2.029,1.363,2.384,1.44c0.229,0.052,0.355,0.052,0.534,0.052c0.177,0,0.277,0.128,0.277,0.231
				c0,0.18-0.151,0.231-0.432,0.231h-2.129c-1.244,0-1.853-0.128-2.436-0.438c-0.964-0.489-1.801-1.518-3.044-3.215
				c-0.889-1.183-1.827-2.649-2.106-2.984c-0.126-0.128-0.253-0.154-0.406-0.154l-2.004-0.052c-0.101,0-0.177,0.052-0.177,0.18v0.31
				c0,2.031,0.025,3.729,0.126,4.655c0.077,0.643,0.179,1.055,0.863,1.157c0.33,0.051,0.812,0.077,1.091,0.077
				c0.178,0,0.278,0.128,0.278,0.231c0,0.154-0.178,0.231-0.455,0.231c-1.295,0-3.146-0.077-3.476-0.077
				c-0.432,0-1.853,0.077-2.741,0.077c-0.277,0-0.432-0.077-0.432-0.231c0-0.104,0.077-0.231,0.357-0.231
				c0.329,0,0.583-0.026,0.786-0.077c0.456-0.103,0.583-0.515,0.659-1.157c0.101-0.927,0.101-2.649,0.101-4.655V76.568z
				 M200.644,78.266c0,0.231,0.051,0.309,0.203,0.386c0.482,0.154,1.141,0.206,1.7,0.206c0.887,0,1.191-0.077,1.572-0.36
				c0.685-0.489,1.446-1.44,1.446-3.241c0-3.087-2.081-3.884-3.4-3.884c-0.559,0-1.09,0.025-1.318,0.077
				c-0.152,0.052-0.203,0.128-0.203,0.309V78.266z"/>
			<path fill="#FFFFFF" d="M215.048,76.568c0-3.318,0-3.936-0.025-4.63c-0.049-0.746-0.252-0.978-0.964-1.183
				c-0.177-0.051-0.558-0.077-0.887-0.077c-0.229,0-0.382-0.077-0.382-0.231c0-0.155,0.179-0.206,0.509-0.206
				c1.166,0,2.587,0.051,3.221,0.051c0.711,0,5.657,0.026,6.089,0c0.405-0.025,0.76-0.102,0.938-0.128
				c0.128-0.025,0.254-0.103,0.356-0.103c0.126,0,0.152,0.103,0.152,0.206c0,0.155-0.128,0.412-0.178,1.415
				c-0.025,0.231-0.077,1.183-0.128,1.44c-0.024,0.103-0.075,0.36-0.252,0.36c-0.154,0-0.179-0.103-0.179-0.283
				c0-0.154-0.024-0.54-0.152-0.797c-0.178-0.386-0.355-0.694-1.472-0.797c-0.381-0.052-3.044-0.103-3.5-0.103
				c-0.103,0-0.152,0.077-0.152,0.206v5.401c0,0.129,0.024,0.231,0.152,0.231c0.507,0,3.399,0,3.906-0.051
				c0.533-0.051,0.862-0.103,1.065-0.334c0.177-0.154,0.254-0.283,0.355-0.283s0.178,0.103,0.178,0.231
				c0,0.129-0.051,0.489-0.178,1.595c-0.051,0.437-0.102,1.312-0.102,1.466c0,0.179-0.025,0.489-0.229,0.489
				c-0.152,0-0.203-0.077-0.203-0.181c-0.025-0.231-0.025-0.514-0.076-0.797c-0.127-0.438-0.405-0.772-1.242-0.849
				c-0.405-0.051-2.943-0.103-3.501-0.103c-0.103,0-0.127,0.103-0.127,0.231v1.749c0,0.746-0.024,2.598,0,3.242
				c0.05,1.491,0.735,1.825,3.02,1.825c0.583,0,1.521-0.025,2.104-0.283c0.559-0.257,0.812-0.72,0.964-1.62
				c0.051-0.231,0.102-0.334,0.253-0.334c0.178,0,0.203,0.282,0.203,0.515c0,0.488-0.177,1.979-0.303,2.417
				c-0.153,0.565-0.356,0.565-1.192,0.565c-1.675,0-3.02-0.025-4.11-0.077c-1.091-0.025-1.929-0.051-2.587-0.051
				c-0.254,0-0.736,0.025-1.269,0.025c-0.533,0.025-1.092,0.052-1.548,0.052c-0.278,0-0.431-0.077-0.431-0.231
				c0-0.104,0.075-0.231,0.354-0.231c0.329,0,0.584-0.026,0.786-0.077c0.458-0.103,0.584-0.515,0.66-1.157
				c0.101-0.927,0.101-2.649,0.101-4.655V76.568z"/>
		</g>
	</g>
</g>
</svg>
