<?xml version="1.0" encoding="utf-8"?>
<!-- Generator: Adobe Illustrator 15.0.2, SVG Export Plug-In . SVG Version: 6.00 Build 0)  -->
<!DOCTYPE svg PUBLIC "-//W3C//DTD SVG 1.1//EN" "http://www.w3.org/Graphics/SVG/1.1/DTD/svg11.dtd">
<svg version="1.1" id="Layer_1" xmlns="http://www.w3.org/2000/svg" xmlns:xlink="http://www.w3.org/1999/xlink" x="0px" y="0px"
	 width="90px" height="163px" viewBox="0 0 90 163" enable-background="new 0 0 90 163" xml:space="preserve">
<g id="_x33_SI">
	<g opacity="0.5">
		<g>
			<g>
				<path fill="#FFFFFF" d="M19.868,128.125v17.816c0,2.838-0.442,4.967-1.33,6.387c-0.887,1.419-1.862,2.129-2.927,2.129
					s-2.04-0.71-2.927-2.129c-0.887-1.42-1.331-3.549-1.331-6.387v-17.816H0v17.816c0,2.838,0.444,5.322,1.331,7.45
					c0.887,2.129,2.071,3.903,3.547,5.323c1.479,1.418,3.149,2.482,5.012,3.191c1.861,0.711,3.77,1.065,5.721,1.065
					s3.857-0.354,5.721-1.065c1.863-0.709,3.534-1.773,5.012-3.191c1.479-1.42,2.66-3.194,3.548-5.323
					c0.887-2.128,1.33-4.612,1.33-7.45v-17.816H19.868z"/>
				<path fill="#FFFFFF" d="M11.354,34.846V17.029c0-2.838,0.444-4.967,1.331-6.386c0.887-1.418,1.862-2.128,2.927-2.128
					s2.04,0.71,2.927,2.128c0.888,1.419,1.33,3.548,1.33,6.386v17.816h11.354V17.029c0-2.838-0.443-5.321-1.33-7.449
					c-0.888-2.13-2.069-3.903-3.548-5.323c-1.479-1.418-3.148-2.484-5.012-3.193C19.469,0.355,17.562,0,15.611,0
					s-3.859,0.355-5.721,1.064C8.028,1.773,6.355,2.839,4.878,4.257C3.4,5.677,2.218,7.45,1.331,9.58
					C0.444,11.708,0,14.191,0,17.029v17.816H11.354z"/>
			</g>
			<g>
				<path fill="#FFFFFF" d="M59.189,128.125v17.816c0,2.838-0.441,4.967-1.328,6.387c-0.887,1.419-1.863,2.129-2.929,2.129
					c-1.063,0-2.039-0.71-2.927-2.129c-0.886-1.42-1.33-3.549-1.33-6.387v-17.816H39.322v17.816c0,2.838,0.444,5.322,1.33,7.45
					c0.888,2.129,2.072,3.903,3.55,5.323c1.478,1.418,3.147,2.482,5.011,3.191c1.861,0.711,3.771,1.065,5.72,1.065
					c1.954,0,3.858-0.354,5.722-1.065c1.864-0.709,3.534-1.773,5.012-3.191c1.479-1.42,2.662-3.194,3.549-5.323
					c0.887-2.128,1.33-4.612,1.33-7.45v-17.816H59.189z"/>
				<path fill="#FFFFFF" d="M50.676,34.846V17.029c0-2.838,0.444-4.967,1.33-6.386c0.888-1.418,1.863-2.128,2.927-2.128
					c1.065,0,2.042,0.71,2.929,2.128c0.887,1.419,1.328,3.548,1.328,6.386v17.816h11.355V17.029c0-2.838-0.443-5.321-1.33-7.449
					c-0.887-2.13-2.07-3.903-3.549-5.323c-1.479-1.418-3.147-2.484-5.012-3.193C58.791,0.355,56.887,0,54.933,0
					c-1.949,0-3.858,0.355-5.72,1.064c-1.863,0.709-3.535,1.774-5.011,3.193c-1.479,1.419-2.662,3.193-3.55,5.323
					c-0.886,2.128-1.33,4.611-1.33,7.449v17.816H50.676z"/>
			</g>
			<g>
				<rect x="78.646" y="128.125" fill="#FFFFFF" width="11.354" height="33.863"/>
				<rect x="78.646" y="17.029" fill="#FFFFFF" width="11.354" height="17.816"/>
			</g>
		</g>
	</g>
	<g>
		<g>
			<g>
				<rect y="109.042" fill="#FFFFFF" width="11.354" height="14.909"/>
				<path fill="#FFFFFF" d="M30.157,70.959c0.532-1.065,0.843-2.099,0.931-3.104c0.09-1.005,0.134-1.863,0.134-2.573V39.02H19.868
					v26.174c0,1.42-0.163,2.527-0.487,3.326c-0.325,0.799-0.754,1.374-1.287,1.729c-0.531,0.355-1.139,0.563-1.817,0.623
					c-0.681,0.059-1.376,0.088-2.085,0.088H8.515v11.354h5.676c0.709,0,1.404,0.031,2.085,0.088
					c0.679,0.061,1.286,0.268,1.817,0.621c0.533,0.355,0.962,0.918,1.287,1.686c0.324,0.77,0.487,1.863,0.487,3.282v35.962h11.354
					V87.989c0-0.71-0.044-1.567-0.134-2.572c-0.088-1.006-0.398-2.04-0.931-3.104s-1.375-2.099-2.528-3.105
					c-1.152-1.004-2.793-1.862-4.922-2.571c2.129-0.71,3.77-1.565,4.922-2.572C28.782,73.059,29.625,72.022,30.157,70.959z"/>
				<rect y="39.02" fill="#FFFFFF" width="11.354" height="14.909"/>
			</g>
			<g>
				<rect x="39.324" y="109.042" fill="#FFFFFF" width="11.354" height="14.909"/>
				<path fill="#FFFFFF" d="M51.086,39.02H39.664c0.35,25.241,5.211,32.143,9.92,38.818c4.579,6.49,9.307,13.217,9.445,46.113
					h11.419c-0.152-36.539-5.935-44.762-11.534-52.697C54.88,65.535,51.376,60.549,51.086,39.02z"/>
				<rect x="59.192" y="39.02" fill="#FFFFFF" width="11.353" height="14.909"/>
			</g>
			<path fill="#FFFFFF" d="M90,39.02v84.932H78.646V39.02H90z"/>
		</g>
	</g>
</g>
</svg>
