<?xml version="1.0" encoding="utf-8"?>
<!-- Generator: Adobe Illustrator 15.0.2, SVG Export Plug-In . SVG Version: 6.00 Build 0)  -->
<!DOCTYPE svg PUBLIC "-//W3C//DTD SVG 1.1//EN" "http://www.w3.org/Graphics/SVG/1.1/DTD/svg11.dtd">
<svg version="1.1" id="Layer_1" xmlns="http://www.w3.org/2000/svg" xmlns:xlink="http://www.w3.org/1999/xlink" x="0px" y="0px"
	 width="260px" height="53px" viewBox="0 0 260 53" enable-background="new 0 0 260 53" xml:space="preserve">
<g id="Vidwic">
	<path fill="#FFFFFF" d="M28.766,28.383C18.07,1.102,17.075,0,2.457,0H0l0.853,1.713C22.081,52.353,22.486,53,33.754,53h0.97
		l22.84-53h-2.219C40.759,0,39.923,1.092,28.766,28.383z"/>
	<path fill="#FFFFFF" d="M61.695,0H60v53h1.695c14.617,0,14.617-1.195,14.617-26.5S76.312,0,61.695,0z"/>
	<path fill="#FFFFFF" d="M91.566,0H76.895l27.547,26.463L76.902,53h14.664c14.312,0,26.402-11.98,26.402-26.539
		C117.969,11.944,105.879,0,91.566,0z"/>
	<path fill="#FFFFFF" d="M171.598,28.859c-4.061-13.338-6.266-20.269-8.014-24.037C161.396,0.107,159.529,0,156.42,0h-6.311
		l-9.512,29.078C133.123,1.147,132.088,0,117.875,0h-1.969l16.004,53h1.094c13.693,0,14.74-1.024,23.072-26.042
		C163.955,51.976,164.992,53,178.77,53h1.072l17.129-53h-2.008C180.857,0,179.807,0.899,171.598,28.859z"/>
	<path fill="#FFFFFF" d="M201.277,0H199v53h2.277c14.619,0,14.619-1.195,14.619-26.5S215.896,0,201.277,0z"/>
	<path fill="#FFFFFF" d="M260,0h-14.672c-14.312,0-26.402,11.944-26.402,26.461c0,14.558,12.09,26.539,26.402,26.539h14.664
		l-27.539-26.537L260,0z"/>
</g>
</svg>
